%TF.GenerationSoftware,KiCad,Pcbnew,9.0.7*%
%TF.CreationDate,2026-01-13T18:02:55-06:00*%
%TF.ProjectId,ActivePrecharge RevB,41637469-7665-4507-9265-636861726765,rev?*%
%TF.SameCoordinates,Original*%
%TF.FileFunction,Soldermask,Bot*%
%TF.FilePolarity,Negative*%
%FSLAX46Y46*%
G04 Gerber Fmt 4.6, Leading zero omitted, Abs format (unit mm)*
G04 Created by KiCad (PCBNEW 9.0.7) date 2026-01-13 18:02:55*
%MOMM*%
%LPD*%
G01*
G04 APERTURE LIST*
G04 Aperture macros list*
%AMRoundRect*
0 Rectangle with rounded corners*
0 $1 Rounding radius*
0 $2 $3 $4 $5 $6 $7 $8 $9 X,Y pos of 4 corners*
0 Add a 4 corners polygon primitive as box body*
4,1,4,$2,$3,$4,$5,$6,$7,$8,$9,$2,$3,0*
0 Add four circle primitives for the rounded corners*
1,1,$1+$1,$2,$3*
1,1,$1+$1,$4,$5*
1,1,$1+$1,$6,$7*
1,1,$1+$1,$8,$9*
0 Add four rect primitives between the rounded corners*
20,1,$1+$1,$2,$3,$4,$5,0*
20,1,$1+$1,$4,$5,$6,$7,0*
20,1,$1+$1,$6,$7,$8,$9,0*
20,1,$1+$1,$8,$9,$2,$3,0*%
%AMFreePoly0*
4,1,22,0.945671,0.830970,1.026777,0.776777,1.080970,0.695671,1.100000,0.600000,1.100000,-0.600000,1.080970,-0.695671,1.026777,-0.776777,0.945671,-0.830970,0.850000,-0.850000,-0.596447,-0.850000,-0.692118,-0.830970,-0.773224,-0.776777,-1.026777,-0.523224,-1.080970,-0.442118,-1.100000,-0.346447,-1.100000,0.600000,-1.080970,0.695671,-1.026777,0.776777,-0.945671,0.830970,-0.850000,0.850000,
0.850000,0.850000,0.945671,0.830970,0.945671,0.830970,$1*%
G04 Aperture macros list end*
%ADD10C,2.800000*%
%ADD11C,3.600000*%
%ADD12C,6.400000*%
%ADD13C,2.604000*%
%ADD14R,1.700000X1.700000*%
%ADD15C,1.300000*%
%ADD16RoundRect,0.250000X-0.850000X-0.600000X0.850000X-0.600000X0.850000X0.600000X-0.850000X0.600000X0*%
%ADD17O,2.200000X1.700000*%
%ADD18C,1.700000*%
%ADD19RoundRect,0.250000X-0.600000X-0.600000X0.600000X-0.600000X0.600000X0.600000X-0.600000X0.600000X0*%
%ADD20FreePoly0,90.000000*%
%ADD21O,1.700000X2.200000*%
%ADD22RoundRect,0.102000X0.625000X0.625000X-0.625000X0.625000X-0.625000X-0.625000X0.625000X-0.625000X0*%
%ADD23C,1.454000*%
G04 APERTURE END LIST*
D10*
%TO.C,TP6*%
X161750000Y-120900000D03*
%TD*%
D11*
%TO.C,H2*%
X201000000Y-76500000D03*
D12*
X201000000Y-76500000D03*
%TD*%
D11*
%TO.C,H1*%
X115000000Y-76500000D03*
D12*
X115000000Y-76500000D03*
%TD*%
D10*
%TO.C,TP1*%
X117500000Y-114300000D03*
%TD*%
D13*
%TO.C,F3*%
X175310000Y-87190000D03*
X175310000Y-90590000D03*
X185230000Y-87190000D03*
X185230000Y-90590000D03*
%TD*%
D14*
%TO.C,J5*%
X136550000Y-124600000D03*
%TD*%
D10*
%TO.C,TP3*%
X182572500Y-113500000D03*
%TD*%
D15*
%TO.C,J3*%
X195040000Y-114750000D03*
D16*
X196380000Y-111000000D03*
D17*
X196380000Y-113500000D03*
X196380000Y-116000000D03*
X196380000Y-118500000D03*
%TD*%
D14*
%TO.C,J7*%
X174645000Y-83325000D03*
D18*
X174645000Y-80785000D03*
%TD*%
D15*
%TO.C,J2*%
X195040000Y-85190000D03*
D16*
X196380000Y-81440000D03*
D17*
X196380000Y-83940000D03*
X196380000Y-86440000D03*
X196380000Y-88940000D03*
%TD*%
D10*
%TO.C,TP4*%
X154000000Y-77800000D03*
%TD*%
%TO.C,TP8*%
X183500000Y-96250000D03*
%TD*%
D13*
%TO.C,F2*%
X128700000Y-93580000D03*
X125300000Y-93580000D03*
X128700000Y-103500000D03*
X125300000Y-103500000D03*
%TD*%
D11*
%TO.C,H3*%
X115000000Y-123500000D03*
D12*
X115000000Y-123500000D03*
%TD*%
D15*
%TO.C,J4*%
X192550000Y-100000000D03*
D19*
X193890000Y-93750000D03*
D18*
X193890000Y-96250000D03*
X193890000Y-98750000D03*
X193890000Y-101250000D03*
X193890000Y-103750000D03*
X193890000Y-106250000D03*
X196390000Y-93750000D03*
X196390000Y-96250000D03*
X196390000Y-98750000D03*
X196390000Y-101250000D03*
X196390000Y-103750000D03*
X196390000Y-106250000D03*
%TD*%
D14*
%TO.C,J6*%
X136550000Y-74900000D03*
%TD*%
D13*
%TO.C,F1*%
X121250000Y-93575000D03*
X117850000Y-93575000D03*
X121250000Y-103495000D03*
X117850000Y-103495000D03*
%TD*%
D10*
%TO.C,TP2*%
X182572500Y-101800000D03*
%TD*%
D11*
%TO.C,H4*%
X201000000Y-123500000D03*
D12*
X201000000Y-123500000D03*
%TD*%
D15*
%TO.C,J1*%
X121250000Y-86408602D03*
D20*
X120000000Y-85068602D03*
D21*
X122500000Y-85068602D03*
X125000000Y-85068602D03*
%TD*%
D10*
%TO.C,TP10*%
X168500000Y-120900000D03*
%TD*%
%TO.C,TP9*%
X156000000Y-120900000D03*
%TD*%
D22*
%TO.C,PS1*%
X168740000Y-88225000D03*
D23*
X166200000Y-88225000D03*
X163660000Y-88225000D03*
X161120000Y-88225000D03*
%TD*%
D10*
%TO.C,TP7*%
X178440000Y-96250000D03*
%TD*%
%TO.C,TP5*%
X160150000Y-77800000D03*
%TD*%
%TO.C,TP11*%
X174500000Y-120900000D03*
%TD*%
M02*
