%TF.GenerationSoftware,KiCad,Pcbnew,9.0.7*%
%TF.CreationDate,2026-01-13T18:02:55-06:00*%
%TF.ProjectId,ActivePrecharge RevB,41637469-7665-4507-9265-636861726765,rev?*%
%TF.SameCoordinates,Original*%
%TF.FileFunction,Copper,L2,Bot*%
%TF.FilePolarity,Positive*%
%FSLAX46Y46*%
G04 Gerber Fmt 4.6, Leading zero omitted, Abs format (unit mm)*
G04 Created by KiCad (PCBNEW 9.0.7) date 2026-01-13 18:02:55*
%MOMM*%
%LPD*%
G01*
G04 APERTURE LIST*
G04 Aperture macros list*
%AMRoundRect*
0 Rectangle with rounded corners*
0 $1 Rounding radius*
0 $2 $3 $4 $5 $6 $7 $8 $9 X,Y pos of 4 corners*
0 Add a 4 corners polygon primitive as box body*
4,1,4,$2,$3,$4,$5,$6,$7,$8,$9,$2,$3,0*
0 Add four circle primitives for the rounded corners*
1,1,$1+$1,$2,$3*
1,1,$1+$1,$4,$5*
1,1,$1+$1,$6,$7*
1,1,$1+$1,$8,$9*
0 Add four rect primitives between the rounded corners*
20,1,$1+$1,$2,$3,$4,$5,0*
20,1,$1+$1,$4,$5,$6,$7,0*
20,1,$1+$1,$6,$7,$8,$9,0*
20,1,$1+$1,$8,$9,$2,$3,0*%
%AMFreePoly0*
4,1,22,0.945671,0.830970,1.026777,0.776777,1.080970,0.695671,1.100000,0.600000,1.100000,-0.600000,1.080970,-0.695671,1.026777,-0.776777,0.945671,-0.830970,0.850000,-0.850000,-0.596447,-0.850000,-0.692118,-0.830970,-0.773224,-0.776777,-1.026777,-0.523224,-1.080970,-0.442118,-1.100000,-0.346447,-1.100000,0.600000,-1.080970,0.695671,-1.026777,0.776777,-0.945671,0.830970,-0.850000,0.850000,
0.850000,0.850000,0.945671,0.830970,0.945671,0.830970,$1*%
G04 Aperture macros list end*
%TA.AperFunction,ComponentPad*%
%ADD10C,2.800000*%
%TD*%
%TA.AperFunction,ComponentPad*%
%ADD11C,3.600000*%
%TD*%
%TA.AperFunction,ConnectorPad*%
%ADD12C,6.400000*%
%TD*%
%TA.AperFunction,ComponentPad*%
%ADD13C,2.400000*%
%TD*%
%TA.AperFunction,ComponentPad*%
%ADD14R,1.700000X1.700000*%
%TD*%
%TA.AperFunction,ComponentPad*%
%ADD15RoundRect,0.250000X-0.850000X-0.600000X0.850000X-0.600000X0.850000X0.600000X-0.850000X0.600000X0*%
%TD*%
%TA.AperFunction,ComponentPad*%
%ADD16O,2.200000X1.700000*%
%TD*%
%TA.AperFunction,ComponentPad*%
%ADD17C,1.700000*%
%TD*%
%TA.AperFunction,ComponentPad*%
%ADD18RoundRect,0.250000X-0.600000X-0.600000X0.600000X-0.600000X0.600000X0.600000X-0.600000X0.600000X0*%
%TD*%
%TA.AperFunction,ComponentPad*%
%ADD19FreePoly0,90.000000*%
%TD*%
%TA.AperFunction,ComponentPad*%
%ADD20O,1.700000X2.200000*%
%TD*%
%TA.AperFunction,ComponentPad*%
%ADD21R,1.250000X1.250000*%
%TD*%
%TA.AperFunction,ComponentPad*%
%ADD22C,1.250000*%
%TD*%
%TA.AperFunction,ViaPad*%
%ADD23C,0.600000*%
%TD*%
%TA.AperFunction,Conductor*%
%ADD24C,0.500000*%
%TD*%
%TA.AperFunction,Conductor*%
%ADD25C,1.000000*%
%TD*%
%TA.AperFunction,Conductor*%
%ADD26C,0.200000*%
%TD*%
G04 APERTURE END LIST*
D10*
%TO.P,TP6,1,1*%
%TO.N,/Vin1*%
X161750000Y-120900000D03*
%TD*%
D11*
%TO.P,H2,1,1*%
%TO.N,unconnected-(H2-Pad1)*%
X201000000Y-76500000D03*
D12*
%TO.N,unconnected-(H2-Pad1)_1*%
X201000000Y-76500000D03*
%TD*%
D11*
%TO.P,H1,1,1*%
%TO.N,unconnected-(H1-Pad1)*%
X115000000Y-76500000D03*
D12*
%TO.N,unconnected-(H1-Pad1)_2*%
X115000000Y-76500000D03*
%TD*%
D10*
%TO.P,TP1,1,1*%
%TO.N,HVGND*%
X117500000Y-114300000D03*
%TD*%
D13*
%TO.P,F3,1*%
%TO.N,3V3*%
X175310000Y-87190000D03*
X175310000Y-90590000D03*
%TO.P,F3,2*%
%TO.N,/3V3_PreFuse*%
X185230000Y-87190000D03*
X185230000Y-90590000D03*
%TD*%
D14*
%TO.P,J5,1,Pin_1*%
%TO.N,HV+*%
X136550000Y-124600000D03*
%TD*%
D10*
%TO.P,TP3,1,1*%
%TO.N,/VOut2*%
X182572500Y-113500000D03*
%TD*%
D15*
%TO.P,J3,1,Con+(24V)*%
%TO.N,/Main+*%
X196380000Y-111000000D03*
D16*
%TO.P,J3,2,Con-*%
%TO.N,/Main-*%
X196380000Y-113500000D03*
%TO.P,J3,3,Sense-*%
%TO.N,/MainSense-*%
X196380000Y-116000000D03*
%TO.P,J3,4,Sense+(24V)*%
%TO.N,/MainSense+*%
X196380000Y-118500000D03*
%TD*%
D14*
%TO.P,J7,1,Pin_1*%
%TO.N,3V3*%
X174645000Y-83325000D03*
D17*
%TO.P,J7,2,Pin_2*%
%TO.N,LVGND*%
X174645000Y-80785000D03*
%TD*%
D15*
%TO.P,J2,1,Con+(24V)*%
%TO.N,/Pre+*%
X196380000Y-81440000D03*
D16*
%TO.P,J2,2,Con-*%
%TO.N,/Pre-*%
X196380000Y-83940000D03*
%TO.P,J2,3,Sense-*%
%TO.N,/PreSense-*%
X196380000Y-86440000D03*
%TO.P,J2,4,Sense+(24V)*%
%TO.N,/PreSense+*%
X196380000Y-88940000D03*
%TD*%
D10*
%TO.P,TP4,1,1*%
%TO.N,REG_3V3*%
X154000000Y-77800000D03*
%TD*%
%TO.P,TP8,1,1*%
%TO.N,/V1-*%
X183500000Y-96250000D03*
%TD*%
D13*
%TO.P,F2,1*%
%TO.N,/HV-_PreFuse*%
X128700000Y-93580000D03*
X125300000Y-93580000D03*
%TO.P,F2,2*%
%TO.N,HV-*%
X128700000Y-103500000D03*
X125300000Y-103500000D03*
%TD*%
D11*
%TO.P,H3,1,1*%
%TO.N,unconnected-(H3-Pad1)_2*%
X115000000Y-123500000D03*
D12*
%TO.N,unconnected-(H3-Pad1)*%
X115000000Y-123500000D03*
%TD*%
D18*
%TO.P,J4,1,Pin_1*%
%TO.N,/3V3_PreFuse*%
X193890000Y-93750000D03*
D17*
%TO.P,J4,2,Pin_2*%
%TO.N,/PreSense+*%
X193890000Y-96250000D03*
%TO.P,J4,3,Pin_3*%
%TO.N,/Pre+*%
X193890000Y-98750000D03*
%TO.P,J4,4,Pin_4*%
%TO.N,/MainSense+*%
X193890000Y-101250000D03*
%TO.P,J4,5,Pin_5*%
%TO.N,/Main+*%
X193890000Y-103750000D03*
%TO.P,J4,6,Pin_6*%
%TO.N,LVGND*%
X193890000Y-106250000D03*
%TO.P,J4,7,Pin_7*%
%TO.N,/VOut1*%
X196390000Y-93750000D03*
%TO.P,J4,8,Pin_8*%
%TO.N,/PreSense-*%
X196390000Y-96250000D03*
%TO.P,J4,9,Pin_9*%
%TO.N,/Pre-*%
X196390000Y-98750000D03*
%TO.P,J4,10,Pin_10*%
%TO.N,/MainSense-*%
X196390000Y-101250000D03*
%TO.P,J4,11,Pin_11*%
%TO.N,/Main-*%
X196390000Y-103750000D03*
%TO.P,J4,12,Pin_12*%
%TO.N,/VOut2*%
X196390000Y-106250000D03*
%TD*%
D14*
%TO.P,J6,1,Pin_1*%
%TO.N,HV-*%
X136550000Y-74900000D03*
%TD*%
D13*
%TO.P,F1,1*%
%TO.N,/HV+_PreFuse*%
X121250000Y-93575000D03*
X117850000Y-93575000D03*
%TO.P,F1,2*%
%TO.N,/HV+_Fused*%
X121250000Y-103495000D03*
X117850000Y-103495000D03*
%TD*%
D10*
%TO.P,TP2,1,1*%
%TO.N,/VOut1*%
X182572500Y-101800000D03*
%TD*%
D11*
%TO.P,H4,1,1*%
%TO.N,unconnected-(H4-Pad1)_2*%
X201000000Y-123500000D03*
D12*
%TO.N,unconnected-(H4-Pad1)_1*%
X201000000Y-123500000D03*
%TD*%
D19*
%TO.P,J1,1,Pin_1*%
%TO.N,/HV+_PreFuse*%
X120000000Y-85068602D03*
D20*
%TO.P,J1,2,Pin_2*%
%TO.N,HVGND*%
X122500000Y-85068602D03*
%TO.P,J1,3,Pin_3*%
%TO.N,/HV-_PreFuse*%
X125000000Y-85068602D03*
%TD*%
D10*
%TO.P,TP10,1,1*%
%TO.N,/V2+*%
X168500000Y-120900000D03*
%TD*%
%TO.P,TP9,1,1*%
%TO.N,/Vin2*%
X156000000Y-120900000D03*
%TD*%
D21*
%TO.P,PS1,1,-VIN*%
%TO.N,LVGND*%
X168740000Y-88225000D03*
D22*
%TO.P,PS1,2,+VIN*%
%TO.N,3V3*%
X166200000Y-88225000D03*
%TO.P,PS1,3,-VOUT*%
%TO.N,HVGND*%
X163660000Y-88225000D03*
%TO.P,PS1,4,+VOUT*%
%TO.N,ISO_5V*%
X161120000Y-88225000D03*
%TD*%
D10*
%TO.P,TP7,1,1*%
%TO.N,/V1+*%
X178440000Y-96250000D03*
%TD*%
%TO.P,TP5,1,1*%
%TO.N,ISO_5V*%
X160150000Y-77800000D03*
%TD*%
%TO.P,TP11,1,1*%
%TO.N,/V2-*%
X174500000Y-120900000D03*
%TD*%
D23*
%TO.N,HVGND*%
X111000000Y-97250000D03*
X123500000Y-127250000D03*
X111000000Y-94750000D03*
X129000000Y-106000000D03*
X153500000Y-116000000D03*
X136000000Y-127250000D03*
X133500000Y-72250000D03*
X159000000Y-85000000D03*
X159000000Y-93750000D03*
X126500000Y-106000000D03*
X146000000Y-127250000D03*
X157250000Y-116000000D03*
X128500000Y-72250000D03*
X118500000Y-72250000D03*
X146000000Y-72250000D03*
X163500000Y-127250000D03*
X164000000Y-81250000D03*
X162750000Y-81250000D03*
X143500000Y-72250000D03*
X111000000Y-107250000D03*
X126000000Y-72250000D03*
X136000000Y-72250000D03*
X153000000Y-93750000D03*
X156000000Y-72250000D03*
X121000000Y-127250000D03*
X143500000Y-127250000D03*
X159000000Y-92500000D03*
X156000000Y-127250000D03*
X161000000Y-127250000D03*
X111000000Y-114750000D03*
X163500000Y-98500000D03*
X159000000Y-83750000D03*
X141000000Y-72250000D03*
X124000000Y-106000000D03*
X131000000Y-72250000D03*
X128500000Y-127250000D03*
X151500000Y-80000000D03*
X162750000Y-80000000D03*
X159000000Y-82500000D03*
X163500000Y-93500000D03*
X163500000Y-96000000D03*
X163500000Y-116000000D03*
X111000000Y-92250000D03*
X122250000Y-88500000D03*
X157750000Y-82500000D03*
X153000000Y-96250000D03*
X151000000Y-72250000D03*
X157250000Y-106000000D03*
X156000000Y-116000000D03*
X111000000Y-82250000D03*
X158500000Y-127250000D03*
X123500000Y-72250000D03*
X153500000Y-108500000D03*
X151500000Y-90000000D03*
X163500000Y-108500000D03*
X163500000Y-118500000D03*
X158500000Y-72250000D03*
X138500000Y-127250000D03*
X141000000Y-127250000D03*
X163500000Y-113500000D03*
X159000000Y-90000000D03*
X151500000Y-87500000D03*
X161500000Y-90000000D03*
X111000000Y-102250000D03*
X164000000Y-80000000D03*
X153000000Y-95000000D03*
X156500000Y-90000000D03*
X122250000Y-89750000D03*
X148500000Y-72250000D03*
X158500000Y-106000000D03*
X159000000Y-86250000D03*
X121000000Y-72250000D03*
X151000000Y-127250000D03*
X111000000Y-84750000D03*
X151500000Y-85000000D03*
X156000000Y-106000000D03*
X126000000Y-127250000D03*
X163500000Y-106000000D03*
X158500000Y-116000000D03*
X153500000Y-72250000D03*
X138500000Y-72250000D03*
X111000000Y-117250000D03*
X161000000Y-72250000D03*
X153000000Y-92500000D03*
X153500000Y-106000000D03*
X154750000Y-106000000D03*
X133500000Y-127250000D03*
X111000000Y-99750000D03*
X163500000Y-103500000D03*
X111000000Y-87250000D03*
X111000000Y-104750000D03*
X163500000Y-91000000D03*
X111000000Y-79750000D03*
X163500000Y-72250000D03*
X111000000Y-89750000D03*
X163500000Y-111000000D03*
X111000000Y-112250000D03*
X151500000Y-82500000D03*
X111000000Y-109750000D03*
X131000000Y-127250000D03*
X163500000Y-101000000D03*
X153500000Y-127250000D03*
X118500000Y-127250000D03*
X148500000Y-127250000D03*
X154750000Y-116000000D03*
X111000000Y-119750000D03*
X156500000Y-82500000D03*
%TO.N,REG_3V3*%
X153000000Y-90000000D03*
X159675000Y-109000000D03*
X159675000Y-97500000D03*
%TO.N,LVGND*%
X181000000Y-127250000D03*
X170250000Y-85000000D03*
X188500000Y-104500000D03*
X188500000Y-109500000D03*
X183500000Y-127250000D03*
X189750000Y-109500000D03*
X168500000Y-127250000D03*
X183500000Y-72250000D03*
X196000000Y-72250000D03*
X203500000Y-94750000D03*
X167250000Y-106000000D03*
X173500000Y-72250000D03*
X187250000Y-109500000D03*
X171000000Y-127250000D03*
X189750000Y-105750000D03*
X167250000Y-103500000D03*
X203500000Y-84750000D03*
X203500000Y-89750000D03*
X189750000Y-104500000D03*
X173500000Y-96000000D03*
X188500000Y-105750000D03*
X171500000Y-82500000D03*
X203500000Y-117250000D03*
X203500000Y-114750000D03*
X198500000Y-127250000D03*
X176000000Y-96000000D03*
X198500000Y-72250000D03*
X167250000Y-118500000D03*
X189750000Y-95750000D03*
X167250000Y-116000000D03*
X188500000Y-127250000D03*
X176000000Y-127250000D03*
X203500000Y-82250000D03*
X187250000Y-93250000D03*
X172250000Y-104750000D03*
X171000000Y-104750000D03*
X170250000Y-81250000D03*
X188500000Y-107000000D03*
X171500000Y-81250000D03*
X172250000Y-106000000D03*
X172250000Y-110250000D03*
X193500000Y-127250000D03*
X173500000Y-127250000D03*
X167250000Y-101000000D03*
X192250000Y-115750000D03*
X203500000Y-107250000D03*
X188500000Y-72250000D03*
X203500000Y-102250000D03*
X171000000Y-72250000D03*
X167250000Y-111000000D03*
X170250000Y-82500000D03*
X173500000Y-93500000D03*
X188500000Y-97000000D03*
X171500000Y-86250000D03*
X193500000Y-72250000D03*
X167250000Y-93500000D03*
X170250000Y-83750000D03*
X166000000Y-127250000D03*
X168500000Y-72250000D03*
X171500000Y-85000000D03*
X178500000Y-127250000D03*
X203500000Y-119750000D03*
X196000000Y-127250000D03*
X176250000Y-101000000D03*
X188500000Y-93250000D03*
X189750000Y-97000000D03*
X189750000Y-107000000D03*
X203500000Y-97250000D03*
X174750000Y-96000000D03*
X170250000Y-86250000D03*
X203500000Y-92250000D03*
X169750000Y-118500000D03*
X186000000Y-72250000D03*
X181000000Y-72250000D03*
X203500000Y-112250000D03*
X203500000Y-109750000D03*
X167250000Y-98500000D03*
X174750000Y-93500000D03*
X171000000Y-106000000D03*
X176000000Y-72250000D03*
X187250000Y-94500000D03*
X167250000Y-96000000D03*
X189750000Y-93250000D03*
X203500000Y-99750000D03*
X169750000Y-116000000D03*
X178500000Y-72250000D03*
X191000000Y-72250000D03*
X203500000Y-104750000D03*
X186000000Y-127250000D03*
X171500000Y-83750000D03*
X172250000Y-93500000D03*
X169750000Y-117250000D03*
X201000000Y-72250000D03*
X192250000Y-109500000D03*
X167250000Y-113500000D03*
X176000000Y-93500000D03*
X167250000Y-108500000D03*
X203500000Y-87250000D03*
X191000000Y-127250000D03*
%TO.N,HV+*%
X137000000Y-98500000D03*
X151500000Y-96000000D03*
%TO.N,HV-*%
X134000000Y-86000000D03*
X131500000Y-91000000D03*
X131500000Y-116000000D03*
X131500000Y-106000000D03*
X134000000Y-113500000D03*
X131500000Y-103500000D03*
X134000000Y-98500000D03*
X131500000Y-96000000D03*
X131500000Y-86000000D03*
X131500000Y-83500000D03*
X131500000Y-81000000D03*
X134000000Y-81000000D03*
X131500000Y-118500000D03*
X134000000Y-93500000D03*
X131500000Y-98500000D03*
X131500000Y-88500000D03*
X134000000Y-101000000D03*
X131500000Y-101000000D03*
X151500000Y-106000000D03*
X134000000Y-118500000D03*
X131500000Y-113500000D03*
X134000000Y-88500000D03*
X131500000Y-93500000D03*
X131500000Y-111000000D03*
X134000000Y-111000000D03*
X134000000Y-106000000D03*
%TO.N,/HEAT_DISSIPATION*%
X148980000Y-89210000D03*
X146980000Y-109760000D03*
X145980000Y-81660000D03*
X146980000Y-91210000D03*
X145980000Y-90210000D03*
X148980000Y-109760000D03*
X147980000Y-77660000D03*
X144980000Y-97210000D03*
X139980000Y-77660000D03*
X148980000Y-91210000D03*
X146980000Y-84660000D03*
X148980000Y-93210000D03*
X144980000Y-91210000D03*
X141980000Y-102760000D03*
X140980000Y-120310000D03*
X148980000Y-107760000D03*
X140980000Y-118310000D03*
X144980000Y-118310000D03*
X140980000Y-82660000D03*
X148980000Y-116310000D03*
X141980000Y-115310000D03*
X142980000Y-82660000D03*
X140980000Y-107760000D03*
X147980000Y-119310000D03*
X145980000Y-117310000D03*
X147980000Y-110760000D03*
X148980000Y-82660000D03*
X139980000Y-81660000D03*
X147980000Y-102760000D03*
X140980000Y-122310000D03*
X141980000Y-77660000D03*
X146980000Y-118310000D03*
X147980000Y-85660000D03*
X143980000Y-115310000D03*
X142980000Y-84660000D03*
X141980000Y-79660000D03*
X144980000Y-84660000D03*
X139980000Y-94210000D03*
X146980000Y-116310000D03*
X148980000Y-101760000D03*
X145980000Y-79660000D03*
X145980000Y-119310000D03*
X144980000Y-107760000D03*
X141980000Y-92210000D03*
X145980000Y-121310000D03*
X148980000Y-120310000D03*
X148980000Y-103760000D03*
X147980000Y-108760000D03*
X142980000Y-91210000D03*
X141980000Y-119310000D03*
X145980000Y-104760000D03*
X143980000Y-79660000D03*
X141980000Y-121310000D03*
X140980000Y-78660000D03*
X146980000Y-120310000D03*
X143980000Y-121310000D03*
X145980000Y-94210000D03*
X144980000Y-82660000D03*
X147980000Y-94210000D03*
X144980000Y-116310000D03*
X144980000Y-80660000D03*
X146980000Y-89210000D03*
X142980000Y-118310000D03*
X142980000Y-103760000D03*
X140980000Y-84660000D03*
X148980000Y-78660000D03*
X142980000Y-78660000D03*
X139980000Y-92210000D03*
X145980000Y-108760000D03*
X148980000Y-80660000D03*
X148980000Y-122310000D03*
X141980000Y-108760000D03*
X143980000Y-92210000D03*
X146980000Y-76660000D03*
X141980000Y-83660000D03*
X146980000Y-97210000D03*
X146980000Y-122310000D03*
X147980000Y-98210000D03*
X143980000Y-108760000D03*
X146980000Y-101760000D03*
X139980000Y-83660000D03*
X144980000Y-109760000D03*
X143980000Y-119310000D03*
X143980000Y-94210000D03*
X146980000Y-103760000D03*
X143980000Y-104760000D03*
X143980000Y-81660000D03*
X146980000Y-107760000D03*
X144980000Y-120310000D03*
X139980000Y-90210000D03*
X139980000Y-117310000D03*
X147980000Y-92210000D03*
X142980000Y-120310000D03*
X145980000Y-83660000D03*
X139980000Y-119310000D03*
X142980000Y-93210000D03*
X146980000Y-78660000D03*
X141980000Y-117310000D03*
X141980000Y-81660000D03*
X139980000Y-115310000D03*
X145980000Y-92210000D03*
X143980000Y-117310000D03*
X147980000Y-115310000D03*
X139980000Y-108760000D03*
X147980000Y-83660000D03*
X146980000Y-82660000D03*
X147980000Y-117310000D03*
X145980000Y-115310000D03*
X147980000Y-121310000D03*
X139980000Y-104760000D03*
X139980000Y-79660000D03*
X143980000Y-83660000D03*
X142980000Y-109760000D03*
X140980000Y-109760000D03*
X142980000Y-97210000D03*
X144980000Y-78660000D03*
X148980000Y-114310000D03*
X145980000Y-77660000D03*
X148980000Y-97210000D03*
X143980000Y-102760000D03*
X144980000Y-103760000D03*
X140980000Y-91210000D03*
X142980000Y-107760000D03*
X140980000Y-97210000D03*
X139980000Y-121310000D03*
X141980000Y-94210000D03*
X147980000Y-123310000D03*
X147980000Y-90210000D03*
X147980000Y-81660000D03*
X147980000Y-79660000D03*
X148980000Y-118310000D03*
X144980000Y-122310000D03*
X147980000Y-104760000D03*
X140980000Y-80660000D03*
X144980000Y-93210000D03*
X142980000Y-116310000D03*
X140980000Y-93210000D03*
X142980000Y-122310000D03*
X145980000Y-102760000D03*
X146980000Y-114310000D03*
X143980000Y-77660000D03*
X142980000Y-80660000D03*
X139980000Y-102760000D03*
X140980000Y-116310000D03*
X148980000Y-84660000D03*
X141980000Y-104760000D03*
X146980000Y-80660000D03*
X140980000Y-103760000D03*
X143980000Y-90210000D03*
X146980000Y-93210000D03*
X141980000Y-90210000D03*
X148980000Y-76660000D03*
%TO.N,/V1-*%
X172250000Y-103500000D03*
%TD*%
D24*
%TO.N,REG_3V3*%
X159675000Y-97500000D02*
X159675000Y-109000000D01*
X159675000Y-96675000D02*
X153000000Y-90000000D01*
X159675000Y-97500000D02*
X159675000Y-96675000D01*
%TO.N,HV+*%
X139500000Y-96000000D02*
X151500000Y-96000000D01*
X137000000Y-98500000D02*
X139500000Y-96000000D01*
%TO.N,HV-*%
X134000000Y-106000000D02*
X151500000Y-106000000D01*
%TO.N,/MainSense-*%
X199132000Y-103992000D02*
X199132000Y-113248000D01*
X196390000Y-101250000D02*
X199132000Y-103992000D01*
X199132000Y-113248000D02*
X196380000Y-116000000D01*
D25*
%TO.N,/Main-*%
X198181000Y-112000844D02*
X196681844Y-113500000D01*
X196390000Y-103750000D02*
X198181000Y-105541000D01*
X196681844Y-113500000D02*
X196380000Y-113500000D01*
X198181000Y-105541000D02*
X198181000Y-112000844D01*
D24*
%TO.N,/PreSense+*%
X192589000Y-94949000D02*
X193890000Y-96250000D01*
X196380000Y-88940000D02*
X192589000Y-92731000D01*
X192589000Y-92731000D02*
X192589000Y-94949000D01*
%TO.N,/PreSense-*%
X197931000Y-94709000D02*
X196390000Y-96250000D01*
X196380000Y-86440000D02*
X197931000Y-87991000D01*
X197931000Y-87991000D02*
X197931000Y-94709000D01*
D25*
%TO.N,/Pre+*%
X191638000Y-96498000D02*
X193890000Y-98750000D01*
X196380000Y-81440000D02*
X191638000Y-86182000D01*
X191638000Y-86182000D02*
X191638000Y-96498000D01*
%TO.N,/Pre-*%
X196380000Y-83940000D02*
X198882000Y-86442000D01*
X198882000Y-96258000D02*
X196390000Y-98750000D01*
X198882000Y-86442000D02*
X198882000Y-96258000D01*
%TO.N,/Main+*%
X193890000Y-103750000D02*
X192339000Y-105301000D01*
X192339000Y-106959000D02*
X196380000Y-111000000D01*
X192339000Y-105301000D02*
X192339000Y-106959000D01*
D24*
%TO.N,/MainSense+*%
X191388000Y-113508000D02*
X196380000Y-118500000D01*
X191388000Y-103752000D02*
X191388000Y-113508000D01*
X193890000Y-101250000D02*
X191388000Y-103752000D01*
D26*
%TO.N,/V1-*%
X176250000Y-103500000D02*
X183500000Y-96250000D01*
X172250000Y-103500000D02*
X176250000Y-103500000D01*
%TD*%
%TA.AperFunction,Conductor*%
%TO.N,LVGND*%
G36*
X192143703Y-107896227D02*
G01*
X192150181Y-107902259D01*
X194943181Y-110695259D01*
X194976666Y-110756582D01*
X194979500Y-110782940D01*
X194979500Y-111643102D01*
X194985126Y-111689954D01*
X194990122Y-111731561D01*
X195045639Y-111872343D01*
X195137077Y-111992922D01*
X195257656Y-112084360D01*
X195257657Y-112084360D01*
X195257658Y-112084361D01*
X195398436Y-112139877D01*
X195486898Y-112150500D01*
X195777331Y-112150500D01*
X195844370Y-112170185D01*
X195890125Y-112222989D01*
X195900069Y-112292147D01*
X195871044Y-112355703D01*
X195815649Y-112392431D01*
X195688363Y-112433787D01*
X195688360Y-112433788D01*
X195527002Y-112516006D01*
X195380505Y-112622441D01*
X195380500Y-112622445D01*
X195252445Y-112750500D01*
X195252441Y-112750505D01*
X195146006Y-112897002D01*
X195063788Y-113058360D01*
X195063787Y-113058363D01*
X195007829Y-113230589D01*
X194979500Y-113409448D01*
X194979500Y-113590551D01*
X194999123Y-113714444D01*
X194990169Y-113783737D01*
X194945172Y-113837189D01*
X194900842Y-113855459D01*
X194776172Y-113880258D01*
X194776166Y-113880260D01*
X194611560Y-113948442D01*
X194463412Y-114047430D01*
X194337430Y-114173412D01*
X194238442Y-114321560D01*
X194170260Y-114486166D01*
X194170258Y-114486172D01*
X194135500Y-114660912D01*
X194135500Y-114660915D01*
X194135500Y-114839085D01*
X194135500Y-114839087D01*
X194135499Y-114839087D01*
X194170258Y-115013827D01*
X194170260Y-115013833D01*
X194238442Y-115178439D01*
X194337430Y-115326587D01*
X194463412Y-115452569D01*
X194463415Y-115452571D01*
X194611559Y-115551557D01*
X194776167Y-115619740D01*
X194832888Y-115631022D01*
X194900841Y-115644540D01*
X194962752Y-115676925D01*
X194997327Y-115737641D01*
X194999123Y-115785555D01*
X194979500Y-115909448D01*
X194979500Y-116021613D01*
X194959815Y-116088652D01*
X194907011Y-116134407D01*
X194837853Y-116144351D01*
X194774297Y-116115326D01*
X194767819Y-116109294D01*
X191974819Y-113316294D01*
X191941334Y-113254971D01*
X191938500Y-113228613D01*
X191938500Y-107989940D01*
X191958185Y-107922901D01*
X192010989Y-107877146D01*
X192080147Y-107867202D01*
X192143703Y-107896227D01*
G37*
%TD.AperFunction*%
%TA.AperFunction,Conductor*%
G36*
X195005270Y-107011717D02*
G01*
X195005270Y-107011716D01*
X195044622Y-106957554D01*
X195141466Y-106767488D01*
X195189440Y-106716692D01*
X195257261Y-106699897D01*
X195323396Y-106722434D01*
X195362435Y-106767488D01*
X195406002Y-106852992D01*
X195406003Y-106852993D01*
X195512441Y-106999494D01*
X195512445Y-106999499D01*
X195640500Y-107127554D01*
X195640505Y-107127558D01*
X195720829Y-107185916D01*
X195787006Y-107233996D01*
X195892484Y-107287740D01*
X195948360Y-107316211D01*
X195948363Y-107316212D01*
X196034476Y-107344191D01*
X196120591Y-107372171D01*
X196203429Y-107385291D01*
X196299449Y-107400500D01*
X196299454Y-107400500D01*
X196480551Y-107400500D01*
X196567259Y-107386765D01*
X196659409Y-107372171D01*
X196831639Y-107316211D01*
X196992994Y-107233996D01*
X197139501Y-107127553D01*
X197168819Y-107098235D01*
X197230142Y-107064750D01*
X197299834Y-107069734D01*
X197355767Y-107111606D01*
X197380184Y-107177070D01*
X197380500Y-107185916D01*
X197380500Y-109725500D01*
X197360815Y-109792539D01*
X197308011Y-109838294D01*
X197256500Y-109849500D01*
X196412940Y-109849500D01*
X196345901Y-109829815D01*
X196325259Y-109813181D01*
X194253135Y-107741057D01*
X194219650Y-107679734D01*
X194224634Y-107610042D01*
X194266506Y-107554109D01*
X194302499Y-107535445D01*
X194408215Y-107501096D01*
X194597554Y-107404622D01*
X194651716Y-107365270D01*
X194651717Y-107365270D01*
X194101059Y-106814612D01*
X194121591Y-106809111D01*
X194258408Y-106730119D01*
X194370119Y-106618408D01*
X194449111Y-106481591D01*
X194454612Y-106461059D01*
X195005270Y-107011717D01*
G37*
%TD.AperFunction*%
%TA.AperFunction,Conductor*%
G36*
X195157071Y-103886246D02*
G01*
X195176630Y-103886526D01*
X195190040Y-103895417D01*
X195205543Y-103899730D01*
X195218561Y-103914327D01*
X195234863Y-103925136D01*
X195241855Y-103940446D01*
X195252047Y-103951875D01*
X195262473Y-103985594D01*
X195267829Y-104019410D01*
X195323787Y-104191636D01*
X195323788Y-104191639D01*
X195364422Y-104271386D01*
X195405722Y-104352441D01*
X195406006Y-104352997D01*
X195512441Y-104499494D01*
X195512445Y-104499499D01*
X195640500Y-104627554D01*
X195640505Y-104627558D01*
X195768287Y-104720396D01*
X195787006Y-104733996D01*
X195872511Y-104777563D01*
X195948360Y-104816211D01*
X195948363Y-104816212D01*
X196034476Y-104844191D01*
X196120591Y-104872171D01*
X196145291Y-104876083D01*
X196154406Y-104877527D01*
X196217540Y-104907457D01*
X196254471Y-104966768D01*
X196253473Y-105036631D01*
X196214863Y-105094863D01*
X196154406Y-105122473D01*
X196120589Y-105127829D01*
X195948363Y-105183787D01*
X195948360Y-105183788D01*
X195787002Y-105266006D01*
X195640505Y-105372441D01*
X195640500Y-105372445D01*
X195512445Y-105500500D01*
X195512441Y-105500505D01*
X195406004Y-105647004D01*
X195362435Y-105732512D01*
X195314460Y-105783307D01*
X195246639Y-105800102D01*
X195180504Y-105777564D01*
X195141466Y-105732511D01*
X195044624Y-105542449D01*
X195005270Y-105488282D01*
X195005269Y-105488282D01*
X194454612Y-106038940D01*
X194449111Y-106018409D01*
X194370119Y-105881592D01*
X194258408Y-105769881D01*
X194121591Y-105690889D01*
X194101057Y-105685386D01*
X194651716Y-105134728D01*
X194597550Y-105095375D01*
X194407488Y-104998533D01*
X194356692Y-104950558D01*
X194339897Y-104882737D01*
X194362435Y-104816602D01*
X194407489Y-104777563D01*
X194492994Y-104733996D01*
X194639501Y-104627553D01*
X194767553Y-104499501D01*
X194873996Y-104352994D01*
X194956211Y-104191639D01*
X195012171Y-104019409D01*
X195017527Y-103985594D01*
X195024418Y-103971055D01*
X195026481Y-103955097D01*
X195039077Y-103940133D01*
X195047456Y-103922459D01*
X195061116Y-103913952D01*
X195071478Y-103901645D01*
X195090162Y-103895867D01*
X195106768Y-103885528D01*
X195122857Y-103885757D01*
X195138229Y-103881005D01*
X195157071Y-103886246D01*
G37*
%TD.AperFunction*%
%TA.AperFunction,Conductor*%
G36*
X201002702Y-71800617D02*
G01*
X201404202Y-71818147D01*
X201414937Y-71819087D01*
X201810693Y-71871189D01*
X201821331Y-71873064D01*
X202211043Y-71959462D01*
X202221483Y-71962260D01*
X202602168Y-72082289D01*
X202612315Y-72085982D01*
X202981102Y-72238739D01*
X202990893Y-72243305D01*
X203344942Y-72427611D01*
X203354310Y-72433019D01*
X203690959Y-72647488D01*
X203699820Y-72653693D01*
X204016487Y-72896680D01*
X204024774Y-72903634D01*
X204319056Y-73173294D01*
X204326705Y-73180943D01*
X204596365Y-73475225D01*
X204603319Y-73483512D01*
X204846306Y-73800179D01*
X204852511Y-73809040D01*
X205066980Y-74145689D01*
X205072388Y-74155057D01*
X205256691Y-74509099D01*
X205261263Y-74518903D01*
X205414013Y-74887674D01*
X205417713Y-74897840D01*
X205537738Y-75278512D01*
X205540538Y-75288960D01*
X205626933Y-75678660D01*
X205628811Y-75689314D01*
X205680910Y-76085042D01*
X205681853Y-76095818D01*
X205699382Y-76497297D01*
X205699500Y-76502706D01*
X205699500Y-123497293D01*
X205699382Y-123502702D01*
X205681853Y-123904181D01*
X205680910Y-123914957D01*
X205628811Y-124310685D01*
X205626933Y-124321339D01*
X205540538Y-124711039D01*
X205537738Y-124721487D01*
X205417713Y-125102159D01*
X205414013Y-125112325D01*
X205261263Y-125481096D01*
X205256691Y-125490900D01*
X205072388Y-125844942D01*
X205066980Y-125854310D01*
X204852511Y-126190959D01*
X204846306Y-126199820D01*
X204603319Y-126516487D01*
X204596365Y-126524774D01*
X204326705Y-126819056D01*
X204319056Y-126826705D01*
X204024774Y-127096365D01*
X204016487Y-127103319D01*
X203699820Y-127346306D01*
X203690959Y-127352511D01*
X203354310Y-127566980D01*
X203344942Y-127572388D01*
X202990900Y-127756691D01*
X202981096Y-127761263D01*
X202612325Y-127914013D01*
X202602159Y-127917713D01*
X202221487Y-128037738D01*
X202211039Y-128040538D01*
X201821339Y-128126933D01*
X201810685Y-128128811D01*
X201414957Y-128180910D01*
X201404181Y-128181853D01*
X201002703Y-128199382D01*
X200997294Y-128199500D01*
X165814000Y-128199500D01*
X165746961Y-128179815D01*
X165701206Y-128127011D01*
X165690000Y-128075500D01*
X165690000Y-123328034D01*
X197499500Y-123328034D01*
X197499500Y-123671965D01*
X197533210Y-124014249D01*
X197600308Y-124351572D01*
X197700150Y-124680706D01*
X197831770Y-124998464D01*
X197831772Y-124998469D01*
X197993893Y-125301775D01*
X197993904Y-125301793D01*
X198184975Y-125587751D01*
X198184985Y-125587765D01*
X198403176Y-125853632D01*
X198646367Y-126096823D01*
X198646372Y-126096827D01*
X198646373Y-126096828D01*
X198912240Y-126315019D01*
X199198213Y-126506100D01*
X199198222Y-126506105D01*
X199198224Y-126506106D01*
X199501530Y-126668227D01*
X199501532Y-126668227D01*
X199501538Y-126668231D01*
X199819295Y-126799850D01*
X200148422Y-126899690D01*
X200485750Y-126966789D01*
X200828031Y-127000500D01*
X200828034Y-127000500D01*
X201171966Y-127000500D01*
X201171969Y-127000500D01*
X201514250Y-126966789D01*
X201851578Y-126899690D01*
X202180705Y-126799850D01*
X202498462Y-126668231D01*
X202801787Y-126506100D01*
X203087760Y-126315019D01*
X203353627Y-126096828D01*
X203596828Y-125853627D01*
X203815019Y-125587760D01*
X204006100Y-125301787D01*
X204168231Y-124998462D01*
X204299850Y-124680705D01*
X204399690Y-124351578D01*
X204466789Y-124014250D01*
X204500500Y-123671969D01*
X204500500Y-123328031D01*
X204466789Y-122985750D01*
X204399690Y-122648422D01*
X204299850Y-122319295D01*
X204168231Y-122001538D01*
X204006100Y-121698213D01*
X203815019Y-121412240D01*
X203596828Y-121146373D01*
X203596827Y-121146372D01*
X203596823Y-121146367D01*
X203353632Y-120903176D01*
X203087765Y-120684985D01*
X203087764Y-120684984D01*
X203087760Y-120684981D01*
X202801787Y-120493900D01*
X202801782Y-120493897D01*
X202801775Y-120493893D01*
X202498469Y-120331772D01*
X202498464Y-120331770D01*
X202180706Y-120200150D01*
X201851572Y-120100308D01*
X201514248Y-120033210D01*
X201514249Y-120033210D01*
X201256456Y-120007821D01*
X201171969Y-119999500D01*
X200828031Y-119999500D01*
X200749966Y-120007188D01*
X200485750Y-120033210D01*
X200148427Y-120100308D01*
X199819293Y-120200150D01*
X199501535Y-120331770D01*
X199501530Y-120331772D01*
X199198224Y-120493893D01*
X199198206Y-120493904D01*
X198912248Y-120684975D01*
X198912234Y-120684985D01*
X198646367Y-120903176D01*
X198403176Y-121146367D01*
X198184985Y-121412234D01*
X198184975Y-121412248D01*
X197993904Y-121698206D01*
X197993893Y-121698224D01*
X197831772Y-122001530D01*
X197831770Y-122001535D01*
X197700150Y-122319293D01*
X197600308Y-122648427D01*
X197533210Y-122985750D01*
X197499500Y-123328034D01*
X165690000Y-123328034D01*
X165690000Y-120788549D01*
X166799500Y-120788549D01*
X166799500Y-121011450D01*
X166799501Y-121011466D01*
X166828594Y-121232452D01*
X166828595Y-121232457D01*
X166828596Y-121232463D01*
X166876767Y-121412240D01*
X166886290Y-121447780D01*
X166886293Y-121447790D01*
X166971593Y-121653722D01*
X166971595Y-121653726D01*
X167083052Y-121846774D01*
X167083057Y-121846780D01*
X167083058Y-121846782D01*
X167218751Y-122023622D01*
X167218757Y-122023629D01*
X167376370Y-122181242D01*
X167376376Y-122181247D01*
X167553226Y-122316948D01*
X167746274Y-122428405D01*
X167952219Y-122513710D01*
X168167537Y-122571404D01*
X168388543Y-122600500D01*
X168388550Y-122600500D01*
X168611450Y-122600500D01*
X168611457Y-122600500D01*
X168832463Y-122571404D01*
X169047781Y-122513710D01*
X169253726Y-122428405D01*
X169446774Y-122316948D01*
X169623624Y-122181247D01*
X169781247Y-122023624D01*
X169916948Y-121846774D01*
X170028405Y-121653726D01*
X170113710Y-121447781D01*
X170171404Y-121232463D01*
X170200500Y-121011457D01*
X170200500Y-120788549D01*
X172799500Y-120788549D01*
X172799500Y-121011450D01*
X172799501Y-121011466D01*
X172828594Y-121232452D01*
X172828595Y-121232457D01*
X172828596Y-121232463D01*
X172876767Y-121412240D01*
X172886290Y-121447780D01*
X172886293Y-121447790D01*
X172971593Y-121653722D01*
X172971595Y-121653726D01*
X173083052Y-121846774D01*
X173083057Y-121846780D01*
X173083058Y-121846782D01*
X173218751Y-122023622D01*
X173218757Y-122023629D01*
X173376370Y-122181242D01*
X173376376Y-122181247D01*
X173553226Y-122316948D01*
X173746274Y-122428405D01*
X173952219Y-122513710D01*
X174167537Y-122571404D01*
X174388543Y-122600500D01*
X174388550Y-122600500D01*
X174611450Y-122600500D01*
X174611457Y-122600500D01*
X174832463Y-122571404D01*
X175047781Y-122513710D01*
X175253726Y-122428405D01*
X175446774Y-122316948D01*
X175623624Y-122181247D01*
X175781247Y-122023624D01*
X175916948Y-121846774D01*
X176028405Y-121653726D01*
X176113710Y-121447781D01*
X176171404Y-121232463D01*
X176200500Y-121011457D01*
X176200500Y-120788543D01*
X176171404Y-120567537D01*
X176113710Y-120352219D01*
X176028405Y-120146274D01*
X175916948Y-119953226D01*
X175781247Y-119776376D01*
X175781242Y-119776370D01*
X175623629Y-119618757D01*
X175623622Y-119618751D01*
X175446782Y-119483058D01*
X175446780Y-119483057D01*
X175446774Y-119483052D01*
X175253726Y-119371595D01*
X175253722Y-119371593D01*
X175047790Y-119286293D01*
X175047783Y-119286291D01*
X175047781Y-119286290D01*
X174832463Y-119228596D01*
X174832457Y-119228595D01*
X174832452Y-119228594D01*
X174611466Y-119199501D01*
X174611463Y-119199500D01*
X174611457Y-119199500D01*
X174388543Y-119199500D01*
X174388537Y-119199500D01*
X174388533Y-119199501D01*
X174167547Y-119228594D01*
X174167540Y-119228595D01*
X174167537Y-119228596D01*
X173952219Y-119286290D01*
X173952209Y-119286293D01*
X173746277Y-119371593D01*
X173746273Y-119371595D01*
X173553226Y-119483052D01*
X173553217Y-119483058D01*
X173376377Y-119618751D01*
X173376370Y-119618757D01*
X173218757Y-119776370D01*
X173218751Y-119776377D01*
X173083058Y-119953217D01*
X173083052Y-119953226D01*
X172971595Y-120146273D01*
X172971593Y-120146277D01*
X172886293Y-120352209D01*
X172886290Y-120352219D01*
X172828597Y-120567534D01*
X172828594Y-120567547D01*
X172799501Y-120788533D01*
X172799500Y-120788549D01*
X170200500Y-120788549D01*
X170200500Y-120788543D01*
X170171404Y-120567537D01*
X170113710Y-120352219D01*
X170028405Y-120146274D01*
X169916948Y-119953226D01*
X169781247Y-119776376D01*
X169781242Y-119776370D01*
X169623629Y-119618757D01*
X169623622Y-119618751D01*
X169446782Y-119483058D01*
X169446780Y-119483057D01*
X169446774Y-119483052D01*
X169253726Y-119371595D01*
X169253722Y-119371593D01*
X169047790Y-119286293D01*
X169047783Y-119286291D01*
X169047781Y-119286290D01*
X168832463Y-119228596D01*
X168832457Y-119228595D01*
X168832452Y-119228594D01*
X168611466Y-119199501D01*
X168611463Y-119199500D01*
X168611457Y-119199500D01*
X168388543Y-119199500D01*
X168388537Y-119199500D01*
X168388533Y-119199501D01*
X168167547Y-119228594D01*
X168167540Y-119228595D01*
X168167537Y-119228596D01*
X167952219Y-119286290D01*
X167952209Y-119286293D01*
X167746277Y-119371593D01*
X167746273Y-119371595D01*
X167553226Y-119483052D01*
X167553217Y-119483058D01*
X167376377Y-119618751D01*
X167376370Y-119618757D01*
X167218757Y-119776370D01*
X167218751Y-119776377D01*
X167083058Y-119953217D01*
X167083052Y-119953226D01*
X166971595Y-120146273D01*
X166971593Y-120146277D01*
X166886293Y-120352209D01*
X166886290Y-120352219D01*
X166828597Y-120567534D01*
X166828594Y-120567547D01*
X166799501Y-120788533D01*
X166799500Y-120788549D01*
X165690000Y-120788549D01*
X165690000Y-113388549D01*
X180872000Y-113388549D01*
X180872000Y-113611450D01*
X180872001Y-113611466D01*
X180901094Y-113832452D01*
X180901095Y-113832457D01*
X180901096Y-113832463D01*
X180932173Y-113948443D01*
X180958790Y-114047780D01*
X180958793Y-114047790D01*
X181010829Y-114173415D01*
X181044095Y-114253726D01*
X181155552Y-114446774D01*
X181155557Y-114446780D01*
X181155558Y-114446782D01*
X181291251Y-114623622D01*
X181291257Y-114623629D01*
X181448870Y-114781242D01*
X181448877Y-114781248D01*
X181558504Y-114865367D01*
X181625726Y-114916948D01*
X181818774Y-115028405D01*
X182024719Y-115113710D01*
X182240037Y-115171404D01*
X182461043Y-115200500D01*
X182461050Y-115200500D01*
X182683950Y-115200500D01*
X182683957Y-115200500D01*
X182904963Y-115171404D01*
X183120281Y-115113710D01*
X183326226Y-115028405D01*
X183519274Y-114916948D01*
X183696124Y-114781247D01*
X183853747Y-114623624D01*
X183989448Y-114446774D01*
X184100905Y-114253726D01*
X184186210Y-114047781D01*
X184243904Y-113832463D01*
X184273000Y-113611457D01*
X184273000Y-113388543D01*
X184243904Y-113167537D01*
X184186210Y-112952219D01*
X184100905Y-112746274D01*
X183989448Y-112553226D01*
X183897800Y-112433787D01*
X183853748Y-112376377D01*
X183853742Y-112376370D01*
X183696129Y-112218757D01*
X183696122Y-112218751D01*
X183519282Y-112083058D01*
X183519280Y-112083057D01*
X183519274Y-112083052D01*
X183326226Y-111971595D01*
X183326222Y-111971593D01*
X183120290Y-111886293D01*
X183120283Y-111886291D01*
X183120281Y-111886290D01*
X182904963Y-111828596D01*
X182904957Y-111828595D01*
X182904952Y-111828594D01*
X182683966Y-111799501D01*
X182683963Y-111799500D01*
X182683957Y-111799500D01*
X182461043Y-111799500D01*
X182461037Y-111799500D01*
X182461033Y-111799501D01*
X182240047Y-111828594D01*
X182240040Y-111828595D01*
X182240037Y-111828596D01*
X182076774Y-111872342D01*
X182024719Y-111886290D01*
X182024709Y-111886293D01*
X181818777Y-111971593D01*
X181818773Y-111971595D01*
X181625726Y-112083052D01*
X181625717Y-112083058D01*
X181448877Y-112218751D01*
X181448870Y-112218757D01*
X181291257Y-112376370D01*
X181291251Y-112376377D01*
X181155558Y-112553217D01*
X181155552Y-112553226D01*
X181044095Y-112746273D01*
X181044093Y-112746277D01*
X180958793Y-112952209D01*
X180958790Y-112952219D01*
X180930350Y-113058361D01*
X180901097Y-113167534D01*
X180901094Y-113167547D01*
X180872001Y-113388533D01*
X180872000Y-113388549D01*
X165690000Y-113388549D01*
X165690000Y-103420943D01*
X171649500Y-103420943D01*
X171649500Y-103579057D01*
X171676421Y-103679525D01*
X171690423Y-103731783D01*
X171690426Y-103731790D01*
X171769475Y-103868709D01*
X171769479Y-103868714D01*
X171769480Y-103868716D01*
X171881284Y-103980520D01*
X171881286Y-103980521D01*
X171881290Y-103980524D01*
X171948642Y-104019409D01*
X172018216Y-104059577D01*
X172170943Y-104100500D01*
X172170945Y-104100500D01*
X172329055Y-104100500D01*
X172329057Y-104100500D01*
X172481784Y-104059577D01*
X172618716Y-103980520D01*
X172662417Y-103936819D01*
X172723740Y-103903334D01*
X172750098Y-103900500D01*
X176302725Y-103900500D01*
X176302727Y-103900500D01*
X176404588Y-103873207D01*
X176495913Y-103820480D01*
X178627843Y-101688549D01*
X180872000Y-101688549D01*
X180872000Y-101911450D01*
X180872001Y-101911466D01*
X180901094Y-102132452D01*
X180901095Y-102132457D01*
X180901096Y-102132463D01*
X180901097Y-102132465D01*
X180958790Y-102347780D01*
X180958793Y-102347790D01*
X181035606Y-102533232D01*
X181044095Y-102553726D01*
X181155552Y-102746774D01*
X181155557Y-102746780D01*
X181155558Y-102746782D01*
X181291251Y-102923622D01*
X181291257Y-102923629D01*
X181448870Y-103081242D01*
X181448877Y-103081248D01*
X181472664Y-103099500D01*
X181625726Y-103216948D01*
X181818774Y-103328405D01*
X182024719Y-103413710D01*
X182240037Y-103471404D01*
X182461043Y-103500500D01*
X182461050Y-103500500D01*
X182683950Y-103500500D01*
X182683957Y-103500500D01*
X182904963Y-103471404D01*
X183120281Y-103413710D01*
X183326226Y-103328405D01*
X183519274Y-103216948D01*
X183696124Y-103081247D01*
X183853747Y-102923624D01*
X183989448Y-102746774D01*
X184100905Y-102553726D01*
X184186210Y-102347781D01*
X184243904Y-102132463D01*
X184273000Y-101911457D01*
X184273000Y-101688543D01*
X184243904Y-101467537D01*
X184186210Y-101252219D01*
X184100905Y-101046274D01*
X183989448Y-100853226D01*
X183873847Y-100702571D01*
X183853748Y-100676377D01*
X183853742Y-100676370D01*
X183696129Y-100518757D01*
X183696122Y-100518751D01*
X183519282Y-100383058D01*
X183519280Y-100383057D01*
X183519274Y-100383052D01*
X183326226Y-100271595D01*
X183326222Y-100271593D01*
X183120290Y-100186293D01*
X183120283Y-100186291D01*
X183120281Y-100186290D01*
X182904963Y-100128596D01*
X182904957Y-100128595D01*
X182904952Y-100128594D01*
X182683966Y-100099501D01*
X182683963Y-100099500D01*
X182683957Y-100099500D01*
X182461043Y-100099500D01*
X182461037Y-100099500D01*
X182461033Y-100099501D01*
X182240047Y-100128594D01*
X182240040Y-100128595D01*
X182240037Y-100128596D01*
X182034060Y-100183787D01*
X182024719Y-100186290D01*
X182024709Y-100186293D01*
X181818777Y-100271593D01*
X181818773Y-100271595D01*
X181625726Y-100383052D01*
X181625717Y-100383058D01*
X181448877Y-100518751D01*
X181448870Y-100518757D01*
X181291257Y-100676370D01*
X181291251Y-100676377D01*
X181155558Y-100853217D01*
X181155552Y-100853226D01*
X181044095Y-101046273D01*
X181044093Y-101046277D01*
X180958793Y-101252209D01*
X180958790Y-101252219D01*
X180901097Y-101467534D01*
X180901094Y-101467547D01*
X180872001Y-101688533D01*
X180872000Y-101688549D01*
X178627843Y-101688549D01*
X182546947Y-97769444D01*
X182608268Y-97735961D01*
X182677960Y-97740945D01*
X182696623Y-97749738D01*
X182746274Y-97778405D01*
X182952219Y-97863710D01*
X183167537Y-97921404D01*
X183388543Y-97950500D01*
X183388550Y-97950500D01*
X183611450Y-97950500D01*
X183611457Y-97950500D01*
X183832463Y-97921404D01*
X184047781Y-97863710D01*
X184253726Y-97778405D01*
X184446774Y-97666948D01*
X184623624Y-97531247D01*
X184781247Y-97373624D01*
X184916948Y-97196774D01*
X185028405Y-97003726D01*
X185113710Y-96797781D01*
X185171404Y-96582463D01*
X185200500Y-96361457D01*
X185200500Y-96138543D01*
X185171404Y-95917537D01*
X185113710Y-95702219D01*
X185028405Y-95496274D01*
X184916948Y-95303226D01*
X184796331Y-95146034D01*
X184781248Y-95126377D01*
X184781242Y-95126370D01*
X184623629Y-94968757D01*
X184623622Y-94968751D01*
X184446782Y-94833058D01*
X184446780Y-94833057D01*
X184446774Y-94833052D01*
X184253726Y-94721595D01*
X184253722Y-94721593D01*
X184047790Y-94636293D01*
X184047783Y-94636291D01*
X184047781Y-94636290D01*
X183832463Y-94578596D01*
X183832457Y-94578595D01*
X183832452Y-94578594D01*
X183611466Y-94549501D01*
X183611463Y-94549500D01*
X183611457Y-94549500D01*
X183388543Y-94549500D01*
X183388537Y-94549500D01*
X183388533Y-94549501D01*
X183167547Y-94578594D01*
X183167540Y-94578595D01*
X183167537Y-94578596D01*
X182952219Y-94636290D01*
X182952209Y-94636293D01*
X182746277Y-94721593D01*
X182746273Y-94721595D01*
X182553226Y-94833052D01*
X182553217Y-94833058D01*
X182376377Y-94968751D01*
X182376370Y-94968757D01*
X182218757Y-95126370D01*
X182218751Y-95126377D01*
X182083058Y-95303217D01*
X182083052Y-95303226D01*
X181971595Y-95496273D01*
X181971593Y-95496277D01*
X181886293Y-95702209D01*
X181886290Y-95702219D01*
X181830953Y-95908743D01*
X181828597Y-95917534D01*
X181828594Y-95917547D01*
X181799501Y-96138533D01*
X181799500Y-96138549D01*
X181799500Y-96361450D01*
X181799501Y-96361466D01*
X181828594Y-96582452D01*
X181828595Y-96582457D01*
X181828596Y-96582463D01*
X181878388Y-96768289D01*
X181886290Y-96797780D01*
X181886293Y-96797790D01*
X181971593Y-97003722D01*
X181971595Y-97003726D01*
X182000258Y-97053371D01*
X182016731Y-97121271D01*
X181993879Y-97187298D01*
X181980552Y-97203053D01*
X176120426Y-103063181D01*
X176059103Y-103096666D01*
X176032745Y-103099500D01*
X172750098Y-103099500D01*
X172683059Y-103079815D01*
X172662417Y-103063181D01*
X172618717Y-103019481D01*
X172618709Y-103019475D01*
X172481790Y-102940426D01*
X172481786Y-102940424D01*
X172481784Y-102940423D01*
X172329057Y-102899500D01*
X172170943Y-102899500D01*
X172018216Y-102940423D01*
X172018209Y-102940426D01*
X171881290Y-103019475D01*
X171881282Y-103019481D01*
X171769481Y-103131282D01*
X171769475Y-103131290D01*
X171690426Y-103268209D01*
X171690423Y-103268216D01*
X171649500Y-103420943D01*
X165690000Y-103420943D01*
X165690000Y-96138549D01*
X176739500Y-96138549D01*
X176739500Y-96361450D01*
X176739501Y-96361466D01*
X176768594Y-96582452D01*
X176768595Y-96582457D01*
X176768596Y-96582463D01*
X176818388Y-96768289D01*
X176826290Y-96797780D01*
X176826293Y-96797790D01*
X176859180Y-96877185D01*
X176911595Y-97003726D01*
X177023052Y-97196774D01*
X177023057Y-97196780D01*
X177023058Y-97196782D01*
X177158751Y-97373622D01*
X177158757Y-97373629D01*
X177316370Y-97531242D01*
X177316377Y-97531248D01*
X177435265Y-97622473D01*
X177493226Y-97666948D01*
X177686274Y-97778405D01*
X177892219Y-97863710D01*
X178107537Y-97921404D01*
X178328543Y-97950500D01*
X178328550Y-97950500D01*
X178551450Y-97950500D01*
X178551457Y-97950500D01*
X178772463Y-97921404D01*
X178987781Y-97863710D01*
X179193726Y-97778405D01*
X179386774Y-97666948D01*
X179563624Y-97531247D01*
X179721247Y-97373624D01*
X179856948Y-97196774D01*
X179968405Y-97003726D01*
X180053710Y-96797781D01*
X180111404Y-96582463D01*
X180140500Y-96361457D01*
X180140500Y-96138543D01*
X180111404Y-95917537D01*
X180053710Y-95702219D01*
X179968405Y-95496274D01*
X179856948Y-95303226D01*
X179736331Y-95146034D01*
X179721248Y-95126377D01*
X179721242Y-95126370D01*
X179563629Y-94968757D01*
X179563622Y-94968751D01*
X179386782Y-94833058D01*
X179386780Y-94833057D01*
X179386774Y-94833052D01*
X179193726Y-94721595D01*
X179193722Y-94721593D01*
X178987790Y-94636293D01*
X178987783Y-94636291D01*
X178987781Y-94636290D01*
X178772463Y-94578596D01*
X178772457Y-94578595D01*
X178772452Y-94578594D01*
X178551466Y-94549501D01*
X178551463Y-94549500D01*
X178551457Y-94549500D01*
X178328543Y-94549500D01*
X178328537Y-94549500D01*
X178328533Y-94549501D01*
X178107547Y-94578594D01*
X178107540Y-94578595D01*
X178107537Y-94578596D01*
X177892219Y-94636290D01*
X177892209Y-94636293D01*
X177686277Y-94721593D01*
X177686273Y-94721595D01*
X177493226Y-94833052D01*
X177493217Y-94833058D01*
X177316377Y-94968751D01*
X177316370Y-94968757D01*
X177158757Y-95126370D01*
X177158751Y-95126377D01*
X177023058Y-95303217D01*
X177023052Y-95303226D01*
X176911595Y-95496273D01*
X176911593Y-95496277D01*
X176826293Y-95702209D01*
X176826290Y-95702219D01*
X176770953Y-95908743D01*
X176768597Y-95917534D01*
X176768594Y-95917547D01*
X176739501Y-96138533D01*
X176739500Y-96138549D01*
X165690000Y-96138549D01*
X165690000Y-90471902D01*
X173809500Y-90471902D01*
X173809500Y-90708097D01*
X173846446Y-90941368D01*
X173919433Y-91165996D01*
X174026657Y-91376433D01*
X174165483Y-91567510D01*
X174332490Y-91734517D01*
X174523567Y-91873343D01*
X174558798Y-91891294D01*
X174734003Y-91980566D01*
X174734005Y-91980566D01*
X174734008Y-91980568D01*
X174854412Y-92019689D01*
X174958631Y-92053553D01*
X175191903Y-92090500D01*
X175191908Y-92090500D01*
X175428097Y-92090500D01*
X175661368Y-92053553D01*
X175885992Y-91980568D01*
X176096433Y-91873343D01*
X176287510Y-91734517D01*
X176454517Y-91567510D01*
X176593343Y-91376433D01*
X176700568Y-91165992D01*
X176773553Y-90941368D01*
X176810500Y-90708097D01*
X176810500Y-90471902D01*
X183729500Y-90471902D01*
X183729500Y-90708097D01*
X183766446Y-90941368D01*
X183839433Y-91165996D01*
X183946657Y-91376433D01*
X184085483Y-91567510D01*
X184252490Y-91734517D01*
X184443567Y-91873343D01*
X184478798Y-91891294D01*
X184654003Y-91980566D01*
X184654005Y-91980566D01*
X184654008Y-91980568D01*
X184774412Y-92019689D01*
X184878631Y-92053553D01*
X185111903Y-92090500D01*
X185111908Y-92090500D01*
X185348097Y-92090500D01*
X185581368Y-92053553D01*
X185805992Y-91980568D01*
X186016433Y-91873343D01*
X186207510Y-91734517D01*
X186374517Y-91567510D01*
X186513343Y-91376433D01*
X186620568Y-91165992D01*
X186693553Y-90941368D01*
X186730500Y-90708097D01*
X186730500Y-90471902D01*
X186693553Y-90238631D01*
X186620566Y-90014003D01*
X186513342Y-89803566D01*
X186374517Y-89612490D01*
X186207510Y-89445483D01*
X186016433Y-89306657D01*
X185805996Y-89199433D01*
X185581368Y-89126446D01*
X185348097Y-89089500D01*
X185348092Y-89089500D01*
X185111908Y-89089500D01*
X185111903Y-89089500D01*
X184878631Y-89126446D01*
X184654003Y-89199433D01*
X184443566Y-89306657D01*
X184340363Y-89381639D01*
X184252490Y-89445483D01*
X184252488Y-89445485D01*
X184252487Y-89445485D01*
X184085485Y-89612487D01*
X184085485Y-89612488D01*
X184085483Y-89612490D01*
X184025862Y-89694550D01*
X183946657Y-89803566D01*
X183839433Y-90014003D01*
X183766446Y-90238631D01*
X183729500Y-90471902D01*
X176810500Y-90471902D01*
X176773553Y-90238631D01*
X176700566Y-90014003D01*
X176593342Y-89803566D01*
X176454517Y-89612490D01*
X176287510Y-89445483D01*
X176096433Y-89306657D01*
X175885996Y-89199433D01*
X175661368Y-89126446D01*
X175428097Y-89089500D01*
X175428092Y-89089500D01*
X175191908Y-89089500D01*
X175191903Y-89089500D01*
X174958631Y-89126446D01*
X174734003Y-89199433D01*
X174523566Y-89306657D01*
X174420363Y-89381639D01*
X174332490Y-89445483D01*
X174332488Y-89445485D01*
X174332487Y-89445485D01*
X174165485Y-89612487D01*
X174165485Y-89612488D01*
X174165483Y-89612490D01*
X174105862Y-89694550D01*
X174026657Y-89803566D01*
X173919433Y-90014003D01*
X173846446Y-90238631D01*
X173809500Y-90471902D01*
X165690000Y-90471902D01*
X165690000Y-89201083D01*
X165709685Y-89134044D01*
X165762489Y-89088289D01*
X165831647Y-89078345D01*
X165861448Y-89086520D01*
X165930042Y-89114933D01*
X165930046Y-89114933D01*
X165930047Y-89114934D01*
X166108843Y-89150500D01*
X166108846Y-89150500D01*
X166291156Y-89150500D01*
X166412079Y-89126446D01*
X166469958Y-89114933D01*
X166638389Y-89045167D01*
X166638391Y-89045166D01*
X166713672Y-88994864D01*
X166789972Y-88943883D01*
X166918883Y-88814972D01*
X167020167Y-88663389D01*
X167089933Y-88494958D01*
X167101572Y-88436445D01*
X167125500Y-88316156D01*
X167125500Y-88133843D01*
X167089934Y-87955047D01*
X167089933Y-87955046D01*
X167089933Y-87955042D01*
X167056277Y-87873788D01*
X167020168Y-87786612D01*
X167020166Y-87786608D01*
X166918886Y-87635032D01*
X166918880Y-87635024D01*
X166789975Y-87506119D01*
X166789967Y-87506113D01*
X166638391Y-87404833D01*
X166638387Y-87404831D01*
X166469962Y-87335068D01*
X166469952Y-87335065D01*
X166291156Y-87299500D01*
X166291154Y-87299500D01*
X166108846Y-87299500D01*
X166108844Y-87299500D01*
X165930047Y-87335065D01*
X165930037Y-87335068D01*
X165861452Y-87363477D01*
X165828827Y-87366984D01*
X165796353Y-87371654D01*
X165794265Y-87370700D01*
X165791982Y-87370946D01*
X165762639Y-87356257D01*
X165732797Y-87342629D01*
X165731555Y-87340697D01*
X165729503Y-87339670D01*
X165712764Y-87311456D01*
X165695023Y-87283851D01*
X165694587Y-87280820D01*
X165693852Y-87279581D01*
X165690000Y-87248916D01*
X165690000Y-87071902D01*
X173809500Y-87071902D01*
X173809500Y-87308097D01*
X173846446Y-87541368D01*
X173919433Y-87765996D01*
X173974357Y-87873789D01*
X174026657Y-87976433D01*
X174165483Y-88167510D01*
X174332490Y-88334517D01*
X174523567Y-88473343D01*
X174565989Y-88494958D01*
X174734003Y-88580566D01*
X174734005Y-88580566D01*
X174734008Y-88580568D01*
X174854412Y-88619689D01*
X174958631Y-88653553D01*
X175191903Y-88690500D01*
X175191908Y-88690500D01*
X175428097Y-88690500D01*
X175661368Y-88653553D01*
X175885992Y-88580568D01*
X176096433Y-88473343D01*
X176287510Y-88334517D01*
X176454517Y-88167510D01*
X176593343Y-87976433D01*
X176700568Y-87765992D01*
X176773553Y-87541368D01*
X176792143Y-87423996D01*
X176810500Y-87308097D01*
X176810500Y-87071902D01*
X183729500Y-87071902D01*
X183729500Y-87308097D01*
X183766446Y-87541368D01*
X183839433Y-87765996D01*
X183894357Y-87873789D01*
X183946657Y-87976433D01*
X184085483Y-88167510D01*
X184252490Y-88334517D01*
X184443567Y-88473343D01*
X184485989Y-88494958D01*
X184654003Y-88580566D01*
X184654005Y-88580566D01*
X184654008Y-88580568D01*
X184774412Y-88619689D01*
X184878631Y-88653553D01*
X185111903Y-88690500D01*
X185111908Y-88690500D01*
X185348097Y-88690500D01*
X185581368Y-88653553D01*
X185805992Y-88580568D01*
X186016433Y-88473343D01*
X186207510Y-88334517D01*
X186374517Y-88167510D01*
X186513343Y-87976433D01*
X186620568Y-87765992D01*
X186693553Y-87541368D01*
X186712143Y-87423996D01*
X186730500Y-87308097D01*
X186730500Y-87071902D01*
X186693553Y-86838631D01*
X186625675Y-86629727D01*
X186620568Y-86614008D01*
X186620566Y-86614005D01*
X186620566Y-86614003D01*
X186513342Y-86403566D01*
X186483984Y-86363158D01*
X186374517Y-86212490D01*
X186265180Y-86103153D01*
X190837500Y-86103153D01*
X190837500Y-96576846D01*
X190868261Y-96731489D01*
X190868264Y-96731501D01*
X190928602Y-96877172D01*
X190928609Y-96877185D01*
X191016210Y-97008288D01*
X191016213Y-97008292D01*
X192703181Y-98695259D01*
X192714982Y-98716871D01*
X192730327Y-98736135D01*
X192733028Y-98749921D01*
X192736666Y-98756582D01*
X192738862Y-98770382D01*
X192739500Y-98776649D01*
X192739500Y-98840546D01*
X192757706Y-98955495D01*
X192758057Y-98958942D01*
X192752266Y-98990030D01*
X192748213Y-99021395D01*
X192745916Y-99024123D01*
X192745263Y-99027630D01*
X192723577Y-99050659D01*
X192703217Y-99074847D01*
X192699811Y-99075900D01*
X192697365Y-99078498D01*
X192666668Y-99086148D01*
X192636466Y-99095487D01*
X192634695Y-99095500D01*
X192460913Y-99095500D01*
X192286172Y-99130258D01*
X192286166Y-99130260D01*
X192121560Y-99198442D01*
X191973412Y-99297430D01*
X191847430Y-99423412D01*
X191748442Y-99571560D01*
X191680260Y-99736166D01*
X191680258Y-99736172D01*
X191645500Y-99910912D01*
X191645500Y-99910915D01*
X191645500Y-100089085D01*
X191645500Y-100089087D01*
X191645499Y-100089087D01*
X191680258Y-100263827D01*
X191680260Y-100263833D01*
X191748442Y-100428439D01*
X191847430Y-100576587D01*
X191973412Y-100702569D01*
X191973415Y-100702571D01*
X192121559Y-100801557D01*
X192286167Y-100869740D01*
X192286171Y-100869740D01*
X192286172Y-100869741D01*
X192460912Y-100904500D01*
X192634695Y-100904500D01*
X192701734Y-100924185D01*
X192747489Y-100976989D01*
X192757433Y-101046147D01*
X192757168Y-101047898D01*
X192739500Y-101159448D01*
X192739500Y-101340551D01*
X192768095Y-101521091D01*
X192759141Y-101590384D01*
X192733303Y-101628170D01*
X190947491Y-103413983D01*
X190947489Y-103413985D01*
X190934798Y-103435968D01*
X190897541Y-103500500D01*
X190875016Y-103539515D01*
X190837500Y-103679525D01*
X190837500Y-103679527D01*
X190837500Y-113580475D01*
X190840197Y-113590538D01*
X190840198Y-113590546D01*
X190840199Y-113590546D01*
X190875016Y-113720485D01*
X190942394Y-113837189D01*
X190947489Y-113846013D01*
X190947491Y-113846016D01*
X195033611Y-117932136D01*
X195067096Y-117993459D01*
X195063861Y-118058134D01*
X195007829Y-118230587D01*
X194979500Y-118409448D01*
X194979500Y-118590551D01*
X195007829Y-118769410D01*
X195063787Y-118941636D01*
X195063788Y-118941639D01*
X195146006Y-119102997D01*
X195252441Y-119249494D01*
X195252445Y-119249499D01*
X195380500Y-119377554D01*
X195380505Y-119377558D01*
X195508287Y-119470396D01*
X195527006Y-119483996D01*
X195632484Y-119537740D01*
X195688360Y-119566211D01*
X195688363Y-119566212D01*
X195774476Y-119594191D01*
X195860591Y-119622171D01*
X195943429Y-119635291D01*
X196039449Y-119650500D01*
X196039454Y-119650500D01*
X196720551Y-119650500D01*
X196807259Y-119636765D01*
X196899409Y-119622171D01*
X197071639Y-119566211D01*
X197232994Y-119483996D01*
X197379501Y-119377553D01*
X197507553Y-119249501D01*
X197613996Y-119102994D01*
X197696211Y-118941639D01*
X197752171Y-118769409D01*
X197766765Y-118677259D01*
X197780500Y-118590551D01*
X197780500Y-118409448D01*
X197764019Y-118305397D01*
X197752171Y-118230591D01*
X197696211Y-118058361D01*
X197696211Y-118058360D01*
X197663791Y-117994733D01*
X197613996Y-117897006D01*
X197600396Y-117878287D01*
X197507558Y-117750505D01*
X197507554Y-117750500D01*
X197379499Y-117622445D01*
X197379494Y-117622441D01*
X197232997Y-117516006D01*
X197232996Y-117516005D01*
X197232994Y-117516004D01*
X197181300Y-117489664D01*
X197071639Y-117433788D01*
X197071636Y-117433787D01*
X196899410Y-117377829D01*
X196865594Y-117372473D01*
X196802459Y-117342544D01*
X196765528Y-117283232D01*
X196766526Y-117213370D01*
X196805136Y-117155137D01*
X196865594Y-117127527D01*
X196873388Y-117126292D01*
X196899409Y-117122171D01*
X197071639Y-117066211D01*
X197232994Y-116983996D01*
X197379501Y-116877553D01*
X197507553Y-116749501D01*
X197613996Y-116602994D01*
X197696211Y-116441639D01*
X197752171Y-116269409D01*
X197771978Y-116144351D01*
X197780500Y-116090551D01*
X197780500Y-115909448D01*
X197752171Y-115730590D01*
X197716154Y-115619740D01*
X197696211Y-115558361D01*
X197696209Y-115558357D01*
X197696137Y-115558135D01*
X197694142Y-115488294D01*
X197726385Y-115432138D01*
X199572510Y-113586015D01*
X199644984Y-113460485D01*
X199682500Y-113320474D01*
X199682500Y-113175526D01*
X199682500Y-103919525D01*
X199644984Y-103779515D01*
X199625584Y-103745913D01*
X199572510Y-103653986D01*
X198602311Y-102683787D01*
X197546696Y-101628171D01*
X197513211Y-101566848D01*
X197511904Y-101521091D01*
X197512169Y-101519412D01*
X197512171Y-101519409D01*
X197533376Y-101385528D01*
X197540500Y-101340550D01*
X197540500Y-101159448D01*
X197522554Y-101046147D01*
X197512171Y-100980591D01*
X197470788Y-100853226D01*
X197456212Y-100808363D01*
X197456211Y-100808360D01*
X197402308Y-100702571D01*
X197373996Y-100647006D01*
X197322834Y-100576587D01*
X197267558Y-100500505D01*
X197267554Y-100500500D01*
X197139499Y-100372445D01*
X197139494Y-100372441D01*
X196992997Y-100266006D01*
X196992996Y-100266005D01*
X196992994Y-100266004D01*
X196941300Y-100239664D01*
X196831639Y-100183788D01*
X196831636Y-100183787D01*
X196659410Y-100127829D01*
X196625594Y-100122473D01*
X196562459Y-100092544D01*
X196525528Y-100033232D01*
X196526526Y-99963370D01*
X196565136Y-99905137D01*
X196625594Y-99877527D01*
X196633388Y-99876292D01*
X196659409Y-99872171D01*
X196831639Y-99816211D01*
X196992994Y-99733996D01*
X197139501Y-99627553D01*
X197267553Y-99499501D01*
X197373996Y-99352994D01*
X197456211Y-99191639D01*
X197512171Y-99019409D01*
X197531738Y-98895867D01*
X197540500Y-98840551D01*
X197540500Y-98782940D01*
X197560185Y-98715901D01*
X197576819Y-98695259D01*
X199503789Y-96768289D01*
X199507334Y-96762984D01*
X199591393Y-96637180D01*
X199591395Y-96637177D01*
X199614062Y-96582452D01*
X199651737Y-96491497D01*
X199666126Y-96419158D01*
X199677605Y-96361450D01*
X199682500Y-96336844D01*
X199682500Y-86363155D01*
X199682499Y-86363153D01*
X199652530Y-86212490D01*
X199651737Y-86208503D01*
X199645886Y-86194379D01*
X199638826Y-86177333D01*
X199613669Y-86116599D01*
X199613669Y-86116598D01*
X199591394Y-86062821D01*
X199591390Y-86062814D01*
X199503790Y-85931712D01*
X199464647Y-85892569D01*
X199392289Y-85820211D01*
X197800854Y-84228776D01*
X197767369Y-84167453D01*
X197766062Y-84121701D01*
X197780500Y-84030546D01*
X197780500Y-83849454D01*
X197780500Y-83849448D01*
X197764019Y-83745397D01*
X197752171Y-83670591D01*
X197696211Y-83498361D01*
X197696211Y-83498360D01*
X197667740Y-83442484D01*
X197613996Y-83337006D01*
X197600396Y-83318287D01*
X197507558Y-83190505D01*
X197507554Y-83190500D01*
X197379499Y-83062445D01*
X197379494Y-83062441D01*
X197232997Y-82956006D01*
X197232996Y-82956005D01*
X197232994Y-82956004D01*
X197181300Y-82929664D01*
X197071639Y-82873788D01*
X197071636Y-82873787D01*
X196944351Y-82832431D01*
X196886676Y-82792994D01*
X196859477Y-82728636D01*
X196871391Y-82659789D01*
X196918635Y-82608313D01*
X196982669Y-82590500D01*
X197273097Y-82590500D01*
X197273102Y-82590500D01*
X197361564Y-82579877D01*
X197502342Y-82524361D01*
X197622922Y-82432922D01*
X197714361Y-82312342D01*
X197769877Y-82171564D01*
X197780500Y-82083102D01*
X197780500Y-80796898D01*
X197769877Y-80708436D01*
X197714361Y-80567658D01*
X197714360Y-80567657D01*
X197714360Y-80567656D01*
X197622922Y-80447077D01*
X197502343Y-80355639D01*
X197361561Y-80300122D01*
X197315926Y-80294642D01*
X197273102Y-80289500D01*
X195486898Y-80289500D01*
X195447853Y-80294188D01*
X195398438Y-80300122D01*
X195257656Y-80355639D01*
X195137077Y-80447077D01*
X195045639Y-80567656D01*
X194990122Y-80708438D01*
X194984188Y-80757853D01*
X194979500Y-80796898D01*
X194979500Y-80796903D01*
X194979500Y-81657060D01*
X194959815Y-81724099D01*
X194943181Y-81744741D01*
X191127711Y-85560211D01*
X191071960Y-85615962D01*
X191016209Y-85671712D01*
X190928609Y-85802814D01*
X190928602Y-85802827D01*
X190868264Y-85948498D01*
X190868261Y-85948510D01*
X190837500Y-86103153D01*
X186265180Y-86103153D01*
X186207510Y-86045483D01*
X186016433Y-85906657D01*
X185988784Y-85892569D01*
X185805996Y-85799433D01*
X185581368Y-85726446D01*
X185348097Y-85689500D01*
X185348092Y-85689500D01*
X185111908Y-85689500D01*
X185111903Y-85689500D01*
X184878631Y-85726446D01*
X184654003Y-85799433D01*
X184443566Y-85906657D01*
X184385978Y-85948498D01*
X184252490Y-86045483D01*
X184252488Y-86045485D01*
X184252487Y-86045485D01*
X184085485Y-86212487D01*
X184085485Y-86212488D01*
X184085483Y-86212490D01*
X184075991Y-86225555D01*
X183946657Y-86403566D01*
X183839433Y-86614003D01*
X183766446Y-86838631D01*
X183729500Y-87071902D01*
X176810500Y-87071902D01*
X176773553Y-86838631D01*
X176705675Y-86629727D01*
X176700568Y-86614008D01*
X176700566Y-86614005D01*
X176700566Y-86614003D01*
X176593342Y-86403566D01*
X176563984Y-86363158D01*
X176454517Y-86212490D01*
X176287510Y-86045483D01*
X176096433Y-85906657D01*
X176068784Y-85892569D01*
X175885996Y-85799433D01*
X175661368Y-85726446D01*
X175428097Y-85689500D01*
X175428092Y-85689500D01*
X175191908Y-85689500D01*
X175191903Y-85689500D01*
X174958631Y-85726446D01*
X174734003Y-85799433D01*
X174523566Y-85906657D01*
X174465978Y-85948498D01*
X174332490Y-86045483D01*
X174332488Y-86045485D01*
X174332487Y-86045485D01*
X174165485Y-86212487D01*
X174165485Y-86212488D01*
X174165483Y-86212490D01*
X174155991Y-86225555D01*
X174026657Y-86403566D01*
X173919433Y-86614003D01*
X173846446Y-86838631D01*
X173809500Y-87071902D01*
X165690000Y-87071902D01*
X165690000Y-80678753D01*
X173295000Y-80678753D01*
X173295000Y-80891246D01*
X173328242Y-81101127D01*
X173328242Y-81101130D01*
X173393904Y-81303217D01*
X173490375Y-81492550D01*
X173529728Y-81546716D01*
X174162037Y-80914408D01*
X174179075Y-80977993D01*
X174244901Y-81092007D01*
X174337993Y-81185099D01*
X174452007Y-81250925D01*
X174515590Y-81267962D01*
X173883282Y-81900269D01*
X173883282Y-81900270D01*
X173937447Y-81939623D01*
X173938205Y-81940009D01*
X173938443Y-81940233D01*
X173941604Y-81942171D01*
X173941197Y-81942834D01*
X173989006Y-81987978D01*
X174005809Y-82055797D01*
X173983278Y-82121935D01*
X173928568Y-82165392D01*
X173881923Y-82174500D01*
X173750144Y-82174500D01*
X173750117Y-82174502D01*
X173725012Y-82177413D01*
X173725008Y-82177415D01*
X173622235Y-82222793D01*
X173542794Y-82302234D01*
X173497415Y-82405006D01*
X173497415Y-82405008D01*
X173494500Y-82430131D01*
X173494500Y-84219856D01*
X173494502Y-84219882D01*
X173497413Y-84244987D01*
X173497415Y-84244991D01*
X173542793Y-84347764D01*
X173542794Y-84347765D01*
X173622235Y-84427206D01*
X173725009Y-84472585D01*
X173750135Y-84475500D01*
X175539864Y-84475499D01*
X175539879Y-84475497D01*
X175539882Y-84475497D01*
X175564987Y-84472586D01*
X175564988Y-84472585D01*
X175564991Y-84472585D01*
X175667765Y-84427206D01*
X175747206Y-84347765D01*
X175792585Y-84244991D01*
X175795500Y-84219865D01*
X175795499Y-82430136D01*
X175795497Y-82430117D01*
X175792586Y-82405012D01*
X175792585Y-82405010D01*
X175792585Y-82405009D01*
X175747206Y-82302235D01*
X175667765Y-82222794D01*
X175667763Y-82222793D01*
X175564992Y-82177415D01*
X175539868Y-82174500D01*
X175408079Y-82174500D01*
X175341040Y-82154815D01*
X175295285Y-82102011D01*
X175285341Y-82032853D01*
X175314366Y-81969297D01*
X175348606Y-81942502D01*
X175348402Y-81942168D01*
X175351317Y-81940381D01*
X175351787Y-81940014D01*
X175352552Y-81939623D01*
X175406716Y-81900270D01*
X175406717Y-81900270D01*
X174774408Y-81267962D01*
X174837993Y-81250925D01*
X174952007Y-81185099D01*
X175045099Y-81092007D01*
X175110925Y-80977993D01*
X175127962Y-80914408D01*
X175760270Y-81546717D01*
X175760270Y-81546716D01*
X175799622Y-81492554D01*
X175896095Y-81303217D01*
X175961757Y-81101130D01*
X175961757Y-81101127D01*
X175995000Y-80891246D01*
X175995000Y-80678753D01*
X175961757Y-80468872D01*
X175961757Y-80468869D01*
X175896095Y-80266782D01*
X175799624Y-80077449D01*
X175760270Y-80023282D01*
X175760269Y-80023282D01*
X175127962Y-80655590D01*
X175110925Y-80592007D01*
X175045099Y-80477993D01*
X174952007Y-80384901D01*
X174837993Y-80319075D01*
X174774409Y-80302037D01*
X175406716Y-79669728D01*
X175352550Y-79630375D01*
X175163217Y-79533904D01*
X174961129Y-79468242D01*
X174751246Y-79435000D01*
X174538754Y-79435000D01*
X174328872Y-79468242D01*
X174328869Y-79468242D01*
X174126782Y-79533904D01*
X173937439Y-79630380D01*
X173883282Y-79669727D01*
X173883282Y-79669728D01*
X174515591Y-80302037D01*
X174452007Y-80319075D01*
X174337993Y-80384901D01*
X174244901Y-80477993D01*
X174179075Y-80592007D01*
X174162037Y-80655591D01*
X173529728Y-80023282D01*
X173529727Y-80023282D01*
X173490380Y-80077439D01*
X173393904Y-80266782D01*
X173328242Y-80468869D01*
X173328242Y-80468872D01*
X173295000Y-80678753D01*
X165690000Y-80678753D01*
X165690000Y-76328034D01*
X197499500Y-76328034D01*
X197499500Y-76671965D01*
X197533210Y-77014249D01*
X197600308Y-77351572D01*
X197700150Y-77680706D01*
X197831770Y-77998464D01*
X197831772Y-77998469D01*
X197993893Y-78301775D01*
X197993904Y-78301793D01*
X198184975Y-78587751D01*
X198184985Y-78587765D01*
X198403176Y-78853632D01*
X198646367Y-79096823D01*
X198646372Y-79096827D01*
X198646373Y-79096828D01*
X198912240Y-79315019D01*
X199198213Y-79506100D01*
X199198222Y-79506105D01*
X199198224Y-79506106D01*
X199501530Y-79668227D01*
X199501532Y-79668227D01*
X199501538Y-79668231D01*
X199819295Y-79799850D01*
X200148422Y-79899690D01*
X200485750Y-79966789D01*
X200828031Y-80000500D01*
X200828034Y-80000500D01*
X201171966Y-80000500D01*
X201171969Y-80000500D01*
X201514250Y-79966789D01*
X201851578Y-79899690D01*
X202180705Y-79799850D01*
X202498462Y-79668231D01*
X202801787Y-79506100D01*
X203087760Y-79315019D01*
X203353627Y-79096828D01*
X203596828Y-78853627D01*
X203815019Y-78587760D01*
X204006100Y-78301787D01*
X204168231Y-77998462D01*
X204299850Y-77680705D01*
X204399690Y-77351578D01*
X204466789Y-77014250D01*
X204500500Y-76671969D01*
X204500500Y-76328031D01*
X204466789Y-75985750D01*
X204399690Y-75648422D01*
X204299850Y-75319295D01*
X204168231Y-75001538D01*
X204160076Y-74986282D01*
X204006106Y-74698224D01*
X204006105Y-74698222D01*
X204006100Y-74698213D01*
X203815019Y-74412240D01*
X203596828Y-74146373D01*
X203596827Y-74146372D01*
X203596823Y-74146367D01*
X203353632Y-73903176D01*
X203087765Y-73684985D01*
X203087764Y-73684984D01*
X203087760Y-73684981D01*
X202801787Y-73493900D01*
X202801782Y-73493897D01*
X202801775Y-73493893D01*
X202498469Y-73331772D01*
X202498464Y-73331770D01*
X202180706Y-73200150D01*
X201851572Y-73100308D01*
X201514248Y-73033210D01*
X201514249Y-73033210D01*
X201256456Y-73007821D01*
X201171969Y-72999500D01*
X200828031Y-72999500D01*
X200749966Y-73007188D01*
X200485750Y-73033210D01*
X200148427Y-73100308D01*
X199819293Y-73200150D01*
X199501535Y-73331770D01*
X199501530Y-73331772D01*
X199198224Y-73493893D01*
X199198206Y-73493904D01*
X198912248Y-73684975D01*
X198912234Y-73684985D01*
X198646367Y-73903176D01*
X198403176Y-74146367D01*
X198184985Y-74412234D01*
X198184975Y-74412248D01*
X197993904Y-74698206D01*
X197993893Y-74698224D01*
X197831772Y-75001530D01*
X197831770Y-75001535D01*
X197700150Y-75319293D01*
X197600308Y-75648427D01*
X197533210Y-75985750D01*
X197499500Y-76328034D01*
X165690000Y-76328034D01*
X165690000Y-71924500D01*
X165709685Y-71857461D01*
X165762489Y-71811706D01*
X165814000Y-71800500D01*
X200952405Y-71800500D01*
X200997294Y-71800500D01*
X201002702Y-71800617D01*
G37*
%TD.AperFunction*%
%TD*%
%TA.AperFunction,Conductor*%
%TO.N,HVGND*%
G36*
X164353039Y-71820185D02*
G01*
X164398794Y-71872989D01*
X164410000Y-71924500D01*
X164410000Y-128075500D01*
X164390315Y-128142539D01*
X164337511Y-128188294D01*
X164286000Y-128199500D01*
X115002706Y-128199500D01*
X114997297Y-128199382D01*
X114595818Y-128181853D01*
X114585042Y-128180910D01*
X114189314Y-128128811D01*
X114178660Y-128126933D01*
X113788960Y-128040538D01*
X113778512Y-128037738D01*
X113397840Y-127917713D01*
X113387674Y-127914013D01*
X113018903Y-127761263D01*
X113009099Y-127756691D01*
X112655057Y-127572388D01*
X112645689Y-127566980D01*
X112309040Y-127352511D01*
X112300179Y-127346306D01*
X111983512Y-127103319D01*
X111975225Y-127096365D01*
X111680943Y-126826705D01*
X111673294Y-126819056D01*
X111403634Y-126524774D01*
X111396680Y-126516487D01*
X111153693Y-126199820D01*
X111147488Y-126190959D01*
X110933019Y-125854310D01*
X110927611Y-125844942D01*
X110919808Y-125829952D01*
X110743305Y-125490893D01*
X110738736Y-125481096D01*
X110585982Y-125112315D01*
X110582286Y-125102159D01*
X110574422Y-125077218D01*
X110462260Y-124721483D01*
X110459461Y-124711039D01*
X110454766Y-124689860D01*
X110373064Y-124321331D01*
X110371188Y-124310685D01*
X110350849Y-124156193D01*
X110319087Y-123914937D01*
X110318147Y-123904202D01*
X110300618Y-123502702D01*
X110300500Y-123497293D01*
X110300500Y-123328031D01*
X111499500Y-123328031D01*
X111499500Y-123671969D01*
X111504155Y-123719230D01*
X111533210Y-124014249D01*
X111600308Y-124351572D01*
X111700150Y-124680706D01*
X111746193Y-124791863D01*
X111800401Y-124922734D01*
X111831770Y-124998464D01*
X111831772Y-124998469D01*
X111993893Y-125301775D01*
X111993904Y-125301793D01*
X112184975Y-125587751D01*
X112184985Y-125587765D01*
X112403176Y-125853632D01*
X112646367Y-126096823D01*
X112646372Y-126096827D01*
X112646373Y-126096828D01*
X112912240Y-126315019D01*
X113198213Y-126506100D01*
X113198222Y-126506105D01*
X113198224Y-126506106D01*
X113501530Y-126668227D01*
X113501532Y-126668227D01*
X113501538Y-126668231D01*
X113819295Y-126799850D01*
X114148422Y-126899690D01*
X114485750Y-126966789D01*
X114828031Y-127000500D01*
X114828034Y-127000500D01*
X115171966Y-127000500D01*
X115171969Y-127000500D01*
X115514250Y-126966789D01*
X115851578Y-126899690D01*
X116180705Y-126799850D01*
X116498462Y-126668231D01*
X116801787Y-126506100D01*
X117087760Y-126315019D01*
X117353627Y-126096828D01*
X117596828Y-125853627D01*
X117815019Y-125587760D01*
X118006100Y-125301787D01*
X118168231Y-124998462D01*
X118299850Y-124680705D01*
X118399690Y-124351578D01*
X118466789Y-124014250D01*
X118497234Y-123705131D01*
X135399500Y-123705131D01*
X135399500Y-125494856D01*
X135399502Y-125494882D01*
X135402413Y-125519987D01*
X135402415Y-125519991D01*
X135447793Y-125622764D01*
X135447794Y-125622765D01*
X135527235Y-125702206D01*
X135630009Y-125747585D01*
X135655135Y-125750500D01*
X137444864Y-125750499D01*
X137444879Y-125750497D01*
X137444882Y-125750497D01*
X137469987Y-125747586D01*
X137469988Y-125747585D01*
X137469991Y-125747585D01*
X137572765Y-125702206D01*
X137652206Y-125622765D01*
X137697585Y-125519991D01*
X137700500Y-125494865D01*
X137700499Y-123705136D01*
X137700497Y-123705117D01*
X137697586Y-123680012D01*
X137697585Y-123680010D01*
X137697585Y-123680009D01*
X137652206Y-123577235D01*
X137572765Y-123497794D01*
X137571630Y-123497293D01*
X137469992Y-123452415D01*
X137444865Y-123449500D01*
X135655143Y-123449500D01*
X135655117Y-123449502D01*
X135630012Y-123452413D01*
X135630008Y-123452415D01*
X135527235Y-123497793D01*
X135447794Y-123577234D01*
X135402415Y-123680006D01*
X135402415Y-123680008D01*
X135399500Y-123705131D01*
X118497234Y-123705131D01*
X118500500Y-123671969D01*
X118500500Y-123328031D01*
X118466789Y-122985750D01*
X118399690Y-122648422D01*
X118299850Y-122319295D01*
X118168231Y-122001538D01*
X118006100Y-121698213D01*
X117815019Y-121412240D01*
X117596828Y-121146373D01*
X117596827Y-121146372D01*
X117596823Y-121146367D01*
X117353632Y-120903176D01*
X117087765Y-120684985D01*
X117087764Y-120684984D01*
X117087760Y-120684981D01*
X116801787Y-120493900D01*
X116801782Y-120493897D01*
X116801775Y-120493893D01*
X116498469Y-120331772D01*
X116498464Y-120331770D01*
X116180706Y-120200150D01*
X115851572Y-120100308D01*
X115514248Y-120033210D01*
X115514249Y-120033210D01*
X115256456Y-120007821D01*
X115171969Y-119999500D01*
X114828031Y-119999500D01*
X114749966Y-120007188D01*
X114485750Y-120033210D01*
X114148427Y-120100308D01*
X113819293Y-120200150D01*
X113501535Y-120331770D01*
X113501530Y-120331772D01*
X113198224Y-120493893D01*
X113198206Y-120493904D01*
X112912248Y-120684975D01*
X112912234Y-120684985D01*
X112646367Y-120903176D01*
X112403176Y-121146367D01*
X112184985Y-121412234D01*
X112184975Y-121412248D01*
X111993904Y-121698206D01*
X111993893Y-121698224D01*
X111831772Y-122001530D01*
X111831770Y-122001535D01*
X111700150Y-122319293D01*
X111600308Y-122648427D01*
X111533210Y-122985750D01*
X111507188Y-123249966D01*
X111499500Y-123328031D01*
X110300500Y-123328031D01*
X110300500Y-114175466D01*
X115600000Y-114175466D01*
X115600000Y-114424533D01*
X115632508Y-114671463D01*
X115696973Y-114912049D01*
X115792283Y-115142148D01*
X115792288Y-115142159D01*
X115916813Y-115357841D01*
X115916819Y-115357849D01*
X115991400Y-115455045D01*
X116784152Y-114662292D01*
X116791049Y-114678942D01*
X116878599Y-114809970D01*
X116990030Y-114921401D01*
X117121058Y-115008951D01*
X117137705Y-115015846D01*
X116344953Y-115808598D01*
X116442150Y-115883180D01*
X116442158Y-115883186D01*
X116657840Y-116007711D01*
X116657851Y-116007716D01*
X116887950Y-116103026D01*
X117128536Y-116167491D01*
X117375466Y-116200000D01*
X117624534Y-116200000D01*
X117871463Y-116167491D01*
X118112049Y-116103026D01*
X118342148Y-116007716D01*
X118342159Y-116007711D01*
X118557855Y-115883178D01*
X118655045Y-115808600D01*
X118655045Y-115808597D01*
X117862294Y-115015846D01*
X117878942Y-115008951D01*
X118009970Y-114921401D01*
X118121401Y-114809970D01*
X118208951Y-114678942D01*
X118215846Y-114662294D01*
X119008597Y-115455045D01*
X119008600Y-115455045D01*
X119083178Y-115357855D01*
X119207711Y-115142159D01*
X119207716Y-115142148D01*
X119303026Y-114912049D01*
X119367491Y-114671463D01*
X119400000Y-114424533D01*
X119400000Y-114175466D01*
X119367491Y-113928536D01*
X119303026Y-113687950D01*
X119207716Y-113457851D01*
X119207711Y-113457840D01*
X119083186Y-113242158D01*
X119083180Y-113242150D01*
X119008598Y-113144953D01*
X118215846Y-113937705D01*
X118208951Y-113921058D01*
X118121401Y-113790030D01*
X118009970Y-113678599D01*
X117878942Y-113591049D01*
X117862292Y-113584152D01*
X118655045Y-112791400D01*
X118557849Y-112716819D01*
X118557841Y-112716813D01*
X118342159Y-112592288D01*
X118342148Y-112592283D01*
X118112049Y-112496973D01*
X117871463Y-112432508D01*
X117624534Y-112400000D01*
X117375466Y-112400000D01*
X117128536Y-112432508D01*
X116887950Y-112496973D01*
X116657851Y-112592283D01*
X116657847Y-112592285D01*
X116442143Y-112716823D01*
X116344953Y-112791399D01*
X116344953Y-112791400D01*
X117137706Y-113584153D01*
X117121058Y-113591049D01*
X116990030Y-113678599D01*
X116878599Y-113790030D01*
X116791049Y-113921058D01*
X116784153Y-113937706D01*
X115991400Y-113144953D01*
X115991399Y-113144953D01*
X115916823Y-113242143D01*
X115792285Y-113457847D01*
X115792283Y-113457851D01*
X115696973Y-113687950D01*
X115632508Y-113928536D01*
X115600000Y-114175466D01*
X110300500Y-114175466D01*
X110300500Y-103376902D01*
X116349500Y-103376902D01*
X116349500Y-103613097D01*
X116386446Y-103846368D01*
X116459433Y-104070996D01*
X116566657Y-104281433D01*
X116705483Y-104472510D01*
X116872490Y-104639517D01*
X117063567Y-104778343D01*
X117162991Y-104829002D01*
X117274003Y-104885566D01*
X117274005Y-104885566D01*
X117274008Y-104885568D01*
X117394412Y-104924689D01*
X117498631Y-104958553D01*
X117731903Y-104995500D01*
X117731908Y-104995500D01*
X117968097Y-104995500D01*
X118201368Y-104958553D01*
X118425992Y-104885568D01*
X118636433Y-104778343D01*
X118827510Y-104639517D01*
X118994517Y-104472510D01*
X119133343Y-104281433D01*
X119240568Y-104070992D01*
X119313553Y-103846368D01*
X119350500Y-103613097D01*
X119350500Y-103376902D01*
X119749500Y-103376902D01*
X119749500Y-103613097D01*
X119786446Y-103846368D01*
X119859433Y-104070996D01*
X119966657Y-104281433D01*
X120105483Y-104472510D01*
X120272490Y-104639517D01*
X120463567Y-104778343D01*
X120562991Y-104829002D01*
X120674003Y-104885566D01*
X120674005Y-104885566D01*
X120674008Y-104885568D01*
X120794412Y-104924689D01*
X120898631Y-104958553D01*
X121131903Y-104995500D01*
X121131908Y-104995500D01*
X121368097Y-104995500D01*
X121601368Y-104958553D01*
X121825992Y-104885568D01*
X122036433Y-104778343D01*
X122227510Y-104639517D01*
X122394517Y-104472510D01*
X122533343Y-104281433D01*
X122640568Y-104070992D01*
X122713553Y-103846368D01*
X122750500Y-103613097D01*
X122750500Y-103381902D01*
X123799500Y-103381902D01*
X123799500Y-103618097D01*
X123836446Y-103851368D01*
X123909433Y-104075996D01*
X124014109Y-104281433D01*
X124016657Y-104286433D01*
X124155483Y-104477510D01*
X124322490Y-104644517D01*
X124513567Y-104783343D01*
X124612991Y-104834002D01*
X124724003Y-104890566D01*
X124724005Y-104890566D01*
X124724008Y-104890568D01*
X124844412Y-104929689D01*
X124948631Y-104963553D01*
X125181903Y-105000500D01*
X125181908Y-105000500D01*
X125418097Y-105000500D01*
X125651368Y-104963553D01*
X125666756Y-104958553D01*
X125875992Y-104890568D01*
X126086433Y-104783343D01*
X126277510Y-104644517D01*
X126444517Y-104477510D01*
X126583343Y-104286433D01*
X126690568Y-104075992D01*
X126763553Y-103851368D01*
X126764345Y-103846368D01*
X126800500Y-103618097D01*
X126800500Y-103381902D01*
X126763553Y-103148631D01*
X126690566Y-102924003D01*
X126583342Y-102713566D01*
X126579710Y-102708567D01*
X126444517Y-102522490D01*
X126277510Y-102355483D01*
X126086433Y-102216657D01*
X126076620Y-102211657D01*
X125875996Y-102109433D01*
X125651368Y-102036446D01*
X125418097Y-101999500D01*
X125418092Y-101999500D01*
X125181908Y-101999500D01*
X125181903Y-101999500D01*
X124948631Y-102036446D01*
X124724003Y-102109433D01*
X124513566Y-102216657D01*
X124404550Y-102295862D01*
X124322490Y-102355483D01*
X124322488Y-102355485D01*
X124322487Y-102355485D01*
X124155485Y-102522487D01*
X124155485Y-102522488D01*
X124155483Y-102522490D01*
X124095862Y-102604550D01*
X124016657Y-102713566D01*
X123909433Y-102924003D01*
X123836446Y-103148631D01*
X123799500Y-103381902D01*
X122750500Y-103381902D01*
X122750500Y-103376902D01*
X122713553Y-103143631D01*
X122678392Y-103035419D01*
X122640568Y-102919008D01*
X122640566Y-102919005D01*
X122640566Y-102919003D01*
X122584002Y-102807991D01*
X122533343Y-102708567D01*
X122394517Y-102517490D01*
X122227510Y-102350483D01*
X122036433Y-102211657D01*
X121825996Y-102104433D01*
X121601368Y-102031446D01*
X121368097Y-101994500D01*
X121368092Y-101994500D01*
X121131908Y-101994500D01*
X121131903Y-101994500D01*
X120898631Y-102031446D01*
X120674003Y-102104433D01*
X120463566Y-102211657D01*
X120354550Y-102290862D01*
X120272490Y-102350483D01*
X120272488Y-102350485D01*
X120272487Y-102350485D01*
X120105485Y-102517487D01*
X120105485Y-102517488D01*
X120105483Y-102517490D01*
X120045862Y-102599550D01*
X119966657Y-102708566D01*
X119859433Y-102919003D01*
X119786446Y-103143631D01*
X119749500Y-103376902D01*
X119350500Y-103376902D01*
X119313553Y-103143631D01*
X119278392Y-103035419D01*
X119240568Y-102919008D01*
X119240566Y-102919005D01*
X119240566Y-102919003D01*
X119184002Y-102807991D01*
X119133343Y-102708567D01*
X118994517Y-102517490D01*
X118827510Y-102350483D01*
X118636433Y-102211657D01*
X118425996Y-102104433D01*
X118201368Y-102031446D01*
X117968097Y-101994500D01*
X117968092Y-101994500D01*
X117731908Y-101994500D01*
X117731903Y-101994500D01*
X117498631Y-102031446D01*
X117274003Y-102104433D01*
X117063566Y-102211657D01*
X116954550Y-102290862D01*
X116872490Y-102350483D01*
X116872488Y-102350485D01*
X116872487Y-102350485D01*
X116705485Y-102517487D01*
X116705485Y-102517488D01*
X116705483Y-102517490D01*
X116645862Y-102599550D01*
X116566657Y-102708566D01*
X116459433Y-102919003D01*
X116386446Y-103143631D01*
X116349500Y-103376902D01*
X110300500Y-103376902D01*
X110300500Y-93456902D01*
X116349500Y-93456902D01*
X116349500Y-93693097D01*
X116386446Y-93926368D01*
X116459433Y-94150996D01*
X116566657Y-94361433D01*
X116705483Y-94552510D01*
X116872490Y-94719517D01*
X117063567Y-94858343D01*
X117162991Y-94909002D01*
X117274003Y-94965566D01*
X117274005Y-94965566D01*
X117274008Y-94965568D01*
X117394412Y-95004689D01*
X117498631Y-95038553D01*
X117731903Y-95075500D01*
X117731908Y-95075500D01*
X117968097Y-95075500D01*
X118201368Y-95038553D01*
X118425992Y-94965568D01*
X118636433Y-94858343D01*
X118827510Y-94719517D01*
X118994517Y-94552510D01*
X119133343Y-94361433D01*
X119240568Y-94150992D01*
X119313553Y-93926368D01*
X119350500Y-93693097D01*
X119350500Y-93456902D01*
X119749500Y-93456902D01*
X119749500Y-93693097D01*
X119786446Y-93926368D01*
X119859433Y-94150996D01*
X119966657Y-94361433D01*
X120105483Y-94552510D01*
X120272490Y-94719517D01*
X120463567Y-94858343D01*
X120562991Y-94909002D01*
X120674003Y-94965566D01*
X120674005Y-94965566D01*
X120674008Y-94965568D01*
X120794412Y-95004689D01*
X120898631Y-95038553D01*
X121131903Y-95075500D01*
X121131908Y-95075500D01*
X121368097Y-95075500D01*
X121601368Y-95038553D01*
X121825992Y-94965568D01*
X122036433Y-94858343D01*
X122227510Y-94719517D01*
X122394517Y-94552510D01*
X122533343Y-94361433D01*
X122640568Y-94150992D01*
X122713553Y-93926368D01*
X122750500Y-93693097D01*
X122750500Y-93461902D01*
X123799500Y-93461902D01*
X123799500Y-93698097D01*
X123836446Y-93931368D01*
X123909433Y-94155996D01*
X124014109Y-94361433D01*
X124016657Y-94366433D01*
X124155483Y-94557510D01*
X124322490Y-94724517D01*
X124513567Y-94863343D01*
X124612991Y-94914002D01*
X124724003Y-94970566D01*
X124724005Y-94970566D01*
X124724008Y-94970568D01*
X124844412Y-95009689D01*
X124948631Y-95043553D01*
X125181903Y-95080500D01*
X125181908Y-95080500D01*
X125418097Y-95080500D01*
X125651368Y-95043553D01*
X125666756Y-95038553D01*
X125875992Y-94970568D01*
X126086433Y-94863343D01*
X126277510Y-94724517D01*
X126444517Y-94557510D01*
X126583343Y-94366433D01*
X126690568Y-94155992D01*
X126763553Y-93931368D01*
X126764345Y-93926368D01*
X126800500Y-93698097D01*
X126800500Y-93461902D01*
X127199500Y-93461902D01*
X127199500Y-93698097D01*
X127236446Y-93931368D01*
X127309433Y-94155996D01*
X127414109Y-94361433D01*
X127416657Y-94366433D01*
X127555483Y-94557510D01*
X127722490Y-94724517D01*
X127913567Y-94863343D01*
X128012991Y-94914002D01*
X128124003Y-94970566D01*
X128124005Y-94970566D01*
X128124008Y-94970568D01*
X128244412Y-95009689D01*
X128348631Y-95043553D01*
X128581903Y-95080500D01*
X128581908Y-95080500D01*
X128818097Y-95080500D01*
X129051368Y-95043553D01*
X129066756Y-95038553D01*
X129275992Y-94970568D01*
X129486433Y-94863343D01*
X129677510Y-94724517D01*
X129844517Y-94557510D01*
X129983343Y-94366433D01*
X130090568Y-94155992D01*
X130102569Y-94119055D01*
X130142007Y-94061380D01*
X130206365Y-94034182D01*
X130275212Y-94046097D01*
X130326687Y-94093341D01*
X130344500Y-94157374D01*
X130344500Y-102922625D01*
X130324815Y-102989664D01*
X130272011Y-103035419D01*
X130202853Y-103045363D01*
X130139297Y-103016338D01*
X130102569Y-102960944D01*
X130090566Y-102924003D01*
X129983342Y-102713566D01*
X129979710Y-102708567D01*
X129844517Y-102522490D01*
X129677510Y-102355483D01*
X129486433Y-102216657D01*
X129476620Y-102211657D01*
X129275996Y-102109433D01*
X129051368Y-102036446D01*
X128818097Y-101999500D01*
X128818092Y-101999500D01*
X128581908Y-101999500D01*
X128581903Y-101999500D01*
X128348631Y-102036446D01*
X128124003Y-102109433D01*
X127913566Y-102216657D01*
X127804550Y-102295862D01*
X127722490Y-102355483D01*
X127722488Y-102355485D01*
X127722487Y-102355485D01*
X127555485Y-102522487D01*
X127555485Y-102522488D01*
X127555483Y-102522490D01*
X127495862Y-102604550D01*
X127416657Y-102713566D01*
X127309433Y-102924003D01*
X127236446Y-103148631D01*
X127199500Y-103381902D01*
X127199500Y-103618097D01*
X127236446Y-103851368D01*
X127309433Y-104075996D01*
X127414109Y-104281433D01*
X127416657Y-104286433D01*
X127555483Y-104477510D01*
X127722490Y-104644517D01*
X127913567Y-104783343D01*
X128012991Y-104834002D01*
X128124003Y-104890566D01*
X128124005Y-104890566D01*
X128124008Y-104890568D01*
X128244412Y-104929689D01*
X128348631Y-104963553D01*
X128581903Y-105000500D01*
X128581908Y-105000500D01*
X128818097Y-105000500D01*
X129051368Y-104963553D01*
X129066756Y-104958553D01*
X129275992Y-104890568D01*
X129486433Y-104783343D01*
X129677510Y-104644517D01*
X129844517Y-104477510D01*
X129983343Y-104286433D01*
X130090568Y-104075992D01*
X130102569Y-104039055D01*
X130142007Y-103981380D01*
X130206365Y-103954182D01*
X130275212Y-103966097D01*
X130326687Y-104013341D01*
X130344500Y-104077374D01*
X130344500Y-119382398D01*
X130344501Y-119382407D01*
X130356052Y-119489848D01*
X130356054Y-119489860D01*
X130367260Y-119541370D01*
X130401383Y-119643895D01*
X130401386Y-119643901D01*
X130479171Y-119764935D01*
X130479179Y-119764946D01*
X130524923Y-119817738D01*
X130524926Y-119817741D01*
X130524930Y-119817745D01*
X130633664Y-119911965D01*
X130633667Y-119911966D01*
X130633668Y-119911967D01*
X130727925Y-119955014D01*
X130764541Y-119971736D01*
X130831580Y-119991421D01*
X130831584Y-119991422D01*
X130974000Y-120011898D01*
X130974003Y-120011898D01*
X138225990Y-120011898D01*
X138226000Y-120011898D01*
X138333456Y-120000345D01*
X138384967Y-119989139D01*
X138419197Y-119977745D01*
X138487497Y-119955014D01*
X138487501Y-119955011D01*
X138487504Y-119955011D01*
X138553460Y-119912622D01*
X138620499Y-119892938D01*
X138687539Y-119912622D01*
X138733294Y-119965426D01*
X138744500Y-120016938D01*
X138744500Y-124582398D01*
X138744501Y-124582407D01*
X138756052Y-124689848D01*
X138756054Y-124689860D01*
X138767260Y-124741370D01*
X138801383Y-124843895D01*
X138801386Y-124843901D01*
X138879171Y-124964935D01*
X138879179Y-124964946D01*
X138924923Y-125017738D01*
X138924926Y-125017741D01*
X138924930Y-125017745D01*
X139033664Y-125111965D01*
X139033667Y-125111966D01*
X139033668Y-125111967D01*
X139127925Y-125155014D01*
X139164541Y-125171736D01*
X139231580Y-125191421D01*
X139231584Y-125191422D01*
X139374000Y-125211898D01*
X139374003Y-125211898D01*
X150375990Y-125211898D01*
X150376000Y-125211898D01*
X150483456Y-125200345D01*
X150534967Y-125189139D01*
X150569197Y-125177745D01*
X150637497Y-125155014D01*
X150637501Y-125155011D01*
X150637504Y-125155011D01*
X150758543Y-125077223D01*
X150811347Y-125031468D01*
X150905567Y-124922734D01*
X150965338Y-124791857D01*
X150985023Y-124724818D01*
X150985024Y-124724814D01*
X151005500Y-124582398D01*
X151005500Y-120788549D01*
X154299500Y-120788549D01*
X154299500Y-121011450D01*
X154299501Y-121011466D01*
X154328594Y-121232452D01*
X154328595Y-121232457D01*
X154328596Y-121232463D01*
X154376767Y-121412240D01*
X154386290Y-121447780D01*
X154386293Y-121447790D01*
X154471593Y-121653722D01*
X154471595Y-121653726D01*
X154583052Y-121846774D01*
X154583057Y-121846780D01*
X154583058Y-121846782D01*
X154718751Y-122023622D01*
X154718757Y-122023629D01*
X154876370Y-122181242D01*
X154876376Y-122181247D01*
X155053226Y-122316948D01*
X155246274Y-122428405D01*
X155452219Y-122513710D01*
X155667537Y-122571404D01*
X155888543Y-122600500D01*
X155888550Y-122600500D01*
X156111450Y-122600500D01*
X156111457Y-122600500D01*
X156332463Y-122571404D01*
X156547781Y-122513710D01*
X156753726Y-122428405D01*
X156946774Y-122316948D01*
X157123624Y-122181247D01*
X157281247Y-122023624D01*
X157416948Y-121846774D01*
X157528405Y-121653726D01*
X157613710Y-121447781D01*
X157671404Y-121232463D01*
X157700500Y-121011457D01*
X157700500Y-120788549D01*
X160049500Y-120788549D01*
X160049500Y-121011450D01*
X160049501Y-121011466D01*
X160078594Y-121232452D01*
X160078595Y-121232457D01*
X160078596Y-121232463D01*
X160126767Y-121412240D01*
X160136290Y-121447780D01*
X160136293Y-121447790D01*
X160221593Y-121653722D01*
X160221595Y-121653726D01*
X160333052Y-121846774D01*
X160333057Y-121846780D01*
X160333058Y-121846782D01*
X160468751Y-122023622D01*
X160468757Y-122023629D01*
X160626370Y-122181242D01*
X160626376Y-122181247D01*
X160803226Y-122316948D01*
X160996274Y-122428405D01*
X161202219Y-122513710D01*
X161417537Y-122571404D01*
X161638543Y-122600500D01*
X161638550Y-122600500D01*
X161861450Y-122600500D01*
X161861457Y-122600500D01*
X162082463Y-122571404D01*
X162297781Y-122513710D01*
X162503726Y-122428405D01*
X162696774Y-122316948D01*
X162873624Y-122181247D01*
X163031247Y-122023624D01*
X163166948Y-121846774D01*
X163278405Y-121653726D01*
X163363710Y-121447781D01*
X163421404Y-121232463D01*
X163450500Y-121011457D01*
X163450500Y-120788543D01*
X163421404Y-120567537D01*
X163363710Y-120352219D01*
X163278405Y-120146274D01*
X163166948Y-119953226D01*
X163073520Y-119831468D01*
X163031248Y-119776377D01*
X163031242Y-119776370D01*
X162873629Y-119618757D01*
X162873622Y-119618751D01*
X162696782Y-119483058D01*
X162696780Y-119483057D01*
X162696774Y-119483052D01*
X162503726Y-119371595D01*
X162503722Y-119371593D01*
X162297790Y-119286293D01*
X162297783Y-119286291D01*
X162297781Y-119286290D01*
X162082463Y-119228596D01*
X162082457Y-119228595D01*
X162082452Y-119228594D01*
X161861466Y-119199501D01*
X161861463Y-119199500D01*
X161861457Y-119199500D01*
X161638543Y-119199500D01*
X161638537Y-119199500D01*
X161638533Y-119199501D01*
X161417547Y-119228594D01*
X161417540Y-119228595D01*
X161417537Y-119228596D01*
X161202219Y-119286290D01*
X161202209Y-119286293D01*
X160996277Y-119371593D01*
X160996273Y-119371595D01*
X160803226Y-119483052D01*
X160803217Y-119483058D01*
X160626377Y-119618751D01*
X160626370Y-119618757D01*
X160468757Y-119776370D01*
X160468751Y-119776377D01*
X160333058Y-119953217D01*
X160333052Y-119953226D01*
X160221595Y-120146273D01*
X160221593Y-120146277D01*
X160136293Y-120352209D01*
X160136290Y-120352219D01*
X160078597Y-120567534D01*
X160078594Y-120567547D01*
X160049501Y-120788533D01*
X160049500Y-120788549D01*
X157700500Y-120788549D01*
X157700500Y-120788543D01*
X157671404Y-120567537D01*
X157613710Y-120352219D01*
X157528405Y-120146274D01*
X157416948Y-119953226D01*
X157323520Y-119831468D01*
X157281248Y-119776377D01*
X157281242Y-119776370D01*
X157123629Y-119618757D01*
X157123622Y-119618751D01*
X156946782Y-119483058D01*
X156946780Y-119483057D01*
X156946774Y-119483052D01*
X156753726Y-119371595D01*
X156753722Y-119371593D01*
X156547790Y-119286293D01*
X156547783Y-119286291D01*
X156547781Y-119286290D01*
X156332463Y-119228596D01*
X156332457Y-119228595D01*
X156332452Y-119228594D01*
X156111466Y-119199501D01*
X156111463Y-119199500D01*
X156111457Y-119199500D01*
X155888543Y-119199500D01*
X155888537Y-119199500D01*
X155888533Y-119199501D01*
X155667547Y-119228594D01*
X155667540Y-119228595D01*
X155667537Y-119228596D01*
X155452219Y-119286290D01*
X155452209Y-119286293D01*
X155246277Y-119371593D01*
X155246273Y-119371595D01*
X155053226Y-119483052D01*
X155053217Y-119483058D01*
X154876377Y-119618751D01*
X154876370Y-119618757D01*
X154718757Y-119776370D01*
X154718751Y-119776377D01*
X154583058Y-119953217D01*
X154583052Y-119953226D01*
X154471595Y-120146273D01*
X154471593Y-120146277D01*
X154386293Y-120352209D01*
X154386290Y-120352219D01*
X154328597Y-120567534D01*
X154328594Y-120567547D01*
X154299501Y-120788533D01*
X154299500Y-120788549D01*
X151005500Y-120788549D01*
X151005500Y-106874500D01*
X150993947Y-106767044D01*
X150982741Y-106715533D01*
X150982739Y-106715526D01*
X150982117Y-106713656D01*
X150982100Y-106713196D01*
X150981862Y-106712327D01*
X150982067Y-106712270D01*
X150981098Y-106685121D01*
X150977034Y-106656853D01*
X150979868Y-106650646D01*
X150979625Y-106643831D01*
X150994194Y-106619277D01*
X151006059Y-106593297D01*
X151011798Y-106589608D01*
X151015279Y-106583743D01*
X151040810Y-106570963D01*
X151064837Y-106555523D01*
X151074409Y-106554146D01*
X151077759Y-106552470D01*
X151099772Y-106550500D01*
X151221637Y-106550500D01*
X151260179Y-106558165D01*
X151260365Y-106557473D01*
X151268214Y-106559576D01*
X151268216Y-106559577D01*
X151420943Y-106600500D01*
X151420945Y-106600500D01*
X151579055Y-106600500D01*
X151579057Y-106600500D01*
X151731784Y-106559577D01*
X151868716Y-106480520D01*
X151980520Y-106368716D01*
X152059577Y-106231784D01*
X152100500Y-106079057D01*
X152100500Y-105920943D01*
X152059577Y-105768216D01*
X152059573Y-105768209D01*
X151980524Y-105631290D01*
X151980518Y-105631282D01*
X151868717Y-105519481D01*
X151868709Y-105519475D01*
X151731790Y-105440426D01*
X151731786Y-105440424D01*
X151731784Y-105440423D01*
X151579057Y-105399500D01*
X151420943Y-105399500D01*
X151268216Y-105440423D01*
X151268214Y-105440423D01*
X151260365Y-105442527D01*
X151260253Y-105442111D01*
X151256572Y-105444477D01*
X151221637Y-105449500D01*
X151097351Y-105449500D01*
X151030312Y-105429815D01*
X150984557Y-105377011D01*
X150974613Y-105307853D01*
X150978374Y-105290563D01*
X150985023Y-105267920D01*
X150985024Y-105267916D01*
X151005500Y-105125500D01*
X151005500Y-96874500D01*
X150993947Y-96767044D01*
X150982741Y-96715533D01*
X150982739Y-96715526D01*
X150982117Y-96713656D01*
X150982100Y-96713196D01*
X150981862Y-96712327D01*
X150982067Y-96712270D01*
X150981098Y-96685121D01*
X150977034Y-96656853D01*
X150979868Y-96650646D01*
X150979625Y-96643831D01*
X150994194Y-96619277D01*
X151006059Y-96593297D01*
X151011798Y-96589608D01*
X151015279Y-96583743D01*
X151040810Y-96570963D01*
X151064837Y-96555523D01*
X151074409Y-96554146D01*
X151077759Y-96552470D01*
X151099772Y-96550500D01*
X151221637Y-96550500D01*
X151260179Y-96558165D01*
X151260365Y-96557473D01*
X151268214Y-96559576D01*
X151268216Y-96559577D01*
X151420943Y-96600500D01*
X151420945Y-96600500D01*
X151579055Y-96600500D01*
X151579057Y-96600500D01*
X151731784Y-96559577D01*
X151868716Y-96480520D01*
X151980520Y-96368716D01*
X152059577Y-96231784D01*
X152100500Y-96079057D01*
X152100500Y-95920943D01*
X152059577Y-95768216D01*
X152001697Y-95667964D01*
X151980524Y-95631290D01*
X151980518Y-95631282D01*
X151868717Y-95519481D01*
X151868709Y-95519475D01*
X151731790Y-95440426D01*
X151731786Y-95440424D01*
X151731784Y-95440423D01*
X151579057Y-95399500D01*
X151420943Y-95399500D01*
X151268216Y-95440423D01*
X151268214Y-95440423D01*
X151260365Y-95442527D01*
X151260253Y-95442111D01*
X151256572Y-95444477D01*
X151221637Y-95449500D01*
X151097351Y-95449500D01*
X151030312Y-95429815D01*
X150984557Y-95377011D01*
X150974613Y-95307853D01*
X150978374Y-95290563D01*
X150985023Y-95267920D01*
X150985024Y-95267916D01*
X151005500Y-95125500D01*
X151005500Y-89920943D01*
X152399500Y-89920943D01*
X152399500Y-90079056D01*
X152440423Y-90231783D01*
X152440426Y-90231790D01*
X152519475Y-90368709D01*
X152519479Y-90368714D01*
X152519480Y-90368716D01*
X152631284Y-90480520D01*
X152631286Y-90480521D01*
X152631290Y-90480524D01*
X152775254Y-90563641D01*
X152774895Y-90564262D01*
X152807570Y-90586095D01*
X159088181Y-96866705D01*
X159121666Y-96928028D01*
X159124500Y-96954386D01*
X159124500Y-97221637D01*
X159116834Y-97260179D01*
X159117527Y-97260365D01*
X159074500Y-97420943D01*
X159074500Y-97579056D01*
X159117527Y-97739636D01*
X159116832Y-97739822D01*
X159124500Y-97778362D01*
X159124500Y-108721637D01*
X159116834Y-108760179D01*
X159117527Y-108760365D01*
X159074500Y-108920943D01*
X159074500Y-109079056D01*
X159115423Y-109231783D01*
X159115426Y-109231790D01*
X159194475Y-109368709D01*
X159194479Y-109368714D01*
X159194480Y-109368716D01*
X159306284Y-109480520D01*
X159306286Y-109480521D01*
X159306290Y-109480524D01*
X159443209Y-109559573D01*
X159443216Y-109559577D01*
X159595943Y-109600500D01*
X159595945Y-109600500D01*
X159754055Y-109600500D01*
X159754057Y-109600500D01*
X159906784Y-109559577D01*
X160043716Y-109480520D01*
X160155520Y-109368716D01*
X160234577Y-109231784D01*
X160275500Y-109079057D01*
X160275500Y-108920943D01*
X160234577Y-108768216D01*
X160234576Y-108768214D01*
X160232473Y-108760365D01*
X160233165Y-108760179D01*
X160225500Y-108721637D01*
X160225500Y-97778362D01*
X160233167Y-97739822D01*
X160232473Y-97739636D01*
X160234577Y-97731784D01*
X160275500Y-97579057D01*
X160275500Y-97420943D01*
X160234577Y-97268216D01*
X160234576Y-97268214D01*
X160232473Y-97260365D01*
X160233165Y-97260179D01*
X160225500Y-97221637D01*
X160225500Y-96602527D01*
X160225500Y-96602525D01*
X160187984Y-96462515D01*
X160120098Y-96344933D01*
X160115510Y-96336986D01*
X160115508Y-96336984D01*
X160115506Y-96336981D01*
X153586095Y-89807570D01*
X153564262Y-89774895D01*
X153563641Y-89775254D01*
X153480524Y-89631290D01*
X153480518Y-89631282D01*
X153368717Y-89519481D01*
X153368709Y-89519475D01*
X153231790Y-89440426D01*
X153231786Y-89440424D01*
X153231784Y-89440423D01*
X153079057Y-89399500D01*
X152920943Y-89399500D01*
X152768216Y-89440423D01*
X152768209Y-89440426D01*
X152631290Y-89519475D01*
X152631282Y-89519481D01*
X152519481Y-89631282D01*
X152519475Y-89631290D01*
X152440426Y-89768209D01*
X152440423Y-89768216D01*
X152399500Y-89920943D01*
X151005500Y-89920943D01*
X151005500Y-88316156D01*
X160194499Y-88316156D01*
X160230065Y-88494952D01*
X160230068Y-88494962D01*
X160299831Y-88663387D01*
X160299833Y-88663391D01*
X160401113Y-88814967D01*
X160401119Y-88814975D01*
X160530024Y-88943880D01*
X160530032Y-88943886D01*
X160681608Y-89045166D01*
X160681612Y-89045168D01*
X160850037Y-89114931D01*
X160850042Y-89114933D01*
X160850046Y-89114933D01*
X160850047Y-89114934D01*
X161028843Y-89150500D01*
X161028846Y-89150500D01*
X161211156Y-89150500D01*
X161331445Y-89126572D01*
X161389958Y-89114933D01*
X161558389Y-89045167D01*
X161558391Y-89045166D01*
X161633672Y-88994864D01*
X161709972Y-88943883D01*
X161838883Y-88814972D01*
X161940167Y-88663389D01*
X162009933Y-88494958D01*
X162045500Y-88316154D01*
X162045500Y-88133846D01*
X162045500Y-88133843D01*
X162009934Y-87955047D01*
X162009933Y-87955046D01*
X162009933Y-87955042D01*
X162009931Y-87955037D01*
X161940168Y-87786612D01*
X161940166Y-87786608D01*
X161838886Y-87635032D01*
X161838880Y-87635024D01*
X161709975Y-87506119D01*
X161709967Y-87506113D01*
X161558391Y-87404833D01*
X161558387Y-87404831D01*
X161389962Y-87335068D01*
X161389952Y-87335065D01*
X161211156Y-87299500D01*
X161211154Y-87299500D01*
X161028846Y-87299500D01*
X161028844Y-87299500D01*
X160850047Y-87335065D01*
X160850037Y-87335068D01*
X160681612Y-87404831D01*
X160681608Y-87404833D01*
X160530032Y-87506113D01*
X160530024Y-87506119D01*
X160401119Y-87635024D01*
X160401113Y-87635032D01*
X160299833Y-87786608D01*
X160299831Y-87786612D01*
X160230068Y-87955037D01*
X160230065Y-87955047D01*
X160194500Y-88133843D01*
X160194500Y-88133846D01*
X160194500Y-88316154D01*
X160194500Y-88316156D01*
X160194499Y-88316156D01*
X151005500Y-88316156D01*
X151005500Y-77688549D01*
X152299500Y-77688549D01*
X152299500Y-77911450D01*
X152299501Y-77911466D01*
X152328594Y-78132452D01*
X152328595Y-78132457D01*
X152328596Y-78132463D01*
X152328597Y-78132465D01*
X152386290Y-78347780D01*
X152386293Y-78347790D01*
X152471593Y-78553722D01*
X152471595Y-78553726D01*
X152583052Y-78746774D01*
X152583057Y-78746780D01*
X152583058Y-78746782D01*
X152718751Y-78923622D01*
X152718757Y-78923629D01*
X152876370Y-79081242D01*
X152876377Y-79081248D01*
X153002294Y-79177867D01*
X153053226Y-79216948D01*
X153246274Y-79328405D01*
X153452219Y-79413710D01*
X153667537Y-79471404D01*
X153888543Y-79500500D01*
X153888550Y-79500500D01*
X154111450Y-79500500D01*
X154111457Y-79500500D01*
X154332463Y-79471404D01*
X154547781Y-79413710D01*
X154753726Y-79328405D01*
X154946774Y-79216948D01*
X155123624Y-79081247D01*
X155281247Y-78923624D01*
X155416948Y-78746774D01*
X155528405Y-78553726D01*
X155613710Y-78347781D01*
X155671404Y-78132463D01*
X155700500Y-77911457D01*
X155700500Y-77688549D01*
X158449500Y-77688549D01*
X158449500Y-77911450D01*
X158449501Y-77911466D01*
X158478594Y-78132452D01*
X158478595Y-78132457D01*
X158478596Y-78132463D01*
X158478597Y-78132465D01*
X158536290Y-78347780D01*
X158536293Y-78347790D01*
X158621593Y-78553722D01*
X158621595Y-78553726D01*
X158733052Y-78746774D01*
X158733057Y-78746780D01*
X158733058Y-78746782D01*
X158868751Y-78923622D01*
X158868757Y-78923629D01*
X159026370Y-79081242D01*
X159026377Y-79081248D01*
X159152294Y-79177867D01*
X159203226Y-79216948D01*
X159396274Y-79328405D01*
X159602219Y-79413710D01*
X159817537Y-79471404D01*
X160038543Y-79500500D01*
X160038550Y-79500500D01*
X160261450Y-79500500D01*
X160261457Y-79500500D01*
X160482463Y-79471404D01*
X160697781Y-79413710D01*
X160903726Y-79328405D01*
X161096774Y-79216948D01*
X161273624Y-79081247D01*
X161431247Y-78923624D01*
X161566948Y-78746774D01*
X161678405Y-78553726D01*
X161763710Y-78347781D01*
X161821404Y-78132463D01*
X161850500Y-77911457D01*
X161850500Y-77688543D01*
X161821404Y-77467537D01*
X161763710Y-77252219D01*
X161678405Y-77046274D01*
X161566948Y-76853226D01*
X161440151Y-76687980D01*
X161431248Y-76676377D01*
X161431242Y-76676370D01*
X161273629Y-76518757D01*
X161273622Y-76518751D01*
X161096782Y-76383058D01*
X161096780Y-76383057D01*
X161096774Y-76383052D01*
X160903726Y-76271595D01*
X160903722Y-76271593D01*
X160697790Y-76186293D01*
X160697783Y-76186291D01*
X160697781Y-76186290D01*
X160482463Y-76128596D01*
X160482457Y-76128595D01*
X160482452Y-76128594D01*
X160261466Y-76099501D01*
X160261463Y-76099500D01*
X160261457Y-76099500D01*
X160038543Y-76099500D01*
X160038537Y-76099500D01*
X160038533Y-76099501D01*
X159817547Y-76128594D01*
X159817540Y-76128595D01*
X159817537Y-76128596D01*
X159640006Y-76176165D01*
X159602219Y-76186290D01*
X159602209Y-76186293D01*
X159396277Y-76271593D01*
X159396273Y-76271595D01*
X159203226Y-76383052D01*
X159203217Y-76383058D01*
X159026377Y-76518751D01*
X159026370Y-76518757D01*
X158868757Y-76676370D01*
X158868751Y-76676377D01*
X158733058Y-76853217D01*
X158733052Y-76853226D01*
X158621595Y-77046273D01*
X158621593Y-77046277D01*
X158536293Y-77252209D01*
X158536290Y-77252219D01*
X158478597Y-77467534D01*
X158478594Y-77467547D01*
X158449501Y-77688533D01*
X158449500Y-77688549D01*
X155700500Y-77688549D01*
X155700500Y-77688543D01*
X155671404Y-77467537D01*
X155613710Y-77252219D01*
X155528405Y-77046274D01*
X155416948Y-76853226D01*
X155290151Y-76687980D01*
X155281248Y-76676377D01*
X155281242Y-76676370D01*
X155123629Y-76518757D01*
X155123622Y-76518751D01*
X154946782Y-76383058D01*
X154946780Y-76383057D01*
X154946774Y-76383052D01*
X154753726Y-76271595D01*
X154753722Y-76271593D01*
X154547790Y-76186293D01*
X154547783Y-76186291D01*
X154547781Y-76186290D01*
X154332463Y-76128596D01*
X154332457Y-76128595D01*
X154332452Y-76128594D01*
X154111466Y-76099501D01*
X154111463Y-76099500D01*
X154111457Y-76099500D01*
X153888543Y-76099500D01*
X153888537Y-76099500D01*
X153888533Y-76099501D01*
X153667547Y-76128594D01*
X153667540Y-76128595D01*
X153667537Y-76128596D01*
X153490006Y-76176165D01*
X153452219Y-76186290D01*
X153452209Y-76186293D01*
X153246277Y-76271593D01*
X153246273Y-76271595D01*
X153053226Y-76383052D01*
X153053217Y-76383058D01*
X152876377Y-76518751D01*
X152876370Y-76518757D01*
X152718757Y-76676370D01*
X152718751Y-76676377D01*
X152583058Y-76853217D01*
X152583052Y-76853226D01*
X152471595Y-77046273D01*
X152471593Y-77046277D01*
X152386293Y-77252209D01*
X152386290Y-77252219D01*
X152328597Y-77467534D01*
X152328594Y-77467547D01*
X152299501Y-77688533D01*
X152299500Y-77688549D01*
X151005500Y-77688549D01*
X151005500Y-75330398D01*
X150993947Y-75222942D01*
X150982741Y-75171431D01*
X150982637Y-75171120D01*
X150948616Y-75068900D01*
X150948613Y-75068894D01*
X150870828Y-74947860D01*
X150870825Y-74947855D01*
X150827487Y-74897840D01*
X150825076Y-74895057D01*
X150825072Y-74895054D01*
X150825070Y-74895051D01*
X150716336Y-74800831D01*
X150716333Y-74800829D01*
X150716331Y-74800828D01*
X150585465Y-74741062D01*
X150585460Y-74741060D01*
X150585459Y-74741060D01*
X150518420Y-74721375D01*
X150518422Y-74721375D01*
X150518417Y-74721374D01*
X150456347Y-74712450D01*
X150376000Y-74700898D01*
X139374000Y-74700898D01*
X139373991Y-74700898D01*
X139373990Y-74700899D01*
X139266549Y-74712450D01*
X139266537Y-74712452D01*
X139215027Y-74723658D01*
X139112502Y-74757781D01*
X139112496Y-74757784D01*
X138991462Y-74835569D01*
X138991451Y-74835577D01*
X138938659Y-74881321D01*
X138844433Y-74990062D01*
X138844430Y-74990066D01*
X138784664Y-75120932D01*
X138764976Y-75187980D01*
X138759949Y-75222947D01*
X138744502Y-75330388D01*
X138744500Y-75330399D01*
X138744500Y-76189247D01*
X138724815Y-76256286D01*
X138672011Y-76302041D01*
X138602853Y-76311985D01*
X138568988Y-76302041D01*
X138435465Y-76241062D01*
X138435460Y-76241060D01*
X138435459Y-76241060D01*
X138368420Y-76221375D01*
X138368422Y-76221375D01*
X138368417Y-76221374D01*
X138306347Y-76212450D01*
X138226000Y-76200898D01*
X137673435Y-76200898D01*
X137606396Y-76181213D01*
X137560641Y-76128409D01*
X137550697Y-76059251D01*
X137579722Y-75995695D01*
X137585754Y-75989217D01*
X137589221Y-75985750D01*
X137652206Y-75922765D01*
X137697585Y-75819991D01*
X137700500Y-75794865D01*
X137700499Y-74005136D01*
X137700497Y-74005117D01*
X137697586Y-73980012D01*
X137697585Y-73980010D01*
X137697585Y-73980009D01*
X137652206Y-73877235D01*
X137572765Y-73797794D01*
X137542505Y-73784433D01*
X137469992Y-73752415D01*
X137444865Y-73749500D01*
X135655143Y-73749500D01*
X135655117Y-73749502D01*
X135630012Y-73752413D01*
X135630008Y-73752415D01*
X135527235Y-73797793D01*
X135447794Y-73877234D01*
X135402415Y-73980006D01*
X135402415Y-73980008D01*
X135399500Y-74005131D01*
X135399500Y-75794856D01*
X135399502Y-75794882D01*
X135402413Y-75819987D01*
X135402415Y-75819991D01*
X135447793Y-75922764D01*
X135514246Y-75989217D01*
X135547731Y-76050540D01*
X135542747Y-76120232D01*
X135500875Y-76176165D01*
X135435411Y-76200582D01*
X135426565Y-76200898D01*
X130974000Y-76200898D01*
X130973991Y-76200898D01*
X130973990Y-76200899D01*
X130866549Y-76212450D01*
X130866537Y-76212452D01*
X130815027Y-76223658D01*
X130712502Y-76257781D01*
X130712496Y-76257784D01*
X130591462Y-76335569D01*
X130591451Y-76335577D01*
X130538659Y-76381321D01*
X130444433Y-76490062D01*
X130444430Y-76490066D01*
X130384664Y-76620932D01*
X130364976Y-76687980D01*
X130344500Y-76830399D01*
X130344500Y-93002625D01*
X130324815Y-93069664D01*
X130272011Y-93115419D01*
X130202853Y-93125363D01*
X130139297Y-93096338D01*
X130102569Y-93040944D01*
X130090566Y-93004003D01*
X129983342Y-92793566D01*
X129979710Y-92788567D01*
X129844517Y-92602490D01*
X129677510Y-92435483D01*
X129486433Y-92296657D01*
X129476620Y-92291657D01*
X129275996Y-92189433D01*
X129051368Y-92116446D01*
X128818097Y-92079500D01*
X128818092Y-92079500D01*
X128581908Y-92079500D01*
X128581903Y-92079500D01*
X128348631Y-92116446D01*
X128124003Y-92189433D01*
X127913566Y-92296657D01*
X127804550Y-92375862D01*
X127722490Y-92435483D01*
X127722488Y-92435485D01*
X127722487Y-92435485D01*
X127555485Y-92602487D01*
X127555485Y-92602488D01*
X127555483Y-92602490D01*
X127495862Y-92684550D01*
X127416657Y-92793566D01*
X127309433Y-93004003D01*
X127236446Y-93228631D01*
X127199500Y-93461902D01*
X126800500Y-93461902D01*
X126763553Y-93228631D01*
X126690566Y-93004003D01*
X126583342Y-92793566D01*
X126579710Y-92788567D01*
X126444517Y-92602490D01*
X126277510Y-92435483D01*
X126086433Y-92296657D01*
X126076620Y-92291657D01*
X125875996Y-92189433D01*
X125651368Y-92116446D01*
X125418097Y-92079500D01*
X125418092Y-92079500D01*
X125181908Y-92079500D01*
X125181903Y-92079500D01*
X124948631Y-92116446D01*
X124724003Y-92189433D01*
X124513566Y-92296657D01*
X124404550Y-92375862D01*
X124322490Y-92435483D01*
X124322488Y-92435485D01*
X124322487Y-92435485D01*
X124155485Y-92602487D01*
X124155485Y-92602488D01*
X124155483Y-92602490D01*
X124095862Y-92684550D01*
X124016657Y-92793566D01*
X123909433Y-93004003D01*
X123836446Y-93228631D01*
X123799500Y-93461902D01*
X122750500Y-93461902D01*
X122750500Y-93456902D01*
X122713553Y-93223631D01*
X122678392Y-93115419D01*
X122640568Y-92999008D01*
X122640566Y-92999005D01*
X122640566Y-92999003D01*
X122584002Y-92887991D01*
X122533343Y-92788567D01*
X122394517Y-92597490D01*
X122227510Y-92430483D01*
X122036433Y-92291657D01*
X121825996Y-92184433D01*
X121601368Y-92111446D01*
X121368097Y-92074500D01*
X121368092Y-92074500D01*
X121131908Y-92074500D01*
X121131903Y-92074500D01*
X120898631Y-92111446D01*
X120674003Y-92184433D01*
X120463566Y-92291657D01*
X120354550Y-92370862D01*
X120272490Y-92430483D01*
X120272488Y-92430485D01*
X120272487Y-92430485D01*
X120105485Y-92597487D01*
X120105485Y-92597488D01*
X120105483Y-92597490D01*
X120045862Y-92679550D01*
X119966657Y-92788566D01*
X119859433Y-92999003D01*
X119786446Y-93223631D01*
X119749500Y-93456902D01*
X119350500Y-93456902D01*
X119313553Y-93223631D01*
X119278392Y-93115419D01*
X119240568Y-92999008D01*
X119240566Y-92999005D01*
X119240566Y-92999003D01*
X119184002Y-92887991D01*
X119133343Y-92788567D01*
X118994517Y-92597490D01*
X118827510Y-92430483D01*
X118636433Y-92291657D01*
X118425996Y-92184433D01*
X118201368Y-92111446D01*
X117968097Y-92074500D01*
X117968092Y-92074500D01*
X117731908Y-92074500D01*
X117731903Y-92074500D01*
X117498631Y-92111446D01*
X117274003Y-92184433D01*
X117063566Y-92291657D01*
X116954550Y-92370862D01*
X116872490Y-92430483D01*
X116872488Y-92430485D01*
X116872487Y-92430485D01*
X116705485Y-92597487D01*
X116705485Y-92597488D01*
X116705483Y-92597490D01*
X116645862Y-92679550D01*
X116566657Y-92788566D01*
X116459433Y-92999003D01*
X116386446Y-93223631D01*
X116349500Y-93456902D01*
X110300500Y-93456902D01*
X110300500Y-84218603D01*
X118839500Y-84218603D01*
X118839500Y-85918600D01*
X118845369Y-85978199D01*
X118845369Y-85978202D01*
X118864774Y-86075758D01*
X118866237Y-86082687D01*
X118866238Y-86082691D01*
X118910397Y-86185913D01*
X118965674Y-86268641D01*
X118969662Y-86274463D01*
X119049961Y-86352928D01*
X119132689Y-86408205D01*
X119138601Y-86412057D01*
X119138603Y-86412057D01*
X119138605Y-86412059D01*
X119138604Y-86412059D01*
X119210256Y-86440773D01*
X119242815Y-86453821D01*
X119242817Y-86453821D01*
X119242819Y-86453822D01*
X119275931Y-86460408D01*
X119340399Y-86473232D01*
X119400000Y-86479102D01*
X120240039Y-86479102D01*
X120307078Y-86498787D01*
X120352833Y-86551591D01*
X120361656Y-86578910D01*
X120380258Y-86672429D01*
X120380260Y-86672435D01*
X120448442Y-86837041D01*
X120547430Y-86985189D01*
X120673412Y-87111171D01*
X120673415Y-87111173D01*
X120821559Y-87210159D01*
X120986167Y-87278342D01*
X120986171Y-87278342D01*
X120986172Y-87278343D01*
X121160912Y-87313102D01*
X121160915Y-87313102D01*
X121339087Y-87313102D01*
X121456649Y-87289716D01*
X121513833Y-87278342D01*
X121678441Y-87210159D01*
X121826585Y-87111173D01*
X121952571Y-86985187D01*
X122051557Y-86837043D01*
X122100691Y-86718422D01*
X122144532Y-86664019D01*
X122210826Y-86641954D01*
X122234650Y-86643402D01*
X122250000Y-86645833D01*
X122250000Y-85617084D01*
X122268409Y-85627713D01*
X122421009Y-85668602D01*
X122578991Y-85668602D01*
X122731591Y-85627713D01*
X122750000Y-85617084D01*
X122750000Y-86645832D01*
X122816126Y-86635359D01*
X122816129Y-86635359D01*
X123018217Y-86569697D01*
X123207557Y-86473222D01*
X123379459Y-86348329D01*
X123379464Y-86348325D01*
X123529723Y-86198066D01*
X123529727Y-86198061D01*
X123654620Y-86026160D01*
X123751466Y-85836090D01*
X123799440Y-85785294D01*
X123867261Y-85768499D01*
X123933396Y-85791036D01*
X123972435Y-85836090D01*
X124016002Y-85921594D01*
X124016003Y-85921595D01*
X124122441Y-86068096D01*
X124122445Y-86068101D01*
X124250500Y-86196156D01*
X124250505Y-86196160D01*
X124350207Y-86268597D01*
X124397006Y-86302598D01*
X124502484Y-86356342D01*
X124558360Y-86384813D01*
X124558363Y-86384814D01*
X124630355Y-86408205D01*
X124730591Y-86440773D01*
X124813429Y-86453893D01*
X124909449Y-86469102D01*
X124909454Y-86469102D01*
X125090551Y-86469102D01*
X125177259Y-86455367D01*
X125269409Y-86440773D01*
X125441639Y-86384813D01*
X125602994Y-86302598D01*
X125749501Y-86196155D01*
X125877553Y-86068103D01*
X125983996Y-85921596D01*
X126066211Y-85760241D01*
X126122171Y-85588011D01*
X126136765Y-85495861D01*
X126150500Y-85409153D01*
X126150500Y-84728050D01*
X126128394Y-84588483D01*
X126122171Y-84549193D01*
X126066211Y-84376963D01*
X126066211Y-84376962D01*
X126027563Y-84301113D01*
X125983996Y-84215608D01*
X125934084Y-84146910D01*
X125877558Y-84069107D01*
X125877554Y-84069102D01*
X125749499Y-83941047D01*
X125749494Y-83941043D01*
X125602997Y-83834608D01*
X125602996Y-83834607D01*
X125602994Y-83834606D01*
X125551300Y-83808266D01*
X125441639Y-83752390D01*
X125441636Y-83752389D01*
X125269410Y-83696431D01*
X125090551Y-83668102D01*
X125090546Y-83668102D01*
X124909454Y-83668102D01*
X124909449Y-83668102D01*
X124730589Y-83696431D01*
X124558363Y-83752389D01*
X124558360Y-83752390D01*
X124397002Y-83834608D01*
X124250505Y-83941043D01*
X124250500Y-83941047D01*
X124122445Y-84069102D01*
X124122441Y-84069107D01*
X124016004Y-84215606D01*
X123972435Y-84301114D01*
X123924460Y-84351909D01*
X123856639Y-84368704D01*
X123790504Y-84346166D01*
X123751466Y-84301113D01*
X123654620Y-84111044D01*
X123529727Y-83939142D01*
X123529723Y-83939137D01*
X123379464Y-83788878D01*
X123379459Y-83788874D01*
X123207557Y-83663981D01*
X123018215Y-83567505D01*
X122816124Y-83501843D01*
X122750000Y-83491370D01*
X122750000Y-84520119D01*
X122731591Y-84509491D01*
X122578991Y-84468602D01*
X122421009Y-84468602D01*
X122268409Y-84509491D01*
X122250000Y-84520119D01*
X122250000Y-83491370D01*
X122249999Y-83491370D01*
X122183875Y-83501843D01*
X121981784Y-83567505D01*
X121792442Y-83663981D01*
X121620540Y-83788874D01*
X121620535Y-83788878D01*
X121470276Y-83939137D01*
X121354662Y-84098266D01*
X121299332Y-84140931D01*
X121229718Y-84146910D01*
X121167923Y-84114304D01*
X121137158Y-84059826D01*
X121135597Y-84060320D01*
X121133763Y-84054517D01*
X121133762Y-84054516D01*
X121133762Y-84054513D01*
X121089603Y-83951291D01*
X121034326Y-83868563D01*
X121030338Y-83862741D01*
X120950039Y-83784276D01*
X120867311Y-83728999D01*
X120861399Y-83725147D01*
X120861397Y-83725146D01*
X120861394Y-83725144D01*
X120861395Y-83725144D01*
X120757189Y-83683384D01*
X120757180Y-83683381D01*
X120659598Y-83663971D01*
X120613020Y-83659384D01*
X120600000Y-83658102D01*
X119400000Y-83658102D01*
X119386979Y-83659384D01*
X119340402Y-83663971D01*
X119340399Y-83663971D01*
X119242843Y-83683376D01*
X119235914Y-83684839D01*
X119235912Y-83684839D01*
X119235911Y-83684840D01*
X119208817Y-83696431D01*
X119132692Y-83728997D01*
X119132687Y-83729000D01*
X119097680Y-83752391D01*
X119049961Y-83784276D01*
X119046769Y-83786461D01*
X119044137Y-83788265D01*
X118965678Y-83868559D01*
X118965671Y-83868566D01*
X118910405Y-83951278D01*
X118906542Y-83957207D01*
X118864782Y-84061412D01*
X118864779Y-84061421D01*
X118845369Y-84159001D01*
X118845369Y-84159004D01*
X118839500Y-84218603D01*
X110300500Y-84218603D01*
X110300500Y-76502706D01*
X110300618Y-76497297D01*
X110305681Y-76381328D01*
X110308008Y-76328031D01*
X111499500Y-76328031D01*
X111499500Y-76671969D01*
X111501077Y-76687978D01*
X111533210Y-77014249D01*
X111600308Y-77351572D01*
X111700150Y-77680706D01*
X111831770Y-77998464D01*
X111831772Y-77998469D01*
X111993893Y-78301775D01*
X111993904Y-78301793D01*
X112184975Y-78587751D01*
X112184985Y-78587765D01*
X112403176Y-78853632D01*
X112646367Y-79096823D01*
X112646372Y-79096827D01*
X112646373Y-79096828D01*
X112912240Y-79315019D01*
X113198213Y-79506100D01*
X113198222Y-79506105D01*
X113198224Y-79506106D01*
X113501530Y-79668227D01*
X113501532Y-79668227D01*
X113501538Y-79668231D01*
X113819295Y-79799850D01*
X114148422Y-79899690D01*
X114485750Y-79966789D01*
X114828031Y-80000500D01*
X114828034Y-80000500D01*
X115171966Y-80000500D01*
X115171969Y-80000500D01*
X115514250Y-79966789D01*
X115851578Y-79899690D01*
X116180705Y-79799850D01*
X116498462Y-79668231D01*
X116801787Y-79506100D01*
X117087760Y-79315019D01*
X117353627Y-79096828D01*
X117596828Y-78853627D01*
X117815019Y-78587760D01*
X118006100Y-78301787D01*
X118168231Y-77998462D01*
X118299850Y-77680705D01*
X118399690Y-77351578D01*
X118466789Y-77014250D01*
X118500500Y-76671969D01*
X118500500Y-76328031D01*
X118466789Y-75985750D01*
X118399690Y-75648422D01*
X118299850Y-75319295D01*
X118168231Y-75001538D01*
X118160076Y-74986282D01*
X118006106Y-74698224D01*
X118006105Y-74698222D01*
X118006100Y-74698213D01*
X117815019Y-74412240D01*
X117596828Y-74146373D01*
X117596827Y-74146372D01*
X117596823Y-74146367D01*
X117353632Y-73903176D01*
X117087765Y-73684985D01*
X117087764Y-73684984D01*
X117087760Y-73684981D01*
X116801787Y-73493900D01*
X116801782Y-73493897D01*
X116801775Y-73493893D01*
X116498469Y-73331772D01*
X116498464Y-73331770D01*
X116180706Y-73200150D01*
X115851572Y-73100308D01*
X115514248Y-73033210D01*
X115514249Y-73033210D01*
X115256456Y-73007821D01*
X115171969Y-72999500D01*
X114828031Y-72999500D01*
X114749966Y-73007188D01*
X114485750Y-73033210D01*
X114148427Y-73100308D01*
X113819293Y-73200150D01*
X113501535Y-73331770D01*
X113501530Y-73331772D01*
X113198224Y-73493893D01*
X113198206Y-73493904D01*
X112912248Y-73684975D01*
X112912234Y-73684985D01*
X112646367Y-73903176D01*
X112403176Y-74146367D01*
X112184985Y-74412234D01*
X112184975Y-74412248D01*
X111993904Y-74698206D01*
X111993893Y-74698224D01*
X111831772Y-75001530D01*
X111831770Y-75001535D01*
X111700150Y-75319293D01*
X111600308Y-75648427D01*
X111533210Y-75985750D01*
X111507188Y-76249966D01*
X111499500Y-76328031D01*
X110308008Y-76328031D01*
X110318147Y-76095797D01*
X110319087Y-76085064D01*
X110371189Y-75689302D01*
X110373063Y-75678672D01*
X110459463Y-75288950D01*
X110462261Y-75278512D01*
X110479781Y-75222947D01*
X110582291Y-74897823D01*
X110585979Y-74887691D01*
X110738742Y-74518888D01*
X110743300Y-74509114D01*
X110927617Y-74155045D01*
X110933012Y-74145700D01*
X111147495Y-73809029D01*
X111153685Y-73800189D01*
X111396687Y-73483503D01*
X111403625Y-73475234D01*
X111673304Y-73180932D01*
X111680932Y-73173304D01*
X111975234Y-72903625D01*
X111983503Y-72896687D01*
X112300189Y-72653685D01*
X112309029Y-72647495D01*
X112645700Y-72433012D01*
X112655045Y-72427617D01*
X113009114Y-72243300D01*
X113018888Y-72238742D01*
X113387691Y-72085979D01*
X113397823Y-72082291D01*
X113778521Y-71962258D01*
X113788950Y-71959463D01*
X114178672Y-71873063D01*
X114189302Y-71871189D01*
X114585064Y-71819087D01*
X114595795Y-71818147D01*
X114997297Y-71800617D01*
X115002706Y-71800500D01*
X164286000Y-71800500D01*
X164353039Y-71820185D01*
G37*
%TD.AperFunction*%
%TD*%
%TA.AperFunction,Conductor*%
%TO.N,HV-*%
G36*
X138293039Y-76726083D02*
G01*
X138338794Y-76778887D01*
X138350000Y-76830398D01*
X138350000Y-96037269D01*
X138330315Y-96104308D01*
X138313681Y-96124950D01*
X136684703Y-97753927D01*
X136644480Y-97780805D01*
X136620819Y-97790606D01*
X136620818Y-97790607D01*
X136489715Y-97878207D01*
X136489707Y-97878213D01*
X136378213Y-97989707D01*
X136378210Y-97989711D01*
X136290609Y-98120814D01*
X136290602Y-98120827D01*
X136230264Y-98266498D01*
X136230261Y-98266510D01*
X136199500Y-98421153D01*
X136199500Y-98578846D01*
X136230261Y-98733489D01*
X136230264Y-98733501D01*
X136290602Y-98879172D01*
X136290609Y-98879185D01*
X136378210Y-99010288D01*
X136378213Y-99010292D01*
X136489707Y-99121786D01*
X136489711Y-99121789D01*
X136620814Y-99209390D01*
X136620827Y-99209397D01*
X136766498Y-99269735D01*
X136766503Y-99269737D01*
X136921153Y-99300499D01*
X136921156Y-99300500D01*
X136921158Y-99300500D01*
X137078844Y-99300500D01*
X137078845Y-99300499D01*
X137233497Y-99269737D01*
X137379179Y-99209394D01*
X137510289Y-99121789D01*
X137621789Y-99010289D01*
X137709394Y-98879179D01*
X137719191Y-98855524D01*
X137746069Y-98815297D01*
X138138319Y-98423047D01*
X138199642Y-98389563D01*
X138269334Y-98394547D01*
X138325267Y-98436419D01*
X138349684Y-98501883D01*
X138350000Y-98510729D01*
X138350000Y-119382398D01*
X138330315Y-119449437D01*
X138277511Y-119495192D01*
X138226000Y-119506398D01*
X130974000Y-119506398D01*
X130906961Y-119486713D01*
X130861206Y-119433909D01*
X130850000Y-119382398D01*
X130850000Y-76830398D01*
X130869685Y-76763359D01*
X130922489Y-76717604D01*
X130974000Y-76706398D01*
X138226000Y-76706398D01*
X138293039Y-76726083D01*
G37*
%TD.AperFunction*%
%TD*%
%TA.AperFunction,Conductor*%
%TO.N,/HEAT_DISSIPATION*%
G36*
X150443039Y-106770185D02*
G01*
X150488794Y-106822989D01*
X150500000Y-106874500D01*
X150500000Y-124582398D01*
X150480315Y-124649437D01*
X150427511Y-124695192D01*
X150376000Y-124706398D01*
X139374000Y-124706398D01*
X139306961Y-124686713D01*
X139261206Y-124633909D01*
X139250000Y-124582398D01*
X139250000Y-106874500D01*
X139269685Y-106807461D01*
X139322489Y-106761706D01*
X139374000Y-106750500D01*
X150376000Y-106750500D01*
X150443039Y-106770185D01*
G37*
%TD.AperFunction*%
%TA.AperFunction,Conductor*%
G36*
X150443039Y-96770185D02*
G01*
X150488794Y-96822989D01*
X150500000Y-96874500D01*
X150500000Y-105125500D01*
X150480315Y-105192539D01*
X150427511Y-105238294D01*
X150376000Y-105249500D01*
X139374000Y-105249500D01*
X139306961Y-105229815D01*
X139261206Y-105177011D01*
X139250000Y-105125500D01*
X139250000Y-97362730D01*
X139269685Y-97295691D01*
X139286319Y-97275049D01*
X139774549Y-96786819D01*
X139835872Y-96753334D01*
X139862230Y-96750500D01*
X150376000Y-96750500D01*
X150443039Y-96770185D01*
G37*
%TD.AperFunction*%
%TA.AperFunction,Conductor*%
G36*
X150443039Y-75226083D02*
G01*
X150488794Y-75278887D01*
X150500000Y-75330398D01*
X150500000Y-95125500D01*
X150480315Y-95192539D01*
X150427511Y-95238294D01*
X150376000Y-95249500D01*
X139426077Y-95249500D01*
X139398191Y-95255047D01*
X139328599Y-95248820D01*
X139273422Y-95205956D01*
X139250178Y-95140066D01*
X139250000Y-95133430D01*
X139250000Y-75330398D01*
X139269685Y-75263359D01*
X139322489Y-75217604D01*
X139374000Y-75206398D01*
X150376000Y-75206398D01*
X150443039Y-75226083D01*
G37*
%TD.AperFunction*%
%TD*%
M02*
