%TF.GenerationSoftware,KiCad,Pcbnew,9.0.6*%
%TF.CreationDate,2026-03-15T21:09:45-05:00*%
%TF.ProjectId,ActivePrecharge RevB,41637469-7665-4507-9265-636861726765,rev?*%
%TF.SameCoordinates,Original*%
%TF.FileFunction,Soldermask,Top*%
%TF.FilePolarity,Negative*%
%FSLAX46Y46*%
G04 Gerber Fmt 4.6, Leading zero omitted, Abs format (unit mm)*
G04 Created by KiCad (PCBNEW 9.0.6) date 2026-03-15 21:09:45*
%MOMM*%
%LPD*%
G01*
G04 APERTURE LIST*
G04 Aperture macros list*
%AMRoundRect*
0 Rectangle with rounded corners*
0 $1 Rounding radius*
0 $2 $3 $4 $5 $6 $7 $8 $9 X,Y pos of 4 corners*
0 Add a 4 corners polygon primitive as box body*
4,1,4,$2,$3,$4,$5,$6,$7,$8,$9,$2,$3,0*
0 Add four circle primitives for the rounded corners*
1,1,$1+$1,$2,$3*
1,1,$1+$1,$4,$5*
1,1,$1+$1,$6,$7*
1,1,$1+$1,$8,$9*
0 Add four rect primitives between the rounded corners*
20,1,$1+$1,$2,$3,$4,$5,0*
20,1,$1+$1,$4,$5,$6,$7,0*
20,1,$1+$1,$6,$7,$8,$9,0*
20,1,$1+$1,$8,$9,$2,$3,0*%
%AMFreePoly0*
4,1,22,0.945671,0.830970,1.026777,0.776777,1.080970,0.695671,1.100000,0.600000,1.100000,-0.600000,1.080970,-0.695671,1.026777,-0.776777,0.945671,-0.830970,0.850000,-0.850000,-0.596447,-0.850000,-0.692118,-0.830970,-0.773224,-0.776777,-1.026777,-0.523224,-1.080970,-0.442118,-1.100000,-0.346447,-1.100000,0.600000,-1.080970,0.695671,-1.026777,0.776777,-0.945671,0.830970,-0.850000,0.850000,
0.850000,0.850000,0.945671,0.830970,0.945671,0.830970,$1*%
G04 Aperture macros list end*
%ADD10C,0.010000*%
%ADD11C,0.000000*%
%ADD12C,2.800000*%
%ADD13RoundRect,0.237500X-0.237500X0.300000X-0.237500X-0.300000X0.237500X-0.300000X0.237500X0.300000X0*%
%ADD14C,3.600000*%
%ADD15C,6.400000*%
%ADD16RoundRect,0.102000X-2.115000X-1.200000X2.115000X-1.200000X2.115000X1.200000X-2.115000X1.200000X0*%
%ADD17RoundRect,0.237500X0.250000X0.237500X-0.250000X0.237500X-0.250000X-0.237500X0.250000X-0.237500X0*%
%ADD18RoundRect,0.237500X0.287500X0.237500X-0.287500X0.237500X-0.287500X-0.237500X0.287500X-0.237500X0*%
%ADD19RoundRect,0.237500X-0.237500X0.287500X-0.237500X-0.287500X0.237500X-0.287500X0.237500X0.287500X0*%
%ADD20C,2.604000*%
%ADD21R,1.700000X1.700000*%
%ADD22RoundRect,0.237500X-0.237500X0.250000X-0.237500X-0.250000X0.237500X-0.250000X0.237500X0.250000X0*%
%ADD23RoundRect,0.250000X-0.475000X0.337500X-0.475000X-0.337500X0.475000X-0.337500X0.475000X0.337500X0*%
%ADD24RoundRect,0.250000X-0.850000X-0.600000X0.850000X-0.600000X0.850000X0.600000X-0.850000X0.600000X0*%
%ADD25O,2.200000X1.700000*%
%ADD26RoundRect,0.150000X-0.150000X0.825000X-0.150000X-0.825000X0.150000X-0.825000X0.150000X0.825000X0*%
%ADD27RoundRect,0.237500X-0.250000X-0.237500X0.250000X-0.237500X0.250000X0.237500X-0.250000X0.237500X0*%
%ADD28RoundRect,0.237500X0.237500X-0.250000X0.237500X0.250000X-0.237500X0.250000X-0.237500X-0.250000X0*%
%ADD29RoundRect,0.237500X0.300000X0.237500X-0.300000X0.237500X-0.300000X-0.237500X0.300000X-0.237500X0*%
%ADD30R,0.850000X1.200000*%
%ADD31RoundRect,0.237500X-0.300000X-0.237500X0.300000X-0.237500X0.300000X0.237500X-0.300000X0.237500X0*%
%ADD32R,1.850000X0.650000*%
%ADD33C,1.905000*%
%ADD34RoundRect,0.102000X-0.495300X0.749300X-0.495300X-0.749300X0.495300X-0.749300X0.495300X0.749300X0*%
%ADD35RoundRect,0.102000X-1.638300X0.749300X-1.638300X-0.749300X1.638300X-0.749300X1.638300X0.749300X0*%
%ADD36RoundRect,0.250000X-0.600000X-0.600000X0.600000X-0.600000X0.600000X0.600000X-0.600000X0.600000X0*%
%ADD37C,1.700000*%
%ADD38RoundRect,0.237500X0.237500X-0.287500X0.237500X0.287500X-0.237500X0.287500X-0.237500X-0.287500X0*%
%ADD39R,1.670000X1.970000*%
%ADD40FreePoly0,90.000000*%
%ADD41O,1.700000X2.200000*%
%ADD42RoundRect,0.250000X0.475000X-0.337500X0.475000X0.337500X-0.475000X0.337500X-0.475000X-0.337500X0*%
%ADD43RoundRect,0.102000X0.625000X0.625000X-0.625000X0.625000X-0.625000X-0.625000X0.625000X-0.625000X0*%
%ADD44C,1.454000*%
%ADD45RoundRect,0.237500X0.237500X-0.300000X0.237500X0.300000X-0.237500X0.300000X-0.237500X-0.300000X0*%
G04 APERTURE END LIST*
D10*
%TO.C,R1*%
X150110000Y-86766398D02*
X145890000Y-86766398D01*
X145890000Y-85266398D01*
X139390000Y-85266398D01*
X139390000Y-77066398D01*
X145890000Y-77066398D01*
X145890000Y-75566398D01*
X150110000Y-75566398D01*
X150110000Y-86766398D01*
G36*
X150110000Y-86766398D02*
G01*
X145890000Y-86766398D01*
X145890000Y-85266398D01*
X139390000Y-85266398D01*
X139390000Y-77066398D01*
X145890000Y-77066398D01*
X145890000Y-75566398D01*
X150110000Y-75566398D01*
X150110000Y-86766398D01*
G37*
%TO.C,R3*%
X150110000Y-111866398D02*
X145890000Y-111866398D01*
X145890000Y-110366398D01*
X139390000Y-110366398D01*
X139390000Y-102166398D01*
X145890000Y-102166398D01*
X145890000Y-100666398D01*
X150110000Y-100666398D01*
X150110000Y-111866398D01*
G36*
X150110000Y-111866398D02*
G01*
X145890000Y-111866398D01*
X145890000Y-110366398D01*
X139390000Y-110366398D01*
X139390000Y-102166398D01*
X145890000Y-102166398D01*
X145890000Y-100666398D01*
X150110000Y-100666398D01*
X150110000Y-111866398D01*
G37*
%TO.C,R2*%
X150110000Y-99316398D02*
X145890000Y-99316398D01*
X145890000Y-97816398D01*
X139390000Y-97816398D01*
X139390000Y-89616398D01*
X145890000Y-89616398D01*
X145890000Y-88116398D01*
X150110000Y-88116398D01*
X150110000Y-99316398D01*
G36*
X150110000Y-99316398D02*
G01*
X145890000Y-99316398D01*
X145890000Y-97816398D01*
X139390000Y-97816398D01*
X139390000Y-89616398D01*
X145890000Y-89616398D01*
X145890000Y-88116398D01*
X150110000Y-88116398D01*
X150110000Y-99316398D01*
G37*
%TO.C,R4*%
X150110000Y-124416398D02*
X145890000Y-124416398D01*
X145890000Y-122916398D01*
X139390000Y-122916398D01*
X139390000Y-114716398D01*
X145890000Y-114716398D01*
X145890000Y-113216398D01*
X150110000Y-113216398D01*
X150110000Y-124416398D01*
G36*
X150110000Y-124416398D02*
G01*
X145890000Y-124416398D01*
X145890000Y-122916398D01*
X139390000Y-122916398D01*
X139390000Y-114716398D01*
X145890000Y-114716398D01*
X145890000Y-113216398D01*
X150110000Y-113216398D01*
X150110000Y-124416398D01*
G37*
D11*
%TO.C,LOGO2*%
G36*
X166250794Y-75046905D02*
G01*
X166275993Y-76180833D01*
X167296528Y-76194476D01*
X168317064Y-76208119D01*
X168317064Y-76459059D01*
X168317064Y-76710000D01*
X166980751Y-76710000D01*
X165644438Y-76710000D01*
X165657834Y-75311488D01*
X165671231Y-73912976D01*
X165948413Y-73912976D01*
X166225596Y-73912976D01*
X166250794Y-75046905D01*
G37*
G36*
X179115873Y-74560198D02*
G01*
X179115873Y-74786984D01*
X178334722Y-74786984D01*
X177553571Y-74786984D01*
X177553571Y-75038968D01*
X177553571Y-75290952D01*
X178334722Y-75290952D01*
X179115873Y-75290952D01*
X179115873Y-75996508D01*
X179115873Y-76702063D01*
X178107936Y-76702063D01*
X177100000Y-76702063D01*
X177100000Y-76475278D01*
X177100000Y-76248492D01*
X177881151Y-76248492D01*
X178662301Y-76248492D01*
X178662301Y-75996508D01*
X178662301Y-75744524D01*
X177881151Y-75744524D01*
X177100000Y-75744524D01*
X177100000Y-75038968D01*
X177100000Y-74333413D01*
X178107936Y-74333413D01*
X179115873Y-74333413D01*
X179115873Y-74560198D01*
G37*
G36*
X172126828Y-73896870D02*
G01*
X172323612Y-73912976D01*
X172337008Y-75311488D01*
X172350404Y-76710000D01*
X172023678Y-76710000D01*
X171696952Y-76710000D01*
X171682703Y-76143036D01*
X171668453Y-75576071D01*
X170573982Y-75562494D01*
X169479510Y-75548916D01*
X169465251Y-76116859D01*
X169450993Y-76684801D01*
X169135211Y-76699826D01*
X168819429Y-76714851D01*
X168832830Y-75313914D01*
X168846231Y-73912976D01*
X169102691Y-73898025D01*
X169301790Y-73902861D01*
X169410363Y-73945420D01*
X169415728Y-73951244D01*
X169441275Y-74028573D01*
X169464051Y-74181243D01*
X169480876Y-74383801D01*
X169486847Y-74520561D01*
X169501389Y-75021706D01*
X170584921Y-75021706D01*
X171668453Y-75021706D01*
X171682752Y-74480474D01*
X171692061Y-74222555D01*
X171711771Y-74049779D01*
X171753781Y-73946509D01*
X171829990Y-73897105D01*
X171952298Y-73885930D01*
X172126828Y-73896870D01*
G37*
G36*
X174356389Y-73892880D02*
G01*
X174679517Y-73896724D01*
X175147725Y-73905193D01*
X175525655Y-73917869D01*
X175823823Y-73938856D01*
X176052744Y-73972257D01*
X176222934Y-74022178D01*
X176344908Y-74092721D01*
X176429182Y-74187992D01*
X176486272Y-74312094D01*
X176526693Y-74469132D01*
X176555352Y-74628856D01*
X176565781Y-74831314D01*
X176542188Y-75053805D01*
X176491695Y-75262348D01*
X176421422Y-75422966D01*
X176377371Y-75478160D01*
X176313130Y-75544076D01*
X176313297Y-75596382D01*
X176380288Y-75676572D01*
X176389499Y-75686385D01*
X176445563Y-75761351D01*
X176482230Y-75858775D01*
X176505316Y-76003634D01*
X176520634Y-76220905D01*
X176522438Y-76257429D01*
X176544076Y-76710000D01*
X176210332Y-76710000D01*
X175876588Y-76710000D01*
X175876588Y-76414415D01*
X175864342Y-76207713D01*
X175821898Y-76064351D01*
X175772136Y-75986042D01*
X175667685Y-75853254D01*
X174713803Y-75853254D01*
X173759921Y-75853254D01*
X173759921Y-76281627D01*
X173759921Y-76710000D01*
X173432342Y-76710000D01*
X173104762Y-76710000D01*
X173104762Y-75325047D01*
X173104762Y-74862116D01*
X173104762Y-74442143D01*
X173759921Y-74442143D01*
X173759921Y-74862116D01*
X173764188Y-75059653D01*
X173775542Y-75217374D01*
X173791816Y-75309012D01*
X173797719Y-75320099D01*
X173857819Y-75331199D01*
X174002244Y-75339204D01*
X174214564Y-75343761D01*
X174478345Y-75344519D01*
X174777158Y-75341126D01*
X174778719Y-75341098D01*
X175115482Y-75334007D01*
X175365965Y-75325610D01*
X175544681Y-75314404D01*
X175666141Y-75298885D01*
X175744859Y-75277551D01*
X175795349Y-75248897D01*
X175811853Y-75234093D01*
X175877195Y-75115962D01*
X175901407Y-74924497D01*
X175901786Y-74889462D01*
X175891791Y-74720129D01*
X175853410Y-74613196D01*
X175782810Y-74538484D01*
X175732720Y-74504546D01*
X175668423Y-74479601D01*
X175574814Y-74462287D01*
X175436788Y-74451247D01*
X175239240Y-74445123D01*
X174967064Y-74442554D01*
X174711878Y-74442143D01*
X173759921Y-74442143D01*
X173104762Y-74442143D01*
X173104762Y-73940095D01*
X173230608Y-73908509D01*
X173313764Y-73900726D01*
X173482805Y-73895150D01*
X173722847Y-73891903D01*
X174019004Y-73891106D01*
X174356389Y-73892880D01*
G37*
%TD*%
D12*
%TO.C,TP9*%
X156000000Y-120500000D03*
%TD*%
%TO.C,TP6*%
X161750000Y-120500000D03*
%TD*%
D13*
%TO.C,C9*%
X156178333Y-100790000D03*
X156178333Y-102515000D03*
%TD*%
D14*
%TO.C,H2*%
X201000000Y-76500000D03*
D15*
X201000000Y-76500000D03*
%TD*%
D16*
%TO.C,R1*%
X135125000Y-78626398D03*
X135125000Y-83706398D03*
%TD*%
D17*
%TO.C,R14*%
X182572500Y-107800000D03*
X180747500Y-107800000D03*
%TD*%
%TO.C,R13*%
X182572500Y-106200000D03*
X180747500Y-106200000D03*
%TD*%
D14*
%TO.C,H1*%
X115000000Y-76500000D03*
D15*
X115000000Y-76500000D03*
%TD*%
D18*
%TO.C,D5*%
X186952500Y-84190000D03*
X185202500Y-84190000D03*
%TD*%
D19*
%TO.C,D7*%
X189720000Y-117132500D03*
X189720000Y-118882500D03*
%TD*%
D12*
%TO.C,TP1*%
X120500000Y-126000000D03*
%TD*%
D20*
%TO.C,F3*%
X175310000Y-87190000D03*
X175310000Y-90590000D03*
X185230000Y-87190000D03*
X185230000Y-90590000D03*
%TD*%
D12*
%TO.C,TP12*%
X174500000Y-82750000D03*
%TD*%
D16*
%TO.C,R3*%
X135125000Y-103726398D03*
X135125000Y-108806398D03*
%TD*%
D17*
%TO.C,R7*%
X174150000Y-113060000D03*
X172325000Y-113060000D03*
%TD*%
D21*
%TO.C,J5*%
X136550000Y-124600000D03*
%TD*%
D12*
%TO.C,TP3*%
X182572500Y-113500000D03*
%TD*%
D16*
%TO.C,R2*%
X135125000Y-91176398D03*
X135125000Y-96256398D03*
%TD*%
D22*
%TO.C,R22*%
X153130000Y-111987500D03*
X153130000Y-113812500D03*
%TD*%
D23*
%TO.C,C4*%
X153010000Y-84362500D03*
X153010000Y-86437500D03*
%TD*%
D24*
%TO.C,J3*%
X196380000Y-111000000D03*
D25*
X196380000Y-113500000D03*
X196380000Y-116000000D03*
X196380000Y-118500000D03*
%TD*%
D26*
%TO.C,U1*%
X177570000Y-104525000D03*
X176300000Y-104525000D03*
X175030000Y-104525000D03*
X173760000Y-104525000D03*
X173760000Y-109475000D03*
X175030000Y-109475000D03*
X176300000Y-109475000D03*
X177570000Y-109475000D03*
%TD*%
D17*
%TO.C,R5*%
X174350000Y-99416667D03*
X172525000Y-99416667D03*
%TD*%
D27*
%TO.C,R17*%
X161067500Y-84400000D03*
X162892500Y-84400000D03*
%TD*%
%TO.C,R8*%
X172325000Y-111520000D03*
X174150000Y-111520000D03*
%TD*%
D24*
%TO.C,J2*%
X196380000Y-81440000D03*
D25*
X196380000Y-83940000D03*
X196380000Y-86440000D03*
X196380000Y-88940000D03*
%TD*%
D28*
%TO.C,R21*%
X154656667Y-102565000D03*
X154656667Y-100740000D03*
%TD*%
D22*
%TO.C,R20*%
X153135000Y-100740000D03*
X153135000Y-102565000D03*
%TD*%
D12*
%TO.C,TP4*%
X154000000Y-77800000D03*
%TD*%
D29*
%TO.C,C16*%
X157640000Y-110460000D03*
X155915000Y-110460000D03*
%TD*%
%TO.C,C8*%
X162842500Y-85920000D03*
X161117500Y-85920000D03*
%TD*%
D30*
%TO.C,D1*%
X123275000Y-121250000D03*
X120225000Y-121250000D03*
%TD*%
D27*
%TO.C,R11*%
X172525000Y-100950000D03*
X174350000Y-100950000D03*
%TD*%
D31*
%TO.C,C19*%
X168985000Y-107110000D03*
X170710000Y-107110000D03*
%TD*%
%TO.C,C3*%
X184197500Y-107800000D03*
X185922500Y-107800000D03*
%TD*%
D18*
%TO.C,D6*%
X162855000Y-82790000D03*
X161105000Y-82790000D03*
%TD*%
D32*
%TO.C,IC1*%
X159675000Y-99490000D03*
X159675000Y-100760000D03*
X159675000Y-102030000D03*
X159675000Y-103300000D03*
X170325000Y-103300000D03*
X170325000Y-102030000D03*
X170325000Y-100760000D03*
X170325000Y-99490000D03*
%TD*%
D12*
%TO.C,TP8*%
X182750000Y-96250000D03*
%TD*%
D33*
%TO.C,F2*%
X127000000Y-90820000D03*
X127000000Y-114950000D03*
%TD*%
D34*
%TO.C,U2*%
X157586000Y-88350400D03*
X155300000Y-88350400D03*
X153014000Y-88350400D03*
D35*
X155300000Y-94649600D03*
%TD*%
D14*
%TO.C,H3*%
X115000000Y-123500000D03*
D15*
X115000000Y-123500000D03*
%TD*%
D36*
%TO.C,J4*%
X193890000Y-93750000D03*
D37*
X193890000Y-96250000D03*
X193890000Y-98750000D03*
X193890000Y-101250000D03*
X193890000Y-103750000D03*
X193890000Y-106250000D03*
X196390000Y-93750000D03*
X196390000Y-96250000D03*
X196390000Y-98750000D03*
X196390000Y-101250000D03*
X196390000Y-103750000D03*
X196390000Y-106250000D03*
%TD*%
D27*
%TO.C,R19*%
X166150000Y-82860000D03*
X167975000Y-82860000D03*
%TD*%
D12*
%TO.C,TP13*%
X189750000Y-124750000D03*
%TD*%
D21*
%TO.C,J6*%
X136550000Y-74900000D03*
%TD*%
D33*
%TO.C,F1*%
X116000000Y-90820000D03*
X116000000Y-114950000D03*
%TD*%
D12*
%TO.C,TP2*%
X182572500Y-101800000D03*
%TD*%
D14*
%TO.C,H4*%
X201000000Y-123500000D03*
D15*
X201000000Y-123500000D03*
%TD*%
D38*
%TO.C,D4*%
X153010000Y-82452500D03*
X153010000Y-80702500D03*
%TD*%
D13*
%TO.C,C11*%
X157700000Y-100790000D03*
X157700000Y-102515000D03*
%TD*%
D39*
%TO.C,D3*%
X189000000Y-111025000D03*
X189000000Y-115075000D03*
%TD*%
D17*
%TO.C,R16*%
X186980000Y-82590000D03*
X185155000Y-82590000D03*
%TD*%
D32*
%TO.C,IC2*%
X159675000Y-110795000D03*
X159675000Y-112065000D03*
X159675000Y-113335000D03*
X159675000Y-114605000D03*
X170325000Y-114605000D03*
X170325000Y-113335000D03*
X170325000Y-112065000D03*
X170325000Y-110795000D03*
%TD*%
D22*
%TO.C,R18*%
X188110000Y-117100000D03*
X188110000Y-118925000D03*
%TD*%
D18*
%TO.C,D8*%
X167937500Y-81280000D03*
X166187500Y-81280000D03*
%TD*%
D31*
%TO.C,C20*%
X168985000Y-108660000D03*
X170710000Y-108660000D03*
%TD*%
D13*
%TO.C,C17*%
X157700000Y-112050000D03*
X157700000Y-113775000D03*
%TD*%
D27*
%TO.C,R6*%
X172525000Y-97880000D03*
X174350000Y-97880000D03*
%TD*%
%TO.C,R12*%
X172325000Y-116140000D03*
X174150000Y-116140000D03*
%TD*%
D40*
%TO.C,J1*%
X120000000Y-83750000D03*
D41*
X122500000Y-83750000D03*
X125000000Y-83750000D03*
%TD*%
D28*
%TO.C,R23*%
X154653333Y-113825000D03*
X154653333Y-112000000D03*
%TD*%
D17*
%TO.C,R9*%
X174350000Y-102490000D03*
X172525000Y-102490000D03*
%TD*%
D42*
%TO.C,C1*%
X156400000Y-86437500D03*
X156400000Y-84362500D03*
%TD*%
D31*
%TO.C,C6*%
X166200000Y-85920000D03*
X167925000Y-85920000D03*
%TD*%
D13*
%TO.C,C15*%
X156176667Y-112047500D03*
X156176667Y-113772500D03*
%TD*%
D16*
%TO.C,R4*%
X135125000Y-116276398D03*
X135125000Y-121356398D03*
%TD*%
D29*
%TO.C,C12*%
X157642500Y-99210000D03*
X155917500Y-99210000D03*
%TD*%
%TO.C,C13*%
X170710000Y-97350000D03*
X168985000Y-97350000D03*
%TD*%
%TO.C,C10*%
X157642500Y-97690000D03*
X155917500Y-97690000D03*
%TD*%
%TO.C,C14*%
X170710000Y-95800000D03*
X168985000Y-95800000D03*
%TD*%
D28*
%TO.C,R15*%
X154590000Y-82490000D03*
X154590000Y-80665000D03*
%TD*%
D12*
%TO.C,TP10*%
X168500000Y-120900000D03*
%TD*%
D27*
%TO.C,R10*%
X172325000Y-114600000D03*
X174150000Y-114600000D03*
%TD*%
D31*
%TO.C,C2*%
X184197500Y-106200000D03*
X185922500Y-106200000D03*
%TD*%
%TO.C,C7*%
X166200000Y-84390000D03*
X167925000Y-84390000D03*
%TD*%
D43*
%TO.C,PS1*%
X168740000Y-88225000D03*
D44*
X166200000Y-88225000D03*
X163660000Y-88225000D03*
X161120000Y-88225000D03*
%TD*%
D12*
%TO.C,TP7*%
X178500000Y-96250000D03*
%TD*%
D45*
%TO.C,C5*%
X179190000Y-107862500D03*
X179190000Y-106137500D03*
%TD*%
D12*
%TO.C,TP5*%
X160150000Y-79500000D03*
%TD*%
D29*
%TO.C,C18*%
X157640000Y-108940000D03*
X155915000Y-108940000D03*
%TD*%
D12*
%TO.C,TP11*%
X172500000Y-120900000D03*
%TD*%
D39*
%TO.C,D2*%
X189500000Y-79775000D03*
X189500000Y-83825000D03*
%TD*%
M02*
