M48
; DRILL file {KiCad 9.0.7} date 2026-01-13T18:02:55-0600
; FORMAT={-:-/ absolute / inch / decimal}
; #@! TF.CreationDate,2026-01-13T18:02:55-06:00
; #@! TF.GenerationSoftware,Kicad,Pcbnew,9.0.7
; #@! TF.FileFunction,Plated,1,2,PTH
FMAT,2
INCH
; #@! TA.AperFunction,Plated,PTH,ViaDrill
T1C0.0118
; #@! TA.AperFunction,Plated,PTH,ComponentDrill
T2C0.0327
; #@! TA.AperFunction,Plated,PTH,ComponentDrill
T3C0.0394
; #@! TA.AperFunction,Plated,PTH,ComponentDrill
T4C0.0472
; #@! TA.AperFunction,Plated,PTH,ComponentDrill
T5C0.0630
; #@! TA.AperFunction,Plated,PTH,ComponentDrill
T6C0.1260
%
G90
G05
T1
X4.3701Y-3.1398
X4.3701Y-3.2382
X4.3701Y-3.3366
X4.3701Y-3.435
X4.3701Y-3.5335
X4.3701Y-3.6319
X4.3701Y-3.7303
X4.3701Y-3.8287
X4.3701Y-3.9272
X4.3701Y-4.0256
X4.3701Y-4.124
X4.3701Y-4.2224
X4.3701Y-4.3209
X4.3701Y-4.4193
X4.3701Y-4.5177
X4.3701Y-4.6161
X4.3701Y-4.7146
X4.6654Y-2.8445
X4.6654Y-5.0098
X4.7638Y-2.8445
X4.7638Y-5.0098
X4.813Y-3.4843
X4.813Y-3.5335
X4.8622Y-2.8445
X4.8622Y-5.0098
X4.8819Y-4.1732
X4.9606Y-2.8445
X4.9606Y-5.0098
X4.9803Y-4.1732
X5.0591Y-2.8445
X5.0591Y-5.0098
X5.0787Y-4.1732
X5.1575Y-2.8445
X5.1575Y-5.0098
X5.1772Y-3.189
X5.1772Y-3.2874
X5.1772Y-3.3858
X5.1772Y-3.4843
X5.1772Y-3.5827
X5.1772Y-3.6811
X5.1772Y-3.7795
X5.1772Y-3.878
X5.1772Y-3.9764
X5.1772Y-4.0748
X5.1772Y-4.1732
X5.1772Y-4.3701
X5.1772Y-4.4685
X5.1772Y-4.5669
X5.1772Y-4.6654
X5.2559Y-2.8445
X5.2559Y-5.0098
X5.2756Y-3.189
X5.2756Y-3.3858
X5.2756Y-3.4843
X5.2756Y-3.6811
X5.2756Y-3.878
X5.2756Y-3.9764
X5.2756Y-4.1732
X5.2756Y-4.3701
X5.2756Y-4.4685
X5.2756Y-4.6654
X5.3543Y-2.8445
X5.3543Y-5.0098
X5.3937Y-3.878
X5.4528Y-2.8445
X5.4528Y-5.0098
X5.511Y-3.0575
X5.511Y-3.1362
X5.511Y-3.215
X5.511Y-3.2937
X5.511Y-3.5516
X5.511Y-3.6303
X5.511Y-3.7091
X5.511Y-4.0457
X5.511Y-4.1244
X5.511Y-4.2819
X5.511Y-4.5398
X5.511Y-4.6185
X5.511Y-4.6972
X5.511Y-4.776
X5.5504Y-3.0969
X5.5504Y-3.1756
X5.5504Y-3.2543
X5.5504Y-3.3331
X5.5504Y-3.5909
X5.5504Y-3.6697
X5.5504Y-3.8272
X5.5504Y-4.085
X5.5504Y-4.2425
X5.5504Y-4.3213
X5.5504Y-4.5791
X5.5504Y-4.6579
X5.5504Y-4.7366
X5.5504Y-4.8154
X5.5512Y-2.8445
X5.5512Y-5.0098
X5.5898Y-3.0575
X5.5898Y-3.1362
X5.5898Y-3.215
X5.5898Y-3.2937
X5.5898Y-3.5516
X5.5898Y-3.6303
X5.5898Y-3.7091
X5.5898Y-4.0457
X5.5898Y-4.1244
X5.5898Y-4.2819
X5.5898Y-4.5398
X5.5898Y-4.6185
X5.5898Y-4.6972
X5.5898Y-4.776
X5.6291Y-3.0969
X5.6291Y-3.1756
X5.6291Y-3.2543
X5.6291Y-3.3331
X5.6291Y-3.5909
X5.6291Y-3.6697
X5.6291Y-3.8272
X5.6291Y-4.085
X5.6291Y-4.2425
X5.6291Y-4.3213
X5.6291Y-4.5791
X5.6291Y-4.6579
X5.6291Y-4.7366
X5.6291Y-4.8154
X5.6496Y-2.8445
X5.6496Y-5.0098
X5.6685Y-3.0575
X5.6685Y-3.1362
X5.6685Y-3.215
X5.6685Y-3.2937
X5.6685Y-3.5516
X5.6685Y-3.6303
X5.6685Y-3.7091
X5.6685Y-4.0457
X5.6685Y-4.1244
X5.6685Y-4.2819
X5.6685Y-4.5398
X5.6685Y-4.6185
X5.6685Y-4.6972
X5.6685Y-4.776
X5.7079Y-3.0969
X5.7079Y-3.1756
X5.7079Y-3.2543
X5.7079Y-3.3331
X5.7079Y-3.5909
X5.7079Y-3.6697
X5.7079Y-3.8272
X5.7079Y-4.085
X5.7079Y-4.2425
X5.7079Y-4.3213
X5.7079Y-4.5791
X5.7079Y-4.6579
X5.7079Y-4.7366
X5.7079Y-4.8154
X5.7472Y-3.0575
X5.7472Y-3.1362
X5.7472Y-3.215
X5.7472Y-3.2937
X5.7472Y-3.5516
X5.7472Y-3.6303
X5.7472Y-3.7091
X5.7472Y-4.0457
X5.7472Y-4.1244
X5.7472Y-4.2819
X5.7472Y-4.5398
X5.7472Y-4.6185
X5.7472Y-4.6972
X5.7472Y-4.776
X5.748Y-2.8445
X5.748Y-5.0098
X5.7866Y-3.0181
X5.7866Y-3.0969
X5.7866Y-3.1756
X5.7866Y-3.2543
X5.7866Y-3.3331
X5.7866Y-3.5122
X5.7866Y-3.5909
X5.7866Y-3.6697
X5.7866Y-3.8272
X5.7866Y-4.0063
X5.7866Y-4.085
X5.7866Y-4.2425
X5.7866Y-4.3213
X5.7866Y-4.5004
X5.7866Y-4.5791
X5.7866Y-4.6579
X5.7866Y-4.7366
X5.7866Y-4.8154
X5.826Y-3.0575
X5.826Y-3.1362
X5.826Y-3.215
X5.826Y-3.2937
X5.826Y-3.3724
X5.826Y-3.5516
X5.826Y-3.6303
X5.826Y-3.7091
X5.826Y-3.8665
X5.826Y-4.0457
X5.826Y-4.1244
X5.826Y-4.2819
X5.826Y-4.3606
X5.826Y-4.5398
X5.826Y-4.6185
X5.826Y-4.6972
X5.826Y-4.776
X5.826Y-4.8547
X5.8465Y-2.8445
X5.8465Y-5.0098
X5.8654Y-3.0181
X5.8654Y-3.0969
X5.8654Y-3.1756
X5.8654Y-3.2543
X5.8654Y-3.3331
X5.8654Y-3.5122
X5.8654Y-3.5909
X5.8654Y-3.6697
X5.8654Y-3.8272
X5.8654Y-4.0063
X5.8654Y-4.085
X5.8654Y-4.2425
X5.8654Y-4.3213
X5.8654Y-4.5004
X5.8654Y-4.5791
X5.8654Y-4.6579
X5.8654Y-4.7366
X5.8654Y-4.8154
X5.9449Y-2.8445
X5.9449Y-5.0098
X5.9646Y-3.1496
X5.9646Y-3.248
X5.9646Y-3.3465
X5.9646Y-3.4449
X5.9646Y-3.5433
X5.9646Y-3.7795
X5.9646Y-4.1732
X6.0236Y-3.5433
X6.0236Y-3.6417
X6.0236Y-3.6909
X6.0236Y-3.7402
X6.0236Y-3.7894
X6.0433Y-2.8445
X6.0433Y-4.1732
X6.0433Y-4.2717
X6.0433Y-4.5669
X6.0433Y-5.0098
X6.0925Y-4.1732
X6.0925Y-4.5669
X6.1417Y-2.8445
X6.1417Y-4.1732
X6.1417Y-4.5669
X6.1417Y-5.0098
X6.1614Y-3.248
X6.1614Y-3.5433
X6.1909Y-4.1732
X6.1909Y-4.5669
X6.2106Y-3.248
X6.2402Y-2.8445
X6.2402Y-4.1732
X6.2402Y-4.5669
X6.2402Y-5.0098
X6.2598Y-3.248
X6.2598Y-3.2972
X6.2598Y-3.3465
X6.2598Y-3.3957
X6.2598Y-3.5433
X6.2598Y-3.6417
X6.2598Y-3.6909
X6.2864Y-3.8386
X6.2864Y-4.2913
X6.3386Y-2.8445
X6.3386Y-5.0098
X6.3583Y-3.5433
X6.4075Y-3.1496
X6.4075Y-3.1988
X6.437Y-2.8445
X6.437Y-3.5827
X6.437Y-3.6811
X6.437Y-3.7795
X6.437Y-3.878
X6.437Y-3.9764
X6.437Y-4.0748
X6.437Y-4.1732
X6.437Y-4.2717
X6.437Y-4.3701
X6.437Y-4.4685
X6.437Y-4.5669
X6.437Y-4.6654
X6.437Y-5.0098
X6.4567Y-3.1496
X6.4567Y-3.1988
X6.5354Y-5.0098
X6.5846Y-3.6811
X6.5846Y-3.7795
X6.5846Y-3.878
X6.5846Y-3.9764
X6.5846Y-4.0748
X6.5846Y-4.1732
X6.5846Y-4.2717
X6.5846Y-4.3701
X6.5846Y-4.4685
X6.5846Y-4.5669
X6.5846Y-4.6654
X6.6339Y-2.8445
X6.6339Y-5.0098
X6.6831Y-4.5669
X6.6831Y-4.6161
X6.6831Y-4.6654
X6.7028Y-3.1988
X6.7028Y-3.248
X6.7028Y-3.2972
X6.7028Y-3.3465
X6.7028Y-3.3957
X6.7323Y-2.8445
X6.7323Y-4.124
X6.7323Y-4.1732
X6.7323Y-5.0098
X6.752Y-3.1988
X6.752Y-3.248
X6.752Y-3.2972
X6.752Y-3.3465
X6.752Y-3.3957
X6.7815Y-3.6811
X6.7815Y-4.0748
X6.7815Y-4.124
X6.7815Y-4.1732
X6.7815Y-4.3406
X6.8307Y-2.8445
X6.8307Y-3.6811
X6.8307Y-3.7795
X6.8307Y-5.0098
X6.8799Y-3.6811
X6.8799Y-3.7795
X6.9291Y-2.8445
X6.9291Y-3.6811
X6.9291Y-3.7795
X6.9291Y-5.0098
X6.939Y-3.9764
X7.0276Y-2.8445
X7.0276Y-5.0098
X7.126Y-2.8445
X7.126Y-5.0098
X7.2244Y-2.8445
X7.2244Y-5.0098
X7.3228Y-2.8445
X7.3228Y-5.0098
X7.372Y-3.6713
X7.372Y-3.7205
X7.372Y-4.311
X7.4213Y-2.8445
X7.4213Y-3.6713
X7.4213Y-3.8189
X7.4213Y-4.1142
X7.4213Y-4.1634
X7.4213Y-4.2126
X7.4213Y-4.311
X7.4213Y-5.0098
X7.4705Y-3.6713
X7.4705Y-3.7697
X7.4705Y-3.8189
X7.4705Y-4.1142
X7.4705Y-4.1634
X7.4705Y-4.2126
X7.4705Y-4.311
X7.5197Y-2.8445
X7.5197Y-5.0098
X7.5689Y-4.311
X7.5689Y-4.5571
X7.6181Y-2.8445
X7.6181Y-5.0098
X7.7165Y-2.8445
X7.7165Y-5.0098
X7.815Y-2.8445
X7.815Y-5.0098
X7.9134Y-2.8445
X8.0118Y-3.2382
X8.0118Y-3.3366
X8.0118Y-3.435
X8.0118Y-3.5335
X8.0118Y-3.6319
X8.0118Y-3.7303
X8.0118Y-3.8287
X8.0118Y-3.9272
X8.0118Y-4.0256
X8.0118Y-4.124
X8.0118Y-4.2224
X8.0118Y-4.3209
X8.0118Y-4.4193
X8.0118Y-4.5177
X8.0118Y-4.6161
X8.0118Y-4.7146
T2
X6.3433Y-3.4734
X6.4433Y-3.4734
X6.5433Y-3.4734
X6.6433Y-3.4734
T3
X5.376Y-2.9488
X5.376Y-4.9055
X6.8758Y-3.1805
X6.8758Y-3.2805
T4
X4.7244Y-3.3492
X4.8228Y-3.3492
X4.9213Y-3.3492
X7.6335Y-3.6909
X7.6335Y-3.7894
X7.6335Y-3.8878
X7.6335Y-3.9862
X7.6335Y-4.0846
X7.6335Y-4.1831
X7.7315Y-3.2063
X7.7315Y-3.3047
X7.7315Y-3.4031
X7.7315Y-3.5016
X7.7315Y-4.3701
X7.7315Y-4.4685
X7.7315Y-4.5669
X7.7315Y-4.6654
X7.7319Y-3.6909
X7.7319Y-3.7894
X7.7319Y-3.8878
X7.7319Y-3.9862
X7.7319Y-4.0846
X7.7319Y-4.1831
T5
X4.626Y-4.5
X4.6398Y-3.6841
X4.6398Y-4.0746
X4.7736Y-3.6841
X4.7736Y-4.0746
X4.9331Y-3.6843
X4.9331Y-4.0748
X5.0669Y-3.6843
X5.0669Y-4.0748
X6.063Y-3.063
X6.1417Y-4.7598
X6.3051Y-3.063
X6.3681Y-4.7598
X6.6339Y-4.7598
X6.8701Y-4.7598
X6.902Y-3.4327
X6.902Y-3.5665
X7.0252Y-3.7894
X7.1879Y-4.0079
X7.1879Y-4.4685
X7.2244Y-3.7894
X7.2925Y-3.4327
X7.2925Y-3.5665
T6
X4.5276Y-3.0118
X4.5276Y-4.8622
X7.9134Y-3.0118
X7.9134Y-4.8622
M30
