%TF.GenerationSoftware,KiCad,Pcbnew,9.0.4*%
%TF.CreationDate,2025-10-24T20:56:16-05:00*%
%TF.ProjectId,ActivePrecharge RevB,41637469-7665-4507-9265-636861726765,rev?*%
%TF.SameCoordinates,Original*%
%TF.FileFunction,Legend,Bot*%
%TF.FilePolarity,Positive*%
%FSLAX46Y46*%
G04 Gerber Fmt 4.6, Leading zero omitted, Abs format (unit mm)*
G04 Created by KiCad (PCBNEW 9.0.4) date 2025-10-24 20:56:16*
%MOMM*%
%LPD*%
G01*
G04 APERTURE LIST*
G04 Aperture macros list*
%AMRoundRect*
0 Rectangle with rounded corners*
0 $1 Rounding radius*
0 $2 $3 $4 $5 $6 $7 $8 $9 X,Y pos of 4 corners*
0 Add a 4 corners polygon primitive as box body*
4,1,4,$2,$3,$4,$5,$6,$7,$8,$9,$2,$3,0*
0 Add four circle primitives for the rounded corners*
1,1,$1+$1,$2,$3*
1,1,$1+$1,$4,$5*
1,1,$1+$1,$6,$7*
1,1,$1+$1,$8,$9*
0 Add four rect primitives between the rounded corners*
20,1,$1+$1,$2,$3,$4,$5,0*
20,1,$1+$1,$4,$5,$6,$7,0*
20,1,$1+$1,$6,$7,$8,$9,0*
20,1,$1+$1,$8,$9,$2,$3,0*%
%AMFreePoly0*
4,1,22,0.945671,0.830970,1.026777,0.776777,1.080970,0.695671,1.100000,0.600000,1.100000,-0.600000,1.080970,-0.695671,1.026777,-0.776777,0.945671,-0.830970,0.850000,-0.850000,-0.596447,-0.850000,-0.692118,-0.830970,-0.773224,-0.776777,-1.026777,-0.523224,-1.080970,-0.442118,-1.100000,-0.346447,-1.100000,0.600000,-1.080970,0.695671,-1.026777,0.776777,-0.945671,0.830970,-0.850000,0.850000,
0.850000,0.850000,0.945671,0.830970,0.945671,0.830970,$1*%
G04 Aperture macros list end*
%ADD10C,1.300000*%
%ADD11RoundRect,0.250000X-0.850000X-0.600000X0.850000X-0.600000X0.850000X0.600000X-0.850000X0.600000X0*%
%ADD12O,2.200000X1.700000*%
%ADD13C,1.000000*%
%ADD14C,2.604000*%
%ADD15RoundRect,0.250000X-0.600000X-0.600000X0.600000X-0.600000X0.600000X0.600000X-0.600000X0.600000X0*%
%ADD16C,1.700000*%
%ADD17C,3.600000*%
%ADD18C,6.400000*%
%ADD19RoundRect,0.102000X0.625000X0.625000X-0.625000X0.625000X-0.625000X-0.625000X0.625000X-0.625000X0*%
%ADD20C,1.454000*%
%ADD21FreePoly0,90.000000*%
%ADD22O,1.700000X2.200000*%
G04 APERTURE END LIST*
%LPC*%
D10*
%TO.C,MainCont*%
X187012120Y-104064880D03*
D11*
X188352120Y-100314880D03*
D12*
X188352120Y-102814880D03*
X188352120Y-105314880D03*
X188352120Y-107814880D03*
%TD*%
D13*
%TO.C,LVGND*%
X173950000Y-112500000D03*
%TD*%
D14*
%TO.C,F2*%
X115650000Y-81330000D03*
X112250000Y-81330000D03*
X115650000Y-91250000D03*
X112250000Y-91250000D03*
%TD*%
D13*
%TO.C,V1*%
X172200000Y-67000000D03*
%TD*%
D10*
%TO.C,Export*%
X186447120Y-89314880D03*
D15*
X187787120Y-83064880D03*
D16*
X187787120Y-85564880D03*
X187787120Y-88064880D03*
X187787120Y-90564880D03*
X187787120Y-93064880D03*
X187787120Y-95564880D03*
X190287120Y-83064880D03*
X190287120Y-85564880D03*
X190287120Y-88064880D03*
X190287120Y-90564880D03*
X190287120Y-93064880D03*
X190287120Y-95564880D03*
%TD*%
D17*
%TO.C,H4*%
X194660000Y-115000000D03*
D18*
X194660000Y-115000000D03*
%TD*%
D14*
%TO.C,F1*%
X106478633Y-81325000D03*
X103078633Y-81325000D03*
X106478633Y-91245000D03*
X103078633Y-91245000D03*
%TD*%
D13*
%TO.C,3V3*%
X168400000Y-67000000D03*
%TD*%
%TO.C,REG_3V3*%
X143050000Y-67000000D03*
%TD*%
%TO.C,HV+*%
X116000000Y-112250000D03*
%TD*%
%TO.C,HV-*%
X116000000Y-108750000D03*
%TD*%
%TO.C,ISO_5V*%
X151000000Y-67000000D03*
%TD*%
D17*
%TO.C,H1*%
X103850000Y-63600000D03*
D18*
X103850000Y-63600000D03*
%TD*%
D19*
%TO.C,PS1*%
X158740000Y-78925000D03*
D20*
X156200000Y-78925000D03*
X153660000Y-78925000D03*
X151120000Y-78925000D03*
%TD*%
D14*
%TO.C,F3*%
X165290000Y-78800000D03*
X165290000Y-82200000D03*
X175210000Y-78800000D03*
X175210000Y-82200000D03*
%TD*%
D13*
%TO.C,Vin2*%
X147750000Y-112500000D03*
%TD*%
%TO.C,HVGND*%
X110050000Y-112250000D03*
%TD*%
%TO.C,V2*%
X170500000Y-112500000D03*
%TD*%
D10*
%TO.C,HVConnector*%
X111150000Y-73165000D03*
D21*
X109900000Y-71825000D03*
D22*
X112400000Y-71825000D03*
X114900000Y-71825000D03*
%TD*%
D17*
%TO.C,H2*%
X194660000Y-63600000D03*
D18*
X194660000Y-63600000D03*
%TD*%
D10*
%TO.C,PreCont*%
X187002120Y-74504880D03*
D11*
X188342120Y-70754880D03*
D12*
X188342120Y-73254880D03*
X188342120Y-75754880D03*
X188342120Y-78254880D03*
%TD*%
D17*
%TO.C,H3*%
X103850000Y-115000000D03*
D18*
X103850000Y-115000000D03*
%TD*%
D13*
%TO.C,Vin1*%
X137800000Y-67000000D03*
%TD*%
%LPD*%
M02*
