%TF.GenerationSoftware,KiCad,Pcbnew,9.0.4*%
%TF.CreationDate,2025-10-24T20:40:38-05:00*%
%TF.ProjectId,ActivePrecharge RevB,41637469-7665-4507-9265-636861726765,rev?*%
%TF.SameCoordinates,Original*%
%TF.FileFunction,Copper,L1,Top*%
%TF.FilePolarity,Positive*%
%FSLAX46Y46*%
G04 Gerber Fmt 4.6, Leading zero omitted, Abs format (unit mm)*
G04 Created by KiCad (PCBNEW 9.0.4) date 2025-10-24 20:40:38*
%MOMM*%
%LPD*%
G01*
G04 APERTURE LIST*
G04 Aperture macros list*
%AMRoundRect*
0 Rectangle with rounded corners*
0 $1 Rounding radius*
0 $2 $3 $4 $5 $6 $7 $8 $9 X,Y pos of 4 corners*
0 Add a 4 corners polygon primitive as box body*
4,1,4,$2,$3,$4,$5,$6,$7,$8,$9,$2,$3,0*
0 Add four circle primitives for the rounded corners*
1,1,$1+$1,$2,$3*
1,1,$1+$1,$4,$5*
1,1,$1+$1,$6,$7*
1,1,$1+$1,$8,$9*
0 Add four rect primitives between the rounded corners*
20,1,$1+$1,$2,$3,$4,$5,0*
20,1,$1+$1,$4,$5,$6,$7,0*
20,1,$1+$1,$6,$7,$8,$9,0*
20,1,$1+$1,$8,$9,$2,$3,0*%
%AMFreePoly0*
4,1,21,5.263536,5.503536,5.265000,5.500000,5.265000,-5.500000,5.263536,-5.503536,5.260000,-5.505000,1.240000,-5.505000,1.236464,-5.503536,1.235000,-5.500000,1.235000,-4.005000,-5.260000,-4.005000,-5.263536,-4.003536,-5.265000,-4.000000,-5.265000,4.000000,-5.263536,4.003536,-5.260000,4.005000,1.235000,4.005000,1.235000,5.500000,1.236464,5.503536,1.240000,5.505000,5.260000,5.505000,
5.263536,5.503536,5.263536,5.503536,$1*%
%AMFreePoly1*
4,1,22,0.945671,0.830970,1.026777,0.776777,1.080970,0.695671,1.100000,0.600000,1.100000,-0.600000,1.080970,-0.695671,1.026777,-0.776777,0.945671,-0.830970,0.850000,-0.850000,-0.596447,-0.850000,-0.692118,-0.830970,-0.773224,-0.776777,-1.026777,-0.523224,-1.080970,-0.442118,-1.100000,-0.346447,-1.100000,0.600000,-1.080970,0.695671,-1.026777,0.776777,-0.945671,0.830970,-0.850000,0.850000,
0.850000,0.850000,0.945671,0.830970,0.945671,0.830970,$1*%
G04 Aperture macros list end*
%TA.AperFunction,SMDPad,CuDef*%
%ADD10RoundRect,0.237500X-0.250000X-0.237500X0.250000X-0.237500X0.250000X0.237500X-0.250000X0.237500X0*%
%TD*%
%TA.AperFunction,SMDPad,CuDef*%
%ADD11R,1.000000X0.599999*%
%TD*%
%TA.AperFunction,SMDPad,CuDef*%
%ADD12RoundRect,0.237500X0.237500X-0.300000X0.237500X0.300000X-0.237500X0.300000X-0.237500X-0.300000X0*%
%TD*%
%TA.AperFunction,ComponentPad*%
%ADD13RoundRect,0.250000X-0.850000X-0.600000X0.850000X-0.600000X0.850000X0.600000X-0.850000X0.600000X0*%
%TD*%
%TA.AperFunction,ComponentPad*%
%ADD14O,2.200000X1.700000*%
%TD*%
%TA.AperFunction,SMDPad,CuDef*%
%ADD15RoundRect,0.237500X-0.237500X0.287500X-0.237500X-0.287500X0.237500X-0.287500X0.237500X0.287500X0*%
%TD*%
%TA.AperFunction,ComponentPad*%
%ADD16C,1.000000*%
%TD*%
%TA.AperFunction,SMDPad,CuDef*%
%ADD17RoundRect,0.237500X-0.300000X-0.237500X0.300000X-0.237500X0.300000X0.237500X-0.300000X0.237500X0*%
%TD*%
%TA.AperFunction,ComponentPad*%
%ADD18C,2.400000*%
%TD*%
%TA.AperFunction,SMDPad,CuDef*%
%ADD19RoundRect,0.237500X0.250000X0.237500X-0.250000X0.237500X-0.250000X-0.237500X0.250000X-0.237500X0*%
%TD*%
%TA.AperFunction,SMDPad,CuDef*%
%ADD20R,4.230000X2.400000*%
%TD*%
%TA.AperFunction,SMDPad,CuDef*%
%ADD21FreePoly0,0.000000*%
%TD*%
%TA.AperFunction,SMDPad,CuDef*%
%ADD22R,1.850000X0.650000*%
%TD*%
%TA.AperFunction,ComponentPad*%
%ADD23RoundRect,0.250000X-0.600000X-0.600000X0.600000X-0.600000X0.600000X0.600000X-0.600000X0.600000X0*%
%TD*%
%TA.AperFunction,ComponentPad*%
%ADD24C,1.700000*%
%TD*%
%TA.AperFunction,SMDPad,CuDef*%
%ADD25RoundRect,0.250000X0.337500X0.475000X-0.337500X0.475000X-0.337500X-0.475000X0.337500X-0.475000X0*%
%TD*%
%TA.AperFunction,ComponentPad*%
%ADD26C,3.600000*%
%TD*%
%TA.AperFunction,ConnectorPad*%
%ADD27C,6.400000*%
%TD*%
%TA.AperFunction,SMDPad,CuDef*%
%ADD28RoundRect,0.237500X0.237500X-0.250000X0.237500X0.250000X-0.237500X0.250000X-0.237500X-0.250000X0*%
%TD*%
%TA.AperFunction,SMDPad,CuDef*%
%ADD29RoundRect,0.237500X-0.237500X0.300000X-0.237500X-0.300000X0.237500X-0.300000X0.237500X0.300000X0*%
%TD*%
%TA.AperFunction,SMDPad,CuDef*%
%ADD30RoundRect,0.237500X0.300000X0.237500X-0.300000X0.237500X-0.300000X-0.237500X0.300000X-0.237500X0*%
%TD*%
%TA.AperFunction,SMDPad,CuDef*%
%ADD31R,1.050000X0.550000*%
%TD*%
%TA.AperFunction,SMDPad,CuDef*%
%ADD32RoundRect,0.237500X0.287500X0.237500X-0.287500X0.237500X-0.287500X-0.237500X0.287500X-0.237500X0*%
%TD*%
%TA.AperFunction,ComponentPad*%
%ADD33R,1.250000X1.250000*%
%TD*%
%TA.AperFunction,ComponentPad*%
%ADD34C,1.250000*%
%TD*%
%TA.AperFunction,SMDPad,CuDef*%
%ADD35R,1.200000X0.850000*%
%TD*%
%TA.AperFunction,SMDPad,CuDef*%
%ADD36R,0.990600X1.498600*%
%TD*%
%TA.AperFunction,SMDPad,CuDef*%
%ADD37R,3.276600X1.498600*%
%TD*%
%TA.AperFunction,ComponentPad*%
%ADD38FreePoly1,90.000000*%
%TD*%
%TA.AperFunction,ComponentPad*%
%ADD39O,1.700000X2.200000*%
%TD*%
%TA.AperFunction,SMDPad,CuDef*%
%ADD40RoundRect,0.250000X0.475000X-0.337500X0.475000X0.337500X-0.475000X0.337500X-0.475000X-0.337500X0*%
%TD*%
%TA.AperFunction,ViaPad*%
%ADD41C,0.600000*%
%TD*%
%TA.AperFunction,Conductor*%
%ADD42C,0.500000*%
%TD*%
%TA.AperFunction,Conductor*%
%ADD43C,0.200000*%
%TD*%
%TA.AperFunction,Conductor*%
%ADD44C,0.300000*%
%TD*%
G04 APERTURE END LIST*
D10*
%TO.P,R26,1*%
%TO.N,REG_0V8*%
X167650000Y-106130000D03*
%TO.P,R26,2*%
%TO.N,Net-(U3--)*%
X169475000Y-106130000D03*
%TD*%
D11*
%TO.P,U2,1,+*%
%TO.N,Net-(U2-+)*%
X171845000Y-93160000D03*
%TO.P,U2,2,-*%
%TO.N,Net-(U2--)*%
X171845000Y-94110001D03*
%TO.P,U2,3,V+*%
%TO.N,3V3*%
X171845000Y-95059999D03*
%TO.P,U2,4,V-*%
%TO.N,LVGND*%
X174595000Y-95059999D03*
%TO.P,U2,5*%
%TO.N,Net-(R22-Pad1)*%
X174595000Y-93160000D03*
%TD*%
D12*
%TO.P,C12,1*%
%TO.N,REG_3V3*%
X147700000Y-89825000D03*
%TO.P,C12,2*%
%TO.N,HVGND*%
X147700000Y-88100000D03*
%TD*%
%TO.P,C13,1*%
%TO.N,REG_3V3*%
X147700000Y-99000000D03*
%TO.P,C13,2*%
%TO.N,HVGND*%
X147700000Y-97275000D03*
%TD*%
D13*
%TO.P,MainCont,1,Con+(24V)*%
%TO.N,/Main+*%
X188352120Y-100314880D03*
D14*
%TO.P,MainCont,2,Con-*%
%TO.N,/Main-*%
X188352120Y-102814880D03*
%TO.P,MainCont,3,Sense-*%
%TO.N,/MainSense-*%
X188352120Y-105314880D03*
%TO.P,MainCont,4,Sense+(24V)*%
%TO.N,/MainSense+*%
X188352120Y-107814880D03*
%TD*%
D15*
%TO.P,REG_3V3,1,K*%
%TO.N,HVGND*%
X142425000Y-71312500D03*
%TO.P,REG_3V3,2,A*%
%TO.N,Net-(D2-A)*%
X142425000Y-73062500D03*
%TD*%
D16*
%TO.P,LVGND,1,1*%
%TO.N,LVGND*%
X173950000Y-112500000D03*
%TD*%
D17*
%TO.P,C3,1*%
%TO.N,3V3*%
X156237500Y-76700000D03*
%TO.P,C3,2*%
%TO.N,LVGND*%
X157962500Y-76700000D03*
%TD*%
D18*
%TO.P,F2,1*%
%TO.N,Net-(J1-Pin_3)*%
X115650000Y-81330000D03*
X112250000Y-81330000D03*
%TO.P,F2,2*%
%TO.N,HV-*%
X115650000Y-91250000D03*
X112250000Y-91250000D03*
%TD*%
D19*
%TO.P,R28,1*%
%TO.N,Net-(U3-+)*%
X169482500Y-101960000D03*
%TO.P,R28,2*%
%TO.N,LVGND*%
X167657500Y-101960000D03*
%TD*%
D20*
%TO.P,R2,1*%
%TO.N,HV-*%
X120875000Y-81970000D03*
%TO.P,R2,2*%
%TO.N,HV+*%
X120875000Y-87050000D03*
D21*
%TO.P,R2,3*%
%TO.N,/HEAT_DISSIPATION*%
X130500000Y-84510000D03*
%TD*%
D22*
%TO.P,IC1,1,VDD1*%
%TO.N,REG_3V3*%
X149675000Y-90190000D03*
%TO.P,IC1,2,INP*%
%TO.N,/Voltage_Sense/Vin1*%
X149675000Y-91460000D03*
%TO.P,IC1,3,INN*%
%TO.N,HVGND*%
X149675000Y-92730000D03*
%TO.P,IC1,4,GND1*%
X149675000Y-94000000D03*
%TO.P,IC1,5,GND2*%
%TO.N,LVGND*%
X160325000Y-94000000D03*
%TO.P,IC1,6,OUTN*%
X160325000Y-92730000D03*
%TO.P,IC1,7,OUTP*%
%TO.N,/Voltage_Sense/V1*%
X160325000Y-91460000D03*
%TO.P,IC1,8,VDD2*%
%TO.N,3V3*%
X160325000Y-90190000D03*
%TD*%
D16*
%TO.P,V1,1,1*%
%TO.N,/Voltage_Sense/V1*%
X172200000Y-67000000D03*
%TD*%
D19*
%TO.P,R22,1*%
%TO.N,Net-(R22-Pad1)*%
X169487500Y-95930000D03*
%TO.P,R22,2*%
%TO.N,Net-(U2--)*%
X167662500Y-95930000D03*
%TD*%
D23*
%TO.P,Export,1,Pin_1*%
%TO.N,Net-(J2-Pin_1)*%
X187787120Y-83064880D03*
D24*
%TO.P,Export,2,Pin_2*%
%TO.N,/PreSense+*%
X187787120Y-85564880D03*
%TO.P,Export,3,Pin_3*%
%TO.N,/Pre+*%
X187787120Y-88064880D03*
%TO.P,Export,4,Pin_4*%
%TO.N,/MainSense+*%
X187787120Y-90564880D03*
%TO.P,Export,5,Pin_5*%
%TO.N,/Main+*%
X187787120Y-93064880D03*
%TO.P,Export,6,Pin_6*%
%TO.N,LVGND*%
X187787120Y-95564880D03*
%TO.P,Export,7,Pin_7*%
%TO.N,/VOut1*%
X190287120Y-83064880D03*
%TO.P,Export,8,Pin_8*%
%TO.N,/PreSense-*%
X190287120Y-85564880D03*
%TO.P,Export,9,Pin_9*%
%TO.N,/Pre-*%
X190287120Y-88064880D03*
%TO.P,Export,10,Pin_10*%
%TO.N,/MainSense-*%
X190287120Y-90564880D03*
%TO.P,Export,11,Pin_11*%
%TO.N,/Main-*%
X190287120Y-93064880D03*
%TO.P,Export,12,Pin_12*%
%TO.N,/VOut2*%
X190287120Y-95564880D03*
%TD*%
D25*
%TO.P,C1,1*%
%TO.N,ISO_5V*%
X147037500Y-76450000D03*
%TO.P,C1,2*%
%TO.N,HVGND*%
X144962500Y-76450000D03*
%TD*%
D26*
%TO.P,H4,1,1*%
%TO.N,unconnected-(H4-Pad1)_2*%
X194660000Y-115000000D03*
D27*
%TO.N,unconnected-(H4-Pad1)_1*%
X194660000Y-115000000D03*
%TD*%
D17*
%TO.P,C5,1*%
%TO.N,3V3*%
X156237500Y-75200000D03*
%TO.P,C5,2*%
%TO.N,LVGND*%
X157962500Y-75200000D03*
%TD*%
D12*
%TO.P,C20,1*%
%TO.N,3V3*%
X157500000Y-109725000D03*
%TO.P,C20,2*%
%TO.N,LVGND*%
X157500000Y-108000000D03*
%TD*%
D28*
%TO.P,R11,1*%
%TO.N,HVGND*%
X138360000Y-102475000D03*
%TO.P,R11,2*%
%TO.N,/Voltage_Sense/Vin2*%
X138360000Y-100650000D03*
%TD*%
%TO.P,R8,1*%
%TO.N,/Voltage_Sense/Vin1*%
X138320000Y-89600000D03*
%TO.P,R8,2*%
%TO.N,HV+*%
X138320000Y-87775000D03*
%TD*%
D29*
%TO.P,C14,1*%
%TO.N,3V3*%
X162270000Y-90175000D03*
%TO.P,C14,2*%
%TO.N,LVGND*%
X162270000Y-91900000D03*
%TD*%
D30*
%TO.P,C23,1*%
%TO.N,/VOut2*%
X178165000Y-105400000D03*
%TO.P,C23,2*%
%TO.N,LVGND*%
X176440000Y-105400000D03*
%TD*%
D19*
%TO.P,R29,1*%
%TO.N,Net-(R29-Pad1)*%
X169477500Y-107730000D03*
%TO.P,R29,2*%
%TO.N,Net-(U3--)*%
X167652500Y-107730000D03*
%TD*%
D18*
%TO.P,F1,1*%
%TO.N,Net-(J1-Pin_1)*%
X106478633Y-81325000D03*
X103078633Y-81325000D03*
%TO.P,F1,2*%
%TO.N,Net-(D1-A)*%
X106478633Y-91245000D03*
X103078633Y-91245000D03*
%TD*%
D31*
%TO.P,IC3,1,PGND*%
%TO.N,LVGND*%
X160330000Y-107775000D03*
%TO.P,IC3,2,GND*%
X160330000Y-108725000D03*
%TO.P,IC3,3,IN*%
%TO.N,3V3*%
X160330000Y-109675000D03*
%TO.P,IC3,4,FB*%
%TO.N,REG_0V8*%
X162930000Y-109675000D03*
%TO.P,IC3,5,OUT*%
X162930000Y-107775000D03*
%TD*%
D16*
%TO.P,3V3,1,1*%
%TO.N,3V3*%
X168400000Y-67000000D03*
%TD*%
%TO.P,REG_3V3,1,1*%
%TO.N,REG_3V3*%
X143050000Y-67000000D03*
%TD*%
D30*
%TO.P,C21,1*%
%TO.N,REG_0V8*%
X159970000Y-111420000D03*
%TO.P,C21,2*%
%TO.N,LVGND*%
X158245000Y-111420000D03*
%TD*%
D16*
%TO.P,HV+,1,1*%
%TO.N,HV+*%
X116000000Y-112250000D03*
%TD*%
D32*
%TO.P,Main,1,K*%
%TO.N,/Main-*%
X181950000Y-102150000D03*
%TO.P,Main,2,A*%
%TO.N,Net-(D6-A)*%
X180200000Y-102150000D03*
%TD*%
D29*
%TO.P,C6,1*%
%TO.N,/Voltage_Sense/Vin1*%
X141470000Y-91490000D03*
%TO.P,C6,2*%
%TO.N,HVGND*%
X141470000Y-93215000D03*
%TD*%
D16*
%TO.P,HV-,1,1*%
%TO.N,HV-*%
X116000000Y-108750000D03*
%TD*%
D29*
%TO.P,C11,1*%
%TO.N,/Voltage_Sense/Vin2*%
X147700000Y-100675000D03*
%TO.P,C11,2*%
%TO.N,HVGND*%
X147700000Y-102400000D03*
%TD*%
D10*
%TO.P,R21,1*%
%TO.N,REG_0V8*%
X167662500Y-94040000D03*
%TO.P,R21,2*%
%TO.N,Net-(U2--)*%
X169487500Y-94040000D03*
%TD*%
D29*
%TO.P,C15,1*%
%TO.N,3V3*%
X163800000Y-99445000D03*
%TO.P,C15,2*%
%TO.N,LVGND*%
X163800000Y-101170000D03*
%TD*%
D16*
%TO.P,ISO_5V,1,1*%
%TO.N,ISO_5V*%
X151000000Y-67000000D03*
%TD*%
D10*
%TO.P,R18,1*%
%TO.N,3V3*%
X160675000Y-106145000D03*
%TO.P,R18,2*%
%TO.N,REG_0V8*%
X162500000Y-106145000D03*
%TD*%
D29*
%TO.P,C16,1*%
%TO.N,3V3*%
X163800000Y-90175000D03*
%TO.P,C16,2*%
%TO.N,LVGND*%
X163800000Y-91900000D03*
%TD*%
D19*
%TO.P,R23,1*%
%TO.N,Net-(U2-+)*%
X174055000Y-86640000D03*
%TO.P,R23,2*%
%TO.N,/Voltage_Sense/V1*%
X172230000Y-86640000D03*
%TD*%
%TO.P,R20,1*%
%TO.N,REG_0V8*%
X160045000Y-113140000D03*
%TO.P,R20,2*%
%TO.N,LVGND*%
X158220000Y-113140000D03*
%TD*%
D26*
%TO.P,H1,1,1*%
%TO.N,unconnected-(H1-Pad1)*%
X103850000Y-63600000D03*
D27*
%TO.N,unconnected-(H1-Pad1)_2*%
X103850000Y-63600000D03*
%TD*%
D22*
%TO.P,IC2,1,VDD1*%
%TO.N,REG_3V3*%
X149675000Y-99405000D03*
%TO.P,IC2,2,INP*%
%TO.N,/Voltage_Sense/Vin2*%
X149675000Y-100675000D03*
%TO.P,IC2,3,INN*%
%TO.N,HVGND*%
X149675000Y-101945000D03*
%TO.P,IC2,4,GND1*%
X149675000Y-103215000D03*
%TO.P,IC2,5,GND2*%
%TO.N,LVGND*%
X160325000Y-103215000D03*
%TO.P,IC2,6,OUTN*%
X160325000Y-101945000D03*
%TO.P,IC2,7,OUTP*%
%TO.N,/Voltage_Sense/V2*%
X160325000Y-100675000D03*
%TO.P,IC2,8,VDD2*%
%TO.N,3V3*%
X160325000Y-99405000D03*
%TD*%
D28*
%TO.P,R6,1*%
%TO.N,ISO_5V*%
X147050000Y-74050000D03*
%TO.P,R6,2*%
%TO.N,Net-(D3-A)*%
X147050000Y-72225000D03*
%TD*%
D20*
%TO.P,R4,1*%
%TO.N,HV-*%
X120875000Y-107070000D03*
%TO.P,R4,2*%
%TO.N,HV+*%
X120875000Y-112150000D03*
D21*
%TO.P,R4,3*%
%TO.N,/HEAT_DISSIPATION*%
X130500000Y-109610000D03*
%TD*%
D19*
%TO.P,R13,1*%
%TO.N,/Main+*%
X182000000Y-100600000D03*
%TO.P,R13,2*%
%TO.N,Net-(D6-A)*%
X180175000Y-100600000D03*
%TD*%
D30*
%TO.P,C22,1*%
%TO.N,/VOut1*%
X178212500Y-95140000D03*
%TO.P,C22,2*%
%TO.N,LVGND*%
X176487500Y-95140000D03*
%TD*%
D20*
%TO.P,R3,1*%
%TO.N,HV-*%
X120875000Y-94520000D03*
%TO.P,R3,2*%
%TO.N,HV+*%
X120875000Y-99600000D03*
D21*
%TO.P,R3,3*%
%TO.N,/HEAT_DISSIPATION*%
X130500000Y-97060000D03*
%TD*%
D33*
%TO.P,PS1,1,-VIN*%
%TO.N,LVGND*%
X158740000Y-78925000D03*
D34*
%TO.P,PS1,2,+VIN*%
%TO.N,3V3*%
X156200000Y-78925000D03*
%TO.P,PS1,3,-VOUT*%
%TO.N,HVGND*%
X153660000Y-78925000D03*
%TO.P,PS1,4,+VOUT*%
%TO.N,ISO_5V*%
X151120000Y-78925000D03*
%TD*%
D18*
%TO.P,F3,1*%
%TO.N,3V3*%
X165290000Y-78800000D03*
X165290000Y-82200000D03*
%TO.P,F3,2*%
%TO.N,Net-(J2-Pin_1)*%
X175210000Y-78800000D03*
X175210000Y-82200000D03*
%TD*%
D16*
%TO.P,Vin2,1,1*%
%TO.N,/Voltage_Sense/Vin2*%
X147750000Y-112500000D03*
%TD*%
D28*
%TO.P,R7,1*%
%TO.N,3V3*%
X159500000Y-71840000D03*
%TO.P,R7,2*%
%TO.N,Net-(D4-A)*%
X159500000Y-70015000D03*
%TD*%
%TO.P,R10,1*%
%TO.N,/Voltage_Sense/Vin2*%
X138350000Y-98710000D03*
%TO.P,R10,2*%
%TO.N,HV-*%
X138350000Y-96885000D03*
%TD*%
D16*
%TO.P,HVGND,1,1*%
%TO.N,HVGND*%
X110050000Y-112250000D03*
%TD*%
%TO.P,V2,1,1*%
%TO.N,/Voltage_Sense/V2*%
X170500000Y-112500000D03*
%TD*%
D35*
%TO.P,D1,1,K*%
%TO.N,HV+*%
X106500000Y-99225000D03*
%TO.P,D1,2,A*%
%TO.N,Net-(D1-A)*%
X106500000Y-96175000D03*
%TD*%
D36*
%TO.P,U1,1,IN*%
%TO.N,ISO_5V*%
X147036000Y-79100400D03*
%TO.P,U1,2,GND*%
%TO.N,HVGND*%
X144750000Y-79100400D03*
%TO.P,U1,3,OUT*%
%TO.N,REG_3V3*%
X142464000Y-79100400D03*
D37*
%TO.P,U1,4,TAB*%
%TO.N,HVGND*%
X144750000Y-85399600D03*
%TD*%
D30*
%TO.P,C4,1*%
%TO.N,HVGND*%
X152712500Y-76650000D03*
%TO.P,C4,2*%
%TO.N,ISO_5V*%
X150987500Y-76650000D03*
%TD*%
D20*
%TO.P,R1,1*%
%TO.N,HV-*%
X120875000Y-69420000D03*
%TO.P,R1,2*%
%TO.N,HV+*%
X120875000Y-74500000D03*
D21*
%TO.P,R1,3*%
%TO.N,/HEAT_DISSIPATION*%
X130500000Y-71960000D03*
%TD*%
D19*
%TO.P,R12,1*%
%TO.N,/Pre+*%
X183725000Y-67318750D03*
%TO.P,R12,2*%
%TO.N,Net-(D5-A)*%
X181900000Y-67318750D03*
%TD*%
D38*
%TO.P,HVConnector,1,Pin_1*%
%TO.N,Net-(J1-Pin_1)*%
X109900000Y-71825000D03*
D39*
%TO.P,HVConnector,2,Pin_2*%
%TO.N,HVGND*%
X112400000Y-71825000D03*
%TO.P,HVConnector,3,Pin_3*%
%TO.N,Net-(J1-Pin_3)*%
X114900000Y-71825000D03*
%TD*%
D11*
%TO.P,U3,1,+*%
%TO.N,Net-(U3-+)*%
X171592500Y-103500001D03*
%TO.P,U3,2,-*%
%TO.N,Net-(U3--)*%
X171592500Y-104450002D03*
%TO.P,U3,3,V+*%
%TO.N,3V3*%
X171592500Y-105400000D03*
%TO.P,U3,4,V-*%
%TO.N,LVGND*%
X174342500Y-105400000D03*
%TO.P,U3,5*%
%TO.N,Net-(R29-Pad1)*%
X174342500Y-103500001D03*
%TD*%
D29*
%TO.P,C10,1*%
%TO.N,/Voltage_Sense/Vin1*%
X147700000Y-91490000D03*
%TO.P,C10,2*%
%TO.N,HVGND*%
X147700000Y-93215000D03*
%TD*%
D26*
%TO.P,H2,1,1*%
%TO.N,unconnected-(H2-Pad1)_1*%
X194660000Y-63600000D03*
D27*
%TO.N,unconnected-(H2-Pad1)*%
X194660000Y-63600000D03*
%TD*%
D13*
%TO.P,PreCont,1,Con+(24V)*%
%TO.N,/Pre+*%
X188342120Y-70754880D03*
D14*
%TO.P,PreCont,2,Con-*%
%TO.N,/Pre-*%
X188342120Y-73254880D03*
%TO.P,PreCont,3,Sense-*%
%TO.N,/PreSense-*%
X188342120Y-75754880D03*
%TO.P,PreCont,4,Sense+(24V)*%
%TO.N,/PreSense+*%
X188342120Y-78254880D03*
%TD*%
D12*
%TO.P,C8,1*%
%TO.N,REG_3V3*%
X146100000Y-89762500D03*
%TO.P,C8,2*%
%TO.N,HVGND*%
X146100000Y-88037500D03*
%TD*%
D28*
%TO.P,R9,1*%
%TO.N,HVGND*%
X138330000Y-93315000D03*
%TO.P,R9,2*%
%TO.N,/Voltage_Sense/Vin1*%
X138330000Y-91490000D03*
%TD*%
D29*
%TO.P,C7,1*%
%TO.N,/Voltage_Sense/Vin2*%
X141500000Y-100685000D03*
%TO.P,C7,2*%
%TO.N,HVGND*%
X141500000Y-102410000D03*
%TD*%
D28*
%TO.P,R5,1*%
%TO.N,REG_3V3*%
X142425000Y-77175000D03*
%TO.P,R5,2*%
%TO.N,Net-(D2-A)*%
X142425000Y-75350000D03*
%TD*%
D26*
%TO.P,H3,1,1*%
%TO.N,unconnected-(H3-Pad1)*%
X103850000Y-115000000D03*
D27*
%TO.N,unconnected-(H3-Pad1)_2*%
X103850000Y-115000000D03*
%TD*%
D15*
%TO.P,ISO_5V,1,K*%
%TO.N,HVGND*%
X147050000Y-68162500D03*
%TO.P,ISO_5V,2,A*%
%TO.N,Net-(D3-A)*%
X147050000Y-69912500D03*
%TD*%
D19*
%TO.P,R27,1*%
%TO.N,Net-(U3-+)*%
X169485000Y-99010000D03*
%TO.P,R27,2*%
%TO.N,/Voltage_Sense/V2*%
X167660000Y-99010000D03*
%TD*%
D40*
%TO.P,C2,1*%
%TO.N,HVGND*%
X140100000Y-81137500D03*
%TO.P,C2,2*%
%TO.N,REG_3V3*%
X140100000Y-79062500D03*
%TD*%
D10*
%TO.P,R30,1*%
%TO.N,Net-(R29-Pad1)*%
X176400000Y-103500000D03*
%TO.P,R30,2*%
%TO.N,/VOut2*%
X178225000Y-103500000D03*
%TD*%
D15*
%TO.P,3V3,1,K*%
%TO.N,LVGND*%
X159500000Y-66375000D03*
%TO.P,3V3,2,A*%
%TO.N,Net-(D4-A)*%
X159500000Y-68125000D03*
%TD*%
D12*
%TO.P,C9,1*%
%TO.N,REG_3V3*%
X146100000Y-98962500D03*
%TO.P,C9,2*%
%TO.N,HVGND*%
X146100000Y-97237500D03*
%TD*%
D19*
%TO.P,R19,1*%
%TO.N,REG_0V8*%
X163780000Y-113140000D03*
%TO.P,R19,2*%
X161955000Y-113140000D03*
%TD*%
D16*
%TO.P,Vin1,1,1*%
%TO.N,/Voltage_Sense/Vin1*%
X137800000Y-67000000D03*
%TD*%
D32*
%TO.P,Pre,1,K*%
%TO.N,/Pre-*%
X183687500Y-68918750D03*
%TO.P,Pre,2,A*%
%TO.N,Net-(D5-A)*%
X181937500Y-68918750D03*
%TD*%
D10*
%TO.P,R24,1*%
%TO.N,Net-(U2-+)*%
X172230000Y-90850000D03*
%TO.P,R24,2*%
%TO.N,LVGND*%
X174055000Y-90850000D03*
%TD*%
%TO.P,R25,1*%
%TO.N,Net-(R22-Pad1)*%
X176437500Y-93140000D03*
%TO.P,R25,2*%
%TO.N,/VOut1*%
X178262500Y-93140000D03*
%TD*%
D29*
%TO.P,C17,1*%
%TO.N,3V3*%
X162290000Y-99445000D03*
%TO.P,C17,2*%
%TO.N,LVGND*%
X162290000Y-101170000D03*
%TD*%
D41*
%TO.N,REG_3V3*%
X149050000Y-87700000D03*
X141350000Y-77150000D03*
X148875000Y-96825000D03*
X140125000Y-77125000D03*
X141350000Y-79050000D03*
%TO.N,LVGND*%
X171000000Y-97000000D03*
X181400000Y-97300000D03*
X164000000Y-117000000D03*
X160000000Y-62000000D03*
X162000000Y-117000000D03*
X185000000Y-117000000D03*
X158000000Y-117000000D03*
X192000000Y-105000000D03*
X165650000Y-105225000D03*
X184000000Y-62000000D03*
X178125000Y-99500000D03*
X160000000Y-117000000D03*
X182000000Y-62000000D03*
X192000000Y-109000000D03*
X181400000Y-94500000D03*
X158000000Y-62000000D03*
X165650000Y-107050000D03*
X176500000Y-99500000D03*
X183400000Y-97300000D03*
X192000000Y-107000000D03*
X183400000Y-94500000D03*
%TO.N,3V3*%
X168644000Y-97520000D03*
X165700000Y-95750000D03*
X161329448Y-107200000D03*
%TO.N,HV+*%
X138250000Y-86000000D03*
X122500000Y-90500000D03*
%TO.N,HV-*%
X117500000Y-97000000D03*
X115400000Y-103000000D03*
X115400000Y-97000000D03*
X119450000Y-103000000D03*
X117500000Y-103000000D03*
X138350000Y-95250000D03*
X119500000Y-97000000D03*
%TO.N,REG_0V8*%
X167635000Y-104750000D03*
X166800000Y-94700000D03*
%TO.N,/Voltage_Sense/V2*%
X166250000Y-100331500D03*
X166600000Y-112500000D03*
%TO.N,/HEAT_DISSIPATION*%
X133500000Y-94900000D03*
X127500000Y-108000000D03*
X130500000Y-87200000D03*
X130500000Y-73800000D03*
X127500000Y-87200000D03*
X127500000Y-84200000D03*
X130500000Y-99500000D03*
X133500000Y-111000000D03*
X133500000Y-99500000D03*
X133500000Y-84200000D03*
X127500000Y-73800000D03*
X127500000Y-111000000D03*
X130500000Y-108010000D03*
X133500000Y-70800000D03*
X133500000Y-87200000D03*
X127500000Y-70800000D03*
X127500000Y-94900000D03*
X130500000Y-94900000D03*
X127500000Y-99500000D03*
X130500000Y-84210000D03*
X130500000Y-70810000D03*
X133500000Y-73800000D03*
X130500000Y-111000000D03*
X133500000Y-108000000D03*
%TD*%
D42*
%TO.N,ISO_5V*%
X151130000Y-76650000D02*
X151130000Y-68160000D01*
X151120000Y-78925000D02*
X151120000Y-76660000D01*
X147036000Y-79100400D02*
X147036000Y-76451500D01*
X147037500Y-76450000D02*
X147037500Y-74062500D01*
X151130000Y-68160000D02*
X151000000Y-68030000D01*
X147037500Y-76450000D02*
X150930000Y-76450000D01*
X150930000Y-76450000D02*
X151130000Y-76650000D01*
X147036000Y-76451500D02*
X147037500Y-76450000D01*
X147037500Y-74062500D02*
X147050000Y-74050000D01*
X151000000Y-68030000D02*
X151000000Y-67000000D01*
X151120000Y-76660000D02*
X151130000Y-76650000D01*
%TO.N,REG_3V3*%
X149310000Y-89825000D02*
X149675000Y-90190000D01*
D43*
X142288600Y-78925000D02*
X142464000Y-79100400D01*
D42*
X149675000Y-88325000D02*
X149050000Y-87700000D01*
X146162500Y-89825000D02*
X146100000Y-89762500D01*
X148870000Y-98600000D02*
X148470000Y-99000000D01*
X140750000Y-76500000D02*
X140125000Y-77125000D01*
X146137500Y-99000000D02*
X146100000Y-98962500D01*
X143050000Y-67000000D02*
X140750000Y-69300000D01*
X147700000Y-99000000D02*
X146137500Y-99000000D01*
X148870000Y-98600000D02*
X148870000Y-96830000D01*
X148470000Y-99000000D02*
X147700000Y-99000000D01*
X142426100Y-79062500D02*
X142464000Y-79100400D01*
X148870000Y-96830000D02*
X148875000Y-96825000D01*
X142425000Y-79061400D02*
X142464000Y-79100400D01*
X147700000Y-89825000D02*
X146162500Y-89825000D01*
X148870000Y-98600000D02*
X149675000Y-99405000D01*
X147700000Y-89825000D02*
X149310000Y-89825000D01*
X149675000Y-90190000D02*
X149675000Y-88325000D01*
X140125000Y-79037500D02*
X140100000Y-79062500D01*
X140750000Y-69300000D02*
X140750000Y-76500000D01*
%TO.N,/Voltage_Sense/Vin1*%
X138320000Y-91480000D02*
X138330000Y-91490000D01*
X147700000Y-91490000D02*
X141470000Y-91490000D01*
X149675000Y-91460000D02*
X147730000Y-91460000D01*
X137800000Y-67000000D02*
X137800000Y-84487925D01*
X138320000Y-89600000D02*
X138320000Y-91480000D01*
X138330000Y-91490000D02*
X139900000Y-91490000D01*
X137800000Y-84487925D02*
X139900000Y-86587925D01*
X147730000Y-91460000D02*
X147700000Y-91490000D01*
X139900000Y-86587925D02*
X139900000Y-91490000D01*
X139900000Y-91490000D02*
X141470000Y-91490000D01*
%TO.N,/Voltage_Sense/Vin2*%
X147775000Y-100675000D02*
X149675000Y-100675000D01*
X138350000Y-100640000D02*
X138360000Y-100650000D01*
X138360000Y-100650000D02*
X141465000Y-100650000D01*
X141500000Y-100685000D02*
X144500000Y-100685000D01*
X144500000Y-100900000D02*
X147750000Y-104150000D01*
X147750000Y-104150000D02*
X147750000Y-112500000D01*
X146000000Y-100675000D02*
X147775000Y-100675000D01*
X141465000Y-100650000D02*
X141500000Y-100685000D01*
X144500000Y-100685000D02*
X145990000Y-100685000D01*
X145990000Y-100685000D02*
X146000000Y-100675000D01*
X144500000Y-100685000D02*
X144500000Y-100900000D01*
X138350000Y-98710000D02*
X138350000Y-100640000D01*
D43*
%TO.N,LVGND*%
X160250000Y-102020000D02*
X160325000Y-101945000D01*
X160250000Y-102500000D02*
X160250000Y-102020000D01*
D42*
%TO.N,3V3*%
X168400000Y-68850000D02*
X168400000Y-67000000D01*
X160325000Y-90190000D02*
X162255000Y-90190000D01*
X163800000Y-90175000D02*
X165700000Y-92075000D01*
X157500000Y-109725000D02*
X160280000Y-109725000D01*
X162500000Y-76010000D02*
X165290000Y-78800000D01*
D44*
X171845000Y-95059999D02*
X169031155Y-95059999D01*
D42*
X163800000Y-99445000D02*
X165700000Y-97545000D01*
X161082000Y-109675000D02*
X161306000Y-109451000D01*
D44*
X168644000Y-103151500D02*
X170892500Y-105400000D01*
D42*
X161306000Y-109451000D02*
X161306000Y-106776000D01*
X162500000Y-74750000D02*
X168400000Y-68850000D01*
X162270000Y-90175000D02*
X163800000Y-90175000D01*
X162255000Y-90190000D02*
X162270000Y-90175000D01*
X165700000Y-97545000D02*
X165700000Y-95750000D01*
X161306000Y-106776000D02*
X160675000Y-106145000D01*
X156237500Y-75200000D02*
X156237500Y-76700000D01*
X162500000Y-74750000D02*
X162500000Y-76010000D01*
X165700000Y-92075000D02*
X165700000Y-95750000D01*
X160330000Y-109675000D02*
X161082000Y-109675000D01*
D44*
X169031155Y-95059999D02*
X168644000Y-95447154D01*
D42*
X156200000Y-78925000D02*
X156200000Y-76737500D01*
X156200000Y-76737500D02*
X156237500Y-76700000D01*
X162250000Y-99405000D02*
X162290000Y-99445000D01*
D44*
X170892500Y-105400000D02*
X171592500Y-105400000D01*
D42*
X162290000Y-99445000D02*
X163800000Y-99445000D01*
X159500000Y-71840000D02*
X159590000Y-71840000D01*
X160280000Y-109725000D02*
X160330000Y-109675000D01*
X160325000Y-99405000D02*
X162250000Y-99405000D01*
X161329448Y-106799448D02*
X160675000Y-106145000D01*
D44*
X168644000Y-95447154D02*
X168644000Y-103151500D01*
D42*
X159590000Y-71840000D02*
X162500000Y-74750000D01*
X161329448Y-107200000D02*
X161329448Y-106799448D01*
D43*
%TO.N,/VOut1*%
X186988620Y-84413880D02*
X188938120Y-84413880D01*
X188938120Y-84413880D02*
X190287120Y-83064880D01*
X178262500Y-93140000D02*
X186988620Y-84413880D01*
X178262500Y-93140000D02*
X178262500Y-95090000D01*
%TO.N,/VOut2*%
X178225000Y-103500000D02*
X178225000Y-101275000D01*
X186688120Y-99163880D02*
X190287120Y-95564880D01*
X178165000Y-105400000D02*
X178165000Y-103560000D01*
X180336120Y-99163880D02*
X186688120Y-99163880D01*
X178225000Y-101275000D02*
X180336120Y-99163880D01*
X178165000Y-103560000D02*
X178225000Y-103500000D01*
D42*
%TO.N,Net-(D1-A)*%
X106478633Y-91245000D02*
X106478633Y-96153633D01*
X106478633Y-96153633D02*
X106500000Y-96175000D01*
X103078633Y-91245000D02*
X106478633Y-91245000D01*
%TO.N,HV+*%
X138250000Y-87705000D02*
X138320000Y-87775000D01*
X120845000Y-74530000D02*
X120875000Y-74500000D01*
X138250000Y-86000000D02*
X138250000Y-87705000D01*
X116000000Y-112250000D02*
X120775000Y-112250000D01*
X120775000Y-112250000D02*
X120875000Y-112150000D01*
X120500000Y-99225000D02*
X120875000Y-99600000D01*
X106500000Y-99225000D02*
X120500000Y-99225000D01*
%TO.N,HV-*%
X112250000Y-91250000D02*
X115650000Y-91250000D01*
X138350000Y-95250000D02*
X138350000Y-96885000D01*
X120875000Y-106125000D02*
X120875000Y-107070000D01*
%TO.N,Net-(D3-A)*%
X147050000Y-72225000D02*
X147050000Y-69912500D01*
D43*
%TO.N,Net-(D4-A)*%
X159500000Y-70015000D02*
X159500000Y-68125000D01*
%TO.N,REG_0V8*%
X166800000Y-94700000D02*
X167460000Y-94040000D01*
X159970000Y-113065000D02*
X160045000Y-113140000D01*
X167635000Y-104750000D02*
X167635000Y-106115000D01*
X167635000Y-106145000D02*
X167650000Y-106130000D01*
X160045000Y-113140000D02*
X161955000Y-113140000D01*
X161955000Y-113140000D02*
X163780000Y-113140000D01*
X162930000Y-107775000D02*
X162930000Y-109675000D01*
X162500000Y-106145000D02*
X162500000Y-107345000D01*
X167635000Y-106115000D02*
X167650000Y-106130000D01*
X162500000Y-107345000D02*
X162930000Y-107775000D01*
X162500000Y-106145000D02*
X167635000Y-106145000D01*
X167460000Y-94040000D02*
X167662500Y-94040000D01*
X159970000Y-111420000D02*
X159970000Y-113065000D01*
X163780000Y-110525000D02*
X162930000Y-109675000D01*
X163780000Y-113140000D02*
X163780000Y-110525000D01*
D42*
%TO.N,Net-(D2-A)*%
X142425000Y-73062500D02*
X142425000Y-75350000D01*
%TO.N,Net-(J1-Pin_1)*%
X109900000Y-71825000D02*
X109900000Y-77903633D01*
X109900000Y-77903633D02*
X106478633Y-81325000D01*
X103078633Y-81325000D02*
X106478633Y-81325000D01*
%TO.N,Net-(J1-Pin_3)*%
X114900000Y-80580000D02*
X115650000Y-81330000D01*
X112250000Y-81330000D02*
X115650000Y-81330000D01*
X114900000Y-71825000D02*
X114900000Y-80580000D01*
D43*
%TO.N,/Voltage_Sense/V1*%
X162023000Y-86640000D02*
X172230000Y-86640000D01*
X172230000Y-67030000D02*
X172200000Y-67000000D01*
X172230000Y-86640000D02*
X172230000Y-67030000D01*
X159099000Y-90816000D02*
X159099000Y-89564000D01*
X160325000Y-91460000D02*
X159743000Y-91460000D01*
X159099000Y-89564000D02*
X162023000Y-86640000D01*
X159743000Y-91460000D02*
X159099000Y-90816000D01*
%TO.N,/Voltage_Sense/V2*%
X160668500Y-100331500D02*
X160325000Y-100675000D01*
X166250000Y-100331500D02*
X160668500Y-100331500D01*
X166338500Y-100331500D02*
X167660000Y-99010000D01*
X166650000Y-112500000D02*
X170500000Y-112500000D01*
X166250000Y-100331500D02*
X166338500Y-100331500D01*
D42*
%TO.N,/Main-*%
X181950000Y-102150000D02*
X187687240Y-102150000D01*
X187687240Y-102150000D02*
X188352120Y-102814880D01*
%TO.N,/Pre+*%
X183725000Y-67318750D02*
X184905990Y-67318750D01*
X184905990Y-67318750D02*
X188342120Y-70754880D01*
%TO.N,/Pre-*%
X183687500Y-68918750D02*
X184005990Y-68918750D01*
X184005990Y-68918750D02*
X188342120Y-73254880D01*
%TO.N,Net-(J2-Pin_1)*%
X186922240Y-82200000D02*
X187787120Y-83064880D01*
X175210000Y-82200000D02*
X175210000Y-78800000D01*
X175210000Y-82200000D02*
X186922240Y-82200000D01*
D43*
%TO.N,Net-(U3--)*%
X172264499Y-106130000D02*
X172393500Y-106000999D01*
X169475000Y-106130000D02*
X172264499Y-106130000D01*
X172292500Y-104450002D02*
X171592500Y-104450002D01*
X172393500Y-106000999D02*
X172393500Y-104551002D01*
X167652500Y-107730000D02*
X167875000Y-107730000D01*
X167875000Y-107730000D02*
X169475000Y-106130000D01*
X172393500Y-104551002D02*
X172292500Y-104450002D01*
%TO.N,Net-(R22-Pad1)*%
X172376998Y-95930000D02*
X174595000Y-93711998D01*
X169487500Y-95930000D02*
X172376998Y-95930000D01*
X174595000Y-93160000D02*
X176417500Y-93160000D01*
X176417500Y-93160000D02*
X176437500Y-93140000D01*
X174595000Y-93711998D02*
X174595000Y-93160000D01*
%TO.N,Net-(U3-+)*%
X169482500Y-101960000D02*
X169482500Y-99012500D01*
X170052499Y-101960000D02*
X171592500Y-103500001D01*
X169482500Y-99012500D02*
X169485000Y-99010000D01*
X169482500Y-101960000D02*
X170052499Y-101960000D01*
%TO.N,Net-(U2--)*%
X169077500Y-94040000D02*
X169487500Y-94040000D01*
X167662500Y-95930000D02*
X167662500Y-95455000D01*
X169487500Y-94040000D02*
X171774999Y-94040000D01*
X171774999Y-94040000D02*
X171845000Y-94110001D01*
X167662500Y-95455000D02*
X169077500Y-94040000D01*
%TO.N,Net-(U2-+)*%
X174055000Y-88845000D02*
X174055000Y-86640000D01*
X172230000Y-90670000D02*
X174055000Y-88845000D01*
X171845000Y-93160000D02*
X171845000Y-91235000D01*
X171845000Y-91235000D02*
X172230000Y-90850000D01*
X172230000Y-90850000D02*
X172230000Y-90670000D01*
%TO.N,Net-(R29-Pad1)*%
X173541500Y-104301001D02*
X174342500Y-103500001D01*
X171231599Y-107730000D02*
X173541500Y-105420099D01*
X173541500Y-105420099D02*
X173541500Y-104301001D01*
X169477500Y-107730000D02*
X171231599Y-107730000D01*
X176400000Y-103500000D02*
X174342500Y-103500001D01*
D42*
%TO.N,Net-(D5-A)*%
X181900000Y-67318750D02*
X181900000Y-68881250D01*
%TO.N,Net-(D6-A)*%
X180175000Y-100600000D02*
X180175000Y-102125000D01*
%TO.N,/Main+*%
X188067000Y-100600000D02*
X188352120Y-100314880D01*
X182000000Y-100600000D02*
X188067000Y-100600000D01*
%TD*%
%TA.AperFunction,Conductor*%
%TO.N,/HEAT_DISSIPATION*%
G36*
X136193039Y-66019685D02*
G01*
X136238794Y-66072489D01*
X136250000Y-66124000D01*
X136250000Y-115376000D01*
X136230315Y-115443039D01*
X136177511Y-115488794D01*
X136126000Y-115500000D01*
X125124000Y-115500000D01*
X125056961Y-115480315D01*
X125011206Y-115427511D01*
X125000000Y-115376000D01*
X125000000Y-66124000D01*
X125019685Y-66056961D01*
X125072489Y-66011206D01*
X125124000Y-66000000D01*
X136126000Y-66000000D01*
X136193039Y-66019685D01*
G37*
%TD.AperFunction*%
%TD*%
%TA.AperFunction,Conductor*%
%TO.N,HV+*%
G36*
X124437539Y-73319685D02*
G01*
X124483294Y-73372489D01*
X124494500Y-73424000D01*
X124494500Y-113576000D01*
X124474815Y-113643039D01*
X124422011Y-113688794D01*
X124370500Y-113700000D01*
X121005133Y-113700000D01*
X114024000Y-113700000D01*
X113956961Y-113680315D01*
X113911206Y-113627511D01*
X113900000Y-113576000D01*
X113900000Y-110624000D01*
X113919685Y-110556961D01*
X113972489Y-110511206D01*
X114024000Y-110500000D01*
X121005133Y-110500000D01*
X121005133Y-108894499D01*
X121024818Y-108827460D01*
X121077622Y-108781705D01*
X121129130Y-108770499D01*
X123037872Y-108770499D01*
X123097483Y-108764091D01*
X123232331Y-108713796D01*
X123347546Y-108627546D01*
X123433796Y-108512331D01*
X123484091Y-108377483D01*
X123490500Y-108317873D01*
X123490499Y-105822128D01*
X123484091Y-105762517D01*
X123433796Y-105627669D01*
X123433795Y-105627668D01*
X123433793Y-105627664D01*
X123347547Y-105512455D01*
X123347544Y-105512452D01*
X123232335Y-105426206D01*
X123232328Y-105426202D01*
X123097482Y-105375908D01*
X123097483Y-105375908D01*
X123037883Y-105369501D01*
X123037881Y-105369500D01*
X123037873Y-105369500D01*
X123037865Y-105369500D01*
X121129133Y-105369500D01*
X121062094Y-105349815D01*
X121016339Y-105297011D01*
X121005133Y-105245500D01*
X121005133Y-100800000D01*
X118800000Y-100800000D01*
X105824000Y-100800000D01*
X105756961Y-100780315D01*
X105711206Y-100727511D01*
X105700000Y-100676000D01*
X105700000Y-98324000D01*
X105719685Y-98256961D01*
X105772489Y-98211206D01*
X105824000Y-98200000D01*
X121005133Y-98200000D01*
X121005133Y-96344499D01*
X121024818Y-96277460D01*
X121077622Y-96231705D01*
X121129133Y-96220499D01*
X123037871Y-96220499D01*
X123037872Y-96220499D01*
X123097483Y-96214091D01*
X123232331Y-96163796D01*
X123347546Y-96077546D01*
X123433796Y-95962331D01*
X123484091Y-95827483D01*
X123490500Y-95767873D01*
X123490499Y-93272128D01*
X123484091Y-93212517D01*
X123433796Y-93077669D01*
X123433795Y-93077668D01*
X123433793Y-93077664D01*
X123347547Y-92962455D01*
X123347544Y-92962452D01*
X123232335Y-92876206D01*
X123232328Y-92876202D01*
X123097482Y-92825908D01*
X123097483Y-92825908D01*
X123037883Y-92819501D01*
X123037881Y-92819500D01*
X123037873Y-92819500D01*
X123037865Y-92819500D01*
X121129133Y-92819500D01*
X121062094Y-92799815D01*
X121016339Y-92747011D01*
X121005133Y-92695500D01*
X121005133Y-88300000D01*
X118924000Y-88300000D01*
X118856961Y-88280315D01*
X118811206Y-88227511D01*
X118800000Y-88176000D01*
X118800000Y-85824000D01*
X118819685Y-85756961D01*
X118872489Y-85711206D01*
X118924000Y-85700000D01*
X121005133Y-85700000D01*
X121005133Y-83794499D01*
X121024818Y-83727460D01*
X121077622Y-83681705D01*
X121129130Y-83670499D01*
X123037872Y-83670499D01*
X123097483Y-83664091D01*
X123232331Y-83613796D01*
X123347546Y-83527546D01*
X123433796Y-83412331D01*
X123484091Y-83277483D01*
X123490500Y-83217873D01*
X123490499Y-80722128D01*
X123484091Y-80662517D01*
X123451924Y-80576274D01*
X123433797Y-80527671D01*
X123433793Y-80527664D01*
X123347547Y-80412455D01*
X123347544Y-80412452D01*
X123232335Y-80326206D01*
X123232328Y-80326202D01*
X123097482Y-80275908D01*
X123097483Y-80275908D01*
X123037883Y-80269501D01*
X123037881Y-80269500D01*
X123037873Y-80269500D01*
X123037865Y-80269500D01*
X121129133Y-80269500D01*
X121062094Y-80249815D01*
X121016339Y-80197011D01*
X121005133Y-80145500D01*
X121005133Y-75700000D01*
X118929133Y-75700000D01*
X118862094Y-75680315D01*
X118816339Y-75627511D01*
X118805133Y-75576000D01*
X118805133Y-73424000D01*
X118824818Y-73356961D01*
X118877622Y-73311206D01*
X118929133Y-73300000D01*
X124370500Y-73300000D01*
X124437539Y-73319685D01*
G37*
%TD.AperFunction*%
%TD*%
%TA.AperFunction,Conductor*%
%TO.N,LVGND*%
G36*
X186433463Y-85920784D02*
G01*
X186489396Y-85962656D01*
X186508060Y-85998647D01*
X186535564Y-86083296D01*
X186632071Y-86272700D01*
X186757010Y-86444666D01*
X186907329Y-86594985D01*
X186907334Y-86594989D01*
X187071913Y-86714562D01*
X187114579Y-86769891D01*
X187120558Y-86839505D01*
X187087953Y-86901300D01*
X187071913Y-86915198D01*
X186907334Y-87034770D01*
X186907329Y-87034774D01*
X186757010Y-87185093D01*
X186632071Y-87357059D01*
X186535564Y-87546465D01*
X186535563Y-87546467D01*
X186535563Y-87546468D01*
X186516488Y-87605174D01*
X186469873Y-87748640D01*
X186436620Y-87958593D01*
X186436620Y-88171167D01*
X186436619Y-88171167D01*
X186452299Y-88270164D01*
X186443344Y-88339457D01*
X186398348Y-88392909D01*
X186354018Y-88411178D01*
X186183292Y-88445138D01*
X186183286Y-88445140D01*
X186018680Y-88513322D01*
X185870532Y-88612310D01*
X185744550Y-88738292D01*
X185645562Y-88886440D01*
X185577380Y-89051046D01*
X185577378Y-89051052D01*
X185542620Y-89225792D01*
X185542620Y-89225793D01*
X185542620Y-89225795D01*
X185542620Y-89403965D01*
X185542620Y-89403967D01*
X185542619Y-89403967D01*
X185577378Y-89578707D01*
X185577380Y-89578713D01*
X185645562Y-89743319D01*
X185744550Y-89891467D01*
X185870532Y-90017449D01*
X185870535Y-90017451D01*
X186018679Y-90116437D01*
X186183287Y-90184620D01*
X186289142Y-90205676D01*
X186354017Y-90218581D01*
X186415928Y-90250966D01*
X186450502Y-90311682D01*
X186452299Y-90359595D01*
X186436620Y-90458592D01*
X186436620Y-90458593D01*
X186436620Y-90671167D01*
X186469874Y-90881123D01*
X186474401Y-90895057D01*
X186535564Y-91083294D01*
X186632071Y-91272700D01*
X186757010Y-91444666D01*
X186907329Y-91594985D01*
X186907334Y-91594989D01*
X187071913Y-91714562D01*
X187114579Y-91769891D01*
X187120558Y-91839505D01*
X187087953Y-91901300D01*
X187071913Y-91915198D01*
X186907334Y-92034770D01*
X186907329Y-92034774D01*
X186757010Y-92185093D01*
X186632071Y-92357059D01*
X186535564Y-92546465D01*
X186469873Y-92748640D01*
X186436620Y-92958593D01*
X186436620Y-93171166D01*
X186469790Y-93380596D01*
X186469874Y-93381123D01*
X186530426Y-93567483D01*
X186535564Y-93583294D01*
X186632071Y-93772700D01*
X186757010Y-93944666D01*
X186757016Y-93944672D01*
X186907328Y-94094984D01*
X187072339Y-94214871D01*
X187115004Y-94270199D01*
X187120983Y-94339812D01*
X187088378Y-94401608D01*
X187072338Y-94415506D01*
X187025402Y-94449606D01*
X187025402Y-94449608D01*
X187576061Y-95000267D01*
X187555529Y-95005769D01*
X187418712Y-95084761D01*
X187307001Y-95196472D01*
X187228009Y-95333289D01*
X187222507Y-95353821D01*
X186671848Y-94803162D01*
X186671847Y-94803162D01*
X186632500Y-94857319D01*
X186536024Y-95046662D01*
X186470362Y-95248749D01*
X186470362Y-95248752D01*
X186437120Y-95458633D01*
X186437120Y-95671126D01*
X186470362Y-95881007D01*
X186470362Y-95881010D01*
X186536024Y-96083097D01*
X186632495Y-96272430D01*
X186671848Y-96326596D01*
X187222507Y-95775938D01*
X187228009Y-95796471D01*
X187307001Y-95933288D01*
X187418712Y-96044999D01*
X187555529Y-96123991D01*
X187576060Y-96129492D01*
X187025402Y-96680149D01*
X187025402Y-96680150D01*
X187079569Y-96719504D01*
X187268902Y-96815975D01*
X187470990Y-96881637D01*
X187680874Y-96914880D01*
X187788522Y-96914880D01*
X187855561Y-96934565D01*
X187901316Y-96987369D01*
X187911260Y-97056527D01*
X187882235Y-97120083D01*
X187876203Y-97126561D01*
X186475704Y-98527061D01*
X186414381Y-98560546D01*
X186388023Y-98563380D01*
X180422790Y-98563380D01*
X180422774Y-98563379D01*
X180415178Y-98563379D01*
X180257063Y-98563379D01*
X180180699Y-98583841D01*
X180104334Y-98604303D01*
X180104329Y-98604306D01*
X179967410Y-98683355D01*
X179967402Y-98683361D01*
X177744479Y-100906284D01*
X177731920Y-100928039D01*
X177710645Y-100964889D01*
X177699034Y-100985000D01*
X177665423Y-101043214D01*
X177663725Y-101049551D01*
X177624499Y-101195943D01*
X177624499Y-101195945D01*
X177624499Y-101364046D01*
X177624500Y-101364059D01*
X177624500Y-102542388D01*
X177604815Y-102609427D01*
X177581889Y-102635939D01*
X177574231Y-102642601D01*
X177514150Y-102679660D01*
X177397135Y-102796674D01*
X177393889Y-102799499D01*
X177365892Y-102812351D01*
X177338858Y-102827114D01*
X177334427Y-102826797D01*
X177330392Y-102828650D01*
X177299895Y-102824327D01*
X177269166Y-102822130D01*
X177264858Y-102819361D01*
X177261213Y-102818845D01*
X177252925Y-102811692D01*
X177224819Y-102793629D01*
X177110851Y-102679661D01*
X177110850Y-102679660D01*
X176964016Y-102589092D01*
X176800253Y-102534826D01*
X176800251Y-102534825D01*
X176699178Y-102524500D01*
X176100830Y-102524500D01*
X176100812Y-102524501D01*
X175999747Y-102534825D01*
X175835984Y-102589092D01*
X175835981Y-102589093D01*
X175689148Y-102679661D01*
X175567159Y-102801650D01*
X175543138Y-102840596D01*
X175535551Y-102847419D01*
X175531312Y-102856703D01*
X175510011Y-102870391D01*
X175491190Y-102887321D01*
X175479554Y-102889965D01*
X175472534Y-102894477D01*
X175437599Y-102899500D01*
X175304820Y-102899500D01*
X175237781Y-102879815D01*
X175205554Y-102849812D01*
X175200049Y-102842458D01*
X175200046Y-102842456D01*
X175200046Y-102842455D01*
X175175830Y-102824327D01*
X175084835Y-102756207D01*
X175084828Y-102756203D01*
X174949982Y-102705909D01*
X174949983Y-102705909D01*
X174890383Y-102699502D01*
X174890381Y-102699501D01*
X174890373Y-102699501D01*
X174890364Y-102699501D01*
X173794629Y-102699501D01*
X173794623Y-102699502D01*
X173735016Y-102705909D01*
X173600171Y-102756203D01*
X173600164Y-102756207D01*
X173484955Y-102842453D01*
X173484952Y-102842456D01*
X173398706Y-102957665D01*
X173398702Y-102957672D01*
X173348408Y-103092518D01*
X173344258Y-103131123D01*
X173342001Y-103152124D01*
X173342000Y-103152136D01*
X173342000Y-103599903D01*
X173322315Y-103666942D01*
X173305681Y-103687584D01*
X173060981Y-103932283D01*
X173060979Y-103932285D01*
X173039505Y-103969482D01*
X173030467Y-103985137D01*
X173026837Y-103991424D01*
X173026835Y-103991427D01*
X172981839Y-104069359D01*
X172931271Y-104117574D01*
X172862664Y-104130795D01*
X172797799Y-104104826D01*
X172786772Y-104095038D01*
X172661217Y-103969483D01*
X172661209Y-103969477D01*
X172654593Y-103965657D01*
X172606379Y-103915089D01*
X172594076Y-103851247D01*
X172593101Y-103851195D01*
X172593000Y-103851195D01*
X172592999Y-103851189D01*
X172592822Y-103851180D01*
X172592996Y-103847902D01*
X172593000Y-103847874D01*
X172592999Y-103152129D01*
X172586591Y-103092518D01*
X172574801Y-103060908D01*
X172536297Y-102957672D01*
X172536293Y-102957665D01*
X172450047Y-102842456D01*
X172450044Y-102842453D01*
X172334835Y-102756207D01*
X172334828Y-102756203D01*
X172199982Y-102705909D01*
X172199983Y-102705909D01*
X172140383Y-102699502D01*
X172140381Y-102699501D01*
X172140373Y-102699501D01*
X172140365Y-102699501D01*
X171692597Y-102699501D01*
X171625558Y-102679816D01*
X171604916Y-102663182D01*
X170540089Y-101598355D01*
X170533020Y-101591286D01*
X170533019Y-101591284D01*
X170454285Y-101512550D01*
X170454279Y-101512538D01*
X170424263Y-101463877D01*
X170422715Y-101459205D01*
X170405908Y-101408484D01*
X170315340Y-101261650D01*
X170193350Y-101139660D01*
X170193349Y-101139659D01*
X170141902Y-101107926D01*
X170095178Y-101055978D01*
X170083000Y-101002388D01*
X170083000Y-99969152D01*
X170102685Y-99902113D01*
X170141901Y-99863615D01*
X170195850Y-99830340D01*
X170317840Y-99708350D01*
X170408408Y-99561516D01*
X170462674Y-99397753D01*
X170473000Y-99296677D01*
X170472999Y-98723324D01*
X170462674Y-98622247D01*
X170408408Y-98458484D01*
X170317840Y-98311650D01*
X170195850Y-98189660D01*
X170049016Y-98099092D01*
X169885253Y-98044826D01*
X169885251Y-98044825D01*
X169784184Y-98034500D01*
X169784177Y-98034500D01*
X169482921Y-98034500D01*
X169415882Y-98014815D01*
X169370127Y-97962011D01*
X169360183Y-97892853D01*
X169368360Y-97863048D01*
X169409421Y-97763917D01*
X169413737Y-97753497D01*
X169444500Y-97598842D01*
X169444500Y-97441158D01*
X169444500Y-97441155D01*
X169444499Y-97441153D01*
X169413738Y-97286510D01*
X169413737Y-97286503D01*
X169353394Y-97140821D01*
X169325041Y-97098387D01*
X169304165Y-97031711D01*
X169322650Y-96964331D01*
X169374629Y-96917642D01*
X169428145Y-96905499D01*
X169786670Y-96905499D01*
X169786676Y-96905499D01*
X169887753Y-96895174D01*
X170051516Y-96840908D01*
X170198350Y-96750340D01*
X170320340Y-96628350D01*
X170344362Y-96589404D01*
X170396310Y-96542679D01*
X170449901Y-96530500D01*
X172290329Y-96530500D01*
X172290345Y-96530501D01*
X172297941Y-96530501D01*
X172456052Y-96530501D01*
X172456055Y-96530501D01*
X172608783Y-96489577D01*
X172686560Y-96444672D01*
X172745714Y-96410520D01*
X172857518Y-96298716D01*
X172857518Y-96298714D01*
X172867722Y-96288511D01*
X172867725Y-96288506D01*
X173508720Y-95647511D01*
X173570038Y-95614030D01*
X173639729Y-95619014D01*
X173695662Y-95660885D01*
X173737809Y-95717186D01*
X173737812Y-95717189D01*
X173852906Y-95803349D01*
X173852913Y-95803353D01*
X173987620Y-95853595D01*
X173987627Y-95853597D01*
X174047155Y-95859998D01*
X174047172Y-95859999D01*
X174345000Y-95859999D01*
X174845000Y-95859999D01*
X175142828Y-95859999D01*
X175142844Y-95859998D01*
X175202372Y-95853597D01*
X175202379Y-95853595D01*
X175337086Y-95803353D01*
X175337089Y-95803351D01*
X175397151Y-95758389D01*
X175462615Y-95733971D01*
X175530888Y-95748822D01*
X175577001Y-95792556D01*
X175605056Y-95838039D01*
X175726961Y-95959944D01*
X175726965Y-95959947D01*
X175873688Y-96050448D01*
X175873699Y-96050453D01*
X176037347Y-96104680D01*
X176138351Y-96114999D01*
X176237500Y-96114998D01*
X176237500Y-95390000D01*
X175444000Y-95390000D01*
X175376961Y-95370315D01*
X175355183Y-95345182D01*
X175320000Y-95309999D01*
X174845000Y-95309999D01*
X174845000Y-95859999D01*
X174345000Y-95859999D01*
X174345000Y-95183999D01*
X174364685Y-95116960D01*
X174417489Y-95071205D01*
X174469000Y-95059999D01*
X174595000Y-95059999D01*
X174595000Y-94933999D01*
X174614685Y-94866960D01*
X174667489Y-94821205D01*
X174719000Y-94809999D01*
X175601000Y-94809999D01*
X175668039Y-94829684D01*
X175689816Y-94854816D01*
X175725000Y-94890000D01*
X176363500Y-94890000D01*
X176430539Y-94909685D01*
X176476294Y-94962489D01*
X176487500Y-95014000D01*
X176487500Y-95140000D01*
X176613500Y-95140000D01*
X176680539Y-95159685D01*
X176726294Y-95212489D01*
X176737500Y-95264000D01*
X176737500Y-96114999D01*
X176836640Y-96114999D01*
X176836654Y-96114998D01*
X176937652Y-96104680D01*
X177101300Y-96050453D01*
X177101311Y-96050448D01*
X177248035Y-95959947D01*
X177261960Y-95946021D01*
X177323282Y-95912533D01*
X177392973Y-95917514D01*
X177437327Y-95946017D01*
X177451650Y-95960340D01*
X177598484Y-96050908D01*
X177762247Y-96105174D01*
X177863323Y-96115500D01*
X178561676Y-96115499D01*
X178561684Y-96115498D01*
X178561687Y-96115498D01*
X178617030Y-96109844D01*
X178662753Y-96105174D01*
X178826516Y-96050908D01*
X178973350Y-95960340D01*
X179095340Y-95838350D01*
X179185908Y-95691516D01*
X179240174Y-95527753D01*
X179246101Y-95469737D01*
X179249021Y-95441158D01*
X179249021Y-95441156D01*
X179249383Y-95437603D01*
X179250500Y-95426677D01*
X179250499Y-94853324D01*
X179240174Y-94752247D01*
X179185908Y-94588484D01*
X179095340Y-94441650D01*
X178973350Y-94319660D01*
X178973349Y-94319659D01*
X178921902Y-94287926D01*
X178915078Y-94280339D01*
X178905797Y-94276101D01*
X178892109Y-94254802D01*
X178875178Y-94235978D01*
X178872533Y-94224341D01*
X178868023Y-94217323D01*
X178863000Y-94182388D01*
X178863000Y-94097610D01*
X178882685Y-94030571D01*
X178921901Y-93992073D01*
X178973350Y-93960340D01*
X179095340Y-93838350D01*
X179185908Y-93691516D01*
X179240174Y-93527753D01*
X179250500Y-93426677D01*
X179250499Y-93052595D01*
X179270183Y-92985557D01*
X179286813Y-92964920D01*
X186302450Y-85949283D01*
X186363771Y-85915800D01*
X186433463Y-85920784D01*
G37*
%TD.AperFunction*%
%TA.AperFunction,Conductor*%
G36*
X189123540Y-93764046D02*
G01*
X189137433Y-93780079D01*
X189227318Y-93903796D01*
X189257016Y-93944672D01*
X189407329Y-94094985D01*
X189407334Y-94094989D01*
X189571913Y-94214562D01*
X189614579Y-94269891D01*
X189620558Y-94339505D01*
X189587953Y-94401300D01*
X189571913Y-94415198D01*
X189407334Y-94534770D01*
X189407329Y-94534774D01*
X189257014Y-94685089D01*
X189257010Y-94685094D01*
X189137128Y-94850099D01*
X189081798Y-94892765D01*
X189012185Y-94898744D01*
X188950390Y-94866139D01*
X188936491Y-94850099D01*
X188902389Y-94803162D01*
X188351732Y-95353820D01*
X188346231Y-95333289D01*
X188267239Y-95196472D01*
X188155528Y-95084761D01*
X188018711Y-95005769D01*
X187998178Y-95000267D01*
X188548836Y-94449608D01*
X188501900Y-94415508D01*
X188459234Y-94360178D01*
X188453255Y-94290565D01*
X188485860Y-94228769D01*
X188501896Y-94214874D01*
X188666912Y-94094984D01*
X188817224Y-93944672D01*
X188936803Y-93780084D01*
X188992131Y-93737420D01*
X189061744Y-93731441D01*
X189123540Y-93764046D01*
G37*
%TD.AperFunction*%
%TA.AperFunction,Conductor*%
G36*
X192779361Y-60200185D02*
G01*
X192825116Y-60252989D01*
X192835060Y-60322147D01*
X192806035Y-60385703D01*
X192770776Y-60413858D01*
X192755271Y-60422145D01*
X192755261Y-60422151D01*
X192452964Y-60624140D01*
X192452950Y-60624150D01*
X192171893Y-60854807D01*
X191914807Y-61111893D01*
X191684150Y-61392950D01*
X191684140Y-61392964D01*
X191482151Y-61695261D01*
X191482140Y-61695279D01*
X191310756Y-62015916D01*
X191310754Y-62015921D01*
X191171614Y-62351834D01*
X191066067Y-62699776D01*
X191066064Y-62699787D01*
X190995137Y-63056369D01*
X190959500Y-63418209D01*
X190959500Y-63781790D01*
X190995137Y-64143630D01*
X191066064Y-64500212D01*
X191066067Y-64500223D01*
X191171614Y-64848165D01*
X191310754Y-65184078D01*
X191310756Y-65184083D01*
X191482140Y-65504720D01*
X191482151Y-65504738D01*
X191684140Y-65807035D01*
X191684150Y-65807049D01*
X191914807Y-66088106D01*
X192171893Y-66345192D01*
X192171898Y-66345196D01*
X192171899Y-66345197D01*
X192452956Y-66575854D01*
X192755268Y-66777853D01*
X192755277Y-66777858D01*
X192755279Y-66777859D01*
X193075916Y-66949243D01*
X193075918Y-66949243D01*
X193075924Y-66949247D01*
X193411836Y-67088386D01*
X193759767Y-67193930D01*
X193759773Y-67193931D01*
X193759776Y-67193932D01*
X193759787Y-67193935D01*
X194116369Y-67264862D01*
X194478206Y-67300500D01*
X194478209Y-67300500D01*
X194841791Y-67300500D01*
X194841794Y-67300500D01*
X195203631Y-67264862D01*
X195273045Y-67251054D01*
X195560212Y-67193935D01*
X195560223Y-67193932D01*
X195560223Y-67193931D01*
X195560233Y-67193930D01*
X195908164Y-67088386D01*
X196244076Y-66949247D01*
X196564732Y-66777853D01*
X196867044Y-66575854D01*
X197148101Y-66345197D01*
X197405197Y-66088101D01*
X197635854Y-65807044D01*
X197837853Y-65504732D01*
X197966142Y-65264720D01*
X198015104Y-65214876D01*
X198083242Y-65199415D01*
X198148921Y-65223247D01*
X198191290Y-65278804D01*
X198199500Y-65323173D01*
X198199500Y-113276826D01*
X198179815Y-113343865D01*
X198127011Y-113389620D01*
X198057853Y-113399564D01*
X197994297Y-113370539D01*
X197966142Y-113335279D01*
X197837859Y-113095279D01*
X197837858Y-113095277D01*
X197837853Y-113095268D01*
X197635854Y-112792956D01*
X197405197Y-112511899D01*
X197405196Y-112511898D01*
X197405192Y-112511893D01*
X197148106Y-112254807D01*
X196867049Y-112024150D01*
X196867048Y-112024149D01*
X196867044Y-112024146D01*
X196564732Y-111822147D01*
X196564727Y-111822144D01*
X196564720Y-111822140D01*
X196244083Y-111650756D01*
X196244078Y-111650754D01*
X196211901Y-111637426D01*
X196145690Y-111610000D01*
X195908165Y-111511614D01*
X195560223Y-111406067D01*
X195560212Y-111406064D01*
X195203630Y-111335137D01*
X194931111Y-111308296D01*
X194841794Y-111299500D01*
X194478206Y-111299500D01*
X194395679Y-111307628D01*
X194116369Y-111335137D01*
X193759787Y-111406064D01*
X193759776Y-111406067D01*
X193411834Y-111511614D01*
X193075921Y-111650754D01*
X193075916Y-111650756D01*
X192755279Y-111822140D01*
X192755261Y-111822151D01*
X192452964Y-112024140D01*
X192452950Y-112024150D01*
X192171893Y-112254807D01*
X191914807Y-112511893D01*
X191684150Y-112792950D01*
X191684140Y-112792964D01*
X191482151Y-113095261D01*
X191482140Y-113095279D01*
X191310756Y-113415916D01*
X191310754Y-113415921D01*
X191171614Y-113751834D01*
X191066067Y-114099776D01*
X191066064Y-114099787D01*
X190995137Y-114456369D01*
X190959500Y-114818209D01*
X190959500Y-115181790D01*
X190995137Y-115543630D01*
X191066064Y-115900212D01*
X191066067Y-115900223D01*
X191171614Y-116248165D01*
X191310754Y-116584078D01*
X191310756Y-116584083D01*
X191482140Y-116904720D01*
X191482151Y-116904738D01*
X191684140Y-117207035D01*
X191684150Y-117207049D01*
X191914807Y-117488106D01*
X192171893Y-117745192D01*
X192171898Y-117745196D01*
X192171899Y-117745197D01*
X192452956Y-117975854D01*
X192755268Y-118177853D01*
X192755277Y-118177858D01*
X192755279Y-118177859D01*
X192976571Y-118296142D01*
X193026415Y-118345104D01*
X193041876Y-118413242D01*
X193018044Y-118478921D01*
X192962487Y-118521290D01*
X192918118Y-118529500D01*
X155814000Y-118529500D01*
X155746961Y-118509815D01*
X155701206Y-118457011D01*
X155690000Y-118405500D01*
X155690000Y-113426654D01*
X157232501Y-113426654D01*
X157242819Y-113527652D01*
X157297046Y-113691300D01*
X157297051Y-113691311D01*
X157387552Y-113838034D01*
X157387555Y-113838038D01*
X157509461Y-113959944D01*
X157509465Y-113959947D01*
X157656188Y-114050448D01*
X157656199Y-114050453D01*
X157819847Y-114104680D01*
X157920851Y-114114999D01*
X157969999Y-114114998D01*
X157970000Y-114114998D01*
X157970000Y-113390000D01*
X157232501Y-113390000D01*
X157232501Y-113426654D01*
X155690000Y-113426654D01*
X155690000Y-111706654D01*
X157207501Y-111706654D01*
X157217819Y-111807652D01*
X157272046Y-111971300D01*
X157272051Y-111971311D01*
X157362552Y-112118034D01*
X157362555Y-112118038D01*
X157449335Y-112204818D01*
X157482820Y-112266141D01*
X157477836Y-112335833D01*
X157449337Y-112380179D01*
X157387552Y-112441965D01*
X157297051Y-112588688D01*
X157297046Y-112588699D01*
X157242819Y-112752347D01*
X157232500Y-112853345D01*
X157232500Y-112890000D01*
X157970000Y-112890000D01*
X157970000Y-112111362D01*
X157989685Y-112044323D01*
X157995000Y-112037727D01*
X157995000Y-111670000D01*
X157207501Y-111670000D01*
X157207501Y-111706654D01*
X155690000Y-111706654D01*
X155690000Y-109375815D01*
X156524500Y-109375815D01*
X156524500Y-110074169D01*
X156524501Y-110074187D01*
X156534825Y-110175252D01*
X156571109Y-110284749D01*
X156589092Y-110339016D01*
X156679660Y-110485850D01*
X156801650Y-110607840D01*
X156948484Y-110698408D01*
X157112247Y-110752674D01*
X157150300Y-110756561D01*
X157214991Y-110782956D01*
X157255143Y-110840136D01*
X157258007Y-110909947D01*
X157255404Y-110918923D01*
X157217819Y-111032347D01*
X157207500Y-111133345D01*
X157207500Y-111170000D01*
X158121000Y-111170000D01*
X158188039Y-111189685D01*
X158233794Y-111242489D01*
X158245000Y-111294000D01*
X158245000Y-111420000D01*
X158371000Y-111420000D01*
X158438039Y-111439685D01*
X158483794Y-111492489D01*
X158495000Y-111544000D01*
X158495000Y-112448638D01*
X158475315Y-112515677D01*
X158470000Y-112522272D01*
X158470000Y-114114999D01*
X158519140Y-114114999D01*
X158519154Y-114114998D01*
X158620152Y-114104680D01*
X158783800Y-114050453D01*
X158783811Y-114050448D01*
X158930533Y-113959948D01*
X159044464Y-113846017D01*
X159105787Y-113812532D01*
X159175479Y-113817516D01*
X159219827Y-113846017D01*
X159334150Y-113960340D01*
X159480984Y-114050908D01*
X159644747Y-114105174D01*
X159745823Y-114115500D01*
X160344176Y-114115499D01*
X160344184Y-114115498D01*
X160344187Y-114115498D01*
X160399530Y-114109844D01*
X160445253Y-114105174D01*
X160609016Y-114050908D01*
X160755850Y-113960340D01*
X160877840Y-113838350D01*
X160894461Y-113811403D01*
X160946409Y-113764678D01*
X161015371Y-113753455D01*
X161079454Y-113781299D01*
X161105539Y-113811403D01*
X161121967Y-113838038D01*
X161122160Y-113838350D01*
X161244150Y-113960340D01*
X161390984Y-114050908D01*
X161554747Y-114105174D01*
X161655823Y-114115500D01*
X162254176Y-114115499D01*
X162254184Y-114115498D01*
X162254187Y-114115498D01*
X162309530Y-114109844D01*
X162355253Y-114105174D01*
X162519016Y-114050908D01*
X162665850Y-113960340D01*
X162779819Y-113846371D01*
X162841142Y-113812886D01*
X162910834Y-113817870D01*
X162955181Y-113846371D01*
X163069150Y-113960340D01*
X163215984Y-114050908D01*
X163379747Y-114105174D01*
X163480823Y-114115500D01*
X164079176Y-114115499D01*
X164079184Y-114115498D01*
X164079187Y-114115498D01*
X164134530Y-114109844D01*
X164180253Y-114105174D01*
X164344016Y-114050908D01*
X164490850Y-113960340D01*
X164612840Y-113838350D01*
X164703408Y-113691516D01*
X164757674Y-113527753D01*
X164768000Y-113426677D01*
X164767999Y-112853324D01*
X164761832Y-112792956D01*
X164757674Y-112752247D01*
X164751458Y-112733489D01*
X164703408Y-112588484D01*
X164703404Y-112588477D01*
X164636595Y-112480162D01*
X164612840Y-112441650D01*
X164592343Y-112421153D01*
X165799500Y-112421153D01*
X165799500Y-112578846D01*
X165830261Y-112733489D01*
X165830264Y-112733501D01*
X165890602Y-112879172D01*
X165890609Y-112879185D01*
X165978210Y-113010288D01*
X165978213Y-113010292D01*
X166089707Y-113121786D01*
X166089711Y-113121789D01*
X166220814Y-113209390D01*
X166220827Y-113209397D01*
X166366498Y-113269735D01*
X166366503Y-113269737D01*
X166521153Y-113300499D01*
X166521156Y-113300500D01*
X166521158Y-113300500D01*
X166678844Y-113300500D01*
X166678845Y-113300499D01*
X166833497Y-113269737D01*
X166979179Y-113209394D01*
X166979185Y-113209390D01*
X167110875Y-113121398D01*
X167177553Y-113100520D01*
X167179766Y-113100500D01*
X169634216Y-113100500D01*
X169701255Y-113120185D01*
X169721897Y-113136819D01*
X169862214Y-113277136D01*
X169862218Y-113277139D01*
X170026079Y-113386628D01*
X170026092Y-113386635D01*
X170208160Y-113462049D01*
X170208165Y-113462051D01*
X170208169Y-113462051D01*
X170208170Y-113462052D01*
X170401456Y-113500500D01*
X170401459Y-113500500D01*
X170598543Y-113500500D01*
X170728582Y-113474632D01*
X170791835Y-113462051D01*
X170973914Y-113386632D01*
X171009922Y-113362572D01*
X173440979Y-113362572D01*
X173476328Y-113386192D01*
X173658306Y-113461569D01*
X173658318Y-113461572D01*
X173851504Y-113499999D01*
X173851508Y-113500000D01*
X174048492Y-113500000D01*
X174048495Y-113499999D01*
X174241681Y-113461572D01*
X174241693Y-113461569D01*
X174423676Y-113386190D01*
X174423680Y-113386187D01*
X174459019Y-113362573D01*
X174459020Y-113362572D01*
X173950001Y-112853553D01*
X173950000Y-112853553D01*
X173440979Y-113362572D01*
X171009922Y-113362572D01*
X171137782Y-113277139D01*
X171145186Y-113269735D01*
X171186241Y-113228681D01*
X171277136Y-113137785D01*
X171277139Y-113137782D01*
X171386632Y-112973914D01*
X171462051Y-112791835D01*
X171500500Y-112598541D01*
X171500500Y-112401504D01*
X172950000Y-112401504D01*
X172950000Y-112598495D01*
X172988427Y-112791681D01*
X172988430Y-112791693D01*
X173063808Y-112973673D01*
X173063809Y-112973675D01*
X173087425Y-113009019D01*
X173596446Y-112500000D01*
X173596446Y-112499999D01*
X173546719Y-112450272D01*
X173700000Y-112450272D01*
X173700000Y-112549728D01*
X173738060Y-112641614D01*
X173808386Y-112711940D01*
X173900272Y-112750000D01*
X173999728Y-112750000D01*
X174091614Y-112711940D01*
X174161940Y-112641614D01*
X174200000Y-112549728D01*
X174200000Y-112499999D01*
X174303553Y-112499999D01*
X174303553Y-112500001D01*
X174812572Y-113009020D01*
X174812573Y-113009019D01*
X174836187Y-112973680D01*
X174836190Y-112973676D01*
X174911569Y-112791693D01*
X174911572Y-112791681D01*
X174949999Y-112598495D01*
X174950000Y-112598492D01*
X174950000Y-112401508D01*
X174949999Y-112401504D01*
X174911572Y-112208318D01*
X174911569Y-112208306D01*
X174836192Y-112026328D01*
X174812572Y-111990979D01*
X174303553Y-112499999D01*
X174200000Y-112499999D01*
X174200000Y-112450272D01*
X174161940Y-112358386D01*
X174091614Y-112288060D01*
X173999728Y-112250000D01*
X173900272Y-112250000D01*
X173808386Y-112288060D01*
X173738060Y-112358386D01*
X173700000Y-112450272D01*
X173546719Y-112450272D01*
X173087426Y-111990978D01*
X173087426Y-111990979D01*
X173063813Y-112026318D01*
X173063809Y-112026325D01*
X172988429Y-112208310D01*
X172988427Y-112208318D01*
X172950000Y-112401504D01*
X171500500Y-112401504D01*
X171500500Y-112401459D01*
X171500500Y-112401456D01*
X171462052Y-112208170D01*
X171462051Y-112208169D01*
X171462051Y-112208165D01*
X171443965Y-112164500D01*
X171386635Y-112026092D01*
X171386628Y-112026079D01*
X171277139Y-111862218D01*
X171277136Y-111862214D01*
X171137785Y-111722863D01*
X171137781Y-111722860D01*
X171009921Y-111637426D01*
X173440978Y-111637426D01*
X173950000Y-112146446D01*
X173950001Y-112146446D01*
X174459020Y-111637426D01*
X174423675Y-111613809D01*
X174423673Y-111613808D01*
X174241693Y-111538430D01*
X174241681Y-111538427D01*
X174048495Y-111500000D01*
X173851504Y-111500000D01*
X173658318Y-111538427D01*
X173658310Y-111538429D01*
X173476325Y-111613809D01*
X173476318Y-111613813D01*
X173440979Y-111637426D01*
X173440978Y-111637426D01*
X171009921Y-111637426D01*
X170973920Y-111613371D01*
X170973907Y-111613364D01*
X170791839Y-111537950D01*
X170791829Y-111537947D01*
X170598543Y-111499500D01*
X170598541Y-111499500D01*
X170401459Y-111499500D01*
X170401457Y-111499500D01*
X170208170Y-111537947D01*
X170208160Y-111537950D01*
X170026092Y-111613364D01*
X170026079Y-111613371D01*
X169862218Y-111722860D01*
X169862214Y-111722863D01*
X169721897Y-111863181D01*
X169660574Y-111896666D01*
X169634216Y-111899500D01*
X167179766Y-111899500D01*
X167112727Y-111879815D01*
X167110875Y-111878602D01*
X166979185Y-111790609D01*
X166979172Y-111790602D01*
X166833501Y-111730264D01*
X166833489Y-111730261D01*
X166678845Y-111699500D01*
X166678842Y-111699500D01*
X166521158Y-111699500D01*
X166521155Y-111699500D01*
X166366510Y-111730261D01*
X166366498Y-111730264D01*
X166220827Y-111790602D01*
X166220814Y-111790609D01*
X166089711Y-111878210D01*
X166089707Y-111878213D01*
X165978213Y-111989707D01*
X165978210Y-111989711D01*
X165890609Y-112120814D01*
X165890602Y-112120827D01*
X165830264Y-112266498D01*
X165830261Y-112266510D01*
X165799500Y-112421153D01*
X164592343Y-112421153D01*
X164490849Y-112319659D01*
X164439402Y-112287926D01*
X164392678Y-112235978D01*
X164380500Y-112182388D01*
X164380500Y-110614060D01*
X164380501Y-110614047D01*
X164380501Y-110445944D01*
X164380501Y-110445943D01*
X164339577Y-110293216D01*
X164319218Y-110257952D01*
X164260524Y-110156290D01*
X164260518Y-110156282D01*
X163991818Y-109887582D01*
X163958333Y-109826259D01*
X163955499Y-109799901D01*
X163955499Y-109352129D01*
X163955498Y-109352123D01*
X163949091Y-109292516D01*
X163898797Y-109157671D01*
X163898793Y-109157664D01*
X163812547Y-109042455D01*
X163812544Y-109042452D01*
X163697335Y-108956206D01*
X163697330Y-108956203D01*
X163611166Y-108924066D01*
X163593439Y-108910795D01*
X163573297Y-108901597D01*
X163566014Y-108890265D01*
X163555233Y-108882194D01*
X163547495Y-108861448D01*
X163535523Y-108842819D01*
X163532371Y-108820900D01*
X163530816Y-108816730D01*
X163530500Y-108807884D01*
X163530500Y-108642115D01*
X163550185Y-108575076D01*
X163602989Y-108529321D01*
X163611167Y-108525933D01*
X163697328Y-108493797D01*
X163697327Y-108493797D01*
X163697331Y-108493796D01*
X163812546Y-108407546D01*
X163898796Y-108292331D01*
X163949091Y-108157483D01*
X163955500Y-108097873D01*
X163955499Y-107452128D01*
X163949091Y-107392517D01*
X163946730Y-107386188D01*
X163898797Y-107257671D01*
X163898793Y-107257664D01*
X163812547Y-107142455D01*
X163812544Y-107142452D01*
X163697335Y-107056206D01*
X163697328Y-107056202D01*
X163562482Y-107005908D01*
X163562483Y-107005908D01*
X163502883Y-106999501D01*
X163502881Y-106999500D01*
X163502873Y-106999500D01*
X163502865Y-106999500D01*
X163458700Y-106999500D01*
X163451121Y-106997274D01*
X163443326Y-106998543D01*
X163418073Y-106987570D01*
X163391661Y-106979815D01*
X163386490Y-106973847D01*
X163379244Y-106970699D01*
X163363930Y-106947811D01*
X163345906Y-106927011D01*
X163344782Y-106919194D01*
X163340389Y-106912629D01*
X163339879Y-106885100D01*
X163335962Y-106857853D01*
X163339210Y-106848892D01*
X163339097Y-106842771D01*
X163353163Y-106810401D01*
X163356864Y-106804401D01*
X163408812Y-106757677D01*
X163462401Y-106745500D01*
X166696851Y-106745500D01*
X166763890Y-106765185D01*
X166802390Y-106804404D01*
X166817159Y-106828349D01*
X166832379Y-106843569D01*
X166865864Y-106904892D01*
X166860880Y-106974584D01*
X166832379Y-107018931D01*
X166819661Y-107031648D01*
X166729093Y-107178481D01*
X166729092Y-107178484D01*
X166674826Y-107342247D01*
X166674826Y-107342248D01*
X166674825Y-107342248D01*
X166664500Y-107443315D01*
X166664500Y-108016669D01*
X166664501Y-108016687D01*
X166674825Y-108117752D01*
X166687957Y-108157380D01*
X166720477Y-108255519D01*
X166729092Y-108281515D01*
X166729093Y-108281518D01*
X166759306Y-108330500D01*
X166819660Y-108428350D01*
X166941650Y-108550340D01*
X167088484Y-108640908D01*
X167252247Y-108695174D01*
X167353323Y-108705500D01*
X167951676Y-108705499D01*
X167951684Y-108705498D01*
X167951687Y-108705498D01*
X168007030Y-108699844D01*
X168052753Y-108695174D01*
X168216516Y-108640908D01*
X168363350Y-108550340D01*
X168477319Y-108436371D01*
X168538642Y-108402886D01*
X168608334Y-108407870D01*
X168652681Y-108436371D01*
X168766650Y-108550340D01*
X168913484Y-108640908D01*
X169077247Y-108695174D01*
X169178323Y-108705500D01*
X169776676Y-108705499D01*
X169776684Y-108705498D01*
X169776687Y-108705498D01*
X169832030Y-108699844D01*
X169877753Y-108695174D01*
X170041516Y-108640908D01*
X170188350Y-108550340D01*
X170310340Y-108428350D01*
X170334362Y-108389404D01*
X170386310Y-108342679D01*
X170439901Y-108330500D01*
X171144930Y-108330500D01*
X171144946Y-108330501D01*
X171152542Y-108330501D01*
X171310653Y-108330501D01*
X171310656Y-108330501D01*
X171463384Y-108289577D01*
X171522374Y-108255519D01*
X171600315Y-108210520D01*
X171712119Y-108098716D01*
X171712119Y-108098714D01*
X171722323Y-108088511D01*
X171722327Y-108088506D01*
X173592914Y-106217918D01*
X173654233Y-106184436D01*
X173723925Y-106189420D01*
X173723925Y-106189421D01*
X173735121Y-106193597D01*
X173735127Y-106193598D01*
X173794655Y-106199999D01*
X173794672Y-106200000D01*
X174092500Y-106200000D01*
X174592500Y-106200000D01*
X174890328Y-106200000D01*
X174890344Y-106199999D01*
X174949872Y-106193598D01*
X174949879Y-106193596D01*
X175084586Y-106143354D01*
X175084593Y-106143350D01*
X175199686Y-106057191D01*
X175272907Y-105959381D01*
X175328841Y-105917510D01*
X175398533Y-105912526D01*
X175459856Y-105946011D01*
X175477712Y-105968594D01*
X175557554Y-106098037D01*
X175679461Y-106219944D01*
X175679465Y-106219947D01*
X175826188Y-106310448D01*
X175826199Y-106310453D01*
X175989847Y-106364680D01*
X176090851Y-106374999D01*
X176190000Y-106374998D01*
X176190000Y-105650000D01*
X174592500Y-105650000D01*
X174592500Y-106200000D01*
X174092500Y-106200000D01*
X174092500Y-105697255D01*
X174096969Y-105664265D01*
X174099753Y-105654176D01*
X174101077Y-105651884D01*
X174142000Y-105499157D01*
X174142000Y-105341042D01*
X174142000Y-104601097D01*
X174161685Y-104534058D01*
X174178315Y-104513420D01*
X174354916Y-104336818D01*
X174416239Y-104303334D01*
X174442597Y-104300500D01*
X174890371Y-104300500D01*
X174890372Y-104300500D01*
X174949983Y-104294092D01*
X175084831Y-104243797D01*
X175200046Y-104157547D01*
X175205552Y-104150190D01*
X175209208Y-104147453D01*
X175211107Y-104143297D01*
X175236917Y-104126709D01*
X175261483Y-104108319D01*
X175267115Y-104107302D01*
X175269885Y-104105523D01*
X175304820Y-104100500D01*
X175437599Y-104100500D01*
X175504638Y-104120185D01*
X175543138Y-104159404D01*
X175557251Y-104182286D01*
X175567160Y-104198350D01*
X175689150Y-104320340D01*
X175723732Y-104341670D01*
X175770457Y-104393617D01*
X175781680Y-104462580D01*
X175753837Y-104526662D01*
X175723734Y-104552747D01*
X175679462Y-104580054D01*
X175557554Y-104701962D01*
X175477712Y-104831405D01*
X175425764Y-104878129D01*
X175356801Y-104889350D01*
X175292719Y-104861506D01*
X175272907Y-104840618D01*
X175199686Y-104742809D01*
X175084593Y-104656649D01*
X175084586Y-104656645D01*
X174949879Y-104606403D01*
X174949872Y-104606401D01*
X174890344Y-104600000D01*
X174592500Y-104600000D01*
X174592500Y-105150000D01*
X176316000Y-105150000D01*
X176383039Y-105169685D01*
X176428794Y-105222489D01*
X176440000Y-105274000D01*
X176440000Y-105400000D01*
X176566000Y-105400000D01*
X176633039Y-105419685D01*
X176678794Y-105472489D01*
X176690000Y-105524000D01*
X176690000Y-106374999D01*
X176789140Y-106374999D01*
X176789154Y-106374998D01*
X176890152Y-106364680D01*
X177053800Y-106310453D01*
X177053811Y-106310448D01*
X177200535Y-106219947D01*
X177214460Y-106206021D01*
X177275782Y-106172533D01*
X177345473Y-106177514D01*
X177389827Y-106206017D01*
X177404150Y-106220340D01*
X177550984Y-106310908D01*
X177714747Y-106365174D01*
X177815823Y-106375500D01*
X178514176Y-106375499D01*
X178514184Y-106375498D01*
X178514187Y-106375498D01*
X178569530Y-106369844D01*
X178615253Y-106365174D01*
X178779016Y-106310908D01*
X178925850Y-106220340D01*
X179047840Y-106098350D01*
X179138408Y-105951516D01*
X179192674Y-105787753D01*
X179203000Y-105686677D01*
X179202999Y-105113324D01*
X179192674Y-105012247D01*
X179138408Y-104848484D01*
X179047840Y-104701650D01*
X178925850Y-104579660D01*
X178925849Y-104579659D01*
X178908743Y-104569108D01*
X178891742Y-104558622D01*
X178845018Y-104506676D01*
X178833795Y-104437713D01*
X178861638Y-104373631D01*
X178891741Y-104347546D01*
X178935850Y-104320340D01*
X179057840Y-104198350D01*
X179148408Y-104051516D01*
X179202674Y-103887753D01*
X179213000Y-103786677D01*
X179212999Y-103213324D01*
X179206747Y-103152124D01*
X179202674Y-103112247D01*
X179193929Y-103085857D01*
X179173526Y-103024287D01*
X179171125Y-102954462D01*
X179206856Y-102894419D01*
X179269376Y-102863226D01*
X179338836Y-102870786D01*
X179378914Y-102897604D01*
X179451650Y-102970340D01*
X179598484Y-103060908D01*
X179762247Y-103115174D01*
X179863323Y-103125500D01*
X180536676Y-103125499D01*
X180536684Y-103125498D01*
X180536687Y-103125498D01*
X180592030Y-103119844D01*
X180637753Y-103115174D01*
X180801516Y-103060908D01*
X180948350Y-102970340D01*
X180987319Y-102931371D01*
X181048642Y-102897886D01*
X181118334Y-102902870D01*
X181162681Y-102931371D01*
X181201650Y-102970340D01*
X181348484Y-103060908D01*
X181512247Y-103115174D01*
X181613323Y-103125500D01*
X182286676Y-103125499D01*
X182286684Y-103125498D01*
X182286687Y-103125498D01*
X182342030Y-103119844D01*
X182387753Y-103115174D01*
X182551516Y-103060908D01*
X182698350Y-102970340D01*
X182731871Y-102936819D01*
X182793194Y-102903334D01*
X182819552Y-102900500D01*
X186642441Y-102900500D01*
X186675136Y-102910100D01*
X186707984Y-102919238D01*
X186708597Y-102919925D01*
X186709480Y-102920185D01*
X186731778Y-102945919D01*
X186754488Y-102971383D01*
X186754845Y-102972539D01*
X186755235Y-102972989D01*
X186764914Y-103005102D01*
X186776844Y-103080426D01*
X186767889Y-103149720D01*
X186722893Y-103203172D01*
X186701824Y-103214385D01*
X186583681Y-103263321D01*
X186435532Y-103362310D01*
X186309550Y-103488292D01*
X186210562Y-103636440D01*
X186142380Y-103801046D01*
X186142378Y-103801052D01*
X186107620Y-103975792D01*
X186107620Y-103975795D01*
X186107620Y-104153965D01*
X186107620Y-104153967D01*
X186107619Y-104153967D01*
X186142378Y-104328707D01*
X186142380Y-104328713D01*
X186197829Y-104462580D01*
X186210563Y-104493321D01*
X186248258Y-104549736D01*
X186309550Y-104641467D01*
X186435532Y-104767449D01*
X186583682Y-104866439D01*
X186701823Y-104915374D01*
X186756227Y-104959215D01*
X186778292Y-105025509D01*
X186776844Y-105049333D01*
X186756176Y-105179825D01*
X186751620Y-105208593D01*
X186751620Y-105421167D01*
X186758900Y-105467130D01*
X186778912Y-105593484D01*
X186784874Y-105631123D01*
X186836111Y-105788815D01*
X186850564Y-105833294D01*
X186947071Y-106022700D01*
X187072010Y-106194666D01*
X187222329Y-106344985D01*
X187222334Y-106344989D01*
X187386913Y-106464562D01*
X187429579Y-106519891D01*
X187435558Y-106589505D01*
X187402953Y-106651300D01*
X187386913Y-106665198D01*
X187222334Y-106784770D01*
X187222329Y-106784774D01*
X187072010Y-106935093D01*
X186947071Y-107107059D01*
X186850564Y-107296465D01*
X186784873Y-107498640D01*
X186751620Y-107708593D01*
X186751620Y-107921166D01*
X186779740Y-108098713D01*
X186784874Y-108131123D01*
X186837579Y-108293333D01*
X186850564Y-108333294D01*
X186947071Y-108522700D01*
X187072010Y-108694666D01*
X187222333Y-108844989D01*
X187394299Y-108969928D01*
X187394301Y-108969929D01*
X187394304Y-108969931D01*
X187583708Y-109066437D01*
X187785877Y-109132126D01*
X187995833Y-109165380D01*
X187995834Y-109165380D01*
X188708406Y-109165380D01*
X188708407Y-109165380D01*
X188918363Y-109132126D01*
X189120532Y-109066437D01*
X189309936Y-108969931D01*
X189373064Y-108924066D01*
X189481906Y-108844989D01*
X189481908Y-108844986D01*
X189481912Y-108844984D01*
X189632224Y-108694672D01*
X189632226Y-108694668D01*
X189632229Y-108694666D01*
X189757168Y-108522700D01*
X189757167Y-108522700D01*
X189757171Y-108522696D01*
X189853677Y-108333292D01*
X189919366Y-108131123D01*
X189952620Y-107921167D01*
X189952620Y-107708593D01*
X189919366Y-107498637D01*
X189853677Y-107296468D01*
X189757171Y-107107064D01*
X189757169Y-107107061D01*
X189757168Y-107107059D01*
X189632229Y-106935093D01*
X189481912Y-106784776D01*
X189434301Y-106750185D01*
X189317324Y-106665196D01*
X189274660Y-106609869D01*
X189268681Y-106540256D01*
X189301286Y-106478460D01*
X189317319Y-106464566D01*
X189481912Y-106344984D01*
X189632224Y-106194672D01*
X189632226Y-106194668D01*
X189632229Y-106194666D01*
X189757168Y-106022700D01*
X189757167Y-106022700D01*
X189757171Y-106022696D01*
X189853677Y-105833292D01*
X189919366Y-105631123D01*
X189952620Y-105421167D01*
X189952620Y-105208593D01*
X189919366Y-104998637D01*
X189853677Y-104796468D01*
X189757171Y-104607064D01*
X189757169Y-104607061D01*
X189757168Y-104607059D01*
X189632229Y-104435093D01*
X189481912Y-104284776D01*
X189425510Y-104243798D01*
X189317324Y-104165196D01*
X189274660Y-104109869D01*
X189268681Y-104040256D01*
X189301286Y-103978460D01*
X189317319Y-103964566D01*
X189481912Y-103844984D01*
X189632224Y-103694672D01*
X189632226Y-103694668D01*
X189632229Y-103694666D01*
X189757168Y-103522700D01*
X189757167Y-103522700D01*
X189757171Y-103522696D01*
X189853677Y-103333292D01*
X189919366Y-103131123D01*
X189952620Y-102921167D01*
X189952620Y-102708593D01*
X189919366Y-102498637D01*
X189853677Y-102296468D01*
X189757171Y-102107064D01*
X189757169Y-102107061D01*
X189757168Y-102107059D01*
X189632229Y-101935093D01*
X189493414Y-101796278D01*
X189459929Y-101734955D01*
X189464913Y-101665263D01*
X189506785Y-101609330D01*
X189515999Y-101603058D01*
X189521451Y-101599694D01*
X189521454Y-101599694D01*
X189670776Y-101507592D01*
X189794832Y-101383536D01*
X189886934Y-101234214D01*
X189942119Y-101067677D01*
X189952620Y-100964889D01*
X189952619Y-99664872D01*
X189942119Y-99562083D01*
X189886934Y-99395546D01*
X189794832Y-99246224D01*
X189670776Y-99122168D01*
X189578008Y-99064949D01*
X189521456Y-99030067D01*
X189521451Y-99030065D01*
X189519982Y-99029578D01*
X189354917Y-98974881D01*
X189354915Y-98974880D01*
X189252136Y-98964380D01*
X189252129Y-98964380D01*
X188036216Y-98964380D01*
X187969177Y-98944695D01*
X187923422Y-98891891D01*
X187913478Y-98822733D01*
X187942503Y-98759177D01*
X187948535Y-98752699D01*
X188838186Y-97863048D01*
X189802598Y-96898635D01*
X189863919Y-96865152D01*
X189928593Y-96868386D01*
X189970877Y-96882126D01*
X190180833Y-96915380D01*
X190180834Y-96915380D01*
X190393406Y-96915380D01*
X190393407Y-96915380D01*
X190603363Y-96882126D01*
X190805532Y-96816437D01*
X190994936Y-96719931D01*
X191049692Y-96680149D01*
X191166906Y-96594989D01*
X191166908Y-96594986D01*
X191166912Y-96594984D01*
X191317224Y-96444672D01*
X191317226Y-96444668D01*
X191317229Y-96444666D01*
X191442168Y-96272700D01*
X191442167Y-96272700D01*
X191442171Y-96272696D01*
X191538677Y-96083292D01*
X191604366Y-95881123D01*
X191637620Y-95671167D01*
X191637620Y-95458593D01*
X191604366Y-95248637D01*
X191538677Y-95046468D01*
X191442171Y-94857064D01*
X191442169Y-94857061D01*
X191442168Y-94857059D01*
X191317229Y-94685093D01*
X191166912Y-94534776D01*
X191143111Y-94517484D01*
X191002324Y-94415196D01*
X190959660Y-94359869D01*
X190953681Y-94290256D01*
X190986286Y-94228460D01*
X191002319Y-94214566D01*
X191166912Y-94094984D01*
X191317224Y-93944672D01*
X191317226Y-93944668D01*
X191317229Y-93944666D01*
X191442168Y-93772700D01*
X191442167Y-93772700D01*
X191442171Y-93772696D01*
X191538677Y-93583292D01*
X191604366Y-93381123D01*
X191637620Y-93171167D01*
X191637620Y-92958593D01*
X191604366Y-92748637D01*
X191538677Y-92546468D01*
X191442171Y-92357064D01*
X191442169Y-92357061D01*
X191442168Y-92357059D01*
X191317229Y-92185093D01*
X191166912Y-92034776D01*
X191120536Y-92001082D01*
X191002324Y-91915196D01*
X190959660Y-91859869D01*
X190953681Y-91790256D01*
X190986286Y-91728460D01*
X191002319Y-91714566D01*
X191166912Y-91594984D01*
X191317224Y-91444672D01*
X191317226Y-91444668D01*
X191317229Y-91444666D01*
X191442168Y-91272700D01*
X191442167Y-91272700D01*
X191442171Y-91272696D01*
X191538677Y-91083292D01*
X191604366Y-90881123D01*
X191637620Y-90671167D01*
X191637620Y-90458593D01*
X191604366Y-90248637D01*
X191538677Y-90046468D01*
X191442171Y-89857064D01*
X191442169Y-89857061D01*
X191442168Y-89857059D01*
X191317229Y-89685093D01*
X191166912Y-89534776D01*
X191098322Y-89484943D01*
X191002324Y-89415196D01*
X190959660Y-89359869D01*
X190953681Y-89290256D01*
X190986286Y-89228460D01*
X191002319Y-89214566D01*
X191166912Y-89094984D01*
X191317224Y-88944672D01*
X191317226Y-88944668D01*
X191317229Y-88944666D01*
X191442168Y-88772700D01*
X191442167Y-88772700D01*
X191442171Y-88772696D01*
X191538677Y-88583292D01*
X191604366Y-88381123D01*
X191637620Y-88171167D01*
X191637620Y-87958593D01*
X191604366Y-87748637D01*
X191538677Y-87546468D01*
X191442171Y-87357064D01*
X191442169Y-87357061D01*
X191442168Y-87357059D01*
X191317229Y-87185093D01*
X191166912Y-87034776D01*
X191157243Y-87027751D01*
X191002324Y-86915196D01*
X190959660Y-86859869D01*
X190953681Y-86790256D01*
X190986286Y-86728460D01*
X191002319Y-86714566D01*
X191166912Y-86594984D01*
X191317224Y-86444672D01*
X191317226Y-86444668D01*
X191317229Y-86444666D01*
X191442168Y-86272700D01*
X191442167Y-86272700D01*
X191442171Y-86272696D01*
X191538677Y-86083292D01*
X191604366Y-85881123D01*
X191637620Y-85671167D01*
X191637620Y-85458593D01*
X191604366Y-85248637D01*
X191538677Y-85046468D01*
X191442171Y-84857064D01*
X191442169Y-84857061D01*
X191442168Y-84857059D01*
X191317229Y-84685093D01*
X191166912Y-84534776D01*
X191002324Y-84415196D01*
X190959660Y-84359869D01*
X190953681Y-84290256D01*
X190986286Y-84228460D01*
X191002319Y-84214566D01*
X191166912Y-84094984D01*
X191317224Y-83944672D01*
X191317226Y-83944668D01*
X191317229Y-83944666D01*
X191442168Y-83772700D01*
X191442167Y-83772700D01*
X191442171Y-83772696D01*
X191538677Y-83583292D01*
X191604366Y-83381123D01*
X191637620Y-83171167D01*
X191637620Y-82958593D01*
X191604366Y-82748637D01*
X191538677Y-82546468D01*
X191442171Y-82357064D01*
X191442169Y-82357061D01*
X191442168Y-82357059D01*
X191317229Y-82185093D01*
X191166906Y-82034770D01*
X190994940Y-81909831D01*
X190805534Y-81813324D01*
X190805533Y-81813323D01*
X190805532Y-81813323D01*
X190603363Y-81747634D01*
X190603361Y-81747633D01*
X190603360Y-81747633D01*
X190442077Y-81722088D01*
X190393407Y-81714380D01*
X190180833Y-81714380D01*
X190132162Y-81722088D01*
X189970880Y-81747633D01*
X189768705Y-81813324D01*
X189579299Y-81909831D01*
X189407335Y-82034769D01*
X189268518Y-82173586D01*
X189207195Y-82207070D01*
X189137503Y-82202086D01*
X189081570Y-82160214D01*
X189075298Y-82151000D01*
X188979832Y-81996224D01*
X188855777Y-81872169D01*
X188855776Y-81872168D01*
X188706454Y-81780066D01*
X188539917Y-81724881D01*
X188539915Y-81724880D01*
X188437136Y-81714380D01*
X188437129Y-81714380D01*
X187549350Y-81714380D01*
X187482311Y-81694695D01*
X187461673Y-81678065D01*
X187400656Y-81617048D01*
X187400655Y-81617047D01*
X187400654Y-81617046D01*
X187326969Y-81567812D01*
X187326969Y-81567813D01*
X187277731Y-81534913D01*
X187141157Y-81478343D01*
X187141147Y-81478340D01*
X186996160Y-81449500D01*
X186996158Y-81449500D01*
X176811859Y-81449500D01*
X176744820Y-81429815D01*
X176704472Y-81387501D01*
X176626948Y-81253226D01*
X176491247Y-81076376D01*
X176491242Y-81076370D01*
X176333629Y-80918757D01*
X176333622Y-80918751D01*
X176156782Y-80783058D01*
X176156780Y-80783057D01*
X176156774Y-80783052D01*
X176022498Y-80705527D01*
X176014215Y-80696840D01*
X176003297Y-80691854D01*
X175990552Y-80672023D01*
X175974284Y-80654961D01*
X175971068Y-80641704D01*
X175965523Y-80633076D01*
X175960500Y-80598141D01*
X175960500Y-80401858D01*
X175980185Y-80334819D01*
X176022498Y-80294472D01*
X176156774Y-80216948D01*
X176333624Y-80081247D01*
X176491247Y-79923624D01*
X176626948Y-79746774D01*
X176738405Y-79553726D01*
X176823710Y-79347781D01*
X176881404Y-79132463D01*
X176910500Y-78911457D01*
X176910500Y-78688543D01*
X176881404Y-78467537D01*
X176823710Y-78252219D01*
X176738405Y-78046274D01*
X176626948Y-77853226D01*
X176491247Y-77676376D01*
X176491242Y-77676370D01*
X176333629Y-77518757D01*
X176333622Y-77518751D01*
X176156782Y-77383058D01*
X176156780Y-77383057D01*
X176156774Y-77383052D01*
X175963726Y-77271595D01*
X175963722Y-77271593D01*
X175757790Y-77186293D01*
X175757783Y-77186291D01*
X175757781Y-77186290D01*
X175542463Y-77128596D01*
X175542457Y-77128595D01*
X175542452Y-77128594D01*
X175321466Y-77099501D01*
X175321463Y-77099500D01*
X175321457Y-77099500D01*
X175098543Y-77099500D01*
X175098537Y-77099500D01*
X175098533Y-77099501D01*
X174877547Y-77128594D01*
X174877540Y-77128595D01*
X174877537Y-77128596D01*
X174877530Y-77128598D01*
X174662219Y-77186290D01*
X174662209Y-77186293D01*
X174456277Y-77271593D01*
X174456273Y-77271595D01*
X174263226Y-77383052D01*
X174263217Y-77383058D01*
X174086377Y-77518751D01*
X174086370Y-77518757D01*
X173928757Y-77676370D01*
X173928751Y-77676377D01*
X173793058Y-77853217D01*
X173793052Y-77853226D01*
X173681595Y-78046273D01*
X173681593Y-78046277D01*
X173596293Y-78252209D01*
X173596290Y-78252219D01*
X173578726Y-78317771D01*
X173538597Y-78467534D01*
X173538594Y-78467547D01*
X173509501Y-78688533D01*
X173509500Y-78688549D01*
X173509500Y-78911450D01*
X173509501Y-78911466D01*
X173538594Y-79132452D01*
X173538595Y-79132457D01*
X173538596Y-79132463D01*
X173539188Y-79134672D01*
X173596290Y-79347780D01*
X173596293Y-79347790D01*
X173681593Y-79553722D01*
X173681595Y-79553726D01*
X173793052Y-79746774D01*
X173793057Y-79746780D01*
X173793058Y-79746782D01*
X173928751Y-79923622D01*
X173928757Y-79923629D01*
X174086370Y-80081242D01*
X174086377Y-80081248D01*
X174212294Y-80177867D01*
X174263226Y-80216948D01*
X174397501Y-80294472D01*
X174405783Y-80303158D01*
X174416703Y-80308145D01*
X174429447Y-80327976D01*
X174445716Y-80345038D01*
X174448931Y-80358294D01*
X174454477Y-80366923D01*
X174459500Y-80401858D01*
X174459500Y-80598141D01*
X174439815Y-80665180D01*
X174397501Y-80705528D01*
X174263226Y-80783052D01*
X174263217Y-80783058D01*
X174086377Y-80918751D01*
X174086370Y-80918757D01*
X173928757Y-81076370D01*
X173928751Y-81076377D01*
X173793058Y-81253217D01*
X173793052Y-81253226D01*
X173681595Y-81446273D01*
X173681593Y-81446277D01*
X173596293Y-81652209D01*
X173596290Y-81652219D01*
X173562034Y-81780067D01*
X173538597Y-81867534D01*
X173538594Y-81867547D01*
X173509501Y-82088533D01*
X173509500Y-82088549D01*
X173509500Y-82311450D01*
X173509501Y-82311466D01*
X173538594Y-82532452D01*
X173538595Y-82532457D01*
X173538596Y-82532463D01*
X173538597Y-82532465D01*
X173596290Y-82747780D01*
X173596293Y-82747790D01*
X173674006Y-82935405D01*
X173681595Y-82953726D01*
X173793052Y-83146774D01*
X173793057Y-83146780D01*
X173793058Y-83146782D01*
X173928751Y-83323622D01*
X173928757Y-83323629D01*
X174086370Y-83481242D01*
X174086376Y-83481247D01*
X174263226Y-83616948D01*
X174456274Y-83728405D01*
X174662219Y-83813710D01*
X174877537Y-83871404D01*
X175098543Y-83900500D01*
X175098550Y-83900500D01*
X175321450Y-83900500D01*
X175321457Y-83900500D01*
X175542463Y-83871404D01*
X175757781Y-83813710D01*
X175963726Y-83728405D01*
X176156774Y-83616948D01*
X176333624Y-83481247D01*
X176491247Y-83323624D01*
X176626948Y-83146774D01*
X176704472Y-83012498D01*
X176755039Y-82964284D01*
X176811859Y-82950500D01*
X186312620Y-82950500D01*
X186379659Y-82970185D01*
X186425414Y-83022989D01*
X186436620Y-83074500D01*
X186436620Y-83714881D01*
X186436621Y-83714899D01*
X186447120Y-83817676D01*
X186447121Y-83817679D01*
X186494860Y-83961743D01*
X186497262Y-84031571D01*
X186464835Y-84088428D01*
X178425082Y-92128181D01*
X178363759Y-92161666D01*
X178337401Y-92164500D01*
X177963330Y-92164500D01*
X177963312Y-92164501D01*
X177862247Y-92174825D01*
X177698484Y-92229092D01*
X177698481Y-92229093D01*
X177551648Y-92319661D01*
X177437681Y-92433629D01*
X177376358Y-92467114D01*
X177306666Y-92462130D01*
X177262319Y-92433629D01*
X177148351Y-92319661D01*
X177148350Y-92319660D01*
X177001516Y-92229092D01*
X176837753Y-92174826D01*
X176837751Y-92174825D01*
X176736678Y-92164500D01*
X176138330Y-92164500D01*
X176138312Y-92164501D01*
X176037247Y-92174825D01*
X175873484Y-92229092D01*
X175873481Y-92229093D01*
X175726648Y-92319661D01*
X175604660Y-92441649D01*
X175604654Y-92441657D01*
X175602175Y-92445676D01*
X175550223Y-92492396D01*
X175481259Y-92503611D01*
X175422332Y-92479836D01*
X175337330Y-92416203D01*
X175337328Y-92416202D01*
X175202482Y-92365908D01*
X175202483Y-92365908D01*
X175142883Y-92359501D01*
X175142881Y-92359500D01*
X175142873Y-92359500D01*
X175142864Y-92359500D01*
X174047129Y-92359500D01*
X174047123Y-92359501D01*
X173987516Y-92365908D01*
X173852671Y-92416202D01*
X173852664Y-92416206D01*
X173737455Y-92502452D01*
X173737452Y-92502455D01*
X173651206Y-92617664D01*
X173651202Y-92617671D01*
X173609307Y-92730000D01*
X173600909Y-92752517D01*
X173594500Y-92812127D01*
X173594500Y-92812134D01*
X173594500Y-92812135D01*
X173594500Y-93507870D01*
X173594501Y-93507876D01*
X173600908Y-93567483D01*
X173651669Y-93703579D01*
X173656653Y-93773271D01*
X173623168Y-93834593D01*
X173057180Y-94400581D01*
X172995857Y-94434066D01*
X172926165Y-94429082D01*
X172870232Y-94387210D01*
X172845815Y-94321746D01*
X172845499Y-94312922D01*
X172845499Y-93762129D01*
X172839091Y-93702518D01*
X172838871Y-93701929D01*
X172830071Y-93678333D01*
X172825086Y-93608642D01*
X172830066Y-93591677D01*
X172839091Y-93567483D01*
X172845500Y-93507873D01*
X172845499Y-92812128D01*
X172839091Y-92752517D01*
X172788796Y-92617669D01*
X172788795Y-92617668D01*
X172788793Y-92617664D01*
X172702547Y-92502455D01*
X172702544Y-92502452D01*
X172587335Y-92416206D01*
X172587328Y-92416202D01*
X172526167Y-92393391D01*
X172470233Y-92351520D01*
X172445816Y-92286056D01*
X172445500Y-92277209D01*
X172445500Y-91946025D01*
X172465185Y-91878986D01*
X172517989Y-91833231D01*
X172556898Y-91822667D01*
X172630253Y-91815174D01*
X172794016Y-91760908D01*
X172940850Y-91670340D01*
X173055175Y-91556014D01*
X173116494Y-91522532D01*
X173186186Y-91527516D01*
X173230534Y-91556017D01*
X173344461Y-91669944D01*
X173344465Y-91669947D01*
X173491188Y-91760448D01*
X173491199Y-91760453D01*
X173654847Y-91814680D01*
X173755851Y-91824999D01*
X174305000Y-91824999D01*
X174354140Y-91824999D01*
X174354154Y-91824998D01*
X174455152Y-91814680D01*
X174618800Y-91760453D01*
X174618811Y-91760448D01*
X174765534Y-91669947D01*
X174765538Y-91669944D01*
X174887444Y-91548038D01*
X174887447Y-91548034D01*
X174977948Y-91401311D01*
X174977953Y-91401300D01*
X175032180Y-91237652D01*
X175042499Y-91136654D01*
X175042500Y-91136641D01*
X175042500Y-91100000D01*
X174305000Y-91100000D01*
X174305000Y-91824999D01*
X173755851Y-91824999D01*
X173804999Y-91824998D01*
X173805000Y-91824998D01*
X173805000Y-90600000D01*
X174305000Y-90600000D01*
X175042499Y-90600000D01*
X175042499Y-90563360D01*
X175042498Y-90563345D01*
X175032180Y-90462347D01*
X174977953Y-90298699D01*
X174977948Y-90298688D01*
X174887447Y-90151965D01*
X174887444Y-90151961D01*
X174765538Y-90030055D01*
X174765534Y-90030052D01*
X174618811Y-89939551D01*
X174618800Y-89939546D01*
X174455152Y-89885319D01*
X174354154Y-89875000D01*
X174305000Y-89875000D01*
X174305000Y-90600000D01*
X173805000Y-90600000D01*
X173805000Y-89995597D01*
X173813644Y-89966156D01*
X173820168Y-89936170D01*
X173823922Y-89931154D01*
X173824685Y-89928558D01*
X173841319Y-89907916D01*
X173874735Y-89874500D01*
X174535520Y-89213716D01*
X174614577Y-89076784D01*
X174655501Y-88924057D01*
X174655501Y-88765942D01*
X174655501Y-88758347D01*
X174655500Y-88758329D01*
X174655500Y-87597610D01*
X174675185Y-87530571D01*
X174714401Y-87492073D01*
X174765850Y-87460340D01*
X174887840Y-87338350D01*
X174978408Y-87191516D01*
X175032674Y-87027753D01*
X175043000Y-86926677D01*
X175042999Y-86353324D01*
X175032674Y-86252247D01*
X174978408Y-86088484D01*
X174887840Y-85941650D01*
X174765850Y-85819660D01*
X174619016Y-85729092D01*
X174455253Y-85674826D01*
X174455251Y-85674825D01*
X174354178Y-85664500D01*
X173755830Y-85664500D01*
X173755812Y-85664501D01*
X173654747Y-85674825D01*
X173490984Y-85729092D01*
X173490981Y-85729093D01*
X173344148Y-85819661D01*
X173230181Y-85933629D01*
X173226062Y-85935877D01*
X173223516Y-85939823D01*
X173195679Y-85952468D01*
X173168858Y-85967114D01*
X173164176Y-85966779D01*
X173159902Y-85968721D01*
X173129657Y-85964310D01*
X173099166Y-85962130D01*
X173094118Y-85959128D01*
X173090764Y-85958639D01*
X173075870Y-85948276D01*
X173061111Y-85939499D01*
X173057864Y-85936674D01*
X172940850Y-85819660D01*
X172880768Y-85782601D01*
X172873111Y-85775939D01*
X172859529Y-85754713D01*
X172842678Y-85735978D01*
X172839999Y-85724191D01*
X172835453Y-85717086D01*
X172835478Y-85704296D01*
X172830500Y-85682388D01*
X172830500Y-67835783D01*
X172850185Y-67768744D01*
X172866814Y-67748106D01*
X172977139Y-67637782D01*
X173086632Y-67473914D01*
X173162051Y-67291835D01*
X173187884Y-67161964D01*
X173200500Y-67098543D01*
X173200500Y-67032065D01*
X180912000Y-67032065D01*
X180912000Y-67605419D01*
X180912001Y-67605437D01*
X180922325Y-67706502D01*
X180949439Y-67788324D01*
X180965165Y-67835783D01*
X180976592Y-67870265D01*
X180976593Y-67870268D01*
X181067161Y-68017101D01*
X181081129Y-68031069D01*
X181114614Y-68092392D01*
X181109630Y-68162084D01*
X181081129Y-68206431D01*
X181067161Y-68220398D01*
X180976593Y-68367231D01*
X180976591Y-68367236D01*
X180976325Y-68368039D01*
X180922326Y-68530997D01*
X180922326Y-68530998D01*
X180922325Y-68530998D01*
X180912000Y-68632065D01*
X180912000Y-69205419D01*
X180912001Y-69205437D01*
X180922325Y-69306502D01*
X180929587Y-69328416D01*
X180976592Y-69470266D01*
X181067160Y-69617100D01*
X181189150Y-69739090D01*
X181335984Y-69829658D01*
X181499747Y-69883924D01*
X181600823Y-69894250D01*
X182274176Y-69894249D01*
X182274184Y-69894248D01*
X182274187Y-69894248D01*
X182329530Y-69888594D01*
X182375253Y-69883924D01*
X182539016Y-69829658D01*
X182685850Y-69739090D01*
X182724819Y-69700121D01*
X182786142Y-69666636D01*
X182855834Y-69671620D01*
X182900181Y-69700121D01*
X182939150Y-69739090D01*
X183085984Y-69829658D01*
X183249747Y-69883924D01*
X183350823Y-69894250D01*
X183868759Y-69894249D01*
X183935798Y-69913933D01*
X183956440Y-69930568D01*
X186767647Y-72741775D01*
X186801132Y-72803098D01*
X186797898Y-72867772D01*
X186774873Y-72938637D01*
X186741620Y-73148593D01*
X186741620Y-73361166D01*
X186766844Y-73520426D01*
X186757889Y-73589720D01*
X186712893Y-73643172D01*
X186691824Y-73654385D01*
X186573681Y-73703321D01*
X186425532Y-73802310D01*
X186299550Y-73928292D01*
X186200562Y-74076440D01*
X186132380Y-74241046D01*
X186132378Y-74241052D01*
X186097620Y-74415792D01*
X186097620Y-74415795D01*
X186097620Y-74593965D01*
X186097620Y-74593967D01*
X186097619Y-74593967D01*
X186132378Y-74768707D01*
X186132380Y-74768713D01*
X186192279Y-74913323D01*
X186200563Y-74933321D01*
X186250056Y-75007393D01*
X186299550Y-75081467D01*
X186425532Y-75207449D01*
X186573682Y-75306439D01*
X186691823Y-75355374D01*
X186746227Y-75399215D01*
X186768292Y-75465509D01*
X186766844Y-75489333D01*
X186741620Y-75648593D01*
X186741620Y-75861167D01*
X186774874Y-76071123D01*
X186826143Y-76228913D01*
X186840564Y-76273294D01*
X186937071Y-76462700D01*
X187062010Y-76634666D01*
X187212329Y-76784985D01*
X187212334Y-76784989D01*
X187376913Y-76904562D01*
X187419579Y-76959891D01*
X187425558Y-77029505D01*
X187392953Y-77091300D01*
X187376913Y-77105198D01*
X187212334Y-77224770D01*
X187212329Y-77224774D01*
X187062010Y-77375093D01*
X186937071Y-77547059D01*
X186840564Y-77736465D01*
X186774873Y-77938640D01*
X186741620Y-78148593D01*
X186741620Y-78361166D01*
X186762493Y-78492957D01*
X186774874Y-78571123D01*
X186813028Y-78688549D01*
X186840564Y-78773294D01*
X186937071Y-78962700D01*
X187062010Y-79134666D01*
X187212333Y-79284989D01*
X187384299Y-79409928D01*
X187384301Y-79409929D01*
X187384304Y-79409931D01*
X187573708Y-79506437D01*
X187775877Y-79572126D01*
X187985833Y-79605380D01*
X187985834Y-79605380D01*
X188698406Y-79605380D01*
X188698407Y-79605380D01*
X188908363Y-79572126D01*
X189110532Y-79506437D01*
X189299936Y-79409931D01*
X189372736Y-79357039D01*
X189471906Y-79284989D01*
X189471908Y-79284986D01*
X189471912Y-79284984D01*
X189622224Y-79134672D01*
X189622226Y-79134668D01*
X189622229Y-79134666D01*
X189747168Y-78962700D01*
X189747167Y-78962700D01*
X189747171Y-78962696D01*
X189843677Y-78773292D01*
X189909366Y-78571123D01*
X189942620Y-78361167D01*
X189942620Y-78148593D01*
X189909366Y-77938637D01*
X189843677Y-77736468D01*
X189747171Y-77547064D01*
X189747169Y-77547061D01*
X189747168Y-77547059D01*
X189622229Y-77375093D01*
X189471912Y-77224776D01*
X189471904Y-77224770D01*
X189307324Y-77105196D01*
X189264660Y-77049869D01*
X189258681Y-76980256D01*
X189291286Y-76918460D01*
X189307319Y-76904566D01*
X189471912Y-76784984D01*
X189622224Y-76634672D01*
X189622226Y-76634668D01*
X189622229Y-76634666D01*
X189747168Y-76462700D01*
X189747167Y-76462700D01*
X189747171Y-76462696D01*
X189843677Y-76273292D01*
X189909366Y-76071123D01*
X189942620Y-75861167D01*
X189942620Y-75648593D01*
X189909366Y-75438637D01*
X189843677Y-75236468D01*
X189747171Y-75047064D01*
X189747169Y-75047061D01*
X189747168Y-75047059D01*
X189622229Y-74875093D01*
X189471912Y-74724776D01*
X189307324Y-74605196D01*
X189264660Y-74549869D01*
X189258681Y-74480256D01*
X189291286Y-74418460D01*
X189307319Y-74404566D01*
X189471912Y-74284984D01*
X189622224Y-74134672D01*
X189622226Y-74134668D01*
X189622229Y-74134666D01*
X189747168Y-73962700D01*
X189747167Y-73962700D01*
X189747171Y-73962696D01*
X189843677Y-73773292D01*
X189909366Y-73571123D01*
X189942620Y-73361167D01*
X189942620Y-73148593D01*
X189909366Y-72938637D01*
X189843677Y-72736468D01*
X189747171Y-72547064D01*
X189747169Y-72547061D01*
X189747168Y-72547059D01*
X189622229Y-72375093D01*
X189483414Y-72236278D01*
X189449929Y-72174955D01*
X189454913Y-72105263D01*
X189496785Y-72049330D01*
X189505999Y-72043058D01*
X189511451Y-72039694D01*
X189511454Y-72039694D01*
X189660776Y-71947592D01*
X189784832Y-71823536D01*
X189876934Y-71674214D01*
X189932119Y-71507677D01*
X189942620Y-71404889D01*
X189942619Y-70104872D01*
X189932119Y-70002083D01*
X189876934Y-69835546D01*
X189784832Y-69686224D01*
X189660776Y-69562168D01*
X189568008Y-69504949D01*
X189511456Y-69470067D01*
X189511451Y-69470065D01*
X189453859Y-69450981D01*
X189344917Y-69414881D01*
X189344915Y-69414880D01*
X189242136Y-69404380D01*
X189242129Y-69404380D01*
X188104349Y-69404380D01*
X188037310Y-69384695D01*
X188016668Y-69368061D01*
X185384411Y-66735802D01*
X185384404Y-66735796D01*
X185310719Y-66686562D01*
X185310719Y-66686563D01*
X185261481Y-66653663D01*
X185124907Y-66597093D01*
X185124897Y-66597090D01*
X184979910Y-66568250D01*
X184979908Y-66568250D01*
X184557052Y-66568250D01*
X184490013Y-66548565D01*
X184469371Y-66531931D01*
X184435851Y-66498411D01*
X184435850Y-66498410D01*
X184289016Y-66407842D01*
X184125253Y-66353576D01*
X184125251Y-66353575D01*
X184024178Y-66343250D01*
X183425830Y-66343250D01*
X183425812Y-66343251D01*
X183324747Y-66353575D01*
X183160984Y-66407842D01*
X183160981Y-66407843D01*
X183014148Y-66498411D01*
X182900181Y-66612379D01*
X182838858Y-66645864D01*
X182769166Y-66640880D01*
X182724819Y-66612379D01*
X182610851Y-66498411D01*
X182610850Y-66498410D01*
X182464016Y-66407842D01*
X182300253Y-66353576D01*
X182300251Y-66353575D01*
X182199178Y-66343250D01*
X181600830Y-66343250D01*
X181600812Y-66343251D01*
X181499747Y-66353575D01*
X181335984Y-66407842D01*
X181335981Y-66407843D01*
X181189148Y-66498411D01*
X181067161Y-66620398D01*
X180976593Y-66767231D01*
X180976592Y-66767234D01*
X180922326Y-66930997D01*
X180922326Y-66930998D01*
X180922325Y-66930998D01*
X180912000Y-67032065D01*
X173200500Y-67032065D01*
X173200500Y-66901456D01*
X173162052Y-66708170D01*
X173162051Y-66708169D01*
X173162051Y-66708165D01*
X173139476Y-66653663D01*
X173086635Y-66526092D01*
X173086628Y-66526079D01*
X172977139Y-66362218D01*
X172977136Y-66362214D01*
X172837785Y-66222863D01*
X172837781Y-66222860D01*
X172673920Y-66113371D01*
X172673907Y-66113364D01*
X172491839Y-66037950D01*
X172491829Y-66037947D01*
X172298543Y-65999500D01*
X172298541Y-65999500D01*
X172101459Y-65999500D01*
X172101457Y-65999500D01*
X171908170Y-66037947D01*
X171908160Y-66037950D01*
X171726092Y-66113364D01*
X171726079Y-66113371D01*
X171562218Y-66222860D01*
X171562214Y-66222863D01*
X171422863Y-66362214D01*
X171422860Y-66362218D01*
X171313371Y-66526079D01*
X171313364Y-66526092D01*
X171237950Y-66708160D01*
X171237947Y-66708170D01*
X171199500Y-66901456D01*
X171199500Y-66901459D01*
X171199500Y-67098541D01*
X171199500Y-67098543D01*
X171199499Y-67098543D01*
X171237947Y-67291829D01*
X171237950Y-67291839D01*
X171313364Y-67473907D01*
X171313371Y-67473920D01*
X171422860Y-67637781D01*
X171422863Y-67637785D01*
X171562212Y-67777134D01*
X171562217Y-67777138D01*
X171562218Y-67777139D01*
X171574389Y-67785271D01*
X171619195Y-67838882D01*
X171629500Y-67888374D01*
X171629500Y-85682388D01*
X171609815Y-85749427D01*
X171570598Y-85787926D01*
X171519150Y-85819659D01*
X171397159Y-85941650D01*
X171373138Y-85980596D01*
X171321190Y-86027321D01*
X171267599Y-86039500D01*
X161943940Y-86039500D01*
X161903019Y-86050464D01*
X161903019Y-86050465D01*
X161865751Y-86060451D01*
X161791214Y-86080423D01*
X161791209Y-86080426D01*
X161654290Y-86159475D01*
X161654282Y-86159481D01*
X158618481Y-89195282D01*
X158618477Y-89195287D01*
X158600867Y-89225792D01*
X158600865Y-89225795D01*
X158539423Y-89332215D01*
X158498499Y-89484943D01*
X158498499Y-89484945D01*
X158498499Y-89653046D01*
X158498500Y-89653059D01*
X158498500Y-90729330D01*
X158498499Y-90729348D01*
X158498499Y-90895054D01*
X158498498Y-90895054D01*
X158498499Y-90895057D01*
X158539423Y-91047785D01*
X158561687Y-91086347D01*
X158568358Y-91097900D01*
X158568359Y-91097904D01*
X158568360Y-91097904D01*
X158618479Y-91184714D01*
X158618481Y-91184717D01*
X158737349Y-91303585D01*
X158737355Y-91303590D01*
X158863181Y-91429416D01*
X158896666Y-91490739D01*
X158899500Y-91517097D01*
X158899500Y-91832869D01*
X158899501Y-91832876D01*
X158905908Y-91892483D01*
X158956202Y-92027327D01*
X158960452Y-92035109D01*
X158957394Y-92036778D01*
X158975963Y-92086594D01*
X158961098Y-92154864D01*
X158960717Y-92155457D01*
X158956645Y-92162913D01*
X158906403Y-92297620D01*
X158906401Y-92297627D01*
X158900000Y-92357155D01*
X158900000Y-92480000D01*
X160201000Y-92480000D01*
X160268039Y-92499685D01*
X160313794Y-92552489D01*
X160325000Y-92604000D01*
X160325000Y-92730000D01*
X160451000Y-92730000D01*
X160518039Y-92749685D01*
X160563794Y-92802489D01*
X160575000Y-92854000D01*
X160575000Y-93750000D01*
X161750000Y-93750000D01*
X161750000Y-93627172D01*
X161749999Y-93627155D01*
X161743598Y-93567627D01*
X161743597Y-93567623D01*
X161693350Y-93432906D01*
X161689101Y-93425124D01*
X161692227Y-93423416D01*
X161673732Y-93373929D01*
X161688538Y-93305646D01*
X161689485Y-93304171D01*
X161693350Y-93297093D01*
X161743597Y-93162376D01*
X161743598Y-93162372D01*
X161749999Y-93102844D01*
X161750000Y-93102827D01*
X161750000Y-93050973D01*
X161769685Y-92983934D01*
X161822489Y-92938179D01*
X161886604Y-92927615D01*
X161983353Y-92937499D01*
X162020000Y-92937499D01*
X162520000Y-92937499D01*
X162556640Y-92937499D01*
X162556654Y-92937498D01*
X162657652Y-92927180D01*
X162821300Y-92872953D01*
X162821311Y-92872948D01*
X162969903Y-92781295D01*
X163037295Y-92762854D01*
X163100097Y-92781295D01*
X163248688Y-92872948D01*
X163248699Y-92872953D01*
X163412347Y-92927180D01*
X163513352Y-92937499D01*
X163550000Y-92937499D01*
X163550000Y-92150000D01*
X162520000Y-92150000D01*
X162520000Y-92937499D01*
X162020000Y-92937499D01*
X162020000Y-92024000D01*
X162039685Y-91956961D01*
X162092489Y-91911206D01*
X162144000Y-91900000D01*
X162270000Y-91900000D01*
X162270000Y-91774000D01*
X162289685Y-91706961D01*
X162342489Y-91661206D01*
X162394000Y-91650000D01*
X163676000Y-91650000D01*
X163743039Y-91669685D01*
X163788794Y-91722489D01*
X163800000Y-91774000D01*
X163800000Y-91900000D01*
X163926000Y-91900000D01*
X163993039Y-91919685D01*
X164038794Y-91972489D01*
X164050000Y-92024000D01*
X164050000Y-92937499D01*
X164086640Y-92937499D01*
X164086654Y-92937498D01*
X164187652Y-92927180D01*
X164351300Y-92872953D01*
X164351311Y-92872948D01*
X164498034Y-92782447D01*
X164498038Y-92782444D01*
X164619944Y-92660538D01*
X164619947Y-92660534D01*
X164710450Y-92513807D01*
X164713115Y-92508093D01*
X164759284Y-92455651D01*
X164826477Y-92436495D01*
X164893359Y-92456707D01*
X164938697Y-92509869D01*
X164949500Y-92560491D01*
X164949500Y-95445396D01*
X164940062Y-95492844D01*
X164938631Y-95496301D01*
X164930262Y-95516506D01*
X164930260Y-95516511D01*
X164899500Y-95671153D01*
X164899500Y-95828846D01*
X164930261Y-95983489D01*
X164930263Y-95983497D01*
X164940061Y-96007151D01*
X164949500Y-96054604D01*
X164949500Y-97182769D01*
X164929815Y-97249808D01*
X164913181Y-97270450D01*
X163812949Y-98370681D01*
X163751626Y-98404166D01*
X163725269Y-98407000D01*
X163513331Y-98407000D01*
X163513312Y-98407001D01*
X163412247Y-98417325D01*
X163248484Y-98471592D01*
X163248481Y-98471593D01*
X163110097Y-98556950D01*
X163042704Y-98575390D01*
X162979903Y-98556950D01*
X162931445Y-98527061D01*
X162841516Y-98471592D01*
X162677753Y-98417326D01*
X162677751Y-98417325D01*
X162576678Y-98407000D01*
X162003330Y-98407000D01*
X162003312Y-98407001D01*
X161902247Y-98417325D01*
X161738484Y-98471592D01*
X161738481Y-98471593D01*
X161591648Y-98562161D01*
X161567087Y-98586722D01*
X161505763Y-98620206D01*
X161436074Y-98615221D01*
X161357482Y-98585908D01*
X161357483Y-98585908D01*
X161297883Y-98579501D01*
X161297881Y-98579500D01*
X161297873Y-98579500D01*
X161297864Y-98579500D01*
X159352129Y-98579500D01*
X159352123Y-98579501D01*
X159292516Y-98585908D01*
X159157671Y-98636202D01*
X159157664Y-98636206D01*
X159042455Y-98722452D01*
X159042452Y-98722455D01*
X158956206Y-98837664D01*
X158956202Y-98837671D01*
X158905910Y-98972513D01*
X158905909Y-98972517D01*
X158899500Y-99032127D01*
X158899500Y-99032134D01*
X158899500Y-99032135D01*
X158899500Y-99777870D01*
X158899501Y-99777876D01*
X158905908Y-99837483D01*
X158956202Y-99972328D01*
X158960454Y-99980114D01*
X158957280Y-99981846D01*
X158975659Y-100031302D01*
X158960725Y-100099557D01*
X158960117Y-100100502D01*
X158956202Y-100107671D01*
X158905910Y-100242513D01*
X158905909Y-100242517D01*
X158899500Y-100302127D01*
X158899500Y-100302134D01*
X158899500Y-100302135D01*
X158899500Y-101047870D01*
X158899501Y-101047876D01*
X158905908Y-101107483D01*
X158956202Y-101242327D01*
X158960452Y-101250109D01*
X158957394Y-101251778D01*
X158975963Y-101301594D01*
X158961098Y-101369864D01*
X158960717Y-101370457D01*
X158956645Y-101377913D01*
X158906403Y-101512620D01*
X158906401Y-101512627D01*
X158900000Y-101572155D01*
X158900000Y-101695000D01*
X160201000Y-101695000D01*
X160268039Y-101714685D01*
X160313794Y-101767489D01*
X160325000Y-101819000D01*
X160325000Y-101945000D01*
X160451000Y-101945000D01*
X160518039Y-101964685D01*
X160563794Y-102017489D01*
X160575000Y-102069000D01*
X160575000Y-102965000D01*
X161750000Y-102965000D01*
X161750000Y-102842172D01*
X161749999Y-102842155D01*
X161743598Y-102782627D01*
X161743597Y-102782623D01*
X161693350Y-102647906D01*
X161689101Y-102640124D01*
X161692227Y-102638416D01*
X161673732Y-102588929D01*
X161688538Y-102520646D01*
X161689485Y-102519171D01*
X161693350Y-102512093D01*
X161743597Y-102377376D01*
X161743598Y-102377372D01*
X161749999Y-102317844D01*
X161750177Y-102314521D01*
X161750355Y-102314530D01*
X161750356Y-102314525D01*
X161750459Y-102314536D01*
X161750985Y-102314564D01*
X161769685Y-102250883D01*
X161774566Y-102246654D01*
X166670001Y-102246654D01*
X166680319Y-102347652D01*
X166734546Y-102511300D01*
X166734551Y-102511311D01*
X166825052Y-102658034D01*
X166825055Y-102658038D01*
X166946961Y-102779944D01*
X166946965Y-102779947D01*
X167093688Y-102870448D01*
X167093699Y-102870453D01*
X167257347Y-102924680D01*
X167358351Y-102934999D01*
X167407499Y-102934998D01*
X167407500Y-102934998D01*
X167407500Y-102210000D01*
X166670001Y-102210000D01*
X166670001Y-102246654D01*
X161774566Y-102246654D01*
X161822489Y-102205128D01*
X161891647Y-102195184D01*
X161899957Y-102196669D01*
X161902349Y-102197181D01*
X162003352Y-102207499D01*
X162040000Y-102207499D01*
X162540000Y-102207499D01*
X162576640Y-102207499D01*
X162576654Y-102207498D01*
X162677652Y-102197180D01*
X162841300Y-102142953D01*
X162841311Y-102142948D01*
X162979903Y-102057463D01*
X163047295Y-102039022D01*
X163110097Y-102057463D01*
X163248688Y-102142948D01*
X163248699Y-102142953D01*
X163412347Y-102197180D01*
X163513352Y-102207499D01*
X163550000Y-102207499D01*
X164050000Y-102207499D01*
X164086640Y-102207499D01*
X164086654Y-102207498D01*
X164187652Y-102197180D01*
X164351300Y-102142953D01*
X164351311Y-102142948D01*
X164496973Y-102053102D01*
X164496976Y-102053100D01*
X164498037Y-102052445D01*
X164619944Y-101930538D01*
X164619947Y-101930534D01*
X164710448Y-101783811D01*
X164710453Y-101783800D01*
X164747055Y-101673345D01*
X166670000Y-101673345D01*
X166670000Y-101710000D01*
X167407500Y-101710000D01*
X167407500Y-100985000D01*
X167407499Y-100984999D01*
X167358361Y-100985000D01*
X167358343Y-100985001D01*
X167257347Y-100995319D01*
X167093699Y-101049546D01*
X167093688Y-101049551D01*
X166946965Y-101140052D01*
X166946961Y-101140055D01*
X166825055Y-101261961D01*
X166825052Y-101261965D01*
X166734551Y-101408688D01*
X166734546Y-101408699D01*
X166680319Y-101572347D01*
X166670000Y-101673345D01*
X164747055Y-101673345D01*
X164761023Y-101631192D01*
X164764681Y-101620151D01*
X164774999Y-101519154D01*
X164775000Y-101519141D01*
X164775000Y-101420000D01*
X164050000Y-101420000D01*
X164050000Y-102207499D01*
X163550000Y-102207499D01*
X163550000Y-101420000D01*
X162540000Y-101420000D01*
X162540000Y-102207499D01*
X162040000Y-102207499D01*
X162040000Y-101294000D01*
X162059685Y-101226961D01*
X162112489Y-101181206D01*
X162164000Y-101170000D01*
X162290000Y-101170000D01*
X162290000Y-101056000D01*
X162309685Y-100988961D01*
X162362489Y-100943206D01*
X162414000Y-100932000D01*
X165670234Y-100932000D01*
X165737273Y-100951685D01*
X165739125Y-100952898D01*
X165870814Y-101040890D01*
X165870827Y-101040897D01*
X165935481Y-101067677D01*
X166016503Y-101101237D01*
X166171153Y-101131999D01*
X166171156Y-101132000D01*
X166171158Y-101132000D01*
X166328844Y-101132000D01*
X166328845Y-101131999D01*
X166483497Y-101101237D01*
X166612330Y-101047873D01*
X166629172Y-101040897D01*
X166629172Y-101040896D01*
X166629179Y-101040894D01*
X166760289Y-100953289D01*
X166871789Y-100841789D01*
X166959394Y-100710679D01*
X167019737Y-100564997D01*
X167028662Y-100520124D01*
X167061045Y-100458215D01*
X167062540Y-100456693D01*
X167497416Y-100021818D01*
X167558739Y-99988333D01*
X167585097Y-99985499D01*
X167869500Y-99985499D01*
X167936539Y-100005184D01*
X167982294Y-100057988D01*
X167993500Y-100109499D01*
X167993500Y-100861000D01*
X167973815Y-100928039D01*
X167921011Y-100973794D01*
X167918065Y-100974434D01*
X167907500Y-100985000D01*
X167907500Y-102934999D01*
X167923296Y-102950795D01*
X167936539Y-102954684D01*
X167982294Y-103007488D01*
X167993500Y-103058999D01*
X167993500Y-103215569D01*
X167993500Y-103215571D01*
X167993499Y-103215571D01*
X168016916Y-103333289D01*
X168018498Y-103341241D01*
X168018499Y-103341245D01*
X168067533Y-103459625D01*
X168138726Y-103566173D01*
X168138727Y-103566174D01*
X169515373Y-104942819D01*
X169548858Y-105004142D01*
X169543874Y-105073834D01*
X169502002Y-105129767D01*
X169436538Y-105154184D01*
X169427692Y-105154500D01*
X169175831Y-105154500D01*
X169175812Y-105154501D01*
X169074747Y-105164825D01*
X168910984Y-105219092D01*
X168910981Y-105219093D01*
X168764148Y-105309661D01*
X168650181Y-105423629D01*
X168642493Y-105427826D01*
X168637275Y-105434866D01*
X168612294Y-105444316D01*
X168588858Y-105457114D01*
X168580119Y-105456489D01*
X168571926Y-105459589D01*
X168545804Y-105454035D01*
X168519166Y-105452130D01*
X168510357Y-105446498D01*
X168503584Y-105445058D01*
X168476207Y-105424663D01*
X168475231Y-105424039D01*
X168475016Y-105423826D01*
X168360850Y-105309660D01*
X168358000Y-105307902D01*
X168350598Y-105300569D01*
X168336926Y-105275807D01*
X168320580Y-105252723D01*
X168320260Y-105245624D01*
X168316826Y-105239404D01*
X168318711Y-105211182D01*
X168317440Y-105182924D01*
X168321163Y-105174470D01*
X168321483Y-105169690D01*
X168325884Y-105163752D01*
X168334766Y-105143586D01*
X168344394Y-105129179D01*
X168404737Y-104983497D01*
X168435500Y-104828842D01*
X168435500Y-104671158D01*
X168435500Y-104671155D01*
X168435499Y-104671153D01*
X168421346Y-104600000D01*
X168404737Y-104516503D01*
X168375067Y-104444872D01*
X168344397Y-104370827D01*
X168344390Y-104370814D01*
X168256789Y-104239711D01*
X168256786Y-104239707D01*
X168145292Y-104128213D01*
X168145288Y-104128210D01*
X168014185Y-104040609D01*
X168014172Y-104040602D01*
X167868501Y-103980264D01*
X167868489Y-103980261D01*
X167713845Y-103949500D01*
X167713842Y-103949500D01*
X167556158Y-103949500D01*
X167556155Y-103949500D01*
X167401510Y-103980261D01*
X167401498Y-103980264D01*
X167255827Y-104040602D01*
X167255814Y-104040609D01*
X167124711Y-104128210D01*
X167124707Y-104128213D01*
X167013213Y-104239707D01*
X167013210Y-104239711D01*
X166925609Y-104370814D01*
X166925602Y-104370827D01*
X166865264Y-104516498D01*
X166865261Y-104516510D01*
X166834500Y-104671153D01*
X166834500Y-104828846D01*
X166865261Y-104983489D01*
X166865264Y-104983501D01*
X166925602Y-105129172D01*
X166925610Y-105129186D01*
X166946783Y-105160873D01*
X166967662Y-105227550D01*
X166949178Y-105294930D01*
X166931364Y-105317446D01*
X166817158Y-105431652D01*
X166783886Y-105485596D01*
X166731938Y-105532321D01*
X166678347Y-105544500D01*
X163462401Y-105544500D01*
X163395362Y-105524815D01*
X163356862Y-105485596D01*
X163332840Y-105446650D01*
X163210851Y-105324661D01*
X163210850Y-105324660D01*
X163094222Y-105252723D01*
X163064018Y-105234093D01*
X163064013Y-105234091D01*
X163062569Y-105233612D01*
X162900253Y-105179826D01*
X162900251Y-105179825D01*
X162799178Y-105169500D01*
X162200830Y-105169500D01*
X162200812Y-105169501D01*
X162099747Y-105179825D01*
X161935984Y-105234092D01*
X161935981Y-105234093D01*
X161789148Y-105324661D01*
X161675181Y-105438629D01*
X161613858Y-105472114D01*
X161544166Y-105467130D01*
X161499819Y-105438629D01*
X161385851Y-105324661D01*
X161385850Y-105324660D01*
X161269222Y-105252723D01*
X161239018Y-105234093D01*
X161239013Y-105234091D01*
X161237569Y-105233612D01*
X161075253Y-105179826D01*
X161075251Y-105179825D01*
X160974178Y-105169500D01*
X160375830Y-105169500D01*
X160375812Y-105169501D01*
X160274747Y-105179825D01*
X160110984Y-105234092D01*
X160110981Y-105234093D01*
X159964148Y-105324661D01*
X159842161Y-105446648D01*
X159751593Y-105593481D01*
X159751591Y-105593486D01*
X159732864Y-105650000D01*
X159697326Y-105757247D01*
X159697326Y-105757248D01*
X159697325Y-105757248D01*
X159687000Y-105858315D01*
X159687000Y-106431669D01*
X159687001Y-106431687D01*
X159697325Y-106532752D01*
X159716132Y-106589505D01*
X159751592Y-106696516D01*
X159824256Y-106814323D01*
X159842696Y-106881714D01*
X159821774Y-106948378D01*
X159768132Y-106993148D01*
X159731975Y-107002708D01*
X159697626Y-107006401D01*
X159697620Y-107006403D01*
X159562913Y-107056645D01*
X159562906Y-107056649D01*
X159447812Y-107142809D01*
X159447809Y-107142812D01*
X159361649Y-107257906D01*
X159361645Y-107257913D01*
X159311403Y-107392620D01*
X159311401Y-107392627D01*
X159305000Y-107452155D01*
X159305000Y-107525000D01*
X160206000Y-107525000D01*
X160273039Y-107544685D01*
X160318794Y-107597489D01*
X160330000Y-107649000D01*
X160330000Y-107775000D01*
X160431500Y-107775000D01*
X160498539Y-107794685D01*
X160544294Y-107847489D01*
X160555500Y-107899000D01*
X160555500Y-108601000D01*
X160535815Y-108668039D01*
X160483011Y-108713794D01*
X160431500Y-108725000D01*
X160330000Y-108725000D01*
X160330000Y-108775500D01*
X160310315Y-108842539D01*
X160257511Y-108888294D01*
X160206000Y-108899500D01*
X159757129Y-108899500D01*
X159757123Y-108899501D01*
X159697516Y-108905908D01*
X159562669Y-108956203D01*
X159556942Y-108959331D01*
X159497513Y-108974500D01*
X158405346Y-108974500D01*
X158338307Y-108954815D01*
X158292552Y-108902011D01*
X158282608Y-108832853D01*
X158311633Y-108769297D01*
X158317665Y-108762819D01*
X158319943Y-108760540D01*
X158319945Y-108760537D01*
X158410448Y-108613811D01*
X158410453Y-108613800D01*
X158464680Y-108450152D01*
X158474999Y-108349154D01*
X158475000Y-108349141D01*
X158475000Y-108250000D01*
X156525001Y-108250000D01*
X156525001Y-108349154D01*
X156535319Y-108450152D01*
X156589546Y-108613800D01*
X156589551Y-108613811D01*
X156680052Y-108760534D01*
X156680055Y-108760538D01*
X156693982Y-108774465D01*
X156727467Y-108835788D01*
X156722483Y-108905480D01*
X156693984Y-108949825D01*
X156679661Y-108964148D01*
X156589093Y-109110981D01*
X156589092Y-109110984D01*
X156534826Y-109274747D01*
X156534826Y-109274748D01*
X156534825Y-109274748D01*
X156524500Y-109375815D01*
X155690000Y-109375815D01*
X155690000Y-108097844D01*
X159305000Y-108097844D01*
X159311401Y-108157372D01*
X159311403Y-108157380D01*
X159329786Y-108206667D01*
X159334770Y-108276359D01*
X159329786Y-108293333D01*
X159311403Y-108342619D01*
X159311401Y-108342627D01*
X159305000Y-108402155D01*
X159305000Y-108475000D01*
X160080000Y-108475000D01*
X160080000Y-108025000D01*
X159305000Y-108025000D01*
X159305000Y-108097844D01*
X155690000Y-108097844D01*
X155690000Y-107650845D01*
X156525000Y-107650845D01*
X156525000Y-107750000D01*
X157250000Y-107750000D01*
X157750000Y-107750000D01*
X158474999Y-107750000D01*
X158474999Y-107650860D01*
X158474998Y-107650845D01*
X158464680Y-107549847D01*
X158410453Y-107386199D01*
X158410448Y-107386188D01*
X158319947Y-107239465D01*
X158319944Y-107239461D01*
X158198038Y-107117555D01*
X158198034Y-107117552D01*
X158051311Y-107027051D01*
X158051300Y-107027046D01*
X157887652Y-106972819D01*
X157786654Y-106962500D01*
X157750000Y-106962500D01*
X157750000Y-107750000D01*
X157250000Y-107750000D01*
X157250000Y-106962500D01*
X157213361Y-106962500D01*
X157213343Y-106962501D01*
X157112347Y-106972819D01*
X156948699Y-107027046D01*
X156948688Y-107027051D01*
X156801965Y-107117552D01*
X156801961Y-107117555D01*
X156680055Y-107239461D01*
X156680052Y-107239465D01*
X156589551Y-107386188D01*
X156589546Y-107386199D01*
X156535319Y-107549847D01*
X156525000Y-107650845D01*
X155690000Y-107650845D01*
X155690000Y-103587844D01*
X158900000Y-103587844D01*
X158906401Y-103647372D01*
X158906403Y-103647379D01*
X158956645Y-103782086D01*
X158956649Y-103782093D01*
X159042809Y-103897187D01*
X159042812Y-103897190D01*
X159157906Y-103983350D01*
X159157913Y-103983354D01*
X159292620Y-104033596D01*
X159292627Y-104033598D01*
X159352155Y-104039999D01*
X159352172Y-104040000D01*
X160075000Y-104040000D01*
X160575000Y-104040000D01*
X161297828Y-104040000D01*
X161297844Y-104039999D01*
X161357372Y-104033598D01*
X161357379Y-104033596D01*
X161492086Y-103983354D01*
X161492093Y-103983350D01*
X161607187Y-103897190D01*
X161607190Y-103897187D01*
X161693350Y-103782093D01*
X161693354Y-103782086D01*
X161743596Y-103647379D01*
X161743598Y-103647372D01*
X161749999Y-103587844D01*
X161750000Y-103587827D01*
X161750000Y-103465000D01*
X160575000Y-103465000D01*
X160575000Y-104040000D01*
X160075000Y-104040000D01*
X160075000Y-103465000D01*
X158900000Y-103465000D01*
X158900000Y-103587844D01*
X155690000Y-103587844D01*
X155690000Y-102317844D01*
X158900000Y-102317844D01*
X158906401Y-102377372D01*
X158906403Y-102377379D01*
X158956645Y-102512086D01*
X158960897Y-102519872D01*
X158957780Y-102521573D01*
X158976273Y-102571155D01*
X158961420Y-102639428D01*
X158960483Y-102640885D01*
X158956645Y-102647913D01*
X158906403Y-102782620D01*
X158906401Y-102782627D01*
X158900000Y-102842155D01*
X158900000Y-102965000D01*
X160075000Y-102965000D01*
X160075000Y-102195000D01*
X158900000Y-102195000D01*
X158900000Y-102317844D01*
X155690000Y-102317844D01*
X155690000Y-94372844D01*
X158900000Y-94372844D01*
X158906401Y-94432372D01*
X158906403Y-94432379D01*
X158956645Y-94567086D01*
X158956649Y-94567093D01*
X159042809Y-94682187D01*
X159042812Y-94682190D01*
X159157906Y-94768350D01*
X159157913Y-94768354D01*
X159292620Y-94818596D01*
X159292627Y-94818598D01*
X159352155Y-94824999D01*
X159352172Y-94825000D01*
X160075000Y-94825000D01*
X160575000Y-94825000D01*
X161297828Y-94825000D01*
X161297844Y-94824999D01*
X161357372Y-94818598D01*
X161357379Y-94818596D01*
X161492086Y-94768354D01*
X161492093Y-94768350D01*
X161607187Y-94682190D01*
X161607190Y-94682187D01*
X161693350Y-94567093D01*
X161693354Y-94567086D01*
X161743596Y-94432379D01*
X161743598Y-94432372D01*
X161749999Y-94372844D01*
X161750000Y-94372827D01*
X161750000Y-94250000D01*
X160575000Y-94250000D01*
X160575000Y-94825000D01*
X160075000Y-94825000D01*
X160075000Y-94250000D01*
X158900000Y-94250000D01*
X158900000Y-94372844D01*
X155690000Y-94372844D01*
X155690000Y-93102844D01*
X158900000Y-93102844D01*
X158906401Y-93162372D01*
X158906403Y-93162379D01*
X158956645Y-93297086D01*
X158960897Y-93304872D01*
X158957780Y-93306573D01*
X158976273Y-93356155D01*
X158961420Y-93424428D01*
X158960483Y-93425885D01*
X158956645Y-93432913D01*
X158906403Y-93567620D01*
X158906401Y-93567627D01*
X158900000Y-93627155D01*
X158900000Y-93750000D01*
X160075000Y-93750000D01*
X160075000Y-92980000D01*
X158900000Y-92980000D01*
X158900000Y-93102844D01*
X155690000Y-93102844D01*
X155690000Y-80113383D01*
X155709685Y-80046344D01*
X155762489Y-80000589D01*
X155831647Y-79990645D01*
X155852319Y-79995452D01*
X155936445Y-80022786D01*
X156111421Y-80050500D01*
X156111422Y-80050500D01*
X156288578Y-80050500D01*
X156288579Y-80050500D01*
X156463555Y-80022786D01*
X156632042Y-79968042D01*
X156789890Y-79887614D01*
X156933214Y-79783483D01*
X157058483Y-79658214D01*
X157162614Y-79514890D01*
X157243042Y-79357042D01*
X157297786Y-79188555D01*
X157325500Y-79013579D01*
X157325500Y-78836421D01*
X157297786Y-78661445D01*
X157243042Y-78492958D01*
X157243042Y-78492957D01*
X157202061Y-78412529D01*
X157162614Y-78335110D01*
X157058483Y-78191786D01*
X156986819Y-78120122D01*
X156953334Y-78058799D01*
X156950500Y-78032441D01*
X156950500Y-77618208D01*
X156959591Y-77587244D01*
X156967291Y-77555901D01*
X156969566Y-77553275D01*
X156970185Y-77551169D01*
X156989187Y-77528221D01*
X156995916Y-77521840D01*
X156998350Y-77520340D01*
X157013865Y-77504824D01*
X157015040Y-77503711D01*
X157044717Y-77488518D01*
X157073989Y-77472533D01*
X157075703Y-77472655D01*
X157077234Y-77471872D01*
X157110413Y-77475136D01*
X157143681Y-77477514D01*
X157145325Y-77478571D01*
X157146768Y-77478713D01*
X157152056Y-77482896D01*
X157188034Y-77506017D01*
X157201961Y-77519944D01*
X157201965Y-77519947D01*
X157348688Y-77610448D01*
X157348699Y-77610453D01*
X157512347Y-77664680D01*
X157613351Y-77674999D01*
X158212500Y-77674999D01*
X158311640Y-77674999D01*
X158311654Y-77674998D01*
X158412652Y-77664680D01*
X158576300Y-77610453D01*
X158576311Y-77610448D01*
X158723034Y-77519947D01*
X158723038Y-77519944D01*
X158844944Y-77398038D01*
X158844947Y-77398034D01*
X158935448Y-77251311D01*
X158935453Y-77251300D01*
X158989680Y-77087652D01*
X158999999Y-76986654D01*
X159000000Y-76986641D01*
X159000000Y-76950000D01*
X158212500Y-76950000D01*
X158212500Y-77674999D01*
X157613351Y-77674999D01*
X157712500Y-77674998D01*
X157712500Y-76450000D01*
X158212500Y-76450000D01*
X158999999Y-76450000D01*
X158999999Y-76413360D01*
X158999998Y-76413345D01*
X158989680Y-76312347D01*
X158935453Y-76148699D01*
X158935450Y-76148692D01*
X158853047Y-76015098D01*
X158834606Y-75947705D01*
X158853047Y-75884902D01*
X158935450Y-75751307D01*
X158935453Y-75751300D01*
X158989680Y-75587652D01*
X158999999Y-75486654D01*
X159000000Y-75486641D01*
X159000000Y-75450000D01*
X158212500Y-75450000D01*
X158212500Y-76450000D01*
X157712500Y-76450000D01*
X157712500Y-74950000D01*
X158212500Y-74950000D01*
X158999999Y-74950000D01*
X158999999Y-74913360D01*
X158999998Y-74913345D01*
X158989680Y-74812347D01*
X158935453Y-74648699D01*
X158935448Y-74648688D01*
X158844947Y-74501965D01*
X158844944Y-74501961D01*
X158723038Y-74380055D01*
X158723034Y-74380052D01*
X158576311Y-74289551D01*
X158576300Y-74289546D01*
X158412652Y-74235319D01*
X158311654Y-74225000D01*
X158212500Y-74225000D01*
X158212500Y-74950000D01*
X157712500Y-74950000D01*
X157712500Y-74224999D01*
X157613360Y-74225000D01*
X157613344Y-74225001D01*
X157512347Y-74235319D01*
X157348699Y-74289546D01*
X157348688Y-74289551D01*
X157201965Y-74380052D01*
X157188032Y-74393985D01*
X157126708Y-74427468D01*
X157057016Y-74422482D01*
X157012672Y-74393982D01*
X156998351Y-74379661D01*
X156998350Y-74379660D01*
X156907129Y-74323395D01*
X156851518Y-74289093D01*
X156851513Y-74289091D01*
X156839116Y-74284983D01*
X156687753Y-74234826D01*
X156687751Y-74234825D01*
X156586678Y-74224500D01*
X155888330Y-74224500D01*
X155888309Y-74224502D01*
X155826600Y-74230805D01*
X155757907Y-74218034D01*
X155707023Y-74170153D01*
X155690000Y-74107447D01*
X155690000Y-67788315D01*
X158524500Y-67788315D01*
X158524500Y-68461669D01*
X158524501Y-68461687D01*
X158534825Y-68562752D01*
X158589092Y-68726515D01*
X158589093Y-68726518D01*
X158679661Y-68873351D01*
X158806757Y-69000447D01*
X158804633Y-69002570D01*
X158837165Y-69048551D01*
X158840277Y-69118351D01*
X158806370Y-69176666D01*
X158806757Y-69177053D01*
X158805298Y-69178511D01*
X158805158Y-69178753D01*
X158804401Y-69179408D01*
X158679661Y-69304148D01*
X158589093Y-69450981D01*
X158589091Y-69450986D01*
X158582702Y-69470268D01*
X158534826Y-69614747D01*
X158534826Y-69614748D01*
X158534825Y-69614748D01*
X158524500Y-69715815D01*
X158524500Y-70314169D01*
X158524501Y-70314187D01*
X158534825Y-70415252D01*
X158589092Y-70579015D01*
X158589093Y-70579018D01*
X158679661Y-70725851D01*
X158793629Y-70839819D01*
X158827114Y-70901142D01*
X158822130Y-70970834D01*
X158793629Y-71015181D01*
X158679661Y-71129148D01*
X158589093Y-71275981D01*
X158589092Y-71275984D01*
X158534826Y-71439747D01*
X158534826Y-71439748D01*
X158534825Y-71439748D01*
X158524500Y-71540815D01*
X158524500Y-72139169D01*
X158524501Y-72139187D01*
X158534825Y-72240252D01*
X158571109Y-72349749D01*
X158589092Y-72404016D01*
X158679660Y-72550850D01*
X158801650Y-72672840D01*
X158948484Y-72763408D01*
X159112247Y-72817674D01*
X159213323Y-72828000D01*
X159465269Y-72827999D01*
X159532308Y-72847683D01*
X159552950Y-72864318D01*
X161713181Y-75024548D01*
X161746666Y-75085871D01*
X161749500Y-75112229D01*
X161749500Y-76083918D01*
X161749500Y-76083920D01*
X161749499Y-76083920D01*
X161778340Y-76228907D01*
X161778343Y-76228917D01*
X161834913Y-76365490D01*
X161834914Y-76365492D01*
X161834915Y-76365494D01*
X161834916Y-76365495D01*
X161866874Y-76413323D01*
X161866889Y-76413345D01*
X161917048Y-76488416D01*
X163626630Y-78197998D01*
X163660115Y-78259321D01*
X163658724Y-78317771D01*
X163618598Y-78467529D01*
X163618594Y-78467547D01*
X163589501Y-78688533D01*
X163589500Y-78688549D01*
X163589500Y-78911450D01*
X163589501Y-78911466D01*
X163618594Y-79132452D01*
X163618595Y-79132457D01*
X163618596Y-79132463D01*
X163619188Y-79134672D01*
X163676290Y-79347780D01*
X163676293Y-79347790D01*
X163761593Y-79553722D01*
X163761595Y-79553726D01*
X163873052Y-79746774D01*
X163873057Y-79746780D01*
X163873058Y-79746782D01*
X164008751Y-79923622D01*
X164008757Y-79923629D01*
X164166370Y-80081242D01*
X164166377Y-80081248D01*
X164292294Y-80177867D01*
X164343226Y-80216948D01*
X164536274Y-80328405D01*
X164551759Y-80334819D01*
X164673965Y-80385439D01*
X164728368Y-80429280D01*
X164750433Y-80495574D01*
X164733154Y-80563274D01*
X164682016Y-80610884D01*
X164673965Y-80614561D01*
X164536277Y-80671593D01*
X164536273Y-80671595D01*
X164343226Y-80783052D01*
X164343217Y-80783058D01*
X164166377Y-80918751D01*
X164166370Y-80918757D01*
X164008757Y-81076370D01*
X164008751Y-81076377D01*
X163873058Y-81253217D01*
X163873052Y-81253226D01*
X163761595Y-81446273D01*
X163761593Y-81446277D01*
X163676293Y-81652209D01*
X163676290Y-81652219D01*
X163642034Y-81780067D01*
X163618597Y-81867534D01*
X163618594Y-81867547D01*
X163589501Y-82088533D01*
X163589500Y-82088549D01*
X163589500Y-82311450D01*
X163589501Y-82311466D01*
X163618594Y-82532452D01*
X163618595Y-82532457D01*
X163618596Y-82532463D01*
X163618597Y-82532465D01*
X163676290Y-82747780D01*
X163676293Y-82747790D01*
X163754006Y-82935405D01*
X163761595Y-82953726D01*
X163873052Y-83146774D01*
X163873057Y-83146780D01*
X163873058Y-83146782D01*
X164008751Y-83323622D01*
X164008757Y-83323629D01*
X164166370Y-83481242D01*
X164166376Y-83481247D01*
X164343226Y-83616948D01*
X164536274Y-83728405D01*
X164742219Y-83813710D01*
X164957537Y-83871404D01*
X165178543Y-83900500D01*
X165178550Y-83900500D01*
X165401450Y-83900500D01*
X165401457Y-83900500D01*
X165622463Y-83871404D01*
X165837781Y-83813710D01*
X166043726Y-83728405D01*
X166236774Y-83616948D01*
X166413624Y-83481247D01*
X166571247Y-83323624D01*
X166706948Y-83146774D01*
X166818405Y-82953726D01*
X166903710Y-82747781D01*
X166961404Y-82532463D01*
X166990500Y-82311457D01*
X166990500Y-82088543D01*
X166961404Y-81867537D01*
X166903710Y-81652219D01*
X166818405Y-81446274D01*
X166706948Y-81253226D01*
X166571247Y-81076376D01*
X166571242Y-81076370D01*
X166413629Y-80918757D01*
X166413622Y-80918751D01*
X166236782Y-80783058D01*
X166236780Y-80783057D01*
X166236774Y-80783052D01*
X166043726Y-80671595D01*
X166043722Y-80671593D01*
X165906034Y-80614561D01*
X165851631Y-80570720D01*
X165829566Y-80504426D01*
X165846845Y-80436727D01*
X165897982Y-80389116D01*
X165906034Y-80385439D01*
X165971567Y-80358294D01*
X166043726Y-80328405D01*
X166236774Y-80216948D01*
X166413624Y-80081247D01*
X166571247Y-79923624D01*
X166706948Y-79746774D01*
X166818405Y-79553726D01*
X166903710Y-79347781D01*
X166961404Y-79132463D01*
X166990500Y-78911457D01*
X166990500Y-78688543D01*
X166961404Y-78467537D01*
X166903710Y-78252219D01*
X166818405Y-78046274D01*
X166706948Y-77853226D01*
X166571247Y-77676376D01*
X166571242Y-77676370D01*
X166413629Y-77518757D01*
X166413622Y-77518751D01*
X166236782Y-77383058D01*
X166236780Y-77383057D01*
X166236774Y-77383052D01*
X166043726Y-77271595D01*
X166043722Y-77271593D01*
X165837790Y-77186293D01*
X165837783Y-77186291D01*
X165837781Y-77186290D01*
X165622463Y-77128596D01*
X165622457Y-77128595D01*
X165622452Y-77128594D01*
X165401466Y-77099501D01*
X165401463Y-77099500D01*
X165401457Y-77099500D01*
X165178543Y-77099500D01*
X165178537Y-77099500D01*
X165178533Y-77099501D01*
X164957547Y-77128594D01*
X164957539Y-77128595D01*
X164957537Y-77128596D01*
X164957532Y-77128597D01*
X164957529Y-77128598D01*
X164807771Y-77168724D01*
X164737921Y-77167061D01*
X164687998Y-77136630D01*
X163286819Y-75735451D01*
X163253334Y-75674128D01*
X163250500Y-75647770D01*
X163250500Y-75112230D01*
X163270185Y-75045191D01*
X163286819Y-75024549D01*
X166086592Y-72224776D01*
X168982952Y-69328416D01*
X169044203Y-69236745D01*
X169065084Y-69205495D01*
X169121658Y-69068913D01*
X169134855Y-69002570D01*
X169150500Y-68923920D01*
X169150500Y-67714610D01*
X169170185Y-67647571D01*
X169175228Y-67640641D01*
X169177136Y-67637784D01*
X169177139Y-67637782D01*
X169286632Y-67473914D01*
X169362051Y-67291835D01*
X169387884Y-67161964D01*
X169400500Y-67098543D01*
X169400500Y-66901456D01*
X169362052Y-66708170D01*
X169362051Y-66708169D01*
X169362051Y-66708165D01*
X169339476Y-66653663D01*
X169286635Y-66526092D01*
X169286628Y-66526079D01*
X169177139Y-66362218D01*
X169177136Y-66362214D01*
X169037785Y-66222863D01*
X169037781Y-66222860D01*
X168873920Y-66113371D01*
X168873907Y-66113364D01*
X168691839Y-66037950D01*
X168691829Y-66037947D01*
X168498543Y-65999500D01*
X168498541Y-65999500D01*
X168301459Y-65999500D01*
X168301457Y-65999500D01*
X168108170Y-66037947D01*
X168108160Y-66037950D01*
X167926092Y-66113364D01*
X167926079Y-66113371D01*
X167762218Y-66222860D01*
X167762214Y-66222863D01*
X167622863Y-66362214D01*
X167622860Y-66362218D01*
X167513371Y-66526079D01*
X167513364Y-66526092D01*
X167437950Y-66708160D01*
X167437947Y-66708170D01*
X167399500Y-66901456D01*
X167399500Y-66901459D01*
X167399500Y-67098541D01*
X167399500Y-67098543D01*
X167399499Y-67098543D01*
X167437947Y-67291829D01*
X167437950Y-67291839D01*
X167513364Y-67473907D01*
X167513371Y-67473920D01*
X167626245Y-67642847D01*
X167624717Y-67643867D01*
X167648666Y-67700255D01*
X167649500Y-67714610D01*
X167649500Y-68487769D01*
X167629815Y-68554808D01*
X167613181Y-68575450D01*
X162587680Y-73600950D01*
X162526357Y-73634435D01*
X162456665Y-73629451D01*
X162412318Y-73600950D01*
X160511818Y-71700450D01*
X160478333Y-71639127D01*
X160475499Y-71612769D01*
X160475499Y-71540830D01*
X160475498Y-71540813D01*
X160465174Y-71439747D01*
X160453623Y-71404889D01*
X160410908Y-71275984D01*
X160320340Y-71129150D01*
X160206371Y-71015181D01*
X160172886Y-70953858D01*
X160177870Y-70884166D01*
X160206371Y-70839819D01*
X160320340Y-70725850D01*
X160410908Y-70579016D01*
X160465174Y-70415253D01*
X160475500Y-70314177D01*
X160475499Y-69715824D01*
X160472475Y-69686224D01*
X160465174Y-69614747D01*
X160447751Y-69562168D01*
X160410908Y-69450984D01*
X160320340Y-69304150D01*
X160198350Y-69182160D01*
X160193243Y-69177053D01*
X160195375Y-69174920D01*
X160162859Y-69129022D01*
X160159704Y-69059224D01*
X160193613Y-69000817D01*
X160193243Y-69000447D01*
X160194639Y-68999050D01*
X160194785Y-68998800D01*
X160195571Y-68998118D01*
X160198347Y-68995341D01*
X160198350Y-68995340D01*
X160320340Y-68873350D01*
X160410908Y-68726516D01*
X160465174Y-68562753D01*
X160475500Y-68461677D01*
X160475499Y-67788324D01*
X160474853Y-67782004D01*
X160465174Y-67687247D01*
X160457610Y-67664421D01*
X160410908Y-67523484D01*
X160320340Y-67376650D01*
X160281016Y-67337326D01*
X160247532Y-67276004D01*
X160252516Y-67206312D01*
X160281018Y-67161964D01*
X160319945Y-67123037D01*
X160319947Y-67123034D01*
X160410448Y-66976311D01*
X160410453Y-66976300D01*
X160464680Y-66812652D01*
X160474999Y-66711654D01*
X160475000Y-66711641D01*
X160475000Y-66625000D01*
X158525001Y-66625000D01*
X158525001Y-66711654D01*
X158535319Y-66812652D01*
X158589546Y-66976300D01*
X158589551Y-66976311D01*
X158680052Y-67123034D01*
X158680055Y-67123038D01*
X158718982Y-67161965D01*
X158752467Y-67223288D01*
X158747483Y-67292980D01*
X158718983Y-67337326D01*
X158679661Y-67376648D01*
X158589093Y-67523481D01*
X158589092Y-67523484D01*
X158534826Y-67687247D01*
X158534826Y-67687248D01*
X158534825Y-67687248D01*
X158524500Y-67788315D01*
X155690000Y-67788315D01*
X155690000Y-66038345D01*
X158525000Y-66038345D01*
X158525000Y-66125000D01*
X159250000Y-66125000D01*
X159750000Y-66125000D01*
X160474999Y-66125000D01*
X160474999Y-66038360D01*
X160474998Y-66038345D01*
X160464680Y-65937347D01*
X160410453Y-65773699D01*
X160410448Y-65773688D01*
X160319947Y-65626965D01*
X160319944Y-65626961D01*
X160198038Y-65505055D01*
X160198034Y-65505052D01*
X160051311Y-65414551D01*
X160051300Y-65414546D01*
X159887652Y-65360319D01*
X159786654Y-65350000D01*
X159750000Y-65350000D01*
X159750000Y-66125000D01*
X159250000Y-66125000D01*
X159250000Y-65350000D01*
X159213361Y-65350000D01*
X159213343Y-65350001D01*
X159112347Y-65360319D01*
X158948699Y-65414546D01*
X158948688Y-65414551D01*
X158801965Y-65505052D01*
X158801961Y-65505055D01*
X158680055Y-65626961D01*
X158680052Y-65626965D01*
X158589551Y-65773688D01*
X158589546Y-65773699D01*
X158535319Y-65937347D01*
X158525000Y-66038345D01*
X155690000Y-66038345D01*
X155690000Y-60304500D01*
X155709685Y-60237461D01*
X155762489Y-60191706D01*
X155814000Y-60180500D01*
X192712322Y-60180500D01*
X192779361Y-60200185D01*
G37*
%TD.AperFunction*%
%TD*%
%TA.AperFunction,Conductor*%
%TO.N,REG_3V3*%
G36*
X142843039Y-76719685D02*
G01*
X142888794Y-76772489D01*
X142900000Y-76824000D01*
X142900000Y-79676000D01*
X142880315Y-79743039D01*
X142827511Y-79788794D01*
X142776000Y-79800000D01*
X139524000Y-79800000D01*
X139456961Y-79780315D01*
X139411206Y-79727511D01*
X139400000Y-79676000D01*
X139400000Y-76824000D01*
X139419685Y-76756961D01*
X139472489Y-76711206D01*
X139524000Y-76700000D01*
X142776000Y-76700000D01*
X142843039Y-76719685D01*
G37*
%TD.AperFunction*%
%TD*%
%TA.AperFunction,Conductor*%
%TO.N,HV-*%
G36*
X120442672Y-101325185D02*
G01*
X120488427Y-101377989D01*
X120499633Y-101429500D01*
X120499633Y-105245500D01*
X120500000Y-105248913D01*
X120500000Y-105300000D01*
X120505492Y-105300000D01*
X120510829Y-105349643D01*
X120511184Y-105352948D01*
X120511185Y-105352951D01*
X120522393Y-105404472D01*
X120556516Y-105506997D01*
X120556519Y-105507003D01*
X120634304Y-105628037D01*
X120634312Y-105628048D01*
X120680056Y-105680840D01*
X120680059Y-105680843D01*
X120680063Y-105680847D01*
X120788797Y-105775067D01*
X120919674Y-105834838D01*
X120986713Y-105854523D01*
X120986717Y-105854524D01*
X121129133Y-105875000D01*
X122860999Y-105875000D01*
X122928038Y-105894685D01*
X122973793Y-105947489D01*
X122984999Y-105999000D01*
X122985000Y-108140999D01*
X122965315Y-108208038D01*
X122912512Y-108253793D01*
X122861000Y-108264999D01*
X121129121Y-108264999D01*
X121021670Y-108276552D01*
X121021669Y-108276552D01*
X120977483Y-108286165D01*
X120970160Y-108287759D01*
X120970158Y-108287759D01*
X120970156Y-108287760D01*
X120867625Y-108321887D01*
X120746595Y-108399669D01*
X120746584Y-108399678D01*
X120693792Y-108445422D01*
X120599566Y-108554163D01*
X120599563Y-108554167D01*
X120539797Y-108685033D01*
X120520680Y-108750136D01*
X120520679Y-108750139D01*
X120520110Y-108752079D01*
X120520109Y-108752083D01*
X120513220Y-108800000D01*
X120500000Y-108800000D01*
X120500000Y-108891946D01*
X120499633Y-108894499D01*
X120499633Y-108896367D01*
X120499633Y-109870500D01*
X120479948Y-109937539D01*
X120427144Y-109983294D01*
X120375633Y-109994500D01*
X114024000Y-109994500D01*
X113956961Y-109974815D01*
X113911206Y-109922011D01*
X113900000Y-109870500D01*
X113900000Y-101429500D01*
X113919685Y-101362461D01*
X113972489Y-101316706D01*
X114024000Y-101305500D01*
X120375633Y-101305500D01*
X120442672Y-101325185D01*
G37*
%TD.AperFunction*%
%TA.AperFunction,Conductor*%
G36*
X124043039Y-67519685D02*
G01*
X124088794Y-67572489D01*
X124100000Y-67624000D01*
X124100000Y-70976000D01*
X124080315Y-71043039D01*
X124027511Y-71088794D01*
X123976000Y-71100000D01*
X120500000Y-71100000D01*
X120500000Y-72670500D01*
X120480315Y-72737539D01*
X120427511Y-72783294D01*
X120376000Y-72794500D01*
X118929128Y-72794500D01*
X118889222Y-72798790D01*
X118875970Y-72799500D01*
X118712130Y-72799500D01*
X118712123Y-72799501D01*
X118652516Y-72805908D01*
X118517671Y-72856202D01*
X118517664Y-72856206D01*
X118402455Y-72942452D01*
X118402452Y-72942455D01*
X118316206Y-73057664D01*
X118316202Y-73057671D01*
X118265908Y-73192517D01*
X118259501Y-73252116D01*
X118259500Y-73252135D01*
X118259500Y-75747870D01*
X118259501Y-75747876D01*
X118265908Y-75807483D01*
X118316202Y-75942328D01*
X118316206Y-75942335D01*
X118402452Y-76057544D01*
X118402455Y-76057547D01*
X118517664Y-76143793D01*
X118517671Y-76143797D01*
X118562618Y-76160561D01*
X118652517Y-76194091D01*
X118712127Y-76200500D01*
X118885487Y-76200499D01*
X118903137Y-76201761D01*
X118929131Y-76205499D01*
X118929132Y-76205500D01*
X118929133Y-76205500D01*
X120375633Y-76205500D01*
X120442672Y-76225185D01*
X120488427Y-76277989D01*
X120499633Y-76329500D01*
X120499633Y-80145500D01*
X120500000Y-80148913D01*
X120500000Y-80200000D01*
X120505492Y-80200000D01*
X120510829Y-80249643D01*
X120511184Y-80252948D01*
X120511185Y-80252951D01*
X120522393Y-80304472D01*
X120556516Y-80406997D01*
X120556519Y-80407003D01*
X120634304Y-80528037D01*
X120634312Y-80528048D01*
X120680056Y-80580840D01*
X120680059Y-80580843D01*
X120680063Y-80580847D01*
X120788797Y-80675067D01*
X120919674Y-80734838D01*
X120986713Y-80754523D01*
X120986717Y-80754524D01*
X121129133Y-80775000D01*
X122860999Y-80775000D01*
X122928038Y-80794685D01*
X122973793Y-80847489D01*
X122984999Y-80899000D01*
X122985000Y-83040999D01*
X122965315Y-83108038D01*
X122912512Y-83153793D01*
X122861000Y-83164999D01*
X121129121Y-83164999D01*
X121021670Y-83176552D01*
X121021669Y-83176552D01*
X120977483Y-83186165D01*
X120970160Y-83187759D01*
X120970158Y-83187759D01*
X120970156Y-83187760D01*
X120867625Y-83221887D01*
X120746595Y-83299669D01*
X120746584Y-83299678D01*
X120693792Y-83345422D01*
X120599566Y-83454163D01*
X120599563Y-83454167D01*
X120539797Y-83585033D01*
X120520680Y-83650136D01*
X120520679Y-83650139D01*
X120520110Y-83652079D01*
X120520109Y-83652083D01*
X120513220Y-83700000D01*
X120500000Y-83700000D01*
X120500000Y-83791946D01*
X120499633Y-83794499D01*
X120499633Y-83796367D01*
X120499633Y-85070500D01*
X120479948Y-85137539D01*
X120427144Y-85183294D01*
X120375633Y-85194500D01*
X118924000Y-85194500D01*
X118923991Y-85194500D01*
X118923990Y-85194501D01*
X118816549Y-85206052D01*
X118816537Y-85206054D01*
X118765027Y-85217260D01*
X118662502Y-85251383D01*
X118662496Y-85251386D01*
X118541462Y-85329171D01*
X118541451Y-85329179D01*
X118488659Y-85374923D01*
X118394432Y-85483664D01*
X118377124Y-85521562D01*
X118363601Y-85544352D01*
X118316204Y-85607669D01*
X118316202Y-85607672D01*
X118265908Y-85742517D01*
X118259501Y-85802116D01*
X118259500Y-85802135D01*
X118259500Y-88297870D01*
X118259501Y-88297876D01*
X118265908Y-88357483D01*
X118316202Y-88492328D01*
X118316206Y-88492335D01*
X118402452Y-88607544D01*
X118402455Y-88607547D01*
X118517664Y-88693793D01*
X118517671Y-88693797D01*
X118585093Y-88718943D01*
X118652517Y-88744091D01*
X118652805Y-88744122D01*
X118653795Y-88744393D01*
X118660069Y-88745876D01*
X118660016Y-88746099D01*
X118691067Y-88754617D01*
X118714541Y-88765338D01*
X118781580Y-88785023D01*
X118781584Y-88785024D01*
X118924000Y-88805500D01*
X120375633Y-88805500D01*
X120442672Y-88825185D01*
X120488427Y-88877989D01*
X120499633Y-88929500D01*
X120499633Y-92695500D01*
X120500000Y-92698913D01*
X120500000Y-92800000D01*
X120510868Y-92800000D01*
X120511186Y-92802956D01*
X120522180Y-92853495D01*
X120522183Y-92853512D01*
X120522391Y-92854467D01*
X120522392Y-92854469D01*
X120556516Y-92956997D01*
X120556519Y-92957003D01*
X120634304Y-93078037D01*
X120634312Y-93078048D01*
X120680056Y-93130840D01*
X120680059Y-93130843D01*
X120680063Y-93130847D01*
X120788797Y-93225067D01*
X120919674Y-93284838D01*
X120986713Y-93304523D01*
X120986717Y-93304524D01*
X121129133Y-93325000D01*
X122860999Y-93325000D01*
X122928038Y-93344685D01*
X122973793Y-93397489D01*
X122984999Y-93449000D01*
X122985000Y-95590999D01*
X122965315Y-95658038D01*
X122912512Y-95703793D01*
X122861000Y-95714999D01*
X121129133Y-95714999D01*
X121129124Y-95714999D01*
X121129123Y-95715000D01*
X121021682Y-95726551D01*
X121021670Y-95726553D01*
X120970160Y-95737759D01*
X120867635Y-95771882D01*
X120867629Y-95771885D01*
X120746595Y-95849670D01*
X120746584Y-95849678D01*
X120693792Y-95895422D01*
X120599566Y-96004163D01*
X120599563Y-96004167D01*
X120539797Y-96135033D01*
X120539795Y-96135040D01*
X120520110Y-96202079D01*
X120520109Y-96202083D01*
X120506031Y-96300000D01*
X120500000Y-96300000D01*
X120500000Y-96341946D01*
X120499633Y-96344499D01*
X120499633Y-96346250D01*
X120499633Y-97570500D01*
X120479948Y-97637539D01*
X120427144Y-97683294D01*
X120375633Y-97694500D01*
X114024000Y-97694500D01*
X113956961Y-97674815D01*
X113911206Y-97622011D01*
X113900000Y-97570500D01*
X113900000Y-82204500D01*
X113902550Y-82195814D01*
X113901262Y-82186853D01*
X113912240Y-82162812D01*
X113919685Y-82137461D01*
X113926525Y-82131533D01*
X113930287Y-82123297D01*
X113952521Y-82109007D01*
X113972489Y-82091706D01*
X113983003Y-82089418D01*
X113989065Y-82085523D01*
X114024000Y-82080500D01*
X114048141Y-82080500D01*
X114115180Y-82100185D01*
X114155527Y-82142498D01*
X114233052Y-82276774D01*
X114233057Y-82276780D01*
X114233058Y-82276782D01*
X114368751Y-82453622D01*
X114368757Y-82453629D01*
X114526370Y-82611242D01*
X114526376Y-82611247D01*
X114703226Y-82746948D01*
X114896274Y-82858405D01*
X115102219Y-82943710D01*
X115317537Y-83001404D01*
X115538543Y-83030500D01*
X115538550Y-83030500D01*
X115761450Y-83030500D01*
X115761457Y-83030500D01*
X115982463Y-83001404D01*
X116197781Y-82943710D01*
X116403726Y-82858405D01*
X116596774Y-82746948D01*
X116773624Y-82611247D01*
X116931247Y-82453624D01*
X117066948Y-82276774D01*
X117178405Y-82083726D01*
X117263710Y-81877781D01*
X117321404Y-81662463D01*
X117350500Y-81441457D01*
X117350500Y-81218543D01*
X117321404Y-80997537D01*
X117263710Y-80782219D01*
X117260719Y-80774999D01*
X117178406Y-80576277D01*
X117178405Y-80576274D01*
X117066948Y-80383226D01*
X116931247Y-80206376D01*
X116931242Y-80206370D01*
X116773629Y-80048757D01*
X116773622Y-80048751D01*
X116596782Y-79913058D01*
X116596780Y-79913057D01*
X116596774Y-79913052D01*
X116403726Y-79801595D01*
X116403722Y-79801593D01*
X116197790Y-79716293D01*
X116197783Y-79716291D01*
X116197781Y-79716290D01*
X115982463Y-79658596D01*
X115982457Y-79658595D01*
X115982452Y-79658594D01*
X115758315Y-79629086D01*
X115694418Y-79600819D01*
X115655947Y-79542495D01*
X115650500Y-79506147D01*
X115650500Y-73262220D01*
X115670185Y-73195181D01*
X115701614Y-73161902D01*
X115779792Y-73105104D01*
X115930104Y-72954792D01*
X115930106Y-72954788D01*
X115930109Y-72954786D01*
X116055048Y-72782820D01*
X116055047Y-72782820D01*
X116055051Y-72782816D01*
X116151557Y-72593412D01*
X116217246Y-72391243D01*
X116250500Y-72181287D01*
X116250500Y-71468713D01*
X116217246Y-71258757D01*
X116151557Y-71056588D01*
X116055051Y-70867184D01*
X116055049Y-70867181D01*
X116055048Y-70867179D01*
X115930109Y-70695213D01*
X115779786Y-70544890D01*
X115607820Y-70419951D01*
X115418414Y-70323444D01*
X115418413Y-70323443D01*
X115418412Y-70323443D01*
X115216243Y-70257754D01*
X115216241Y-70257753D01*
X115216240Y-70257753D01*
X115054957Y-70232208D01*
X115006287Y-70224500D01*
X114793713Y-70224500D01*
X114745042Y-70232208D01*
X114583760Y-70257753D01*
X114381585Y-70323444D01*
X114192184Y-70419948D01*
X114096885Y-70489187D01*
X114031078Y-70512666D01*
X113963024Y-70496840D01*
X113914330Y-70446734D01*
X113900000Y-70388868D01*
X113900000Y-67624000D01*
X113919685Y-67556961D01*
X113972489Y-67511206D01*
X114024000Y-67500000D01*
X123976000Y-67500000D01*
X124043039Y-67519685D01*
G37*
%TD.AperFunction*%
%TD*%
%TA.AperFunction,Conductor*%
%TO.N,HVGND*%
G36*
X154353039Y-60200185D02*
G01*
X154398794Y-60252989D01*
X154410000Y-60304500D01*
X154410000Y-118405500D01*
X154390315Y-118472539D01*
X154337511Y-118518294D01*
X154286000Y-118529500D01*
X105591882Y-118529500D01*
X105524843Y-118509815D01*
X105479088Y-118457011D01*
X105469144Y-118387853D01*
X105498169Y-118324297D01*
X105533429Y-118296142D01*
X105610668Y-118254856D01*
X105754732Y-118177853D01*
X106057044Y-117975854D01*
X106338101Y-117745197D01*
X106595197Y-117488101D01*
X106825854Y-117207044D01*
X107027853Y-116904732D01*
X107199247Y-116584076D01*
X107338386Y-116248164D01*
X107443930Y-115900233D01*
X107443932Y-115900223D01*
X107443935Y-115900212D01*
X107514862Y-115543630D01*
X107531372Y-115375998D01*
X107550500Y-115181794D01*
X107550500Y-114818206D01*
X107514862Y-114456369D01*
X107443935Y-114099787D01*
X107443932Y-114099776D01*
X107443931Y-114099773D01*
X107443930Y-114099767D01*
X107338386Y-113751836D01*
X107199247Y-113415924D01*
X107125063Y-113277136D01*
X107027859Y-113095279D01*
X107027858Y-113095277D01*
X107027853Y-113095268D01*
X106825854Y-112792956D01*
X106595197Y-112511899D01*
X106595196Y-112511898D01*
X106595192Y-112511893D01*
X106338106Y-112254807D01*
X106057049Y-112024150D01*
X106057048Y-112024149D01*
X106057044Y-112024146D01*
X105754732Y-111822147D01*
X105754727Y-111822144D01*
X105754720Y-111822140D01*
X105434083Y-111650756D01*
X105434078Y-111650754D01*
X105098165Y-111511614D01*
X104750223Y-111406067D01*
X104750212Y-111406064D01*
X104393630Y-111335137D01*
X104121111Y-111308296D01*
X104031794Y-111299500D01*
X103668206Y-111299500D01*
X103585679Y-111307628D01*
X103306369Y-111335137D01*
X102949787Y-111406064D01*
X102949776Y-111406067D01*
X102601834Y-111511614D01*
X102265921Y-111650754D01*
X102265916Y-111650756D01*
X101945279Y-111822140D01*
X101945261Y-111822151D01*
X101642964Y-112024140D01*
X101642950Y-112024150D01*
X101361893Y-112254807D01*
X101104807Y-112511893D01*
X100874150Y-112792950D01*
X100874140Y-112792964D01*
X100672149Y-113095264D01*
X100670855Y-113097424D01*
X100670467Y-113097781D01*
X100670456Y-113097799D01*
X100670451Y-113097796D01*
X100619503Y-113144803D01*
X100550688Y-113156897D01*
X100486258Y-113129868D01*
X100446670Y-113072296D01*
X100440500Y-113033669D01*
X100440500Y-98324000D01*
X105194500Y-98324000D01*
X105194500Y-100676000D01*
X105194501Y-100676009D01*
X105206052Y-100783450D01*
X105206054Y-100783462D01*
X105217260Y-100834972D01*
X105251383Y-100937497D01*
X105251386Y-100937503D01*
X105329171Y-101058537D01*
X105329179Y-101058548D01*
X105374923Y-101111340D01*
X105374926Y-101111343D01*
X105374930Y-101111347D01*
X105483664Y-101205567D01*
X105483667Y-101205568D01*
X105483668Y-101205569D01*
X105564172Y-101242335D01*
X105614541Y-101265338D01*
X105681580Y-101285023D01*
X105681584Y-101285024D01*
X105824000Y-101305500D01*
X113270500Y-101305500D01*
X113337539Y-101325185D01*
X113383294Y-101377989D01*
X113394500Y-101429500D01*
X113394500Y-109870500D01*
X113394501Y-109870509D01*
X113406052Y-109977950D01*
X113406054Y-109977962D01*
X113417260Y-110029472D01*
X113451383Y-110131997D01*
X113451386Y-110132003D01*
X113480433Y-110177200D01*
X113500118Y-110244240D01*
X113488912Y-110295752D01*
X113434664Y-110414534D01*
X113434662Y-110414541D01*
X113414977Y-110481580D01*
X113414976Y-110481584D01*
X113394500Y-110624000D01*
X113394500Y-113576000D01*
X113394501Y-113576009D01*
X113406052Y-113683450D01*
X113406054Y-113683462D01*
X113417260Y-113734972D01*
X113451383Y-113837497D01*
X113451386Y-113837503D01*
X113529171Y-113958537D01*
X113529179Y-113958548D01*
X113574923Y-114011340D01*
X113574926Y-114011343D01*
X113574930Y-114011347D01*
X113683664Y-114105567D01*
X113814541Y-114165338D01*
X113881580Y-114185023D01*
X113881584Y-114185024D01*
X114024000Y-114205500D01*
X114024003Y-114205500D01*
X124370500Y-114205500D01*
X124437539Y-114225185D01*
X124483294Y-114277989D01*
X124494500Y-114329500D01*
X124494500Y-115376000D01*
X124494501Y-115376009D01*
X124506052Y-115483450D01*
X124506054Y-115483462D01*
X124517260Y-115534972D01*
X124551383Y-115637497D01*
X124551386Y-115637503D01*
X124629171Y-115758537D01*
X124629179Y-115758548D01*
X124674923Y-115811340D01*
X124674926Y-115811343D01*
X124674930Y-115811347D01*
X124783664Y-115905567D01*
X124783667Y-115905568D01*
X124783668Y-115905569D01*
X124877925Y-115948616D01*
X124914541Y-115965338D01*
X124981580Y-115985023D01*
X124981584Y-115985024D01*
X125124000Y-116005500D01*
X125124003Y-116005500D01*
X136125990Y-116005500D01*
X136126000Y-116005500D01*
X136233456Y-115993947D01*
X136284967Y-115982741D01*
X136319197Y-115971347D01*
X136387497Y-115948616D01*
X136387501Y-115948613D01*
X136387504Y-115948613D01*
X136508543Y-115870825D01*
X136561347Y-115825070D01*
X136655567Y-115716336D01*
X136715338Y-115585459D01*
X136735023Y-115518420D01*
X136735024Y-115518416D01*
X136755500Y-115376000D01*
X136755500Y-96585815D01*
X137374500Y-96585815D01*
X137374500Y-97184169D01*
X137374501Y-97184187D01*
X137384825Y-97285252D01*
X137439092Y-97449015D01*
X137439093Y-97449018D01*
X137529661Y-97595851D01*
X137643629Y-97709819D01*
X137677114Y-97771142D01*
X137672130Y-97840834D01*
X137643629Y-97885181D01*
X137529661Y-97999148D01*
X137439093Y-98145981D01*
X137439091Y-98145986D01*
X137427296Y-98181582D01*
X137384826Y-98309747D01*
X137384826Y-98309748D01*
X137384825Y-98309748D01*
X137374500Y-98410815D01*
X137374500Y-99009169D01*
X137374501Y-99009187D01*
X137384825Y-99110252D01*
X137439092Y-99274015D01*
X137439093Y-99274018D01*
X137529661Y-99420851D01*
X137563181Y-99454371D01*
X137596666Y-99515694D01*
X137599500Y-99542052D01*
X137599500Y-99827948D01*
X137579815Y-99894987D01*
X137563181Y-99915629D01*
X137539661Y-99939148D01*
X137449093Y-100085981D01*
X137449091Y-100085986D01*
X137441906Y-100107669D01*
X137394826Y-100249747D01*
X137394826Y-100249748D01*
X137394825Y-100249748D01*
X137384500Y-100350815D01*
X137384500Y-100949169D01*
X137384501Y-100949187D01*
X137394825Y-101050252D01*
X137431109Y-101159749D01*
X137449092Y-101214016D01*
X137539660Y-101360850D01*
X137661650Y-101482840D01*
X137808484Y-101573408D01*
X137972247Y-101627674D01*
X138073323Y-101638000D01*
X138646676Y-101637999D01*
X138646684Y-101637998D01*
X138646687Y-101637998D01*
X138702030Y-101632344D01*
X138747753Y-101627674D01*
X138911516Y-101573408D01*
X139058350Y-101482840D01*
X139104371Y-101436819D01*
X139165694Y-101403334D01*
X139192052Y-101400500D01*
X140583769Y-101400500D01*
X140650808Y-101420185D01*
X140674045Y-101441250D01*
X140674553Y-101440743D01*
X140679660Y-101445850D01*
X140801650Y-101567840D01*
X140948484Y-101658408D01*
X141112247Y-101712674D01*
X141213323Y-101723000D01*
X141786676Y-101722999D01*
X141786684Y-101722998D01*
X141786687Y-101722998D01*
X141842030Y-101717344D01*
X141887753Y-101712674D01*
X142051516Y-101658408D01*
X142198350Y-101567840D01*
X142294371Y-101471819D01*
X142355694Y-101438334D01*
X142382052Y-101435500D01*
X143922770Y-101435500D01*
X143989809Y-101455185D01*
X144010451Y-101471819D01*
X146963181Y-104424549D01*
X146996666Y-104485872D01*
X146999500Y-104512230D01*
X146999500Y-111785389D01*
X146979815Y-111852428D01*
X146974763Y-111859370D01*
X146863371Y-112026079D01*
X146863364Y-112026092D01*
X146787950Y-112208160D01*
X146787947Y-112208170D01*
X146749500Y-112401456D01*
X146749500Y-112401459D01*
X146749500Y-112598541D01*
X146749500Y-112598543D01*
X146749499Y-112598543D01*
X146787947Y-112791829D01*
X146787950Y-112791839D01*
X146863364Y-112973907D01*
X146863371Y-112973920D01*
X146972860Y-113137781D01*
X146972863Y-113137785D01*
X147112214Y-113277136D01*
X147112218Y-113277139D01*
X147276079Y-113386628D01*
X147276092Y-113386635D01*
X147458160Y-113462049D01*
X147458165Y-113462051D01*
X147458169Y-113462051D01*
X147458170Y-113462052D01*
X147651456Y-113500500D01*
X147651459Y-113500500D01*
X147848543Y-113500500D01*
X147978582Y-113474632D01*
X148041835Y-113462051D01*
X148223914Y-113386632D01*
X148387782Y-113277139D01*
X148527139Y-113137782D01*
X148636632Y-112973914D01*
X148712051Y-112791835D01*
X148750500Y-112598541D01*
X148750500Y-112401459D01*
X148750500Y-112401456D01*
X148712052Y-112208170D01*
X148712051Y-112208169D01*
X148712051Y-112208165D01*
X148712049Y-112208160D01*
X148636635Y-112026092D01*
X148636628Y-112026079D01*
X148523755Y-111857153D01*
X148525278Y-111856135D01*
X148501331Y-111799723D01*
X148500500Y-111785389D01*
X148500500Y-104076079D01*
X148471659Y-103931092D01*
X148471658Y-103931091D01*
X148471658Y-103931087D01*
X148415084Y-103794505D01*
X148358215Y-103709394D01*
X148332952Y-103671584D01*
X146298549Y-101637181D01*
X146265064Y-101575858D01*
X146270048Y-101506166D01*
X146311920Y-101450233D01*
X146377384Y-101425816D01*
X146386230Y-101425500D01*
X146817948Y-101425500D01*
X146884987Y-101445185D01*
X146905629Y-101461819D01*
X147001650Y-101557840D01*
X147148484Y-101648408D01*
X147312247Y-101702674D01*
X147413323Y-101713000D01*
X147986676Y-101712999D01*
X147986684Y-101712998D01*
X147986687Y-101712998D01*
X148042030Y-101707344D01*
X148087753Y-101702674D01*
X148251516Y-101648408D01*
X148398350Y-101557840D01*
X148454762Y-101501427D01*
X148516082Y-101467943D01*
X148585773Y-101472926D01*
X148611244Y-101482427D01*
X148642511Y-101494089D01*
X148642512Y-101494089D01*
X148642517Y-101494091D01*
X148702127Y-101500500D01*
X150647872Y-101500499D01*
X150707483Y-101494091D01*
X150842331Y-101443796D01*
X150957546Y-101357546D01*
X151043796Y-101242331D01*
X151094091Y-101107483D01*
X151100500Y-101047873D01*
X151100499Y-100302128D01*
X151094091Y-100242517D01*
X151094091Y-100242516D01*
X151043797Y-100107670D01*
X151039547Y-100099888D01*
X151042757Y-100098134D01*
X151024361Y-100049001D01*
X151039127Y-99980709D01*
X151039752Y-99979736D01*
X151043797Y-99972329D01*
X151071452Y-99898181D01*
X151094091Y-99837483D01*
X151100500Y-99777873D01*
X151100499Y-99032128D01*
X151094091Y-98972517D01*
X151043796Y-98837669D01*
X151043795Y-98837668D01*
X151043793Y-98837664D01*
X150957547Y-98722455D01*
X150957544Y-98722452D01*
X150842335Y-98636206D01*
X150842328Y-98636202D01*
X150707482Y-98585908D01*
X150707483Y-98585908D01*
X150647883Y-98579501D01*
X150647881Y-98579500D01*
X150647873Y-98579500D01*
X150647865Y-98579500D01*
X149962230Y-98579500D01*
X149895191Y-98559815D01*
X149874549Y-98543181D01*
X149656819Y-98325451D01*
X149623334Y-98264128D01*
X149620500Y-98237770D01*
X149620500Y-97141675D01*
X149629939Y-97094222D01*
X149630500Y-97092868D01*
X149644737Y-97058497D01*
X149675500Y-96903842D01*
X149675500Y-96746158D01*
X149675500Y-96746155D01*
X149675499Y-96746153D01*
X149655950Y-96647873D01*
X149644737Y-96591503D01*
X149600518Y-96484747D01*
X149584397Y-96445827D01*
X149584390Y-96445814D01*
X149496789Y-96314711D01*
X149496786Y-96314707D01*
X149385292Y-96203213D01*
X149385288Y-96203210D01*
X149254185Y-96115609D01*
X149254172Y-96115602D01*
X149108501Y-96055264D01*
X149108489Y-96055261D01*
X148953845Y-96024500D01*
X148953842Y-96024500D01*
X148796158Y-96024500D01*
X148796155Y-96024500D01*
X148641510Y-96055261D01*
X148641498Y-96055264D01*
X148495827Y-96115602D01*
X148495814Y-96115609D01*
X148364711Y-96203210D01*
X148364707Y-96203213D01*
X148253213Y-96314707D01*
X148253210Y-96314711D01*
X148165609Y-96445814D01*
X148165602Y-96445827D01*
X148105264Y-96591498D01*
X148105261Y-96591510D01*
X148074500Y-96746153D01*
X148074500Y-96903846D01*
X148105261Y-97058489D01*
X148105263Y-97058497D01*
X148110061Y-97070080D01*
X148119500Y-97117533D01*
X148119500Y-97838288D01*
X148099815Y-97905327D01*
X148047011Y-97951082D01*
X147989205Y-97962128D01*
X147986686Y-97962000D01*
X147413330Y-97962000D01*
X147413312Y-97962001D01*
X147312247Y-97972325D01*
X147148484Y-98026592D01*
X147148481Y-98026593D01*
X147001647Y-98117161D01*
X146995987Y-98121638D01*
X146994023Y-98119154D01*
X146945108Y-98145864D01*
X146875416Y-98140880D01*
X146831069Y-98112379D01*
X146798351Y-98079661D01*
X146798350Y-98079660D01*
X146667823Y-97999150D01*
X146651518Y-97989093D01*
X146651513Y-97989091D01*
X146650069Y-97988612D01*
X146487753Y-97934826D01*
X146487751Y-97934825D01*
X146386678Y-97924500D01*
X145813330Y-97924500D01*
X145813312Y-97924501D01*
X145712247Y-97934825D01*
X145548484Y-97989092D01*
X145548481Y-97989093D01*
X145401648Y-98079661D01*
X145279661Y-98201648D01*
X145189093Y-98348481D01*
X145189092Y-98348484D01*
X145134826Y-98512247D01*
X145134826Y-98512248D01*
X145134825Y-98512248D01*
X145124500Y-98613315D01*
X145124500Y-99311669D01*
X145124501Y-99311687D01*
X145134825Y-99412752D01*
X145189092Y-99576515D01*
X145189093Y-99576518D01*
X145279661Y-99723352D01*
X145284138Y-99729013D01*
X145283001Y-99729911D01*
X145312614Y-99784142D01*
X145307630Y-99853834D01*
X145265758Y-99909767D01*
X145200294Y-99934184D01*
X145191448Y-99934500D01*
X142382052Y-99934500D01*
X142315013Y-99914815D01*
X142294371Y-99898181D01*
X142198351Y-99802161D01*
X142198350Y-99802160D01*
X142051516Y-99711592D01*
X141887753Y-99657326D01*
X141887751Y-99657325D01*
X141786678Y-99647000D01*
X141213330Y-99647000D01*
X141213312Y-99647001D01*
X141112247Y-99657325D01*
X140948484Y-99711592D01*
X140948481Y-99711593D01*
X140801648Y-99802161D01*
X140740629Y-99863181D01*
X140679306Y-99896666D01*
X140652948Y-99899500D01*
X139224500Y-99899500D01*
X139215814Y-99896949D01*
X139206853Y-99898238D01*
X139182812Y-99887259D01*
X139157461Y-99879815D01*
X139151533Y-99872974D01*
X139143297Y-99869213D01*
X139129007Y-99846978D01*
X139111706Y-99827011D01*
X139109418Y-99816496D01*
X139105523Y-99810435D01*
X139100500Y-99775500D01*
X139100500Y-99542052D01*
X139120185Y-99475013D01*
X139136819Y-99454371D01*
X139170340Y-99420850D01*
X139260908Y-99274016D01*
X139315174Y-99110253D01*
X139325500Y-99009177D01*
X139325499Y-98410824D01*
X139315174Y-98309747D01*
X139260908Y-98145984D01*
X139170340Y-97999150D01*
X139056371Y-97885181D01*
X139022886Y-97823858D01*
X139027870Y-97754166D01*
X139056371Y-97709819D01*
X139088234Y-97677956D01*
X139170340Y-97595850D01*
X139260908Y-97449016D01*
X139315174Y-97285253D01*
X139325500Y-97184177D01*
X139325499Y-96585824D01*
X139315174Y-96484747D01*
X139260908Y-96320984D01*
X139170340Y-96174150D01*
X139136819Y-96140629D01*
X139103334Y-96079306D01*
X139100500Y-96052948D01*
X139100500Y-95554604D01*
X139109939Y-95507151D01*
X139119737Y-95483497D01*
X139150500Y-95328842D01*
X139150500Y-95171158D01*
X139150500Y-95171155D01*
X139150499Y-95171153D01*
X139119738Y-95016510D01*
X139119737Y-95016503D01*
X139119735Y-95016498D01*
X139059397Y-94870827D01*
X139059390Y-94870814D01*
X138971789Y-94739711D01*
X138971786Y-94739707D01*
X138860292Y-94628213D01*
X138860288Y-94628210D01*
X138729185Y-94540609D01*
X138729172Y-94540602D01*
X138583501Y-94480264D01*
X138583489Y-94480261D01*
X138428845Y-94449500D01*
X138428842Y-94449500D01*
X138271158Y-94449500D01*
X138271155Y-94449500D01*
X138116510Y-94480261D01*
X138116498Y-94480264D01*
X137970827Y-94540602D01*
X137970814Y-94540609D01*
X137839711Y-94628210D01*
X137839707Y-94628213D01*
X137728213Y-94739707D01*
X137728210Y-94739711D01*
X137640609Y-94870814D01*
X137640602Y-94870827D01*
X137580264Y-95016498D01*
X137580261Y-95016510D01*
X137549500Y-95171153D01*
X137549500Y-95328846D01*
X137580261Y-95483489D01*
X137580263Y-95483497D01*
X137590061Y-95507151D01*
X137599500Y-95554604D01*
X137599500Y-96052948D01*
X137579815Y-96119987D01*
X137563181Y-96140629D01*
X137529661Y-96174148D01*
X137439093Y-96320981D01*
X137439092Y-96320984D01*
X137384826Y-96484747D01*
X137384826Y-96484748D01*
X137384825Y-96484748D01*
X137374500Y-96585815D01*
X136755500Y-96585815D01*
X136755500Y-67646421D01*
X136764964Y-67614187D01*
X136773717Y-67581721D01*
X136774781Y-67580756D01*
X136775185Y-67579382D01*
X136800555Y-67557398D01*
X136825489Y-67534802D01*
X136826905Y-67534566D01*
X136827989Y-67533627D01*
X136861261Y-67528842D01*
X136894409Y-67523321D01*
X136895725Y-67523887D01*
X136897147Y-67523683D01*
X136927741Y-67537655D01*
X136958595Y-67550923D01*
X136959856Y-67552321D01*
X136960703Y-67552708D01*
X136982297Y-67577075D01*
X136982393Y-67577217D01*
X137022861Y-67637782D01*
X137024055Y-67638976D01*
X137028297Y-67645264D01*
X137037193Y-67673241D01*
X137048666Y-67700255D01*
X137049310Y-67711349D01*
X137049469Y-67711848D01*
X137049362Y-67712243D01*
X137049500Y-67714610D01*
X137049500Y-84561843D01*
X137049500Y-84561845D01*
X137049499Y-84561845D01*
X137078340Y-84706832D01*
X137078343Y-84706842D01*
X137134914Y-84843417D01*
X137167812Y-84892652D01*
X137167813Y-84892655D01*
X137217046Y-84966339D01*
X137217052Y-84966346D01*
X137601196Y-85350489D01*
X137634681Y-85411812D01*
X137629697Y-85481503D01*
X137616617Y-85507061D01*
X137540609Y-85620814D01*
X137540602Y-85620827D01*
X137480264Y-85766498D01*
X137480261Y-85766510D01*
X137449500Y-85921153D01*
X137449500Y-86078846D01*
X137480261Y-86233489D01*
X137480263Y-86233497D01*
X137490061Y-86257151D01*
X137499500Y-86304604D01*
X137499500Y-87029242D01*
X137481039Y-87094338D01*
X137409095Y-87210977D01*
X137409092Y-87210984D01*
X137354826Y-87374747D01*
X137354826Y-87374748D01*
X137354825Y-87374748D01*
X137344500Y-87475815D01*
X137344500Y-88074169D01*
X137344501Y-88074187D01*
X137354825Y-88175252D01*
X137379952Y-88251079D01*
X137409092Y-88339016D01*
X137464366Y-88428630D01*
X137499661Y-88485851D01*
X137613629Y-88599819D01*
X137647114Y-88661142D01*
X137642130Y-88730834D01*
X137613629Y-88775181D01*
X137499661Y-88889148D01*
X137409093Y-89035981D01*
X137409091Y-89035986D01*
X137396329Y-89074500D01*
X137354826Y-89199747D01*
X137354826Y-89199748D01*
X137354825Y-89199748D01*
X137344500Y-89300815D01*
X137344500Y-89899169D01*
X137344501Y-89899187D01*
X137354825Y-90000252D01*
X137391109Y-90109749D01*
X137409092Y-90164016D01*
X137494957Y-90303226D01*
X137499661Y-90310851D01*
X137533181Y-90344371D01*
X137547884Y-90371298D01*
X137564477Y-90397117D01*
X137565368Y-90403317D01*
X137566666Y-90405694D01*
X137569500Y-90432052D01*
X137569500Y-90667948D01*
X137549815Y-90734987D01*
X137533181Y-90755629D01*
X137509661Y-90779148D01*
X137419093Y-90925981D01*
X137419092Y-90925984D01*
X137364826Y-91089747D01*
X137364826Y-91089748D01*
X137364825Y-91089748D01*
X137354500Y-91190815D01*
X137354500Y-91789169D01*
X137354501Y-91789187D01*
X137364825Y-91890252D01*
X137399702Y-91995500D01*
X137419092Y-92054016D01*
X137509660Y-92200850D01*
X137631650Y-92322840D01*
X137778484Y-92413408D01*
X137942247Y-92467674D01*
X138043323Y-92478000D01*
X138616676Y-92477999D01*
X138616684Y-92477998D01*
X138616687Y-92477998D01*
X138672030Y-92472344D01*
X138717753Y-92467674D01*
X138881516Y-92413408D01*
X139028350Y-92322840D01*
X139074371Y-92276819D01*
X139135694Y-92243334D01*
X139162052Y-92240500D01*
X139826082Y-92240500D01*
X140587948Y-92240500D01*
X140654987Y-92260185D01*
X140675629Y-92276819D01*
X140771650Y-92372840D01*
X140918484Y-92463408D01*
X141082247Y-92517674D01*
X141183323Y-92528000D01*
X141756676Y-92527999D01*
X141756684Y-92527998D01*
X141756687Y-92527998D01*
X141812030Y-92522344D01*
X141857753Y-92517674D01*
X142021516Y-92463408D01*
X142168350Y-92372840D01*
X142264371Y-92276819D01*
X142325694Y-92243334D01*
X142352052Y-92240500D01*
X146817948Y-92240500D01*
X146884987Y-92260185D01*
X146905629Y-92276819D01*
X147001650Y-92372840D01*
X147148484Y-92463408D01*
X147312247Y-92517674D01*
X147413323Y-92528000D01*
X147986676Y-92527999D01*
X147986684Y-92527998D01*
X147986687Y-92527998D01*
X148042030Y-92522344D01*
X148087753Y-92517674D01*
X148251516Y-92463408D01*
X148398350Y-92372840D01*
X148476612Y-92294578D01*
X148537935Y-92261093D01*
X148607625Y-92266076D01*
X148642517Y-92279091D01*
X148702127Y-92285500D01*
X150647872Y-92285499D01*
X150707483Y-92279091D01*
X150842331Y-92228796D01*
X150957546Y-92142546D01*
X151043796Y-92027331D01*
X151094091Y-91892483D01*
X151100500Y-91832873D01*
X151100499Y-91087128D01*
X151094091Y-91027517D01*
X151094091Y-91027516D01*
X151043797Y-90892670D01*
X151039547Y-90884888D01*
X151042757Y-90883134D01*
X151024361Y-90834001D01*
X151039127Y-90765709D01*
X151039752Y-90764736D01*
X151043797Y-90757329D01*
X151055052Y-90727150D01*
X151094091Y-90622483D01*
X151100500Y-90562873D01*
X151100499Y-89817128D01*
X151094091Y-89757517D01*
X151080692Y-89721593D01*
X151043797Y-89622671D01*
X151043793Y-89622664D01*
X150957547Y-89507455D01*
X150957544Y-89507452D01*
X150842335Y-89421206D01*
X150842328Y-89421202D01*
X150707482Y-89370908D01*
X150707483Y-89370908D01*
X150647883Y-89364501D01*
X150647881Y-89364500D01*
X150647873Y-89364500D01*
X150647865Y-89364500D01*
X150549500Y-89364500D01*
X150482461Y-89344815D01*
X150436706Y-89292011D01*
X150425500Y-89240500D01*
X150425500Y-88251079D01*
X150396659Y-88106092D01*
X150396658Y-88106091D01*
X150396658Y-88106087D01*
X150385515Y-88079185D01*
X150340087Y-87969511D01*
X150340080Y-87969498D01*
X150257952Y-87846585D01*
X150257951Y-87846584D01*
X150153416Y-87742049D01*
X149796072Y-87384705D01*
X149769191Y-87344473D01*
X149759397Y-87320828D01*
X149759396Y-87320826D01*
X149759394Y-87320821D01*
X149686005Y-87210986D01*
X149671789Y-87189710D01*
X149560292Y-87078213D01*
X149560288Y-87078210D01*
X149429185Y-86990609D01*
X149429172Y-86990602D01*
X149283501Y-86930264D01*
X149283489Y-86930261D01*
X149128845Y-86899500D01*
X149128842Y-86899500D01*
X148971158Y-86899500D01*
X148971155Y-86899500D01*
X148816510Y-86930261D01*
X148816498Y-86930264D01*
X148670827Y-86990602D01*
X148670814Y-86990609D01*
X148539711Y-87078210D01*
X148539707Y-87078213D01*
X148428213Y-87189707D01*
X148428210Y-87189711D01*
X148340609Y-87320814D01*
X148340602Y-87320827D01*
X148280264Y-87466498D01*
X148280261Y-87466510D01*
X148249500Y-87621153D01*
X148249500Y-87778846D01*
X148280261Y-87933489D01*
X148280264Y-87933501D01*
X148340602Y-88079172D01*
X148340609Y-88079185D01*
X148428210Y-88210288D01*
X148428213Y-88210292D01*
X148539710Y-88321789D01*
X148627315Y-88380324D01*
X148670821Y-88409394D01*
X148670826Y-88409396D01*
X148670828Y-88409397D01*
X148694473Y-88419191D01*
X148701406Y-88423823D01*
X148706451Y-88424921D01*
X148734705Y-88446072D01*
X148888181Y-88599548D01*
X148921666Y-88660871D01*
X148924500Y-88687229D01*
X148924500Y-88950500D01*
X148904815Y-89017539D01*
X148852011Y-89063294D01*
X148800500Y-89074500D01*
X148582052Y-89074500D01*
X148515013Y-89054815D01*
X148494371Y-89038181D01*
X148398351Y-88942161D01*
X148398350Y-88942160D01*
X148297023Y-88879661D01*
X148251518Y-88851593D01*
X148251513Y-88851591D01*
X148250069Y-88851112D01*
X148087753Y-88797326D01*
X148087751Y-88797325D01*
X147986678Y-88787000D01*
X147413330Y-88787000D01*
X147413312Y-88787001D01*
X147312247Y-88797325D01*
X147148484Y-88851592D01*
X147148477Y-88851595D01*
X146998012Y-88944403D01*
X146930620Y-88962843D01*
X146863956Y-88941920D01*
X146845235Y-88926545D01*
X146798351Y-88879661D01*
X146798350Y-88879660D01*
X146707129Y-88823395D01*
X146651518Y-88789093D01*
X146651513Y-88789091D01*
X146645203Y-88787000D01*
X146487753Y-88734826D01*
X146487751Y-88734825D01*
X146386678Y-88724500D01*
X145813330Y-88724500D01*
X145813312Y-88724501D01*
X145712247Y-88734825D01*
X145548484Y-88789092D01*
X145548481Y-88789093D01*
X145401648Y-88879661D01*
X145279661Y-89001648D01*
X145189093Y-89148481D01*
X145189092Y-89148484D01*
X145134826Y-89312247D01*
X145134826Y-89312248D01*
X145134825Y-89312248D01*
X145124500Y-89413315D01*
X145124500Y-90111669D01*
X145124501Y-90111687D01*
X145134825Y-90212752D01*
X145189092Y-90376515D01*
X145189093Y-90376518D01*
X145201799Y-90397117D01*
X145275493Y-90516595D01*
X145279661Y-90523351D01*
X145284129Y-90527819D01*
X145317614Y-90589142D01*
X145312630Y-90658834D01*
X145270758Y-90714767D01*
X145205294Y-90739184D01*
X145196448Y-90739500D01*
X142352052Y-90739500D01*
X142285013Y-90719815D01*
X142264371Y-90703181D01*
X142168351Y-90607161D01*
X142168350Y-90607160D01*
X142032474Y-90523351D01*
X142021518Y-90516593D01*
X142021513Y-90516591D01*
X141998982Y-90509125D01*
X141857753Y-90462326D01*
X141857751Y-90462325D01*
X141756678Y-90452000D01*
X141183330Y-90452000D01*
X141183312Y-90452001D01*
X141082247Y-90462325D01*
X140918484Y-90516592D01*
X140918477Y-90516595D01*
X140839596Y-90565250D01*
X140772204Y-90583690D01*
X140705540Y-90562767D01*
X140660771Y-90509125D01*
X140650500Y-90459711D01*
X140650500Y-86514004D01*
X140621659Y-86369017D01*
X140621658Y-86369016D01*
X140621658Y-86369012D01*
X140621656Y-86369007D01*
X140565087Y-86232436D01*
X140565080Y-86232423D01*
X140482952Y-86109510D01*
X140452284Y-86078842D01*
X140378416Y-86004974D01*
X138586819Y-84213376D01*
X138553334Y-84152053D01*
X138550500Y-84125695D01*
X138550500Y-78674991D01*
X138874500Y-78674991D01*
X138874500Y-78680158D01*
X138874500Y-78680159D01*
X138874500Y-79450001D01*
X138874501Y-79450019D01*
X138885000Y-79552796D01*
X138885002Y-79552801D01*
X138888205Y-79562467D01*
X138894500Y-79601473D01*
X138894500Y-79676000D01*
X138894501Y-79676009D01*
X138906052Y-79783450D01*
X138906054Y-79783462D01*
X138917260Y-79834972D01*
X138951383Y-79937497D01*
X138951386Y-79937503D01*
X139029171Y-80058537D01*
X139029179Y-80058548D01*
X139074923Y-80111340D01*
X139074926Y-80111343D01*
X139074930Y-80111347D01*
X139183664Y-80205567D01*
X139183667Y-80205568D01*
X139183668Y-80205569D01*
X139187342Y-80207247D01*
X139314541Y-80265338D01*
X139381580Y-80285023D01*
X139381584Y-80285024D01*
X139524000Y-80305500D01*
X141736181Y-80305500D01*
X141779514Y-80313318D01*
X141861217Y-80343791D01*
X141861216Y-80343791D01*
X141868144Y-80344535D01*
X141920827Y-80350200D01*
X143007172Y-80350199D01*
X143066783Y-80343791D01*
X143201631Y-80293496D01*
X143316846Y-80207246D01*
X143403096Y-80092031D01*
X143453391Y-79957183D01*
X143459800Y-79897573D01*
X143459799Y-78303228D01*
X143453391Y-78243617D01*
X143434059Y-78191786D01*
X143413318Y-78136175D01*
X143405500Y-78092842D01*
X143405500Y-76824010D01*
X143405500Y-76824000D01*
X143393947Y-76716544D01*
X143382741Y-76665033D01*
X143382637Y-76664722D01*
X143348616Y-76562502D01*
X143348613Y-76562496D01*
X143270828Y-76441462D01*
X143270825Y-76441457D01*
X143270820Y-76441451D01*
X143225076Y-76388659D01*
X143225072Y-76388656D01*
X143225070Y-76388653D01*
X143160958Y-76333099D01*
X143123186Y-76274322D01*
X143123186Y-76204452D01*
X143154479Y-76151710D01*
X143245340Y-76060850D01*
X143329143Y-75924983D01*
X145949500Y-75924983D01*
X145949500Y-76975001D01*
X145949501Y-76975019D01*
X145960000Y-77077796D01*
X145960001Y-77077799D01*
X146015185Y-77244331D01*
X146015187Y-77244336D01*
X146024481Y-77259404D01*
X146100873Y-77383256D01*
X146107289Y-77393657D01*
X146231345Y-77517713D01*
X146237013Y-77522195D01*
X146235958Y-77523528D01*
X146242703Y-77526609D01*
X146256375Y-77547884D01*
X146273296Y-77566678D01*
X146275949Y-77578342D01*
X146280477Y-77585387D01*
X146285500Y-77620322D01*
X146285500Y-77854867D01*
X146265815Y-77921906D01*
X146235812Y-77954133D01*
X146183157Y-77993550D01*
X146183151Y-77993557D01*
X146096906Y-78108764D01*
X146096902Y-78108771D01*
X146046608Y-78243617D01*
X146044941Y-78259128D01*
X146040201Y-78303223D01*
X146040200Y-78303235D01*
X146040200Y-79897570D01*
X146040201Y-79897576D01*
X146046608Y-79957183D01*
X146096902Y-80092028D01*
X146096906Y-80092035D01*
X146183152Y-80207244D01*
X146183155Y-80207247D01*
X146298364Y-80293493D01*
X146298371Y-80293497D01*
X146433217Y-80343791D01*
X146433216Y-80343791D01*
X146440144Y-80344535D01*
X146492827Y-80350200D01*
X147579172Y-80350199D01*
X147638783Y-80343791D01*
X147773631Y-80293496D01*
X147888846Y-80207246D01*
X147975096Y-80092031D01*
X148025391Y-79957183D01*
X148031800Y-79897573D01*
X148031799Y-78303228D01*
X148025391Y-78243617D01*
X148006059Y-78191786D01*
X147975097Y-78108771D01*
X147975093Y-78108764D01*
X147888848Y-77993557D01*
X147888846Y-77993554D01*
X147888844Y-77993552D01*
X147888842Y-77993550D01*
X147836188Y-77954133D01*
X147833451Y-77950477D01*
X147829297Y-77948580D01*
X147812705Y-77922762D01*
X147794318Y-77898199D01*
X147793302Y-77892571D01*
X147791523Y-77889802D01*
X147786500Y-77854867D01*
X147786500Y-77622173D01*
X147806185Y-77555134D01*
X147838753Y-77523164D01*
X147837987Y-77522195D01*
X147843654Y-77517713D01*
X147843653Y-77517713D01*
X147843656Y-77517712D01*
X147967712Y-77393656D01*
X148050519Y-77259402D01*
X148102467Y-77212679D01*
X148156058Y-77200500D01*
X149944259Y-77200500D01*
X150011298Y-77220185D01*
X150049798Y-77259404D01*
X150104499Y-77348090D01*
X150104660Y-77348350D01*
X150226650Y-77470340D01*
X150310597Y-77522119D01*
X150357321Y-77574064D01*
X150369500Y-77627656D01*
X150369500Y-78032441D01*
X150349815Y-78099480D01*
X150333181Y-78120122D01*
X150261519Y-78191783D01*
X150261519Y-78191784D01*
X150261517Y-78191786D01*
X150223860Y-78243616D01*
X150157386Y-78335109D01*
X150076957Y-78492957D01*
X150076956Y-78492960D01*
X150022214Y-78661443D01*
X149994500Y-78836421D01*
X149994500Y-79013578D01*
X150022214Y-79188556D01*
X150076956Y-79357039D01*
X150076957Y-79357042D01*
X150124332Y-79450019D01*
X150157386Y-79514890D01*
X150261517Y-79658214D01*
X150386786Y-79783483D01*
X150530110Y-79887614D01*
X150584464Y-79915309D01*
X150687957Y-79968042D01*
X150687960Y-79968043D01*
X150772201Y-79995414D01*
X150856445Y-80022786D01*
X151031421Y-80050500D01*
X151031422Y-80050500D01*
X151208578Y-80050500D01*
X151208579Y-80050500D01*
X151383555Y-80022786D01*
X151552042Y-79968042D01*
X151709890Y-79887614D01*
X151853214Y-79783483D01*
X151978483Y-79658214D01*
X152082614Y-79514890D01*
X152163042Y-79357042D01*
X152217786Y-79188555D01*
X152245500Y-79013579D01*
X152245500Y-78836421D01*
X152217786Y-78661445D01*
X152163042Y-78492958D01*
X152163042Y-78492957D01*
X152082613Y-78335109D01*
X152059450Y-78303228D01*
X151978483Y-78191786D01*
X151906819Y-78120122D01*
X151873334Y-78058799D01*
X151870500Y-78032441D01*
X151870500Y-77383256D01*
X151888962Y-77318159D01*
X151949393Y-77220185D01*
X151960908Y-77201516D01*
X152015174Y-77037753D01*
X152025500Y-76936677D01*
X152025499Y-76363324D01*
X152015174Y-76262247D01*
X151960908Y-76098484D01*
X151943647Y-76070500D01*
X151898961Y-75998051D01*
X151880500Y-75932955D01*
X151880500Y-68086079D01*
X151851659Y-67941092D01*
X151851658Y-67941091D01*
X151851658Y-67941087D01*
X151795084Y-67804505D01*
X151776440Y-67776603D01*
X151755564Y-67709930D01*
X151774048Y-67642549D01*
X151776442Y-67638824D01*
X151777136Y-67637784D01*
X151777139Y-67637782D01*
X151886632Y-67473914D01*
X151962051Y-67291835D01*
X151981526Y-67193930D01*
X152000500Y-67098543D01*
X152000500Y-66901456D01*
X151962052Y-66708170D01*
X151962051Y-66708169D01*
X151962051Y-66708165D01*
X151962049Y-66708160D01*
X151886635Y-66526092D01*
X151886628Y-66526079D01*
X151777139Y-66362218D01*
X151777136Y-66362214D01*
X151637785Y-66222863D01*
X151637781Y-66222860D01*
X151473920Y-66113371D01*
X151473907Y-66113364D01*
X151291839Y-66037950D01*
X151291829Y-66037947D01*
X151098543Y-65999500D01*
X151098541Y-65999500D01*
X150901459Y-65999500D01*
X150901457Y-65999500D01*
X150708170Y-66037947D01*
X150708160Y-66037950D01*
X150526092Y-66113364D01*
X150526079Y-66113371D01*
X150362218Y-66222860D01*
X150362214Y-66222863D01*
X150222863Y-66362214D01*
X150222860Y-66362218D01*
X150113371Y-66526079D01*
X150113364Y-66526092D01*
X150037950Y-66708160D01*
X150037947Y-66708170D01*
X149999500Y-66901456D01*
X149999500Y-66901459D01*
X149999500Y-67098541D01*
X149999500Y-67098543D01*
X149999499Y-67098543D01*
X150037947Y-67291829D01*
X150037950Y-67291839D01*
X150113364Y-67473907D01*
X150113371Y-67473920D01*
X150226245Y-67642847D01*
X150224717Y-67643867D01*
X150248666Y-67700255D01*
X150249500Y-67714610D01*
X150249500Y-68103918D01*
X150249500Y-68103920D01*
X150249499Y-68103920D01*
X150278340Y-68248907D01*
X150278343Y-68248917D01*
X150334914Y-68385492D01*
X150358602Y-68420943D01*
X150379480Y-68487620D01*
X150379500Y-68489834D01*
X150379500Y-75575500D01*
X150359815Y-75642539D01*
X150307011Y-75688294D01*
X150255500Y-75699500D01*
X148156058Y-75699500D01*
X148089019Y-75679815D01*
X148050519Y-75640597D01*
X147967712Y-75506344D01*
X147843656Y-75382288D01*
X147837989Y-75377807D01*
X147839430Y-75375984D01*
X147800175Y-75332335D01*
X147788000Y-75278752D01*
X147788000Y-74894552D01*
X147807685Y-74827513D01*
X147824319Y-74806871D01*
X147845209Y-74785981D01*
X147870340Y-74760850D01*
X147960908Y-74614016D01*
X148015174Y-74450253D01*
X148025500Y-74349177D01*
X148025499Y-73750824D01*
X148024555Y-73741587D01*
X148015174Y-73649747D01*
X147996515Y-73593439D01*
X147960908Y-73485984D01*
X147870340Y-73339150D01*
X147756371Y-73225181D01*
X147722886Y-73163858D01*
X147727870Y-73094166D01*
X147756371Y-73049819D01*
X147870340Y-72935850D01*
X147960908Y-72789016D01*
X148015174Y-72625253D01*
X148025500Y-72524177D01*
X148025499Y-71925824D01*
X148015174Y-71824747D01*
X147960908Y-71660984D01*
X147870340Y-71514150D01*
X147836819Y-71480629D01*
X147803334Y-71419306D01*
X147800500Y-71392948D01*
X147800500Y-70782052D01*
X147820185Y-70715013D01*
X147836819Y-70694371D01*
X147848565Y-70682625D01*
X147870340Y-70660850D01*
X147960908Y-70514016D01*
X148015174Y-70350253D01*
X148025500Y-70249177D01*
X148025499Y-69575824D01*
X148015174Y-69474747D01*
X147960908Y-69310984D01*
X147870340Y-69164150D01*
X147748350Y-69042160D01*
X147601516Y-68951592D01*
X147437753Y-68897326D01*
X147437751Y-68897325D01*
X147336678Y-68887000D01*
X146763330Y-68887000D01*
X146763312Y-68887001D01*
X146662247Y-68897325D01*
X146498484Y-68951592D01*
X146498481Y-68951593D01*
X146351648Y-69042161D01*
X146229661Y-69164148D01*
X146139093Y-69310981D01*
X146139092Y-69310984D01*
X146084826Y-69474747D01*
X146084826Y-69474748D01*
X146084825Y-69474748D01*
X146074500Y-69575815D01*
X146074500Y-70249169D01*
X146074501Y-70249187D01*
X146084825Y-70350252D01*
X146103567Y-70406809D01*
X146139092Y-70514016D01*
X146190015Y-70596576D01*
X146229661Y-70660851D01*
X146263181Y-70694371D01*
X146296666Y-70755694D01*
X146299500Y-70782052D01*
X146299500Y-71392948D01*
X146279815Y-71459987D01*
X146263181Y-71480629D01*
X146229661Y-71514148D01*
X146139093Y-71660981D01*
X146139091Y-71660986D01*
X146116388Y-71729500D01*
X146084826Y-71824747D01*
X146084826Y-71824748D01*
X146084825Y-71824748D01*
X146074500Y-71925815D01*
X146074500Y-72524169D01*
X146074501Y-72524187D01*
X146084825Y-72625252D01*
X146139092Y-72789015D01*
X146139093Y-72789018D01*
X146153304Y-72812058D01*
X146222121Y-72923628D01*
X146229661Y-72935851D01*
X146343629Y-73049819D01*
X146377114Y-73111142D01*
X146372130Y-73180834D01*
X146343629Y-73225181D01*
X146229661Y-73339148D01*
X146139093Y-73485981D01*
X146139091Y-73485986D01*
X146131053Y-73510244D01*
X146084826Y-73649747D01*
X146084826Y-73649748D01*
X146084825Y-73649748D01*
X146074500Y-73750815D01*
X146074500Y-74349169D01*
X146074501Y-74349187D01*
X146084825Y-74450252D01*
X146139092Y-74614015D01*
X146139093Y-74614018D01*
X146229661Y-74760851D01*
X146250681Y-74781871D01*
X146284166Y-74843194D01*
X146287000Y-74869552D01*
X146287000Y-75278752D01*
X146267315Y-75345791D01*
X146236002Y-75376531D01*
X146237011Y-75377807D01*
X146231343Y-75382288D01*
X146107289Y-75506342D01*
X146015187Y-75655663D01*
X146015186Y-75655666D01*
X145960001Y-75822203D01*
X145960001Y-75822204D01*
X145960000Y-75822204D01*
X145949500Y-75924983D01*
X143329143Y-75924983D01*
X143335908Y-75914016D01*
X143390174Y-75750253D01*
X143400500Y-75649177D01*
X143400499Y-75050824D01*
X143390174Y-74949747D01*
X143335908Y-74785984D01*
X143245340Y-74639150D01*
X143211819Y-74605629D01*
X143178334Y-74544306D01*
X143175500Y-74517948D01*
X143175500Y-73932052D01*
X143195185Y-73865013D01*
X143211819Y-73844371D01*
X143245340Y-73810850D01*
X143335908Y-73664016D01*
X143390174Y-73500253D01*
X143400500Y-73399177D01*
X143400499Y-72725824D01*
X143390174Y-72624747D01*
X143335908Y-72460984D01*
X143245340Y-72314150D01*
X143123350Y-72192160D01*
X142976516Y-72101592D01*
X142812753Y-72047326D01*
X142812751Y-72047325D01*
X142711678Y-72037000D01*
X142138330Y-72037000D01*
X142138312Y-72037001D01*
X142037247Y-72047325D01*
X141873484Y-72101592D01*
X141873481Y-72101593D01*
X141726648Y-72192161D01*
X141712181Y-72206629D01*
X141650858Y-72240114D01*
X141581166Y-72235130D01*
X141525233Y-72193258D01*
X141500816Y-72127794D01*
X141500500Y-72118948D01*
X141500500Y-69662229D01*
X141520185Y-69595190D01*
X141536819Y-69574548D01*
X142289784Y-68821583D01*
X143075379Y-68035987D01*
X143136700Y-68002504D01*
X143145176Y-68001169D01*
X143148539Y-68000500D01*
X143148541Y-68000500D01*
X143341835Y-67962051D01*
X143523914Y-67886632D01*
X143687782Y-67777139D01*
X143827139Y-67637782D01*
X143936632Y-67473914D01*
X144012051Y-67291835D01*
X144031526Y-67193930D01*
X144050500Y-67098543D01*
X144050500Y-66901456D01*
X144012052Y-66708170D01*
X144012051Y-66708169D01*
X144012051Y-66708165D01*
X144012049Y-66708160D01*
X143936635Y-66526092D01*
X143936628Y-66526079D01*
X143827139Y-66362218D01*
X143827136Y-66362214D01*
X143687785Y-66222863D01*
X143687781Y-66222860D01*
X143523920Y-66113371D01*
X143523907Y-66113364D01*
X143341839Y-66037950D01*
X143341829Y-66037947D01*
X143148543Y-65999500D01*
X143148541Y-65999500D01*
X142951459Y-65999500D01*
X142951457Y-65999500D01*
X142758170Y-66037947D01*
X142758160Y-66037950D01*
X142576092Y-66113364D01*
X142576079Y-66113371D01*
X142412218Y-66222860D01*
X142412214Y-66222863D01*
X142272863Y-66362214D01*
X142272860Y-66362218D01*
X142163371Y-66526079D01*
X142163364Y-66526092D01*
X142087950Y-66708160D01*
X142087947Y-66708170D01*
X142048311Y-66907434D01*
X142046514Y-66907076D01*
X142023555Y-66963902D01*
X142014010Y-66974621D01*
X140167048Y-68821583D01*
X140145121Y-68854400D01*
X140123339Y-68887001D01*
X140116441Y-68897325D01*
X140084916Y-68944504D01*
X140084912Y-68944511D01*
X140028343Y-69081082D01*
X140028340Y-69081092D01*
X139999500Y-69226079D01*
X139999500Y-76070500D01*
X139979815Y-76137539D01*
X139927011Y-76183294D01*
X139875500Y-76194500D01*
X139524000Y-76194500D01*
X139523991Y-76194500D01*
X139523990Y-76194501D01*
X139416549Y-76206052D01*
X139416537Y-76206054D01*
X139365027Y-76217260D01*
X139262502Y-76251383D01*
X139262496Y-76251386D01*
X139141462Y-76329171D01*
X139141451Y-76329179D01*
X139088659Y-76374923D01*
X138994433Y-76483664D01*
X138994430Y-76483668D01*
X138934664Y-76614534D01*
X138914976Y-76681582D01*
X138909949Y-76716549D01*
X138894502Y-76823990D01*
X138894500Y-76824001D01*
X138894500Y-78523526D01*
X138893388Y-78540098D01*
X138891843Y-78551554D01*
X138885001Y-78572203D01*
X138874500Y-78674991D01*
X138550500Y-78674991D01*
X138550500Y-67714610D01*
X138570185Y-67647571D01*
X138575228Y-67640641D01*
X138577136Y-67637784D01*
X138577139Y-67637782D01*
X138686632Y-67473914D01*
X138762051Y-67291835D01*
X138781526Y-67193930D01*
X138800500Y-67098543D01*
X138800500Y-66901456D01*
X138762052Y-66708170D01*
X138762051Y-66708169D01*
X138762051Y-66708165D01*
X138762049Y-66708160D01*
X138686635Y-66526092D01*
X138686628Y-66526079D01*
X138577139Y-66362218D01*
X138577136Y-66362214D01*
X138437785Y-66222863D01*
X138437781Y-66222860D01*
X138273920Y-66113371D01*
X138273907Y-66113364D01*
X138091839Y-66037950D01*
X138091829Y-66037947D01*
X137898543Y-65999500D01*
X137898541Y-65999500D01*
X137701459Y-65999500D01*
X137701457Y-65999500D01*
X137508170Y-66037947D01*
X137508160Y-66037950D01*
X137326092Y-66113364D01*
X137326079Y-66113371D01*
X137162218Y-66222860D01*
X137162214Y-66222863D01*
X137022863Y-66362214D01*
X137022860Y-66362218D01*
X136982602Y-66422469D01*
X136928990Y-66467274D01*
X136859665Y-66475981D01*
X136796637Y-66445826D01*
X136759918Y-66386383D01*
X136755500Y-66353578D01*
X136755500Y-66124010D01*
X136755500Y-66124000D01*
X136743947Y-66016544D01*
X136732741Y-65965033D01*
X136732637Y-65964722D01*
X136698616Y-65862502D01*
X136698613Y-65862496D01*
X136620828Y-65741462D01*
X136620825Y-65741457D01*
X136620820Y-65741451D01*
X136575076Y-65688659D01*
X136575072Y-65688656D01*
X136575070Y-65688653D01*
X136466336Y-65594433D01*
X136466333Y-65594431D01*
X136466331Y-65594430D01*
X136335465Y-65534664D01*
X136335460Y-65534662D01*
X136335459Y-65534662D01*
X136268420Y-65514977D01*
X136268422Y-65514977D01*
X136268417Y-65514976D01*
X136206347Y-65506052D01*
X136126000Y-65494500D01*
X125124000Y-65494500D01*
X125123991Y-65494500D01*
X125123990Y-65494501D01*
X125016549Y-65506052D01*
X125016537Y-65506054D01*
X124965027Y-65517260D01*
X124862502Y-65551383D01*
X124862496Y-65551386D01*
X124741462Y-65629171D01*
X124741451Y-65629179D01*
X124688659Y-65674923D01*
X124594433Y-65783664D01*
X124594430Y-65783668D01*
X124534664Y-65914534D01*
X124514976Y-65981582D01*
X124509949Y-66016549D01*
X124494502Y-66123990D01*
X124494500Y-66124001D01*
X124494500Y-66982849D01*
X124474815Y-67049888D01*
X124422011Y-67095643D01*
X124352853Y-67105587D01*
X124318988Y-67095643D01*
X124185465Y-67034664D01*
X124185460Y-67034662D01*
X124185459Y-67034662D01*
X124118420Y-67014977D01*
X124118422Y-67014977D01*
X124118417Y-67014976D01*
X124056347Y-67006052D01*
X123976000Y-66994500D01*
X114024000Y-66994500D01*
X114023991Y-66994500D01*
X114023990Y-66994501D01*
X113916549Y-67006052D01*
X113916537Y-67006054D01*
X113865027Y-67017260D01*
X113762502Y-67051383D01*
X113762496Y-67051386D01*
X113641462Y-67129171D01*
X113641451Y-67129179D01*
X113588659Y-67174923D01*
X113494433Y-67283664D01*
X113494430Y-67283668D01*
X113434664Y-67414534D01*
X113414976Y-67481582D01*
X113406914Y-67537655D01*
X113394500Y-67624000D01*
X113394500Y-70388868D01*
X113404461Y-70470527D01*
X113409322Y-70510382D01*
X113409322Y-70510383D01*
X113420069Y-70553779D01*
X113423652Y-70568246D01*
X113467247Y-70682630D01*
X113467248Y-70682631D01*
X113539479Y-70782052D01*
X113551816Y-70799032D01*
X113551820Y-70799036D01*
X113551825Y-70799042D01*
X113600503Y-70849131D01*
X113600510Y-70849138D01*
X113600513Y-70849140D01*
X113600516Y-70849143D01*
X113629336Y-70871367D01*
X113670404Y-70927893D01*
X113674392Y-70997649D01*
X113664101Y-71025854D01*
X113648445Y-71056581D01*
X113582753Y-71258760D01*
X113549500Y-71468713D01*
X113549500Y-72181286D01*
X113578350Y-72363442D01*
X113582754Y-72391243D01*
X113646819Y-72588415D01*
X113648445Y-72593417D01*
X113663361Y-72622692D01*
X113676257Y-72691361D01*
X113649980Y-72756101D01*
X113634079Y-72772699D01*
X113588656Y-72812058D01*
X113494433Y-72920795D01*
X113494430Y-72920799D01*
X113434664Y-73051665D01*
X113414976Y-73118713D01*
X113394500Y-73261132D01*
X113394500Y-79813325D01*
X113374815Y-79880364D01*
X113322011Y-79926119D01*
X113252853Y-79936063D01*
X113200902Y-79914184D01*
X113200151Y-79915309D01*
X113196780Y-79913057D01*
X113196774Y-79913052D01*
X113003726Y-79801595D01*
X113003722Y-79801593D01*
X112797790Y-79716293D01*
X112797783Y-79716291D01*
X112797781Y-79716290D01*
X112582463Y-79658596D01*
X112582457Y-79658595D01*
X112582452Y-79658594D01*
X112361466Y-79629501D01*
X112361463Y-79629500D01*
X112361457Y-79629500D01*
X112138543Y-79629500D01*
X112138537Y-79629500D01*
X112138533Y-79629501D01*
X111917547Y-79658594D01*
X111917540Y-79658595D01*
X111917537Y-79658596D01*
X111786437Y-79693724D01*
X111702219Y-79716290D01*
X111702209Y-79716293D01*
X111496277Y-79801593D01*
X111496273Y-79801595D01*
X111303226Y-79913052D01*
X111303217Y-79913058D01*
X111126377Y-80048751D01*
X111126370Y-80048757D01*
X110968757Y-80206370D01*
X110968751Y-80206377D01*
X110833058Y-80383217D01*
X110833052Y-80383226D01*
X110721595Y-80576273D01*
X110721593Y-80576277D01*
X110636293Y-80782209D01*
X110636290Y-80782219D01*
X110579936Y-80992538D01*
X110578597Y-80997534D01*
X110578594Y-80997547D01*
X110549501Y-81218533D01*
X110549500Y-81218549D01*
X110549500Y-81441450D01*
X110549501Y-81441466D01*
X110578594Y-81662452D01*
X110578595Y-81662457D01*
X110578596Y-81662463D01*
X110634953Y-81872790D01*
X110636290Y-81877780D01*
X110636293Y-81877790D01*
X110719522Y-82078722D01*
X110721595Y-82083726D01*
X110833052Y-82276774D01*
X110833057Y-82276780D01*
X110833058Y-82276782D01*
X110968751Y-82453622D01*
X110968757Y-82453629D01*
X111126370Y-82611242D01*
X111126376Y-82611247D01*
X111303226Y-82746948D01*
X111496274Y-82858405D01*
X111702219Y-82943710D01*
X111917537Y-83001404D01*
X112138543Y-83030500D01*
X112138550Y-83030500D01*
X112361450Y-83030500D01*
X112361457Y-83030500D01*
X112582463Y-83001404D01*
X112797781Y-82943710D01*
X113003726Y-82858405D01*
X113196774Y-82746948D01*
X113196790Y-82746935D01*
X113200151Y-82744691D01*
X113201016Y-82745986D01*
X113260145Y-82723107D01*
X113328594Y-82737125D01*
X113378599Y-82785924D01*
X113394500Y-82846674D01*
X113394500Y-89733325D01*
X113374815Y-89800364D01*
X113322011Y-89846119D01*
X113252853Y-89856063D01*
X113200902Y-89834184D01*
X113200151Y-89835309D01*
X113196780Y-89833057D01*
X113196774Y-89833052D01*
X113003726Y-89721595D01*
X113003722Y-89721593D01*
X112797790Y-89636293D01*
X112797783Y-89636291D01*
X112797781Y-89636290D01*
X112582463Y-89578596D01*
X112582457Y-89578595D01*
X112582452Y-89578594D01*
X112361466Y-89549501D01*
X112361463Y-89549500D01*
X112361457Y-89549500D01*
X112138543Y-89549500D01*
X112138537Y-89549500D01*
X112138533Y-89549501D01*
X111917547Y-89578594D01*
X111917540Y-89578595D01*
X111917537Y-89578596D01*
X111753072Y-89622664D01*
X111702219Y-89636290D01*
X111702209Y-89636293D01*
X111496277Y-89721593D01*
X111496273Y-89721595D01*
X111303226Y-89833052D01*
X111303217Y-89833058D01*
X111126377Y-89968751D01*
X111126370Y-89968757D01*
X110968757Y-90126370D01*
X110968751Y-90126377D01*
X110833058Y-90303217D01*
X110833052Y-90303226D01*
X110721595Y-90496273D01*
X110721593Y-90496277D01*
X110636293Y-90702209D01*
X110636290Y-90702219D01*
X110585260Y-90892669D01*
X110578597Y-90917534D01*
X110578594Y-90917547D01*
X110549501Y-91138533D01*
X110549500Y-91138549D01*
X110549500Y-91361450D01*
X110549501Y-91361466D01*
X110578594Y-91582452D01*
X110578595Y-91582457D01*
X110578596Y-91582463D01*
X110634953Y-91792790D01*
X110636290Y-91797780D01*
X110636293Y-91797790D01*
X110719522Y-91998722D01*
X110721595Y-92003726D01*
X110833052Y-92196774D01*
X110833057Y-92196780D01*
X110833058Y-92196782D01*
X110968751Y-92373622D01*
X110968757Y-92373629D01*
X111126370Y-92531242D01*
X111126376Y-92531247D01*
X111303226Y-92666948D01*
X111496274Y-92778405D01*
X111499688Y-92779819D01*
X111661534Y-92846858D01*
X111702219Y-92863710D01*
X111917537Y-92921404D01*
X112138543Y-92950500D01*
X112138550Y-92950500D01*
X112361450Y-92950500D01*
X112361457Y-92950500D01*
X112582463Y-92921404D01*
X112797781Y-92863710D01*
X113003726Y-92778405D01*
X113196774Y-92666948D01*
X113196790Y-92666935D01*
X113200151Y-92664691D01*
X113201016Y-92665986D01*
X113260145Y-92643107D01*
X113328594Y-92657125D01*
X113378599Y-92705924D01*
X113394500Y-92766674D01*
X113394500Y-97570500D01*
X113374815Y-97637539D01*
X113322011Y-97683294D01*
X113270500Y-97694500D01*
X105824000Y-97694500D01*
X105823991Y-97694500D01*
X105823990Y-97694501D01*
X105716549Y-97706052D01*
X105716537Y-97706054D01*
X105665027Y-97717260D01*
X105562502Y-97751383D01*
X105562496Y-97751386D01*
X105441462Y-97829171D01*
X105441451Y-97829179D01*
X105388659Y-97874923D01*
X105294433Y-97983664D01*
X105294430Y-97983668D01*
X105234664Y-98114534D01*
X105214976Y-98181582D01*
X105212091Y-98201648D01*
X105194500Y-98324000D01*
X100440500Y-98324000D01*
X100440500Y-91133549D01*
X101378133Y-91133549D01*
X101378133Y-91356450D01*
X101378134Y-91356466D01*
X101407227Y-91577452D01*
X101407228Y-91577457D01*
X101407229Y-91577463D01*
X101463955Y-91789169D01*
X101464923Y-91792780D01*
X101464926Y-91792790D01*
X101550226Y-91998722D01*
X101550228Y-91998726D01*
X101661685Y-92191774D01*
X101661690Y-92191780D01*
X101661691Y-92191782D01*
X101797384Y-92368622D01*
X101797390Y-92368629D01*
X101955003Y-92526242D01*
X101955010Y-92526248D01*
X101961525Y-92531247D01*
X102131859Y-92661948D01*
X102324907Y-92773405D01*
X102336981Y-92778406D01*
X102502238Y-92846858D01*
X102530852Y-92858710D01*
X102746170Y-92916404D01*
X102967176Y-92945500D01*
X102967183Y-92945500D01*
X103190083Y-92945500D01*
X103190090Y-92945500D01*
X103411096Y-92916404D01*
X103626414Y-92858710D01*
X103832359Y-92773405D01*
X104025407Y-92661948D01*
X104202257Y-92526247D01*
X104359880Y-92368624D01*
X104495581Y-92191774D01*
X104573105Y-92057498D01*
X104581792Y-92049215D01*
X104586779Y-92038297D01*
X104606609Y-92025552D01*
X104623672Y-92009284D01*
X104636928Y-92006068D01*
X104645557Y-92000523D01*
X104680492Y-91995500D01*
X104876774Y-91995500D01*
X104943813Y-92015185D01*
X104984160Y-92057498D01*
X105061685Y-92191774D01*
X105061690Y-92191780D01*
X105061691Y-92191782D01*
X105197384Y-92368622D01*
X105197390Y-92368629D01*
X105355003Y-92526242D01*
X105355010Y-92526248D01*
X105361525Y-92531247D01*
X105531859Y-92661948D01*
X105666134Y-92739472D01*
X105714349Y-92790038D01*
X105728133Y-92846858D01*
X105728133Y-95194155D01*
X105708448Y-95261194D01*
X105663559Y-95302988D01*
X105657663Y-95306206D01*
X105542455Y-95392452D01*
X105542452Y-95392455D01*
X105456206Y-95507664D01*
X105456202Y-95507671D01*
X105405908Y-95642517D01*
X105399501Y-95702116D01*
X105399501Y-95702123D01*
X105399500Y-95702135D01*
X105399500Y-96647870D01*
X105399501Y-96647876D01*
X105405908Y-96707483D01*
X105456202Y-96842328D01*
X105456206Y-96842335D01*
X105542452Y-96957544D01*
X105542455Y-96957547D01*
X105657664Y-97043793D01*
X105657671Y-97043797D01*
X105792517Y-97094091D01*
X105792516Y-97094091D01*
X105793735Y-97094222D01*
X105852127Y-97100500D01*
X107147872Y-97100499D01*
X107207483Y-97094091D01*
X107342331Y-97043796D01*
X107457546Y-96957546D01*
X107543796Y-96842331D01*
X107594091Y-96707483D01*
X107600500Y-96647873D01*
X107600499Y-95702128D01*
X107594091Y-95642517D01*
X107543796Y-95507669D01*
X107543795Y-95507668D01*
X107543793Y-95507664D01*
X107457547Y-95392455D01*
X107457544Y-95392452D01*
X107342334Y-95306205D01*
X107309797Y-95294069D01*
X107253864Y-95252196D01*
X107229449Y-95186731D01*
X107229133Y-95177888D01*
X107229133Y-92846858D01*
X107248818Y-92779819D01*
X107291131Y-92739472D01*
X107425407Y-92661948D01*
X107602257Y-92526247D01*
X107759880Y-92368624D01*
X107895581Y-92191774D01*
X108007038Y-91998726D01*
X108092343Y-91792781D01*
X108150037Y-91577463D01*
X108179133Y-91356457D01*
X108179133Y-91133543D01*
X108150037Y-90912537D01*
X108092343Y-90697219D01*
X108076443Y-90658834D01*
X108047576Y-90589142D01*
X108007038Y-90491274D01*
X107895581Y-90298226D01*
X107792598Y-90164015D01*
X107759881Y-90121377D01*
X107759875Y-90121370D01*
X107602262Y-89963757D01*
X107602255Y-89963751D01*
X107425415Y-89828058D01*
X107425413Y-89828057D01*
X107425407Y-89828052D01*
X107232359Y-89716595D01*
X107232355Y-89716593D01*
X107026423Y-89631293D01*
X107026416Y-89631291D01*
X107026414Y-89631290D01*
X106811096Y-89573596D01*
X106811090Y-89573595D01*
X106811085Y-89573594D01*
X106590099Y-89544501D01*
X106590096Y-89544500D01*
X106590090Y-89544500D01*
X106367176Y-89544500D01*
X106367170Y-89544500D01*
X106367166Y-89544501D01*
X106146180Y-89573594D01*
X106146173Y-89573595D01*
X106146170Y-89573596D01*
X105963045Y-89622664D01*
X105930852Y-89631290D01*
X105930842Y-89631293D01*
X105724910Y-89716593D01*
X105724906Y-89716595D01*
X105531859Y-89828052D01*
X105531850Y-89828058D01*
X105355010Y-89963751D01*
X105355003Y-89963757D01*
X105197390Y-90121370D01*
X105197384Y-90121377D01*
X105061691Y-90298217D01*
X105061685Y-90298226D01*
X105054397Y-90310850D01*
X104984161Y-90432501D01*
X104975473Y-90440784D01*
X104970487Y-90451703D01*
X104950656Y-90464447D01*
X104933594Y-90480716D01*
X104920337Y-90483931D01*
X104911709Y-90489477D01*
X104876774Y-90494500D01*
X104680492Y-90494500D01*
X104613453Y-90474815D01*
X104573105Y-90432501D01*
X104557628Y-90405694D01*
X104495581Y-90298226D01*
X104392598Y-90164015D01*
X104359881Y-90121377D01*
X104359875Y-90121370D01*
X104202262Y-89963757D01*
X104202255Y-89963751D01*
X104025415Y-89828058D01*
X104025413Y-89828057D01*
X104025407Y-89828052D01*
X103832359Y-89716595D01*
X103832355Y-89716593D01*
X103626423Y-89631293D01*
X103626416Y-89631291D01*
X103626414Y-89631290D01*
X103411096Y-89573596D01*
X103411090Y-89573595D01*
X103411085Y-89573594D01*
X103190099Y-89544501D01*
X103190096Y-89544500D01*
X103190090Y-89544500D01*
X102967176Y-89544500D01*
X102967170Y-89544500D01*
X102967166Y-89544501D01*
X102746180Y-89573594D01*
X102746173Y-89573595D01*
X102746170Y-89573596D01*
X102563045Y-89622664D01*
X102530852Y-89631290D01*
X102530842Y-89631293D01*
X102324910Y-89716593D01*
X102324906Y-89716595D01*
X102131859Y-89828052D01*
X102131850Y-89828058D01*
X101955010Y-89963751D01*
X101955003Y-89963757D01*
X101797390Y-90121370D01*
X101797384Y-90121377D01*
X101661691Y-90298217D01*
X101661685Y-90298226D01*
X101550228Y-90491273D01*
X101550226Y-90491277D01*
X101464926Y-90697209D01*
X101464923Y-90697219D01*
X101414638Y-90884888D01*
X101407230Y-90912534D01*
X101407227Y-90912547D01*
X101378134Y-91133533D01*
X101378133Y-91133549D01*
X100440500Y-91133549D01*
X100440500Y-81213549D01*
X101378133Y-81213549D01*
X101378133Y-81436450D01*
X101378134Y-81436466D01*
X101407227Y-81657452D01*
X101407228Y-81657457D01*
X101407229Y-81657463D01*
X101464923Y-81872780D01*
X101464926Y-81872790D01*
X101550226Y-82078722D01*
X101550228Y-82078726D01*
X101661685Y-82271774D01*
X101661690Y-82271780D01*
X101661691Y-82271782D01*
X101797384Y-82448622D01*
X101797390Y-82448629D01*
X101955003Y-82606242D01*
X101955010Y-82606248D01*
X101961525Y-82611247D01*
X102131859Y-82741948D01*
X102324907Y-82853405D01*
X102530852Y-82938710D01*
X102746170Y-82996404D01*
X102967176Y-83025500D01*
X102967183Y-83025500D01*
X103190083Y-83025500D01*
X103190090Y-83025500D01*
X103411096Y-82996404D01*
X103626414Y-82938710D01*
X103832359Y-82853405D01*
X104025407Y-82741948D01*
X104202257Y-82606247D01*
X104359880Y-82448624D01*
X104495581Y-82271774D01*
X104573105Y-82137498D01*
X104581792Y-82129215D01*
X104586779Y-82118297D01*
X104606609Y-82105552D01*
X104623672Y-82089284D01*
X104636928Y-82086068D01*
X104645557Y-82080523D01*
X104680492Y-82075500D01*
X104876774Y-82075500D01*
X104943813Y-82095185D01*
X104984160Y-82137498D01*
X105061685Y-82271774D01*
X105061690Y-82271780D01*
X105061691Y-82271782D01*
X105197384Y-82448622D01*
X105197390Y-82448629D01*
X105355003Y-82606242D01*
X105355010Y-82606248D01*
X105361525Y-82611247D01*
X105531859Y-82741948D01*
X105724907Y-82853405D01*
X105930852Y-82938710D01*
X106146170Y-82996404D01*
X106367176Y-83025500D01*
X106367183Y-83025500D01*
X106590083Y-83025500D01*
X106590090Y-83025500D01*
X106811096Y-82996404D01*
X107026414Y-82938710D01*
X107232359Y-82853405D01*
X107425407Y-82741948D01*
X107602257Y-82606247D01*
X107759880Y-82448624D01*
X107895581Y-82271774D01*
X108007038Y-82078726D01*
X108092343Y-81872781D01*
X108150037Y-81657463D01*
X108179133Y-81436457D01*
X108179133Y-81213543D01*
X108150037Y-80992537D01*
X108109907Y-80842769D01*
X108111570Y-80772923D01*
X108141999Y-80723000D01*
X110482952Y-78382048D01*
X110514315Y-78335110D01*
X110565084Y-78259128D01*
X110592978Y-78191786D01*
X110621659Y-78122545D01*
X110650500Y-77977550D01*
X110650500Y-77829715D01*
X110650500Y-74122702D01*
X110670185Y-74055663D01*
X110722989Y-74009908D01*
X110792147Y-73999964D01*
X110821948Y-74008139D01*
X110886167Y-74034740D01*
X110886171Y-74034740D01*
X110886172Y-74034741D01*
X111060912Y-74069500D01*
X111060915Y-74069500D01*
X111239087Y-74069500D01*
X111356649Y-74046114D01*
X111413833Y-74034740D01*
X111578441Y-73966557D01*
X111726585Y-73867571D01*
X111852571Y-73741585D01*
X111951557Y-73593441D01*
X112019740Y-73428833D01*
X112050216Y-73275622D01*
X112054500Y-73254087D01*
X112054500Y-73075912D01*
X112019741Y-72901172D01*
X112019740Y-72901171D01*
X112019740Y-72901167D01*
X111951557Y-72736559D01*
X111852571Y-72588415D01*
X111852569Y-72588412D01*
X111726587Y-72462430D01*
X111620041Y-72391239D01*
X111578441Y-72363443D01*
X111459438Y-72314150D01*
X111413831Y-72295259D01*
X111413829Y-72295258D01*
X111360307Y-72284612D01*
X111298397Y-72252226D01*
X111263823Y-72191510D01*
X111260500Y-72162995D01*
X111260500Y-70975002D01*
X111250787Y-70876383D01*
X111250787Y-70876380D01*
X111231376Y-70778796D01*
X111217994Y-70726366D01*
X111155897Y-70596576D01*
X111100620Y-70513848D01*
X111068191Y-70470527D01*
X110961152Y-70374380D01*
X110878424Y-70319103D01*
X110878423Y-70319102D01*
X110831887Y-70291491D01*
X110831886Y-70291490D01*
X110696210Y-70243625D01*
X110696204Y-70243624D01*
X110648065Y-70234048D01*
X110598616Y-70224212D01*
X110524188Y-70216882D01*
X110500000Y-70214500D01*
X109300000Y-70214500D01*
X109278453Y-70216622D01*
X109201383Y-70224212D01*
X109103793Y-70243624D01*
X109103771Y-70243629D01*
X109051371Y-70257004D01*
X109051367Y-70257005D01*
X108921572Y-70319105D01*
X108838854Y-70374375D01*
X108838840Y-70374385D01*
X108795527Y-70406809D01*
X108699377Y-70513851D01*
X108699377Y-70513852D01*
X108644102Y-70596576D01*
X108616491Y-70643112D01*
X108616490Y-70643113D01*
X108568625Y-70778789D01*
X108568624Y-70778796D01*
X108549212Y-70876383D01*
X108543519Y-70934191D01*
X108539500Y-70975000D01*
X108539500Y-72675000D01*
X108542683Y-72707319D01*
X108549212Y-72773616D01*
X108568624Y-72871206D01*
X108568629Y-72871228D01*
X108581281Y-72920795D01*
X108582006Y-72923634D01*
X108644103Y-73053424D01*
X108644104Y-73053426D01*
X108644105Y-73053427D01*
X108687727Y-73118713D01*
X108699380Y-73136152D01*
X108731809Y-73179473D01*
X108838848Y-73275620D01*
X108921576Y-73330897D01*
X108968112Y-73358508D01*
X109066754Y-73393308D01*
X109123425Y-73434174D01*
X109149007Y-73499192D01*
X109149500Y-73510244D01*
X109149500Y-77541402D01*
X109129815Y-77608441D01*
X109113181Y-77629083D01*
X107080633Y-79661630D01*
X107019310Y-79695115D01*
X106960860Y-79693724D01*
X106841079Y-79661630D01*
X106811096Y-79653596D01*
X106811090Y-79653595D01*
X106811085Y-79653594D01*
X106590099Y-79624501D01*
X106590096Y-79624500D01*
X106590090Y-79624500D01*
X106367176Y-79624500D01*
X106367170Y-79624500D01*
X106367166Y-79624501D01*
X106146180Y-79653594D01*
X106146173Y-79653595D01*
X106146170Y-79653596D01*
X105996410Y-79693724D01*
X105930852Y-79711290D01*
X105930842Y-79711293D01*
X105724910Y-79796593D01*
X105724906Y-79796595D01*
X105531859Y-79908052D01*
X105531850Y-79908058D01*
X105355010Y-80043751D01*
X105355003Y-80043757D01*
X105197390Y-80201370D01*
X105197384Y-80201377D01*
X105061691Y-80378217D01*
X105061685Y-80378226D01*
X104984161Y-80512501D01*
X104975473Y-80520784D01*
X104970487Y-80531703D01*
X104950656Y-80544447D01*
X104933594Y-80560716D01*
X104920337Y-80563931D01*
X104911709Y-80569477D01*
X104876774Y-80574500D01*
X104680492Y-80574500D01*
X104613453Y-80554815D01*
X104573105Y-80512501D01*
X104495581Y-80378226D01*
X104430566Y-80293496D01*
X104359881Y-80201377D01*
X104359875Y-80201370D01*
X104202262Y-80043757D01*
X104202255Y-80043751D01*
X104025415Y-79908058D01*
X104025413Y-79908057D01*
X104025407Y-79908052D01*
X103832359Y-79796595D01*
X103832355Y-79796593D01*
X103626423Y-79711293D01*
X103626416Y-79711291D01*
X103626414Y-79711290D01*
X103411096Y-79653596D01*
X103411090Y-79653595D01*
X103411085Y-79653594D01*
X103190099Y-79624501D01*
X103190096Y-79624500D01*
X103190090Y-79624500D01*
X102967176Y-79624500D01*
X102967170Y-79624500D01*
X102967166Y-79624501D01*
X102746180Y-79653594D01*
X102746173Y-79653595D01*
X102746170Y-79653596D01*
X102596410Y-79693724D01*
X102530852Y-79711290D01*
X102530842Y-79711293D01*
X102324910Y-79796593D01*
X102324906Y-79796595D01*
X102131859Y-79908052D01*
X102131850Y-79908058D01*
X101955010Y-80043751D01*
X101955003Y-80043757D01*
X101797390Y-80201370D01*
X101797384Y-80201377D01*
X101661691Y-80378217D01*
X101661685Y-80378226D01*
X101550228Y-80571273D01*
X101550226Y-80571277D01*
X101464926Y-80777209D01*
X101464923Y-80777219D01*
X101407230Y-80992534D01*
X101407227Y-80992547D01*
X101378134Y-81213533D01*
X101378133Y-81213549D01*
X100440500Y-81213549D01*
X100440500Y-65566330D01*
X100460185Y-65499291D01*
X100512989Y-65453536D01*
X100582147Y-65443592D01*
X100645703Y-65472617D01*
X100670861Y-65502585D01*
X100672152Y-65504740D01*
X100874140Y-65807035D01*
X100874150Y-65807049D01*
X101104807Y-66088106D01*
X101361893Y-66345192D01*
X101361898Y-66345196D01*
X101361899Y-66345197D01*
X101642956Y-66575854D01*
X101945268Y-66777853D01*
X101945277Y-66777858D01*
X101945279Y-66777859D01*
X102265916Y-66949243D01*
X102265918Y-66949243D01*
X102265924Y-66949247D01*
X102601836Y-67088386D01*
X102949767Y-67193930D01*
X102949773Y-67193931D01*
X102949776Y-67193932D01*
X102949787Y-67193935D01*
X103306369Y-67264862D01*
X103668206Y-67300500D01*
X103668209Y-67300500D01*
X104031791Y-67300500D01*
X104031794Y-67300500D01*
X104393631Y-67264862D01*
X104511297Y-67241457D01*
X104750212Y-67193935D01*
X104750223Y-67193932D01*
X104750223Y-67193931D01*
X104750233Y-67193930D01*
X105098164Y-67088386D01*
X105434076Y-66949247D01*
X105754732Y-66777853D01*
X106057044Y-66575854D01*
X106338101Y-66345197D01*
X106595197Y-66088101D01*
X106825854Y-65807044D01*
X107027853Y-65504732D01*
X107199247Y-65184076D01*
X107338386Y-64848164D01*
X107443930Y-64500233D01*
X107443932Y-64500223D01*
X107443935Y-64500212D01*
X107514862Y-64143630D01*
X107550500Y-63781790D01*
X107550500Y-63418209D01*
X107514862Y-63056369D01*
X107443935Y-62699787D01*
X107443932Y-62699776D01*
X107443931Y-62699773D01*
X107443930Y-62699767D01*
X107338386Y-62351836D01*
X107199247Y-62015924D01*
X107027853Y-61695268D01*
X106825854Y-61392956D01*
X106595197Y-61111899D01*
X106595196Y-61111898D01*
X106595192Y-61111893D01*
X106338106Y-60854807D01*
X106057049Y-60624150D01*
X106057048Y-60624149D01*
X106057044Y-60624146D01*
X105754732Y-60422147D01*
X105739223Y-60413857D01*
X105689380Y-60364895D01*
X105673920Y-60296757D01*
X105697752Y-60231078D01*
X105753310Y-60188709D01*
X105797678Y-60180500D01*
X154286000Y-60180500D01*
X154353039Y-60200185D01*
G37*
%TD.AperFunction*%
%TD*%
M02*
