M48
; DRILL file {KiCad 9.0.4} date 2025-10-24T20:40:39-0500
; FORMAT={-:-/ absolute / inch / decimal}
; #@! TF.CreationDate,2025-10-24T20:40:39-05:00
; #@! TF.GenerationSoftware,Kicad,Pcbnew,9.0.4
; #@! TF.FileFunction,Plated,1,2,PTH
FMAT,2
INCH
; #@! TA.AperFunction,Plated,PTH,ViaDrill
T1C0.0118
; #@! TA.AperFunction,Plated,PTH,ComponentDrill
T2C0.0197
; #@! TA.AperFunction,Plated,PTH,ComponentDrill
T3C0.0327
; #@! TA.AperFunction,Plated,PTH,ComponentDrill
T4C0.0472
; #@! TA.AperFunction,Plated,PTH,ComponentDrill
T5C0.0630
; #@! TA.AperFunction,Plated,PTH,ComponentDrill
T6C0.1260
%
G90
G05
T1
X4.5433Y-3.8189
X4.5433Y-4.0551
X4.626Y-3.8189
X4.626Y-4.0551
X4.7028Y-4.0551
X4.7047Y-3.8189
X4.8228Y-3.563
X5.0197Y-2.7874
X5.0197Y-2.9055
X5.0197Y-3.315
X5.0197Y-3.4331
X5.0197Y-3.7362
X5.0197Y-3.9173
X5.0197Y-4.252
X5.0197Y-4.3701
X5.1378Y-2.7878
X5.1378Y-2.9055
X5.1378Y-3.3154
X5.1378Y-3.4331
X5.1378Y-3.7362
X5.1378Y-3.9173
X5.1378Y-4.2524
X5.1378Y-4.3701
X5.2559Y-2.7874
X5.2559Y-2.9055
X5.2559Y-3.315
X5.2559Y-3.4331
X5.2559Y-3.7362
X5.2559Y-3.9173
X5.2559Y-4.252
X5.2559Y-4.3701
X5.4429Y-3.3858
X5.4469Y-3.75
X5.5167Y-3.0364
X5.565Y-3.0374
X5.565Y-3.1122
X5.8612Y-3.812
X5.8681Y-3.4528
X6.2205Y-2.4409
X6.2205Y-4.6063
X6.2992Y-2.4409
X6.2992Y-4.6063
X6.3516Y-4.2205
X6.378Y-4.6063
X6.4567Y-4.6063
X6.5217Y-4.1427
X6.5217Y-4.2146
X6.5236Y-3.7697
X6.5453Y-3.9501
X6.5591Y-4.4291
X6.5669Y-3.7283
X6.5998Y-4.124
X6.6395Y-3.8394
X6.7323Y-3.8189
X6.9488Y-3.9173
X7.0128Y-3.9173
X7.1417Y-3.7205
X7.1417Y-3.8307
X7.1654Y-2.4409
X7.2205Y-3.7205
X7.2205Y-3.8307
X7.2441Y-2.4409
X7.2835Y-4.6063
X7.5591Y-4.1339
X7.5591Y-4.2126
X7.5591Y-4.2913
T2
X4.3327Y-4.4193
X4.5669Y-4.2815
X4.5669Y-4.4193
X5.4252Y-2.6378
X5.6319Y-2.6378
X5.8169Y-4.4291
X5.9449Y-2.6378
X6.6299Y-2.6378
X6.7126Y-4.4291
X6.7795Y-2.6378
X6.8484Y-4.4291
T3
X5.9496Y-3.1073
X6.0496Y-3.1073
X6.1496Y-3.1073
X6.2496Y-3.1073
T4
X4.3268Y-2.8278
X4.4252Y-2.8278
X4.5236Y-2.8278
X7.3932Y-3.2703
X7.3932Y-3.3687
X7.3932Y-3.4671
X7.3932Y-3.5655
X7.3932Y-3.664
X7.3932Y-3.7624
X7.415Y-2.7856
X7.415Y-2.8841
X7.415Y-2.9825
X7.415Y-3.0809
X7.4154Y-3.9494
X7.4154Y-4.0478
X7.4154Y-4.1463
X7.4154Y-4.2447
X7.4916Y-3.2703
X7.4916Y-3.3687
X7.4916Y-3.4671
X7.4916Y-3.5655
X7.4916Y-3.664
X7.4916Y-3.7624
T5
X4.0582Y-3.2018
X4.0582Y-3.5923
X4.1921Y-3.2018
X4.1921Y-3.5923
X4.4193Y-3.202
X4.4193Y-3.5925
X4.5531Y-3.202
X4.5531Y-3.5925
X6.5075Y-3.1024
X6.5075Y-3.2362
X6.898Y-3.1024
X6.898Y-3.2362
T6
X4.0886Y-2.5039
X4.0886Y-4.5276
X7.6638Y-2.5039
X7.6638Y-4.5276
M30
