%TF.GenerationSoftware,KiCad,Pcbnew,9.0.4*%
%TF.CreationDate,2025-10-24T20:40:39-05:00*%
%TF.ProjectId,ActivePrecharge RevB,41637469-7665-4507-9265-636861726765,rev?*%
%TF.SameCoordinates,Original*%
%TF.FileFunction,Copper,L2,Bot*%
%TF.FilePolarity,Positive*%
%FSLAX46Y46*%
G04 Gerber Fmt 4.6, Leading zero omitted, Abs format (unit mm)*
G04 Created by KiCad (PCBNEW 9.0.4) date 2025-10-24 20:40:39*
%MOMM*%
%LPD*%
G01*
G04 APERTURE LIST*
G04 Aperture macros list*
%AMRoundRect*
0 Rectangle with rounded corners*
0 $1 Rounding radius*
0 $2 $3 $4 $5 $6 $7 $8 $9 X,Y pos of 4 corners*
0 Add a 4 corners polygon primitive as box body*
4,1,4,$2,$3,$4,$5,$6,$7,$8,$9,$2,$3,0*
0 Add four circle primitives for the rounded corners*
1,1,$1+$1,$2,$3*
1,1,$1+$1,$4,$5*
1,1,$1+$1,$6,$7*
1,1,$1+$1,$8,$9*
0 Add four rect primitives between the rounded corners*
20,1,$1+$1,$2,$3,$4,$5,0*
20,1,$1+$1,$4,$5,$6,$7,0*
20,1,$1+$1,$6,$7,$8,$9,0*
20,1,$1+$1,$8,$9,$2,$3,0*%
%AMFreePoly0*
4,1,22,0.945671,0.830970,1.026777,0.776777,1.080970,0.695671,1.100000,0.600000,1.100000,-0.600000,1.080970,-0.695671,1.026777,-0.776777,0.945671,-0.830970,0.850000,-0.850000,-0.596447,-0.850000,-0.692118,-0.830970,-0.773224,-0.776777,-1.026777,-0.523224,-1.080970,-0.442118,-1.100000,-0.346447,-1.100000,0.600000,-1.080970,0.695671,-1.026777,0.776777,-0.945671,0.830970,-0.850000,0.850000,
0.850000,0.850000,0.945671,0.830970,0.945671,0.830970,$1*%
G04 Aperture macros list end*
%TA.AperFunction,ComponentPad*%
%ADD10RoundRect,0.250000X-0.850000X-0.600000X0.850000X-0.600000X0.850000X0.600000X-0.850000X0.600000X0*%
%TD*%
%TA.AperFunction,ComponentPad*%
%ADD11O,2.200000X1.700000*%
%TD*%
%TA.AperFunction,ComponentPad*%
%ADD12C,1.000000*%
%TD*%
%TA.AperFunction,ComponentPad*%
%ADD13C,2.400000*%
%TD*%
%TA.AperFunction,ComponentPad*%
%ADD14RoundRect,0.250000X-0.600000X-0.600000X0.600000X-0.600000X0.600000X0.600000X-0.600000X0.600000X0*%
%TD*%
%TA.AperFunction,ComponentPad*%
%ADD15C,1.700000*%
%TD*%
%TA.AperFunction,ComponentPad*%
%ADD16C,3.600000*%
%TD*%
%TA.AperFunction,ConnectorPad*%
%ADD17C,6.400000*%
%TD*%
%TA.AperFunction,ComponentPad*%
%ADD18R,1.250000X1.250000*%
%TD*%
%TA.AperFunction,ComponentPad*%
%ADD19C,1.250000*%
%TD*%
%TA.AperFunction,ComponentPad*%
%ADD20FreePoly0,90.000000*%
%TD*%
%TA.AperFunction,ComponentPad*%
%ADD21O,1.700000X2.200000*%
%TD*%
%TA.AperFunction,ViaPad*%
%ADD22C,0.600000*%
%TD*%
%TA.AperFunction,Conductor*%
%ADD23C,0.500000*%
%TD*%
%TA.AperFunction,Conductor*%
%ADD24C,0.200000*%
%TD*%
%TA.AperFunction,Conductor*%
%ADD25C,1.000000*%
%TD*%
G04 APERTURE END LIST*
D10*
%TO.P,MainCont,1,Con+(24V)*%
%TO.N,/Main+*%
X188352120Y-100314880D03*
D11*
%TO.P,MainCont,2,Con-*%
%TO.N,/Main-*%
X188352120Y-102814880D03*
%TO.P,MainCont,3,Sense-*%
%TO.N,/MainSense-*%
X188352120Y-105314880D03*
%TO.P,MainCont,4,Sense+(24V)*%
%TO.N,/MainSense+*%
X188352120Y-107814880D03*
%TD*%
D12*
%TO.P,LVGND,1,1*%
%TO.N,LVGND*%
X173950000Y-112500000D03*
%TD*%
D13*
%TO.P,F2,1*%
%TO.N,Net-(J1-Pin_3)*%
X115650000Y-81330000D03*
X112250000Y-81330000D03*
%TO.P,F2,2*%
%TO.N,HV-*%
X115650000Y-91250000D03*
X112250000Y-91250000D03*
%TD*%
D12*
%TO.P,V1,1,1*%
%TO.N,/Voltage_Sense/V1*%
X172200000Y-67000000D03*
%TD*%
D14*
%TO.P,Export,1,Pin_1*%
%TO.N,Net-(J2-Pin_1)*%
X187787120Y-83064880D03*
D15*
%TO.P,Export,2,Pin_2*%
%TO.N,/PreSense+*%
X187787120Y-85564880D03*
%TO.P,Export,3,Pin_3*%
%TO.N,/Pre+*%
X187787120Y-88064880D03*
%TO.P,Export,4,Pin_4*%
%TO.N,/MainSense+*%
X187787120Y-90564880D03*
%TO.P,Export,5,Pin_5*%
%TO.N,/Main+*%
X187787120Y-93064880D03*
%TO.P,Export,6,Pin_6*%
%TO.N,LVGND*%
X187787120Y-95564880D03*
%TO.P,Export,7,Pin_7*%
%TO.N,/VOut1*%
X190287120Y-83064880D03*
%TO.P,Export,8,Pin_8*%
%TO.N,/PreSense-*%
X190287120Y-85564880D03*
%TO.P,Export,9,Pin_9*%
%TO.N,/Pre-*%
X190287120Y-88064880D03*
%TO.P,Export,10,Pin_10*%
%TO.N,/MainSense-*%
X190287120Y-90564880D03*
%TO.P,Export,11,Pin_11*%
%TO.N,/Main-*%
X190287120Y-93064880D03*
%TO.P,Export,12,Pin_12*%
%TO.N,/VOut2*%
X190287120Y-95564880D03*
%TD*%
D16*
%TO.P,H4,1,1*%
%TO.N,unconnected-(H4-Pad1)_2*%
X194660000Y-115000000D03*
D17*
%TO.N,unconnected-(H4-Pad1)*%
X194660000Y-115000000D03*
%TD*%
D13*
%TO.P,F1,1*%
%TO.N,Net-(J1-Pin_1)*%
X106478633Y-81325000D03*
X103078633Y-81325000D03*
%TO.P,F1,2*%
%TO.N,Net-(D1-A)*%
X106478633Y-91245000D03*
X103078633Y-91245000D03*
%TD*%
D12*
%TO.P,3V3,1,1*%
%TO.N,3V3*%
X168400000Y-67000000D03*
%TD*%
%TO.P,REG_3V3,1,1*%
%TO.N,REG_3V3*%
X143050000Y-67000000D03*
%TD*%
%TO.P,HV+,1,1*%
%TO.N,HV+*%
X116000000Y-112250000D03*
%TD*%
%TO.P,HV-,1,1*%
%TO.N,HV-*%
X116000000Y-108750000D03*
%TD*%
%TO.P,ISO_5V,1,1*%
%TO.N,ISO_5V*%
X151000000Y-67000000D03*
%TD*%
D16*
%TO.P,H1,1,1*%
%TO.N,unconnected-(H1-Pad1)*%
X103850000Y-63600000D03*
D17*
%TO.N,unconnected-(H1-Pad1)_1*%
X103850000Y-63600000D03*
%TD*%
D18*
%TO.P,PS1,1,-VIN*%
%TO.N,LVGND*%
X158740000Y-78925000D03*
D19*
%TO.P,PS1,2,+VIN*%
%TO.N,3V3*%
X156200000Y-78925000D03*
%TO.P,PS1,3,-VOUT*%
%TO.N,HVGND*%
X153660000Y-78925000D03*
%TO.P,PS1,4,+VOUT*%
%TO.N,ISO_5V*%
X151120000Y-78925000D03*
%TD*%
D13*
%TO.P,F3,1*%
%TO.N,3V3*%
X165290000Y-78800000D03*
X165290000Y-82200000D03*
%TO.P,F3,2*%
%TO.N,Net-(J2-Pin_1)*%
X175210000Y-78800000D03*
X175210000Y-82200000D03*
%TD*%
D12*
%TO.P,Vin2,1,1*%
%TO.N,/Voltage_Sense/Vin2*%
X147750000Y-112500000D03*
%TD*%
%TO.P,HVGND,1,1*%
%TO.N,HVGND*%
X110050000Y-112250000D03*
%TD*%
%TO.P,V2,1,1*%
%TO.N,/Voltage_Sense/V2*%
X170500000Y-112500000D03*
%TD*%
D20*
%TO.P,HVConnector,1,Pin_1*%
%TO.N,Net-(J1-Pin_1)*%
X109900000Y-71825000D03*
D21*
%TO.P,HVConnector,2,Pin_2*%
%TO.N,HVGND*%
X112400000Y-71825000D03*
%TO.P,HVConnector,3,Pin_3*%
%TO.N,Net-(J1-Pin_3)*%
X114900000Y-71825000D03*
%TD*%
D16*
%TO.P,H2,1,1*%
%TO.N,unconnected-(H2-Pad1)_1*%
X194660000Y-63600000D03*
D17*
%TO.N,unconnected-(H2-Pad1)_2*%
X194660000Y-63600000D03*
%TD*%
D10*
%TO.P,PreCont,1,Con+(24V)*%
%TO.N,/Pre+*%
X188342120Y-70754880D03*
D11*
%TO.P,PreCont,2,Con-*%
%TO.N,/Pre-*%
X188342120Y-73254880D03*
%TO.P,PreCont,3,Sense-*%
%TO.N,/PreSense-*%
X188342120Y-75754880D03*
%TO.P,PreCont,4,Sense+(24V)*%
%TO.N,/PreSense+*%
X188342120Y-78254880D03*
%TD*%
D16*
%TO.P,H3,1,1*%
%TO.N,unconnected-(H3-Pad1)*%
X103850000Y-115000000D03*
D17*
%TO.N,unconnected-(H3-Pad1)_1*%
X103850000Y-115000000D03*
%TD*%
D12*
%TO.P,Vin1,1,1*%
%TO.N,/Voltage_Sense/Vin1*%
X137800000Y-67000000D03*
%TD*%
D22*
%TO.N,REG_3V3*%
X149050000Y-87700000D03*
X141350000Y-77150000D03*
X148875000Y-96825000D03*
X140125000Y-77125000D03*
X141350000Y-79050000D03*
%TO.N,LVGND*%
X171000000Y-97000000D03*
X181400000Y-97300000D03*
X164000000Y-117000000D03*
X160000000Y-62000000D03*
X162000000Y-117000000D03*
X185000000Y-117000000D03*
X158000000Y-117000000D03*
X192000000Y-105000000D03*
X165650000Y-105225000D03*
X184000000Y-62000000D03*
X178125000Y-99500000D03*
X160000000Y-117000000D03*
X182000000Y-62000000D03*
X192000000Y-109000000D03*
X181400000Y-94500000D03*
X158000000Y-62000000D03*
X165650000Y-107050000D03*
X176500000Y-99500000D03*
X183400000Y-97300000D03*
X192000000Y-107000000D03*
X183400000Y-94500000D03*
%TO.N,3V3*%
X168644000Y-97520000D03*
X165700000Y-95750000D03*
X161329448Y-107200000D03*
%TO.N,HV+*%
X138250000Y-86000000D03*
X122500000Y-90500000D03*
%TO.N,HV-*%
X117500000Y-97000000D03*
X115400000Y-103000000D03*
X115400000Y-97000000D03*
X119450000Y-103000000D03*
X117500000Y-103000000D03*
X138350000Y-95250000D03*
X119500000Y-97000000D03*
%TO.N,REG_0V8*%
X167635000Y-104750000D03*
X166800000Y-94700000D03*
%TO.N,/Voltage_Sense/V2*%
X166250000Y-100331500D03*
X166600000Y-112500000D03*
%TO.N,/HEAT_DISSIPATION*%
X133500000Y-94900000D03*
X127500000Y-108000000D03*
X130500000Y-87200000D03*
X130500000Y-73800000D03*
X127500000Y-87200000D03*
X127500000Y-84200000D03*
X130500000Y-99500000D03*
X133500000Y-111000000D03*
X133500000Y-99500000D03*
X133500000Y-84200000D03*
X127500000Y-73800000D03*
X127500000Y-111000000D03*
X130500000Y-108010000D03*
X133500000Y-70800000D03*
X133500000Y-87200000D03*
X127500000Y-70800000D03*
X127500000Y-94900000D03*
X130500000Y-94900000D03*
X127500000Y-99500000D03*
X130500000Y-84210000D03*
X130500000Y-70810000D03*
X133500000Y-73800000D03*
X130500000Y-111000000D03*
X133500000Y-108000000D03*
%TD*%
D23*
%TO.N,HV+*%
X127000000Y-86000000D02*
X138250000Y-86000000D01*
X122500000Y-90500000D02*
X127000000Y-86000000D01*
%TO.N,HV-*%
X119450000Y-97050000D02*
X119500000Y-97000000D01*
X136600000Y-97000000D02*
X138350000Y-95250000D01*
X119500000Y-97000000D02*
X136600000Y-97000000D01*
D24*
%TO.N,REG_0V8*%
X166800000Y-94700000D02*
X167635000Y-95535000D01*
X167635000Y-95535000D02*
X167635000Y-104750000D01*
%TO.N,/Voltage_Sense/V2*%
X166250000Y-112100000D02*
X166650000Y-112500000D01*
X166250000Y-100331500D02*
X166250000Y-112100000D01*
D23*
%TO.N,/MainSense-*%
X192789120Y-93066880D02*
X190287120Y-90564880D01*
X188352120Y-105314880D02*
X192789120Y-100877880D01*
X192789120Y-100877880D02*
X192789120Y-93066880D01*
D25*
%TO.N,/Main-*%
X188653964Y-102814880D02*
X191838120Y-99630724D01*
X188352120Y-102814880D02*
X188653964Y-102814880D01*
X191838120Y-99630724D02*
X191838120Y-94615880D01*
X191838120Y-94615880D02*
X190287120Y-93064880D01*
D23*
%TO.N,/PreSense+*%
X186486120Y-84263880D02*
X187787120Y-85564880D01*
X186486120Y-80110880D02*
X186486120Y-84263880D01*
X188342120Y-78254880D02*
X186486120Y-80110880D01*
%TO.N,/PreSense-*%
X188342120Y-75754880D02*
X191588120Y-79000880D01*
X191588120Y-79000880D02*
X191588120Y-84263880D01*
X191588120Y-84263880D02*
X190287120Y-85564880D01*
D25*
%TO.N,/Pre+*%
X185535120Y-73561880D02*
X185535120Y-85812880D01*
X188342120Y-70754880D02*
X185535120Y-73561880D01*
X185535120Y-85812880D02*
X187787120Y-88064880D01*
%TO.N,/Pre-*%
X192539120Y-85812880D02*
X190287120Y-88064880D01*
X188342120Y-73254880D02*
X192539120Y-77451880D01*
X192539120Y-77451880D02*
X192539120Y-85812880D01*
%TO.N,/Main+*%
X188352120Y-100314880D02*
X186236120Y-98198880D01*
X186236120Y-98198880D02*
X186236120Y-94615880D01*
X186236120Y-94615880D02*
X187787120Y-93064880D01*
D23*
%TO.N,/MainSense+*%
X185285120Y-104747880D02*
X185285120Y-93066880D01*
X185285120Y-93066880D02*
X187787120Y-90564880D01*
X188352120Y-107814880D02*
X185285120Y-104747880D01*
%TD*%
%TA.AperFunction,Conductor*%
%TO.N,HVGND*%
G36*
X154353039Y-60200185D02*
G01*
X154398794Y-60252989D01*
X154410000Y-60304500D01*
X154410000Y-118405500D01*
X154390315Y-118472539D01*
X154337511Y-118518294D01*
X154286000Y-118529500D01*
X105591882Y-118529500D01*
X105524843Y-118509815D01*
X105479088Y-118457011D01*
X105469144Y-118387853D01*
X105498169Y-118324297D01*
X105533429Y-118296142D01*
X105610668Y-118254856D01*
X105754732Y-118177853D01*
X106057044Y-117975854D01*
X106338101Y-117745197D01*
X106595197Y-117488101D01*
X106825854Y-117207044D01*
X107027853Y-116904732D01*
X107199247Y-116584076D01*
X107338386Y-116248164D01*
X107443930Y-115900233D01*
X107443932Y-115900223D01*
X107443935Y-115900212D01*
X107514862Y-115543630D01*
X107531372Y-115375998D01*
X107550500Y-115181794D01*
X107550500Y-114818206D01*
X107514862Y-114456369D01*
X107443935Y-114099787D01*
X107443932Y-114099776D01*
X107443931Y-114099773D01*
X107443930Y-114099767D01*
X107338386Y-113751836D01*
X107199247Y-113415924D01*
X107125063Y-113277136D01*
X107027859Y-113095279D01*
X107027858Y-113095277D01*
X107027853Y-113095268D01*
X106825854Y-112792956D01*
X106595197Y-112511899D01*
X106595196Y-112511898D01*
X106595192Y-112511893D01*
X106431842Y-112348543D01*
X114999499Y-112348543D01*
X115037947Y-112541829D01*
X115037950Y-112541839D01*
X115113364Y-112723907D01*
X115113371Y-112723920D01*
X115222860Y-112887781D01*
X115222863Y-112887785D01*
X115362214Y-113027136D01*
X115362218Y-113027139D01*
X115526079Y-113136628D01*
X115526092Y-113136635D01*
X115708160Y-113212049D01*
X115708165Y-113212051D01*
X115708169Y-113212051D01*
X115708170Y-113212052D01*
X115901456Y-113250500D01*
X115901459Y-113250500D01*
X116098543Y-113250500D01*
X116228582Y-113224632D01*
X116291835Y-113212051D01*
X116454187Y-113144803D01*
X116473907Y-113136635D01*
X116473907Y-113136634D01*
X116473914Y-113136632D01*
X116637782Y-113027139D01*
X116777139Y-112887782D01*
X116886632Y-112723914D01*
X116962051Y-112541835D01*
X116989974Y-112401459D01*
X117000500Y-112348543D01*
X117000500Y-112151456D01*
X116962052Y-111958170D01*
X116962051Y-111958169D01*
X116962051Y-111958165D01*
X116905708Y-111822140D01*
X116886635Y-111776092D01*
X116886628Y-111776079D01*
X116777139Y-111612218D01*
X116777136Y-111612214D01*
X116637785Y-111472863D01*
X116637781Y-111472860D01*
X116473920Y-111363371D01*
X116473907Y-111363364D01*
X116291839Y-111287950D01*
X116291829Y-111287947D01*
X116098543Y-111249500D01*
X116098541Y-111249500D01*
X115901459Y-111249500D01*
X115901457Y-111249500D01*
X115708170Y-111287947D01*
X115708160Y-111287950D01*
X115526092Y-111363364D01*
X115526079Y-111363371D01*
X115362218Y-111472860D01*
X115362214Y-111472863D01*
X115222863Y-111612214D01*
X115222860Y-111612218D01*
X115113371Y-111776079D01*
X115113364Y-111776092D01*
X115037950Y-111958160D01*
X115037947Y-111958170D01*
X114999500Y-112151456D01*
X114999500Y-112151459D01*
X114999500Y-112348541D01*
X114999500Y-112348543D01*
X114999499Y-112348543D01*
X106431842Y-112348543D01*
X106338107Y-112254808D01*
X106321551Y-112241221D01*
X106321550Y-112241220D01*
X106057049Y-112024150D01*
X106057048Y-112024149D01*
X106057044Y-112024146D01*
X105754732Y-111822147D01*
X105754727Y-111822144D01*
X105754720Y-111822140D01*
X105434083Y-111650756D01*
X105434078Y-111650754D01*
X105098165Y-111511614D01*
X104750223Y-111406067D01*
X104750212Y-111406064D01*
X104393630Y-111335137D01*
X104121111Y-111308296D01*
X104031794Y-111299500D01*
X103668206Y-111299500D01*
X103585679Y-111307628D01*
X103306369Y-111335137D01*
X102949787Y-111406064D01*
X102949776Y-111406067D01*
X102601834Y-111511614D01*
X102265921Y-111650754D01*
X102265916Y-111650756D01*
X101945279Y-111822140D01*
X101945261Y-111822151D01*
X101642964Y-112024140D01*
X101642950Y-112024150D01*
X101361893Y-112254807D01*
X101104807Y-112511893D01*
X100874150Y-112792950D01*
X100874140Y-112792964D01*
X100672149Y-113095264D01*
X100670855Y-113097424D01*
X100670467Y-113097781D01*
X100670456Y-113097799D01*
X100670451Y-113097796D01*
X100619503Y-113144803D01*
X100550688Y-113156897D01*
X100486258Y-113129868D01*
X100446670Y-113072296D01*
X100440500Y-113033669D01*
X100440500Y-91133549D01*
X101378133Y-91133549D01*
X101378133Y-91356450D01*
X101378134Y-91356466D01*
X101407227Y-91577452D01*
X101407228Y-91577457D01*
X101407229Y-91577463D01*
X101462722Y-91784566D01*
X101464923Y-91792780D01*
X101464926Y-91792790D01*
X101493194Y-91861034D01*
X101550228Y-91998726D01*
X101661685Y-92191774D01*
X101661690Y-92191780D01*
X101661691Y-92191782D01*
X101797384Y-92368622D01*
X101797390Y-92368629D01*
X101955003Y-92526242D01*
X101955010Y-92526248D01*
X101961525Y-92531247D01*
X102131859Y-92661948D01*
X102324907Y-92773405D01*
X102530852Y-92858710D01*
X102746170Y-92916404D01*
X102967176Y-92945500D01*
X102967183Y-92945500D01*
X103190083Y-92945500D01*
X103190090Y-92945500D01*
X103411096Y-92916404D01*
X103626414Y-92858710D01*
X103832359Y-92773405D01*
X104025407Y-92661948D01*
X104202257Y-92526247D01*
X104359880Y-92368624D01*
X104495581Y-92191774D01*
X104607038Y-91998726D01*
X104664072Y-91861034D01*
X104707913Y-91806631D01*
X104774207Y-91784566D01*
X104841906Y-91801845D01*
X104889517Y-91852982D01*
X104893194Y-91861034D01*
X104950228Y-91998726D01*
X105061685Y-92191774D01*
X105061690Y-92191780D01*
X105061691Y-92191782D01*
X105197384Y-92368622D01*
X105197390Y-92368629D01*
X105355003Y-92526242D01*
X105355010Y-92526248D01*
X105361525Y-92531247D01*
X105531859Y-92661948D01*
X105724907Y-92773405D01*
X105930852Y-92858710D01*
X106146170Y-92916404D01*
X106367176Y-92945500D01*
X106367183Y-92945500D01*
X106590083Y-92945500D01*
X106590090Y-92945500D01*
X106811096Y-92916404D01*
X107026414Y-92858710D01*
X107232359Y-92773405D01*
X107425407Y-92661948D01*
X107602257Y-92526247D01*
X107759880Y-92368624D01*
X107895581Y-92191774D01*
X108007038Y-91998726D01*
X108092343Y-91792781D01*
X108150037Y-91577463D01*
X108179133Y-91356457D01*
X108179133Y-91133543D01*
X108150037Y-90912537D01*
X108092343Y-90697219D01*
X108007038Y-90491274D01*
X107895581Y-90298226D01*
X107856500Y-90247294D01*
X107759881Y-90121377D01*
X107759875Y-90121370D01*
X107602262Y-89963757D01*
X107602255Y-89963751D01*
X107425415Y-89828058D01*
X107425413Y-89828057D01*
X107425407Y-89828052D01*
X107232359Y-89716595D01*
X107232355Y-89716593D01*
X107026423Y-89631293D01*
X107026416Y-89631291D01*
X107026414Y-89631290D01*
X106811096Y-89573596D01*
X106811090Y-89573595D01*
X106811085Y-89573594D01*
X106590099Y-89544501D01*
X106590096Y-89544500D01*
X106590090Y-89544500D01*
X106367176Y-89544500D01*
X106367170Y-89544500D01*
X106367166Y-89544501D01*
X106146180Y-89573594D01*
X106146173Y-89573595D01*
X106146170Y-89573596D01*
X105930852Y-89631290D01*
X105930842Y-89631293D01*
X105724910Y-89716593D01*
X105724906Y-89716595D01*
X105531859Y-89828052D01*
X105531850Y-89828058D01*
X105355010Y-89963751D01*
X105355003Y-89963757D01*
X105197390Y-90121370D01*
X105197384Y-90121377D01*
X105061691Y-90298217D01*
X105061685Y-90298226D01*
X104950228Y-90491273D01*
X104950226Y-90491277D01*
X104893194Y-90628965D01*
X104849353Y-90683368D01*
X104783059Y-90705433D01*
X104715359Y-90688154D01*
X104667749Y-90637016D01*
X104664072Y-90628965D01*
X104609109Y-90496274D01*
X104607038Y-90491274D01*
X104495581Y-90298226D01*
X104456500Y-90247294D01*
X104359881Y-90121377D01*
X104359875Y-90121370D01*
X104202262Y-89963757D01*
X104202255Y-89963751D01*
X104025415Y-89828058D01*
X104025413Y-89828057D01*
X104025407Y-89828052D01*
X103832359Y-89716595D01*
X103832355Y-89716593D01*
X103626423Y-89631293D01*
X103626416Y-89631291D01*
X103626414Y-89631290D01*
X103411096Y-89573596D01*
X103411090Y-89573595D01*
X103411085Y-89573594D01*
X103190099Y-89544501D01*
X103190096Y-89544500D01*
X103190090Y-89544500D01*
X102967176Y-89544500D01*
X102967170Y-89544500D01*
X102967166Y-89544501D01*
X102746180Y-89573594D01*
X102746173Y-89573595D01*
X102746170Y-89573596D01*
X102530852Y-89631290D01*
X102530842Y-89631293D01*
X102324910Y-89716593D01*
X102324906Y-89716595D01*
X102131859Y-89828052D01*
X102131850Y-89828058D01*
X101955010Y-89963751D01*
X101955003Y-89963757D01*
X101797390Y-90121370D01*
X101797384Y-90121377D01*
X101661691Y-90298217D01*
X101661685Y-90298226D01*
X101550228Y-90491273D01*
X101550226Y-90491277D01*
X101464926Y-90697209D01*
X101464923Y-90697219D01*
X101407230Y-90912534D01*
X101407227Y-90912547D01*
X101378134Y-91133533D01*
X101378133Y-91133549D01*
X100440500Y-91133549D01*
X100440500Y-81213549D01*
X101378133Y-81213549D01*
X101378133Y-81436450D01*
X101378134Y-81436466D01*
X101407227Y-81657452D01*
X101407228Y-81657457D01*
X101407229Y-81657463D01*
X101462722Y-81864566D01*
X101464923Y-81872780D01*
X101464926Y-81872790D01*
X101493194Y-81941034D01*
X101550228Y-82078726D01*
X101661685Y-82271774D01*
X101661690Y-82271780D01*
X101661691Y-82271782D01*
X101797384Y-82448622D01*
X101797390Y-82448629D01*
X101955003Y-82606242D01*
X101955010Y-82606248D01*
X101961525Y-82611247D01*
X102131859Y-82741948D01*
X102324907Y-82853405D01*
X102530852Y-82938710D01*
X102746170Y-82996404D01*
X102967176Y-83025500D01*
X102967183Y-83025500D01*
X103190083Y-83025500D01*
X103190090Y-83025500D01*
X103411096Y-82996404D01*
X103626414Y-82938710D01*
X103832359Y-82853405D01*
X104025407Y-82741948D01*
X104202257Y-82606247D01*
X104359880Y-82448624D01*
X104495581Y-82271774D01*
X104607038Y-82078726D01*
X104664072Y-81941034D01*
X104707913Y-81886631D01*
X104774207Y-81864566D01*
X104841906Y-81881845D01*
X104889517Y-81932982D01*
X104893194Y-81941034D01*
X104950228Y-82078726D01*
X105061685Y-82271774D01*
X105061690Y-82271780D01*
X105061691Y-82271782D01*
X105197384Y-82448622D01*
X105197390Y-82448629D01*
X105355003Y-82606242D01*
X105355010Y-82606248D01*
X105361525Y-82611247D01*
X105531859Y-82741948D01*
X105724907Y-82853405D01*
X105930852Y-82938710D01*
X106146170Y-82996404D01*
X106367176Y-83025500D01*
X106367183Y-83025500D01*
X106590083Y-83025500D01*
X106590090Y-83025500D01*
X106811096Y-82996404D01*
X107026414Y-82938710D01*
X107232359Y-82853405D01*
X107425407Y-82741948D01*
X107602257Y-82606247D01*
X107759880Y-82448624D01*
X107895581Y-82271774D01*
X108007038Y-82078726D01*
X108092343Y-81872781D01*
X108150037Y-81657463D01*
X108179133Y-81436457D01*
X108179133Y-81218549D01*
X110549500Y-81218549D01*
X110549500Y-81441450D01*
X110549501Y-81441466D01*
X110578594Y-81662452D01*
X110578595Y-81662457D01*
X110578596Y-81662463D01*
X110634953Y-81872790D01*
X110636290Y-81877780D01*
X110636293Y-81877790D01*
X110662490Y-81941034D01*
X110721595Y-82083726D01*
X110833052Y-82276774D01*
X110833057Y-82276780D01*
X110833058Y-82276782D01*
X110968751Y-82453622D01*
X110968757Y-82453629D01*
X111126370Y-82611242D01*
X111126376Y-82611247D01*
X111303226Y-82746948D01*
X111496274Y-82858405D01*
X111702219Y-82943710D01*
X111917537Y-83001404D01*
X112138543Y-83030500D01*
X112138550Y-83030500D01*
X112361450Y-83030500D01*
X112361457Y-83030500D01*
X112582463Y-83001404D01*
X112797781Y-82943710D01*
X113003726Y-82858405D01*
X113196774Y-82746948D01*
X113196790Y-82746935D01*
X113200151Y-82744691D01*
X113201016Y-82745986D01*
X113260145Y-82723107D01*
X113328594Y-82737125D01*
X113378599Y-82785924D01*
X113394500Y-82846674D01*
X113394500Y-89733325D01*
X113374815Y-89800364D01*
X113322011Y-89846119D01*
X113252853Y-89856063D01*
X113200902Y-89834184D01*
X113200151Y-89835309D01*
X113196780Y-89833057D01*
X113196774Y-89833052D01*
X113003726Y-89721595D01*
X113003722Y-89721593D01*
X112797790Y-89636293D01*
X112797783Y-89636291D01*
X112797781Y-89636290D01*
X112582463Y-89578596D01*
X112582457Y-89578595D01*
X112582452Y-89578594D01*
X112361466Y-89549501D01*
X112361463Y-89549500D01*
X112361457Y-89549500D01*
X112138543Y-89549500D01*
X112138537Y-89549500D01*
X112138533Y-89549501D01*
X111917547Y-89578594D01*
X111917540Y-89578595D01*
X111917537Y-89578596D01*
X111720879Y-89631290D01*
X111702219Y-89636290D01*
X111702209Y-89636293D01*
X111496277Y-89721593D01*
X111496273Y-89721595D01*
X111303226Y-89833052D01*
X111303217Y-89833058D01*
X111126377Y-89968751D01*
X111126370Y-89968757D01*
X110968757Y-90126370D01*
X110968751Y-90126377D01*
X110833058Y-90303217D01*
X110833052Y-90303226D01*
X110721595Y-90496273D01*
X110721593Y-90496277D01*
X110636293Y-90702209D01*
X110636290Y-90702219D01*
X110578597Y-90917534D01*
X110578594Y-90917547D01*
X110549501Y-91138533D01*
X110549500Y-91138549D01*
X110549500Y-91361450D01*
X110549501Y-91361466D01*
X110578594Y-91582452D01*
X110578595Y-91582457D01*
X110578596Y-91582463D01*
X110634953Y-91792790D01*
X110636290Y-91797780D01*
X110636293Y-91797790D01*
X110662490Y-91861034D01*
X110721595Y-92003726D01*
X110833052Y-92196774D01*
X110833057Y-92196780D01*
X110833058Y-92196782D01*
X110968751Y-92373622D01*
X110968757Y-92373629D01*
X111126370Y-92531242D01*
X111126376Y-92531247D01*
X111303226Y-92666948D01*
X111496274Y-92778405D01*
X111702219Y-92863710D01*
X111917537Y-92921404D01*
X112138543Y-92950500D01*
X112138550Y-92950500D01*
X112361450Y-92950500D01*
X112361457Y-92950500D01*
X112582463Y-92921404D01*
X112797781Y-92863710D01*
X113003726Y-92778405D01*
X113196774Y-92666948D01*
X113196790Y-92666935D01*
X113200151Y-92664691D01*
X113201016Y-92665986D01*
X113260145Y-92643107D01*
X113328594Y-92657125D01*
X113378599Y-92705924D01*
X113394500Y-92766674D01*
X113394500Y-110176000D01*
X113394501Y-110176009D01*
X113406052Y-110283450D01*
X113406054Y-110283462D01*
X113417260Y-110334972D01*
X113451383Y-110437497D01*
X113451386Y-110437503D01*
X113529171Y-110558537D01*
X113529179Y-110558548D01*
X113574923Y-110611340D01*
X113574926Y-110611343D01*
X113574930Y-110611347D01*
X113683664Y-110705567D01*
X113683667Y-110705568D01*
X113683668Y-110705569D01*
X113777925Y-110748616D01*
X113814541Y-110765338D01*
X113881580Y-110785023D01*
X113881584Y-110785024D01*
X114024000Y-110805500D01*
X114024003Y-110805500D01*
X123975990Y-110805500D01*
X123976000Y-110805500D01*
X124083456Y-110793947D01*
X124134967Y-110782741D01*
X124169197Y-110771347D01*
X124237497Y-110748616D01*
X124237501Y-110748613D01*
X124237504Y-110748613D01*
X124303460Y-110706224D01*
X124370499Y-110686540D01*
X124437539Y-110706224D01*
X124483294Y-110759028D01*
X124494500Y-110810540D01*
X124494500Y-115376000D01*
X124494501Y-115376009D01*
X124506052Y-115483450D01*
X124506054Y-115483462D01*
X124517260Y-115534972D01*
X124551383Y-115637497D01*
X124551386Y-115637503D01*
X124629171Y-115758537D01*
X124629179Y-115758548D01*
X124674923Y-115811340D01*
X124674926Y-115811343D01*
X124674930Y-115811347D01*
X124783664Y-115905567D01*
X124783667Y-115905568D01*
X124783668Y-115905569D01*
X124877925Y-115948616D01*
X124914541Y-115965338D01*
X124981580Y-115985023D01*
X124981584Y-115985024D01*
X125124000Y-116005500D01*
X125124003Y-116005500D01*
X136125990Y-116005500D01*
X136126000Y-116005500D01*
X136233456Y-115993947D01*
X136284967Y-115982741D01*
X136319197Y-115971347D01*
X136387497Y-115948616D01*
X136387501Y-115948613D01*
X136387504Y-115948613D01*
X136508543Y-115870825D01*
X136561347Y-115825070D01*
X136655567Y-115716336D01*
X136715338Y-115585459D01*
X136735023Y-115518420D01*
X136735024Y-115518416D01*
X136755500Y-115376000D01*
X136755500Y-112598543D01*
X146749499Y-112598543D01*
X146787947Y-112791829D01*
X146787950Y-112791839D01*
X146863364Y-112973907D01*
X146863371Y-112973920D01*
X146972860Y-113137781D01*
X146972863Y-113137785D01*
X147112214Y-113277136D01*
X147112218Y-113277139D01*
X147276079Y-113386628D01*
X147276092Y-113386635D01*
X147458160Y-113462049D01*
X147458165Y-113462051D01*
X147458169Y-113462051D01*
X147458170Y-113462052D01*
X147651456Y-113500500D01*
X147651459Y-113500500D01*
X147848543Y-113500500D01*
X147978582Y-113474632D01*
X148041835Y-113462051D01*
X148223914Y-113386632D01*
X148387782Y-113277139D01*
X148527139Y-113137782D01*
X148636632Y-112973914D01*
X148712051Y-112791835D01*
X148750500Y-112598541D01*
X148750500Y-112401459D01*
X148750500Y-112401456D01*
X148712052Y-112208170D01*
X148712051Y-112208169D01*
X148712051Y-112208165D01*
X148688562Y-112151456D01*
X148636635Y-112026092D01*
X148636628Y-112026079D01*
X148527139Y-111862218D01*
X148527136Y-111862214D01*
X148387785Y-111722863D01*
X148387781Y-111722860D01*
X148223920Y-111613371D01*
X148223907Y-111613364D01*
X148041839Y-111537950D01*
X148041829Y-111537947D01*
X147848543Y-111499500D01*
X147848541Y-111499500D01*
X147651459Y-111499500D01*
X147651457Y-111499500D01*
X147458170Y-111537947D01*
X147458160Y-111537950D01*
X147276092Y-111613364D01*
X147276079Y-111613371D01*
X147112218Y-111722860D01*
X147112214Y-111722863D01*
X146972863Y-111862214D01*
X146972860Y-111862218D01*
X146863371Y-112026079D01*
X146863364Y-112026092D01*
X146787950Y-112208160D01*
X146787947Y-112208170D01*
X146749500Y-112401456D01*
X146749500Y-112401459D01*
X146749500Y-112598541D01*
X146749500Y-112598543D01*
X146749499Y-112598543D01*
X136755500Y-112598543D01*
X136755500Y-100390568D01*
X136775185Y-100323529D01*
X136827989Y-100277774D01*
X136897147Y-100267830D01*
X136960703Y-100296855D01*
X136973216Y-100309369D01*
X136974930Y-100311347D01*
X137083664Y-100405567D01*
X137083667Y-100405568D01*
X137083668Y-100405569D01*
X137177925Y-100448616D01*
X137214541Y-100465338D01*
X137281580Y-100485023D01*
X137281584Y-100485024D01*
X137424000Y-100505500D01*
X137424003Y-100505500D01*
X152415990Y-100505500D01*
X152416000Y-100505500D01*
X152523456Y-100493947D01*
X152574967Y-100482741D01*
X152609197Y-100471347D01*
X152677497Y-100448616D01*
X152677501Y-100448613D01*
X152677504Y-100448613D01*
X152798543Y-100370825D01*
X152851347Y-100325070D01*
X152945567Y-100216336D01*
X153005338Y-100085459D01*
X153025023Y-100018420D01*
X153025024Y-100018416D01*
X153045500Y-99876000D01*
X153045500Y-79058061D01*
X153043941Y-79018391D01*
X153042414Y-78998993D01*
X153040859Y-78985853D01*
X153040000Y-78971280D01*
X153040000Y-78878710D01*
X153040860Y-78864133D01*
X153042414Y-78851004D01*
X153043941Y-78831604D01*
X153045500Y-78791949D01*
X153045500Y-67624010D01*
X153045500Y-67624000D01*
X153033947Y-67516544D01*
X153022741Y-67465033D01*
X153022637Y-67464722D01*
X152988616Y-67362502D01*
X152988613Y-67362496D01*
X152937950Y-67283664D01*
X152910825Y-67241457D01*
X152910820Y-67241451D01*
X152865076Y-67188659D01*
X152865072Y-67188656D01*
X152865070Y-67188653D01*
X152756336Y-67094433D01*
X152756333Y-67094431D01*
X152756331Y-67094430D01*
X152625465Y-67034664D01*
X152625460Y-67034662D01*
X152625459Y-67034662D01*
X152558420Y-67014977D01*
X152558422Y-67014977D01*
X152558417Y-67014976D01*
X152496347Y-67006052D01*
X152416000Y-66994500D01*
X152415998Y-66994500D01*
X152120771Y-66994500D01*
X152053732Y-66974815D01*
X152007977Y-66922011D01*
X151999154Y-66894691D01*
X151962052Y-66708172D01*
X151962051Y-66708165D01*
X151962049Y-66708160D01*
X151886635Y-66526092D01*
X151886628Y-66526079D01*
X151777139Y-66362218D01*
X151777136Y-66362214D01*
X151637785Y-66222863D01*
X151637781Y-66222860D01*
X151473920Y-66113371D01*
X151473907Y-66113364D01*
X151291839Y-66037950D01*
X151291829Y-66037947D01*
X151098543Y-65999500D01*
X151098541Y-65999500D01*
X150901459Y-65999500D01*
X150901457Y-65999500D01*
X150708170Y-66037947D01*
X150708160Y-66037950D01*
X150526092Y-66113364D01*
X150526079Y-66113371D01*
X150362218Y-66222860D01*
X150362214Y-66222863D01*
X150222863Y-66362214D01*
X150222860Y-66362218D01*
X150113371Y-66526079D01*
X150113364Y-66526092D01*
X150037950Y-66708160D01*
X150037947Y-66708172D01*
X150000846Y-66894691D01*
X149968461Y-66956602D01*
X149907745Y-66991176D01*
X149879229Y-66994500D01*
X144170771Y-66994500D01*
X144103732Y-66974815D01*
X144057977Y-66922011D01*
X144049154Y-66894691D01*
X144012052Y-66708172D01*
X144012051Y-66708165D01*
X144012049Y-66708160D01*
X143936635Y-66526092D01*
X143936628Y-66526079D01*
X143827139Y-66362218D01*
X143827136Y-66362214D01*
X143687785Y-66222863D01*
X143687781Y-66222860D01*
X143523920Y-66113371D01*
X143523907Y-66113364D01*
X143341839Y-66037950D01*
X143341829Y-66037947D01*
X143148543Y-65999500D01*
X143148541Y-65999500D01*
X142951459Y-65999500D01*
X142951457Y-65999500D01*
X142758170Y-66037947D01*
X142758160Y-66037950D01*
X142576092Y-66113364D01*
X142576079Y-66113371D01*
X142412218Y-66222860D01*
X142412214Y-66222863D01*
X142272863Y-66362214D01*
X142272860Y-66362218D01*
X142163371Y-66526079D01*
X142163364Y-66526092D01*
X142087950Y-66708160D01*
X142087947Y-66708172D01*
X142050846Y-66894691D01*
X142018461Y-66956602D01*
X141957745Y-66991176D01*
X141929229Y-66994500D01*
X138920771Y-66994500D01*
X138853732Y-66974815D01*
X138807977Y-66922011D01*
X138799154Y-66894691D01*
X138762052Y-66708172D01*
X138762051Y-66708165D01*
X138762049Y-66708160D01*
X138686635Y-66526092D01*
X138686628Y-66526079D01*
X138577139Y-66362218D01*
X138577136Y-66362214D01*
X138437785Y-66222863D01*
X138437781Y-66222860D01*
X138273920Y-66113371D01*
X138273907Y-66113364D01*
X138091839Y-66037950D01*
X138091829Y-66037947D01*
X137898543Y-65999500D01*
X137898541Y-65999500D01*
X137701459Y-65999500D01*
X137701457Y-65999500D01*
X137508170Y-66037947D01*
X137508160Y-66037950D01*
X137326092Y-66113364D01*
X137326079Y-66113371D01*
X137162218Y-66222860D01*
X137162214Y-66222863D01*
X137022863Y-66362214D01*
X137022860Y-66362218D01*
X136982602Y-66422469D01*
X136928990Y-66467274D01*
X136859665Y-66475981D01*
X136796637Y-66445826D01*
X136759918Y-66386383D01*
X136755500Y-66353578D01*
X136755500Y-66124010D01*
X136755500Y-66124000D01*
X136743947Y-66016544D01*
X136732741Y-65965033D01*
X136732637Y-65964722D01*
X136698616Y-65862502D01*
X136698613Y-65862496D01*
X136620828Y-65741462D01*
X136620825Y-65741457D01*
X136620820Y-65741451D01*
X136575076Y-65688659D01*
X136575072Y-65688656D01*
X136575070Y-65688653D01*
X136466336Y-65594433D01*
X136466333Y-65594431D01*
X136466331Y-65594430D01*
X136335465Y-65534664D01*
X136335460Y-65534662D01*
X136335459Y-65534662D01*
X136268420Y-65514977D01*
X136268422Y-65514977D01*
X136268417Y-65514976D01*
X136206347Y-65506052D01*
X136126000Y-65494500D01*
X125124000Y-65494500D01*
X125123991Y-65494500D01*
X125123990Y-65494501D01*
X125016549Y-65506052D01*
X125016537Y-65506054D01*
X124965027Y-65517260D01*
X124862502Y-65551383D01*
X124862496Y-65551386D01*
X124741462Y-65629171D01*
X124741451Y-65629179D01*
X124688659Y-65674923D01*
X124594433Y-65783664D01*
X124594430Y-65783668D01*
X124534664Y-65914534D01*
X124514976Y-65981582D01*
X124509949Y-66016549D01*
X124494502Y-66123990D01*
X124494500Y-66124001D01*
X124494500Y-66982849D01*
X124474815Y-67049888D01*
X124422011Y-67095643D01*
X124352853Y-67105587D01*
X124318988Y-67095643D01*
X124185465Y-67034664D01*
X124185460Y-67034662D01*
X124185459Y-67034662D01*
X124118420Y-67014977D01*
X124118422Y-67014977D01*
X124118417Y-67014976D01*
X124056347Y-67006052D01*
X123976000Y-66994500D01*
X114024000Y-66994500D01*
X114023991Y-66994500D01*
X114023990Y-66994501D01*
X113916549Y-67006052D01*
X113916537Y-67006054D01*
X113865027Y-67017260D01*
X113762502Y-67051383D01*
X113762496Y-67051386D01*
X113641462Y-67129171D01*
X113641451Y-67129179D01*
X113588659Y-67174923D01*
X113494433Y-67283664D01*
X113494430Y-67283668D01*
X113434664Y-67414534D01*
X113414976Y-67481582D01*
X113409949Y-67516549D01*
X113394500Y-67624000D01*
X113394500Y-70388868D01*
X113404461Y-70470527D01*
X113409322Y-70510382D01*
X113409322Y-70510383D01*
X113410182Y-70513854D01*
X113423652Y-70568246D01*
X113467247Y-70682630D01*
X113551816Y-70799032D01*
X113551820Y-70799036D01*
X113551825Y-70799042D01*
X113600503Y-70849131D01*
X113600510Y-70849138D01*
X113600513Y-70849140D01*
X113600516Y-70849143D01*
X113629336Y-70871367D01*
X113670404Y-70927893D01*
X113674392Y-70997649D01*
X113664101Y-71025854D01*
X113648445Y-71056581D01*
X113582753Y-71258760D01*
X113549500Y-71468713D01*
X113549500Y-72181286D01*
X113578350Y-72363442D01*
X113582754Y-72391243D01*
X113646819Y-72588415D01*
X113648445Y-72593417D01*
X113663361Y-72622692D01*
X113676257Y-72691361D01*
X113649980Y-72756101D01*
X113634079Y-72772699D01*
X113588656Y-72812058D01*
X113494433Y-72920795D01*
X113494430Y-72920799D01*
X113434664Y-73051665D01*
X113414976Y-73118713D01*
X113394500Y-73261132D01*
X113394500Y-79813325D01*
X113374815Y-79880364D01*
X113322011Y-79926119D01*
X113252853Y-79936063D01*
X113200902Y-79914184D01*
X113200151Y-79915309D01*
X113196780Y-79913057D01*
X113196774Y-79913052D01*
X113003726Y-79801595D01*
X113003722Y-79801593D01*
X112797790Y-79716293D01*
X112797783Y-79716291D01*
X112797781Y-79716290D01*
X112582463Y-79658596D01*
X112582457Y-79658595D01*
X112582452Y-79658594D01*
X112361466Y-79629501D01*
X112361463Y-79629500D01*
X112361457Y-79629500D01*
X112138543Y-79629500D01*
X112138537Y-79629500D01*
X112138533Y-79629501D01*
X111917547Y-79658594D01*
X111917540Y-79658595D01*
X111917537Y-79658596D01*
X111720879Y-79711290D01*
X111702219Y-79716290D01*
X111702209Y-79716293D01*
X111496277Y-79801593D01*
X111496273Y-79801595D01*
X111303226Y-79913052D01*
X111303217Y-79913058D01*
X111126377Y-80048751D01*
X111126370Y-80048757D01*
X110968757Y-80206370D01*
X110968751Y-80206377D01*
X110833058Y-80383217D01*
X110833052Y-80383226D01*
X110721595Y-80576273D01*
X110721593Y-80576277D01*
X110636293Y-80782209D01*
X110636290Y-80782219D01*
X110578597Y-80997534D01*
X110578594Y-80997547D01*
X110549501Y-81218533D01*
X110549500Y-81218549D01*
X108179133Y-81218549D01*
X108179133Y-81213543D01*
X108150037Y-80992537D01*
X108092343Y-80777219D01*
X108007038Y-80571274D01*
X107895581Y-80378226D01*
X107856500Y-80327294D01*
X107759881Y-80201377D01*
X107759875Y-80201370D01*
X107602262Y-80043757D01*
X107602255Y-80043751D01*
X107425415Y-79908058D01*
X107425413Y-79908057D01*
X107425407Y-79908052D01*
X107232359Y-79796595D01*
X107232355Y-79796593D01*
X107026423Y-79711293D01*
X107026416Y-79711291D01*
X107026414Y-79711290D01*
X106811096Y-79653596D01*
X106811090Y-79653595D01*
X106811085Y-79653594D01*
X106590099Y-79624501D01*
X106590096Y-79624500D01*
X106590090Y-79624500D01*
X106367176Y-79624500D01*
X106367170Y-79624500D01*
X106367166Y-79624501D01*
X106146180Y-79653594D01*
X106146173Y-79653595D01*
X106146170Y-79653596D01*
X105930852Y-79711290D01*
X105930842Y-79711293D01*
X105724910Y-79796593D01*
X105724906Y-79796595D01*
X105531859Y-79908052D01*
X105531850Y-79908058D01*
X105355010Y-80043751D01*
X105355003Y-80043757D01*
X105197390Y-80201370D01*
X105197384Y-80201377D01*
X105061691Y-80378217D01*
X105061685Y-80378226D01*
X104950228Y-80571273D01*
X104950226Y-80571277D01*
X104893194Y-80708965D01*
X104849353Y-80763368D01*
X104783059Y-80785433D01*
X104715359Y-80768154D01*
X104667749Y-80717016D01*
X104664072Y-80708965D01*
X104609109Y-80576274D01*
X104607038Y-80571274D01*
X104495581Y-80378226D01*
X104456500Y-80327294D01*
X104359881Y-80201377D01*
X104359875Y-80201370D01*
X104202262Y-80043757D01*
X104202255Y-80043751D01*
X104025415Y-79908058D01*
X104025413Y-79908057D01*
X104025407Y-79908052D01*
X103832359Y-79796595D01*
X103832355Y-79796593D01*
X103626423Y-79711293D01*
X103626416Y-79711291D01*
X103626414Y-79711290D01*
X103411096Y-79653596D01*
X103411090Y-79653595D01*
X103411085Y-79653594D01*
X103190099Y-79624501D01*
X103190096Y-79624500D01*
X103190090Y-79624500D01*
X102967176Y-79624500D01*
X102967170Y-79624500D01*
X102967166Y-79624501D01*
X102746180Y-79653594D01*
X102746173Y-79653595D01*
X102746170Y-79653596D01*
X102530852Y-79711290D01*
X102530842Y-79711293D01*
X102324910Y-79796593D01*
X102324906Y-79796595D01*
X102131859Y-79908052D01*
X102131850Y-79908058D01*
X101955010Y-80043751D01*
X101955003Y-80043757D01*
X101797390Y-80201370D01*
X101797384Y-80201377D01*
X101661691Y-80378217D01*
X101661685Y-80378226D01*
X101550228Y-80571273D01*
X101550226Y-80571277D01*
X101464926Y-80777209D01*
X101464923Y-80777219D01*
X101407230Y-80992534D01*
X101407227Y-80992547D01*
X101378134Y-81213533D01*
X101378133Y-81213549D01*
X100440500Y-81213549D01*
X100440500Y-70975000D01*
X108539500Y-70975000D01*
X108539500Y-72675000D01*
X108542683Y-72707319D01*
X108549212Y-72773616D01*
X108568624Y-72871206D01*
X108568629Y-72871228D01*
X108581281Y-72920795D01*
X108582006Y-72923634D01*
X108644103Y-73053424D01*
X108644104Y-73053426D01*
X108644105Y-73053427D01*
X108687727Y-73118713D01*
X108699380Y-73136152D01*
X108731809Y-73179473D01*
X108838848Y-73275620D01*
X108921576Y-73330897D01*
X108968112Y-73358508D01*
X108968113Y-73358509D01*
X109103789Y-73406374D01*
X109103791Y-73406374D01*
X109103796Y-73406376D01*
X109201380Y-73425787D01*
X109300000Y-73435500D01*
X109300002Y-73435500D01*
X110200167Y-73435500D01*
X110267206Y-73455185D01*
X110312961Y-73507989D01*
X110314728Y-73512047D01*
X110348441Y-73593439D01*
X110447430Y-73741587D01*
X110573412Y-73867569D01*
X110573415Y-73867571D01*
X110721559Y-73966557D01*
X110886167Y-74034740D01*
X110886171Y-74034740D01*
X110886172Y-74034741D01*
X111060912Y-74069500D01*
X111060915Y-74069500D01*
X111239087Y-74069500D01*
X111356649Y-74046114D01*
X111413833Y-74034740D01*
X111578441Y-73966557D01*
X111726585Y-73867571D01*
X111852571Y-73741585D01*
X111951557Y-73593441D01*
X112019740Y-73428833D01*
X112031114Y-73371649D01*
X112054500Y-73254087D01*
X112054500Y-73075912D01*
X112019741Y-72901172D01*
X112019740Y-72901171D01*
X112019740Y-72901167D01*
X111951557Y-72736559D01*
X111852571Y-72588415D01*
X111852569Y-72588412D01*
X111726587Y-72462430D01*
X111620041Y-72391239D01*
X111578441Y-72363443D01*
X111413833Y-72295260D01*
X111413831Y-72295259D01*
X111413829Y-72295258D01*
X111360307Y-72284612D01*
X111298397Y-72252226D01*
X111263823Y-72191510D01*
X111260500Y-72162995D01*
X111260500Y-70975002D01*
X111250787Y-70876383D01*
X111250787Y-70876380D01*
X111231376Y-70778796D01*
X111217994Y-70726366D01*
X111155897Y-70596576D01*
X111100620Y-70513848D01*
X111068191Y-70470527D01*
X110961152Y-70374380D01*
X110878424Y-70319103D01*
X110878423Y-70319102D01*
X110831887Y-70291491D01*
X110831886Y-70291490D01*
X110696210Y-70243625D01*
X110696204Y-70243624D01*
X110648065Y-70234048D01*
X110598616Y-70224212D01*
X110524188Y-70216882D01*
X110500000Y-70214500D01*
X109300000Y-70214500D01*
X109278453Y-70216622D01*
X109201383Y-70224212D01*
X109103793Y-70243624D01*
X109103771Y-70243629D01*
X109051371Y-70257004D01*
X109051367Y-70257005D01*
X108921572Y-70319105D01*
X108838854Y-70374375D01*
X108838840Y-70374385D01*
X108795527Y-70406809D01*
X108699377Y-70513851D01*
X108699377Y-70513852D01*
X108644102Y-70596576D01*
X108616491Y-70643112D01*
X108616490Y-70643113D01*
X108568625Y-70778789D01*
X108568624Y-70778796D01*
X108549212Y-70876383D01*
X108543519Y-70934191D01*
X108539500Y-70975000D01*
X100440500Y-70975000D01*
X100440500Y-65566330D01*
X100460185Y-65499291D01*
X100512989Y-65453536D01*
X100582147Y-65443592D01*
X100645703Y-65472617D01*
X100670861Y-65502585D01*
X100672152Y-65504740D01*
X100874140Y-65807035D01*
X100874150Y-65807049D01*
X101104807Y-66088106D01*
X101361893Y-66345192D01*
X101361898Y-66345196D01*
X101361899Y-66345197D01*
X101642956Y-66575854D01*
X101945268Y-66777853D01*
X101945277Y-66777858D01*
X101945279Y-66777859D01*
X102265916Y-66949243D01*
X102265918Y-66949243D01*
X102265924Y-66949247D01*
X102601836Y-67088386D01*
X102949767Y-67193930D01*
X102949773Y-67193931D01*
X102949776Y-67193932D01*
X102949787Y-67193935D01*
X103306369Y-67264862D01*
X103668206Y-67300500D01*
X103668209Y-67300500D01*
X104031791Y-67300500D01*
X104031794Y-67300500D01*
X104393631Y-67264862D01*
X104511297Y-67241457D01*
X104750212Y-67193935D01*
X104750223Y-67193932D01*
X104750223Y-67193931D01*
X104750233Y-67193930D01*
X105098164Y-67088386D01*
X105434076Y-66949247D01*
X105754732Y-66777853D01*
X106057044Y-66575854D01*
X106338101Y-66345197D01*
X106595197Y-66088101D01*
X106825854Y-65807044D01*
X107027853Y-65504732D01*
X107199247Y-65184076D01*
X107338386Y-64848164D01*
X107443930Y-64500233D01*
X107443932Y-64500223D01*
X107443935Y-64500212D01*
X107514862Y-64143630D01*
X107550500Y-63781790D01*
X107550500Y-63418209D01*
X107514862Y-63056369D01*
X107443935Y-62699787D01*
X107443932Y-62699776D01*
X107443931Y-62699773D01*
X107443930Y-62699767D01*
X107338386Y-62351836D01*
X107199247Y-62015924D01*
X107027853Y-61695268D01*
X106825854Y-61392956D01*
X106595197Y-61111899D01*
X106595196Y-61111898D01*
X106595192Y-61111893D01*
X106338106Y-60854807D01*
X106057049Y-60624150D01*
X106057048Y-60624149D01*
X106057044Y-60624146D01*
X105754732Y-60422147D01*
X105739223Y-60413857D01*
X105689380Y-60364895D01*
X105673920Y-60296757D01*
X105697752Y-60231078D01*
X105753310Y-60188709D01*
X105797678Y-60180500D01*
X154286000Y-60180500D01*
X154353039Y-60200185D01*
G37*
%TD.AperFunction*%
%TD*%
%TA.AperFunction,Conductor*%
%TO.N,HVGND*%
G36*
X146593039Y-84419685D02*
G01*
X146638794Y-84472489D01*
X146650000Y-84524000D01*
X146650000Y-86226000D01*
X146630315Y-86293039D01*
X146577511Y-86338794D01*
X146526000Y-86350000D01*
X142974000Y-86350000D01*
X142906961Y-86330315D01*
X142861206Y-86277511D01*
X142850000Y-86226000D01*
X142850000Y-84524000D01*
X142869685Y-84456961D01*
X142922489Y-84411206D01*
X142974000Y-84400000D01*
X146526000Y-84400000D01*
X146593039Y-84419685D01*
G37*
%TD.AperFunction*%
%TD*%
%TA.AperFunction,Conductor*%
%TO.N,LVGND*%
G36*
X189054504Y-93732062D02*
G01*
X189061744Y-93731441D01*
X189086625Y-93744569D01*
X189112841Y-93754776D01*
X189120071Y-93762216D01*
X189123540Y-93764046D01*
X189137433Y-93780079D01*
X189257016Y-93944672D01*
X189407329Y-94094985D01*
X189407334Y-94094989D01*
X189571913Y-94214562D01*
X189614579Y-94269891D01*
X189620558Y-94339505D01*
X189587953Y-94401300D01*
X189571913Y-94415198D01*
X189407334Y-94534770D01*
X189407329Y-94534774D01*
X189257010Y-94685093D01*
X189132071Y-94857059D01*
X189035564Y-95046465D01*
X188969873Y-95248640D01*
X188936620Y-95458593D01*
X188936620Y-95671166D01*
X188969873Y-95881119D01*
X189035564Y-96083294D01*
X189132071Y-96272700D01*
X189257010Y-96444666D01*
X189407333Y-96594989D01*
X189579299Y-96719928D01*
X189579301Y-96719929D01*
X189579304Y-96719931D01*
X189768708Y-96816437D01*
X189970877Y-96882126D01*
X190180833Y-96915380D01*
X190180834Y-96915380D01*
X190393406Y-96915380D01*
X190393407Y-96915380D01*
X190603363Y-96882126D01*
X190675303Y-96858750D01*
X190745143Y-96856756D01*
X190804976Y-96892836D01*
X190835804Y-96955537D01*
X190837620Y-96976682D01*
X190837620Y-99164941D01*
X190817935Y-99231980D01*
X190801301Y-99252622D01*
X190164300Y-99889623D01*
X190102977Y-99923108D01*
X190033285Y-99918124D01*
X189977352Y-99876252D01*
X189952935Y-99810788D01*
X189952619Y-99801942D01*
X189952619Y-99664878D01*
X189952618Y-99664861D01*
X189942119Y-99562083D01*
X189942118Y-99562080D01*
X189892817Y-99413300D01*
X189886934Y-99395546D01*
X189794832Y-99246224D01*
X189670776Y-99122168D01*
X189521454Y-99030066D01*
X189354917Y-98974881D01*
X189354915Y-98974880D01*
X189252136Y-98964380D01*
X189252129Y-98964380D01*
X188467902Y-98964380D01*
X188400863Y-98944695D01*
X188380221Y-98928061D01*
X187272939Y-97820779D01*
X187239454Y-97759456D01*
X187236620Y-97733098D01*
X187236620Y-95081662D01*
X187256305Y-95014623D01*
X187272939Y-94993981D01*
X187409861Y-94857059D01*
X187815618Y-94451301D01*
X187876939Y-94417818D01*
X187892399Y-94415539D01*
X187893403Y-94415380D01*
X187893407Y-94415380D01*
X188103363Y-94382126D01*
X188305532Y-94316437D01*
X188494936Y-94219931D01*
X188516909Y-94203966D01*
X188666906Y-94094989D01*
X188666908Y-94094986D01*
X188666912Y-94094984D01*
X188817224Y-93944672D01*
X188936803Y-93780084D01*
X188959081Y-93762905D01*
X188979254Y-93743301D01*
X188986375Y-93741857D01*
X188992131Y-93737420D01*
X189020160Y-93735012D01*
X189047732Y-93729426D01*
X189054504Y-93732062D01*
G37*
%TD.AperFunction*%
%TA.AperFunction,Conductor*%
G36*
X192746001Y-60219685D02*
G01*
X192791756Y-60272489D01*
X192801700Y-60341647D01*
X192772675Y-60405203D01*
X192747855Y-60427100D01*
X192629120Y-60506436D01*
X192452964Y-60624140D01*
X192452950Y-60624150D01*
X192171893Y-60854807D01*
X191914807Y-61111893D01*
X191684150Y-61392950D01*
X191684140Y-61392964D01*
X191482151Y-61695261D01*
X191482140Y-61695279D01*
X191310756Y-62015916D01*
X191310754Y-62015921D01*
X191171614Y-62351834D01*
X191066067Y-62699776D01*
X191066064Y-62699787D01*
X190995137Y-63056369D01*
X190959500Y-63418209D01*
X190959500Y-63781790D01*
X190995137Y-64143630D01*
X191066064Y-64500212D01*
X191066067Y-64500223D01*
X191171614Y-64848165D01*
X191310754Y-65184078D01*
X191310756Y-65184083D01*
X191482140Y-65504720D01*
X191482151Y-65504738D01*
X191684140Y-65807035D01*
X191684150Y-65807049D01*
X191914807Y-66088106D01*
X192171893Y-66345192D01*
X192171898Y-66345196D01*
X192171899Y-66345197D01*
X192452956Y-66575854D01*
X192755268Y-66777853D01*
X192755277Y-66777858D01*
X192755279Y-66777859D01*
X193075916Y-66949243D01*
X193075918Y-66949243D01*
X193075924Y-66949247D01*
X193411836Y-67088386D01*
X193759767Y-67193930D01*
X193759773Y-67193931D01*
X193759776Y-67193932D01*
X193759787Y-67193935D01*
X194116369Y-67264862D01*
X194478206Y-67300500D01*
X194478209Y-67300500D01*
X194841791Y-67300500D01*
X194841794Y-67300500D01*
X195203631Y-67264862D01*
X195273045Y-67251054D01*
X195560212Y-67193935D01*
X195560223Y-67193932D01*
X195560223Y-67193931D01*
X195560233Y-67193930D01*
X195908164Y-67088386D01*
X196244076Y-66949247D01*
X196564732Y-66777853D01*
X196867044Y-66575854D01*
X197148101Y-66345197D01*
X197405197Y-66088101D01*
X197635854Y-65807044D01*
X197837853Y-65504732D01*
X197966142Y-65264720D01*
X198015104Y-65214876D01*
X198083242Y-65199415D01*
X198148921Y-65223247D01*
X198191290Y-65278804D01*
X198199500Y-65323173D01*
X198199500Y-113276826D01*
X198179815Y-113343865D01*
X198127011Y-113389620D01*
X198057853Y-113399564D01*
X197994297Y-113370539D01*
X197966142Y-113335279D01*
X197837859Y-113095279D01*
X197837858Y-113095277D01*
X197837853Y-113095268D01*
X197635854Y-112792956D01*
X197405197Y-112511899D01*
X197405196Y-112511898D01*
X197405192Y-112511893D01*
X197148106Y-112254807D01*
X196867049Y-112024150D01*
X196867048Y-112024149D01*
X196867044Y-112024146D01*
X196564732Y-111822147D01*
X196564727Y-111822144D01*
X196564720Y-111822140D01*
X196244083Y-111650756D01*
X196244078Y-111650754D01*
X195908165Y-111511614D01*
X195560223Y-111406067D01*
X195560212Y-111406064D01*
X195203630Y-111335137D01*
X194931111Y-111308296D01*
X194841794Y-111299500D01*
X194478206Y-111299500D01*
X194395679Y-111307628D01*
X194116369Y-111335137D01*
X193759787Y-111406064D01*
X193759776Y-111406067D01*
X193411834Y-111511614D01*
X193075921Y-111650754D01*
X193075916Y-111650756D01*
X192755279Y-111822140D01*
X192755261Y-111822151D01*
X192452964Y-112024140D01*
X192452950Y-112024150D01*
X192171893Y-112254807D01*
X191914807Y-112511893D01*
X191684150Y-112792950D01*
X191684140Y-112792964D01*
X191482151Y-113095261D01*
X191482140Y-113095279D01*
X191310756Y-113415916D01*
X191310754Y-113415921D01*
X191171614Y-113751834D01*
X191066067Y-114099776D01*
X191066064Y-114099787D01*
X190995137Y-114456369D01*
X190959500Y-114818209D01*
X190959500Y-115181790D01*
X190995137Y-115543630D01*
X191066064Y-115900212D01*
X191066067Y-115900223D01*
X191171614Y-116248165D01*
X191310754Y-116584078D01*
X191310756Y-116584083D01*
X191482140Y-116904720D01*
X191482151Y-116904738D01*
X191684140Y-117207035D01*
X191684150Y-117207049D01*
X191914807Y-117488106D01*
X192171893Y-117745192D01*
X192171898Y-117745196D01*
X192171899Y-117745197D01*
X192452956Y-117975854D01*
X192755268Y-118177853D01*
X192755277Y-118177858D01*
X192755279Y-118177859D01*
X192976571Y-118296142D01*
X193026415Y-118345104D01*
X193041876Y-118413242D01*
X193018044Y-118478921D01*
X192962487Y-118521290D01*
X192918118Y-118529500D01*
X155824000Y-118529500D01*
X155756961Y-118509815D01*
X155711206Y-118457011D01*
X155700000Y-118405500D01*
X155700000Y-109629500D01*
X155719685Y-109562461D01*
X155772489Y-109516706D01*
X155824000Y-109505500D01*
X160348640Y-109505500D01*
X160358786Y-109504955D01*
X160402678Y-109502603D01*
X160402686Y-109502602D01*
X160402688Y-109502602D01*
X160402689Y-109502602D01*
X160409682Y-109501849D01*
X160429036Y-109499769D01*
X160429046Y-109499767D01*
X160429049Y-109499767D01*
X160438648Y-109498211D01*
X160482448Y-109491114D01*
X160617257Y-109440832D01*
X160678580Y-109407347D01*
X160793761Y-109321123D01*
X165437819Y-104677065D01*
X165499142Y-104643580D01*
X165568834Y-104648564D01*
X165624767Y-104690436D01*
X165649184Y-104755900D01*
X165649500Y-104764746D01*
X165649500Y-112013330D01*
X165649499Y-112013348D01*
X165649499Y-112179054D01*
X165649498Y-112179054D01*
X165657300Y-112208170D01*
X165690423Y-112331785D01*
X165719360Y-112381904D01*
X165769480Y-112468716D01*
X165774253Y-112473489D01*
X165781868Y-112486198D01*
X165788934Y-112513395D01*
X165799069Y-112539606D01*
X165799500Y-112549930D01*
X165799500Y-112578846D01*
X165830261Y-112733489D01*
X165830264Y-112733501D01*
X165890602Y-112879172D01*
X165890609Y-112879185D01*
X165978210Y-113010288D01*
X165978213Y-113010292D01*
X166089707Y-113121786D01*
X166089711Y-113121789D01*
X166220814Y-113209390D01*
X166220827Y-113209397D01*
X166366498Y-113269735D01*
X166366503Y-113269737D01*
X166521153Y-113300499D01*
X166521156Y-113300500D01*
X166521158Y-113300500D01*
X166678844Y-113300500D01*
X166678845Y-113300499D01*
X166833497Y-113269737D01*
X166979179Y-113209394D01*
X167110289Y-113121789D01*
X167221789Y-113010289D01*
X167309394Y-112879179D01*
X167369737Y-112733497D01*
X167396581Y-112598543D01*
X169499499Y-112598543D01*
X169537947Y-112791829D01*
X169537950Y-112791839D01*
X169613364Y-112973907D01*
X169613371Y-112973920D01*
X169722860Y-113137781D01*
X169722863Y-113137785D01*
X169862214Y-113277136D01*
X169862218Y-113277139D01*
X170026079Y-113386628D01*
X170026092Y-113386635D01*
X170208160Y-113462049D01*
X170208165Y-113462051D01*
X170208169Y-113462051D01*
X170208170Y-113462052D01*
X170401456Y-113500500D01*
X170401459Y-113500500D01*
X170598543Y-113500500D01*
X170728582Y-113474632D01*
X170791835Y-113462051D01*
X170973914Y-113386632D01*
X171137782Y-113277139D01*
X171277139Y-113137782D01*
X171386632Y-112973914D01*
X171462051Y-112791835D01*
X171500500Y-112598541D01*
X171500500Y-112401459D01*
X171500500Y-112401456D01*
X171462052Y-112208170D01*
X171462051Y-112208169D01*
X171462051Y-112208165D01*
X171425872Y-112120821D01*
X171386635Y-112026092D01*
X171386628Y-112026079D01*
X171277139Y-111862218D01*
X171277136Y-111862214D01*
X171137785Y-111722863D01*
X171137781Y-111722860D01*
X170973920Y-111613371D01*
X170973907Y-111613364D01*
X170791839Y-111537950D01*
X170791829Y-111537947D01*
X170598543Y-111499500D01*
X170598541Y-111499500D01*
X170401459Y-111499500D01*
X170401457Y-111499500D01*
X170208170Y-111537947D01*
X170208160Y-111537950D01*
X170026092Y-111613364D01*
X170026079Y-111613371D01*
X169862218Y-111722860D01*
X169862214Y-111722863D01*
X169722863Y-111862214D01*
X169722860Y-111862218D01*
X169613371Y-112026079D01*
X169613364Y-112026092D01*
X169537950Y-112208160D01*
X169537947Y-112208170D01*
X169499500Y-112401456D01*
X169499500Y-112401459D01*
X169499500Y-112598541D01*
X169499500Y-112598543D01*
X169499499Y-112598543D01*
X167396581Y-112598543D01*
X167400500Y-112578842D01*
X167400500Y-112421158D01*
X167400183Y-112419564D01*
X167400183Y-112419561D01*
X167400182Y-112419558D01*
X167369738Y-112266510D01*
X167369737Y-112266503D01*
X167369735Y-112266498D01*
X167309397Y-112120827D01*
X167309390Y-112120814D01*
X167221789Y-111989711D01*
X167221786Y-111989707D01*
X167110292Y-111878213D01*
X167110288Y-111878210D01*
X166979185Y-111790609D01*
X166979170Y-111790601D01*
X166927046Y-111769010D01*
X166872643Y-111725168D01*
X166850579Y-111658874D01*
X166850500Y-111654450D01*
X166850500Y-105396941D01*
X166870185Y-105329902D01*
X166922989Y-105284147D01*
X166992147Y-105274203D01*
X167055703Y-105303228D01*
X167062181Y-105309260D01*
X167124707Y-105371786D01*
X167124711Y-105371789D01*
X167255814Y-105459390D01*
X167255827Y-105459397D01*
X167401498Y-105519735D01*
X167401503Y-105519737D01*
X167556153Y-105550499D01*
X167556156Y-105550500D01*
X167556158Y-105550500D01*
X167713844Y-105550500D01*
X167713845Y-105550499D01*
X167868497Y-105519737D01*
X168014179Y-105459394D01*
X168145289Y-105371789D01*
X168256789Y-105260289D01*
X168344394Y-105129179D01*
X168348728Y-105118717D01*
X168404735Y-104983501D01*
X168404737Y-104983497D01*
X168435500Y-104828842D01*
X168435500Y-104821800D01*
X184534619Y-104821800D01*
X184563460Y-104966787D01*
X184563463Y-104966797D01*
X184620033Y-105103370D01*
X184620038Y-105103379D01*
X184630287Y-105118717D01*
X184630289Y-105118719D01*
X184702171Y-105226300D01*
X184702172Y-105226301D01*
X186777647Y-107301775D01*
X186811132Y-107363098D01*
X186807898Y-107427772D01*
X186784873Y-107498637D01*
X186751620Y-107708593D01*
X186751620Y-107921166D01*
X186784873Y-108131119D01*
X186850564Y-108333294D01*
X186947071Y-108522700D01*
X187072010Y-108694666D01*
X187222333Y-108844989D01*
X187394299Y-108969928D01*
X187394301Y-108969929D01*
X187394304Y-108969931D01*
X187583708Y-109066437D01*
X187785877Y-109132126D01*
X187995833Y-109165380D01*
X187995834Y-109165380D01*
X188708406Y-109165380D01*
X188708407Y-109165380D01*
X188918363Y-109132126D01*
X189120532Y-109066437D01*
X189309936Y-108969931D01*
X189439222Y-108876000D01*
X189481906Y-108844989D01*
X189481908Y-108844986D01*
X189481912Y-108844984D01*
X189632224Y-108694672D01*
X189632226Y-108694668D01*
X189632229Y-108694666D01*
X189757168Y-108522700D01*
X189757167Y-108522700D01*
X189757171Y-108522696D01*
X189853677Y-108333292D01*
X189919366Y-108131123D01*
X189952620Y-107921167D01*
X189952620Y-107708593D01*
X189919366Y-107498637D01*
X189853677Y-107296468D01*
X189757171Y-107107064D01*
X189757169Y-107107061D01*
X189757168Y-107107059D01*
X189632229Y-106935093D01*
X189481912Y-106784776D01*
X189317324Y-106665196D01*
X189274660Y-106609869D01*
X189268681Y-106540256D01*
X189301286Y-106478460D01*
X189317319Y-106464566D01*
X189481912Y-106344984D01*
X189632224Y-106194672D01*
X189632226Y-106194668D01*
X189632229Y-106194666D01*
X189757168Y-106022700D01*
X189757167Y-106022700D01*
X189757171Y-106022696D01*
X189853677Y-105833292D01*
X189919366Y-105631123D01*
X189952620Y-105421167D01*
X189952620Y-105208593D01*
X189919366Y-104998637D01*
X189896340Y-104927773D01*
X189894346Y-104857933D01*
X189926589Y-104801777D01*
X193372072Y-101356295D01*
X193399410Y-101315380D01*
X193454204Y-101233375D01*
X193477638Y-101176800D01*
X193510779Y-101096792D01*
X193539620Y-100951797D01*
X193539620Y-100803962D01*
X193539620Y-92992962D01*
X193539620Y-92992959D01*
X193510779Y-92847972D01*
X193510778Y-92847971D01*
X193510778Y-92847967D01*
X193510776Y-92847962D01*
X193454207Y-92711391D01*
X193454200Y-92711378D01*
X193372072Y-92588465D01*
X193327019Y-92543412D01*
X193267536Y-92483929D01*
X191657295Y-90873687D01*
X191623810Y-90812364D01*
X191622503Y-90766608D01*
X191637620Y-90671165D01*
X191637620Y-90458593D01*
X191614351Y-90311682D01*
X191604366Y-90248637D01*
X191538677Y-90046468D01*
X191442171Y-89857064D01*
X191442169Y-89857061D01*
X191442168Y-89857059D01*
X191317229Y-89685093D01*
X191166912Y-89534776D01*
X191166904Y-89534770D01*
X191002324Y-89415196D01*
X190959660Y-89359869D01*
X190953681Y-89290256D01*
X190986286Y-89228460D01*
X191002319Y-89214566D01*
X191166912Y-89094984D01*
X191317224Y-88944672D01*
X191317226Y-88944668D01*
X191317229Y-88944666D01*
X191442168Y-88772700D01*
X191442167Y-88772700D01*
X191442171Y-88772696D01*
X191538677Y-88583292D01*
X191604366Y-88381123D01*
X191637620Y-88171167D01*
X191637620Y-88171165D01*
X191638382Y-88166355D01*
X191639441Y-88166522D01*
X191662481Y-88106052D01*
X191673536Y-88093383D01*
X193176898Y-86590021D01*
X193176902Y-86590019D01*
X193316259Y-86450662D01*
X193425752Y-86286794D01*
X193479081Y-86158045D01*
X193501171Y-86104716D01*
X193539620Y-85911420D01*
X193539620Y-85714340D01*
X193539620Y-77353339D01*
X193506392Y-77186290D01*
X193501171Y-77160044D01*
X193436255Y-77003323D01*
X193425752Y-76977966D01*
X193389693Y-76924000D01*
X193316260Y-76814099D01*
X193267188Y-76765027D01*
X193176902Y-76674741D01*
X193176901Y-76674740D01*
X189976452Y-73474292D01*
X189942968Y-73412970D01*
X189941663Y-73367207D01*
X189942620Y-73361167D01*
X189942620Y-73148593D01*
X189909366Y-72938637D01*
X189843677Y-72736468D01*
X189747171Y-72547064D01*
X189747169Y-72547061D01*
X189747168Y-72547059D01*
X189622229Y-72375093D01*
X189483414Y-72236278D01*
X189449929Y-72174955D01*
X189454913Y-72105263D01*
X189496785Y-72049330D01*
X189505999Y-72043058D01*
X189511451Y-72039694D01*
X189511454Y-72039694D01*
X189660776Y-71947592D01*
X189784832Y-71823536D01*
X189876934Y-71674214D01*
X189932119Y-71507677D01*
X189942620Y-71404889D01*
X189942619Y-70104872D01*
X189932119Y-70002083D01*
X189876934Y-69835546D01*
X189784832Y-69686224D01*
X189660776Y-69562168D01*
X189511454Y-69470066D01*
X189344917Y-69414881D01*
X189344915Y-69414880D01*
X189242130Y-69404380D01*
X187442118Y-69404380D01*
X187442101Y-69404381D01*
X187339323Y-69414880D01*
X187339320Y-69414881D01*
X187172788Y-69470065D01*
X187172783Y-69470067D01*
X187023462Y-69562169D01*
X186899409Y-69686222D01*
X186807307Y-69835543D01*
X186807306Y-69835546D01*
X186752121Y-70002083D01*
X186752121Y-70002084D01*
X186752120Y-70002084D01*
X186741620Y-70104863D01*
X186741620Y-70889096D01*
X186721935Y-70956135D01*
X186705300Y-70976777D01*
X184897340Y-72784739D01*
X184897338Y-72784741D01*
X184827658Y-72854420D01*
X184757979Y-72924099D01*
X184648491Y-73087960D01*
X184648484Y-73087973D01*
X184623376Y-73148592D01*
X184623376Y-73148593D01*
X184573069Y-73270043D01*
X184573067Y-73270051D01*
X184556826Y-73351696D01*
X184553844Y-73366692D01*
X184534620Y-73463339D01*
X184534620Y-73468817D01*
X184534620Y-85911424D01*
X184573067Y-86104713D01*
X184573069Y-86104716D01*
X184595158Y-86158045D01*
X184614012Y-86203563D01*
X184648486Y-86286791D01*
X184648491Y-86286800D01*
X184757980Y-86450661D01*
X184757983Y-86450665D01*
X184901657Y-86594339D01*
X184901679Y-86594359D01*
X186400696Y-88093376D01*
X186410992Y-88112232D01*
X186425241Y-88128318D01*
X186430390Y-88147757D01*
X186434181Y-88154699D01*
X186435553Y-88162072D01*
X186436620Y-88168958D01*
X186436620Y-88171167D01*
X186452321Y-88270300D01*
X186452364Y-88270576D01*
X186447777Y-88305150D01*
X186443344Y-88339457D01*
X186443204Y-88339622D01*
X186443176Y-88339839D01*
X186420647Y-88366418D01*
X186398348Y-88392909D01*
X186398112Y-88393005D01*
X186398000Y-88393139D01*
X186397187Y-88393387D01*
X186354018Y-88411178D01*
X186183292Y-88445138D01*
X186183286Y-88445140D01*
X186018680Y-88513322D01*
X185870532Y-88612310D01*
X185744550Y-88738292D01*
X185645562Y-88886440D01*
X185577380Y-89051046D01*
X185577378Y-89051052D01*
X185542620Y-89225792D01*
X185542620Y-89225795D01*
X185542620Y-89403965D01*
X185542620Y-89403967D01*
X185542619Y-89403967D01*
X185577378Y-89578707D01*
X185577380Y-89578713D01*
X185645562Y-89743319D01*
X185744550Y-89891467D01*
X185870532Y-90017449D01*
X185870535Y-90017451D01*
X186018679Y-90116437D01*
X186183287Y-90184620D01*
X186289142Y-90205676D01*
X186354017Y-90218581D01*
X186415928Y-90250966D01*
X186450502Y-90311682D01*
X186452299Y-90359595D01*
X186436620Y-90458592D01*
X186436620Y-90671172D01*
X186451736Y-90766608D01*
X186442782Y-90835901D01*
X186416944Y-90873687D01*
X184702165Y-92588466D01*
X184666109Y-92642432D01*
X184666107Y-92642435D01*
X184620039Y-92711379D01*
X184620032Y-92711391D01*
X184563463Y-92847962D01*
X184563460Y-92847972D01*
X184534620Y-92992959D01*
X184534620Y-92992962D01*
X184534620Y-104821798D01*
X184534620Y-104821800D01*
X184534619Y-104821800D01*
X168435500Y-104821800D01*
X168435500Y-104671158D01*
X168435500Y-104671155D01*
X168435499Y-104671153D01*
X168404738Y-104516510D01*
X168404737Y-104516503D01*
X168371811Y-104437012D01*
X168344397Y-104370827D01*
X168344390Y-104370814D01*
X168256398Y-104239125D01*
X168235520Y-104172447D01*
X168235500Y-104170234D01*
X168235500Y-101614138D01*
X168255185Y-101547099D01*
X168307989Y-101501344D01*
X168350649Y-101490455D01*
X168493310Y-101480252D01*
X168628119Y-101429970D01*
X168689442Y-101396485D01*
X168804624Y-101310261D01*
X171827458Y-98287426D01*
X171900079Y-98195643D01*
X171930052Y-98147121D01*
X171979619Y-98041100D01*
X172005166Y-97899506D01*
X172007660Y-97829681D01*
X171992281Y-97686626D01*
X171937221Y-97553698D01*
X171901569Y-97493609D01*
X171901566Y-97493605D01*
X171811286Y-97381574D01*
X171760418Y-97346256D01*
X171716578Y-97291855D01*
X171709109Y-97222385D01*
X171740383Y-97159906D01*
X171800472Y-97124253D01*
X171825902Y-97121058D01*
X171825878Y-97120717D01*
X171830290Y-97120401D01*
X171830297Y-97120401D01*
X171899455Y-97110457D01*
X172037504Y-97069922D01*
X172158543Y-96992134D01*
X172211347Y-96946379D01*
X172305567Y-96837645D01*
X172365338Y-96706768D01*
X172385023Y-96639729D01*
X172385024Y-96639725D01*
X172405500Y-96497309D01*
X172405500Y-78688549D01*
X173509500Y-78688549D01*
X173509500Y-78911450D01*
X173509501Y-78911466D01*
X173538594Y-79132452D01*
X173538595Y-79132457D01*
X173538596Y-79132463D01*
X173579464Y-79284984D01*
X173596290Y-79347780D01*
X173596293Y-79347790D01*
X173677980Y-79544999D01*
X173681595Y-79553726D01*
X173793052Y-79746774D01*
X173793057Y-79746780D01*
X173793058Y-79746782D01*
X173928751Y-79923622D01*
X173928757Y-79923629D01*
X174086370Y-80081242D01*
X174086376Y-80081247D01*
X174263226Y-80216948D01*
X174456274Y-80328405D01*
X174493199Y-80343699D01*
X174593965Y-80385439D01*
X174648368Y-80429280D01*
X174670433Y-80495574D01*
X174653154Y-80563274D01*
X174602016Y-80610884D01*
X174593965Y-80614561D01*
X174456277Y-80671593D01*
X174456273Y-80671595D01*
X174263226Y-80783052D01*
X174263217Y-80783058D01*
X174086377Y-80918751D01*
X174086370Y-80918757D01*
X173928757Y-81076370D01*
X173928751Y-81076377D01*
X173793058Y-81253217D01*
X173793052Y-81253226D01*
X173681595Y-81446273D01*
X173681593Y-81446277D01*
X173596293Y-81652209D01*
X173596290Y-81652219D01*
X173562034Y-81780067D01*
X173538597Y-81867534D01*
X173538594Y-81867547D01*
X173509501Y-82088533D01*
X173509500Y-82088549D01*
X173509500Y-82311450D01*
X173509501Y-82311466D01*
X173538594Y-82532452D01*
X173538595Y-82532457D01*
X173538596Y-82532463D01*
X173538597Y-82532465D01*
X173596290Y-82747780D01*
X173596293Y-82747790D01*
X173681593Y-82953722D01*
X173681595Y-82953726D01*
X173793052Y-83146774D01*
X173793057Y-83146780D01*
X173793058Y-83146782D01*
X173928751Y-83323622D01*
X173928757Y-83323629D01*
X174086370Y-83481242D01*
X174086376Y-83481247D01*
X174263226Y-83616948D01*
X174456274Y-83728405D01*
X174662219Y-83813710D01*
X174877537Y-83871404D01*
X175098543Y-83900500D01*
X175098550Y-83900500D01*
X175321450Y-83900500D01*
X175321457Y-83900500D01*
X175542463Y-83871404D01*
X175757781Y-83813710D01*
X175963726Y-83728405D01*
X176156774Y-83616948D01*
X176333624Y-83481247D01*
X176491247Y-83323624D01*
X176626948Y-83146774D01*
X176738405Y-82953726D01*
X176823710Y-82747781D01*
X176881404Y-82532463D01*
X176910500Y-82311457D01*
X176910500Y-82088543D01*
X176881404Y-81867537D01*
X176823710Y-81652219D01*
X176738405Y-81446274D01*
X176626948Y-81253226D01*
X176491247Y-81076376D01*
X176491242Y-81076370D01*
X176333629Y-80918757D01*
X176333622Y-80918751D01*
X176156782Y-80783058D01*
X176156780Y-80783057D01*
X176156774Y-80783052D01*
X175963726Y-80671595D01*
X175963722Y-80671593D01*
X175826034Y-80614561D01*
X175771631Y-80570720D01*
X175749566Y-80504426D01*
X175766845Y-80436727D01*
X175817982Y-80389116D01*
X175826034Y-80385439D01*
X175863768Y-80369808D01*
X175963726Y-80328405D01*
X176156774Y-80216948D01*
X176333624Y-80081247D01*
X176491247Y-79923624D01*
X176626948Y-79746774D01*
X176738405Y-79553726D01*
X176823710Y-79347781D01*
X176881404Y-79132463D01*
X176910500Y-78911457D01*
X176910500Y-78688543D01*
X176881404Y-78467537D01*
X176823710Y-78252219D01*
X176738405Y-78046274D01*
X176626948Y-77853226D01*
X176491247Y-77676376D01*
X176491242Y-77676370D01*
X176333629Y-77518757D01*
X176333622Y-77518751D01*
X176156782Y-77383058D01*
X176156780Y-77383057D01*
X176156774Y-77383052D01*
X175963726Y-77271595D01*
X175963722Y-77271593D01*
X175757790Y-77186293D01*
X175757783Y-77186291D01*
X175757781Y-77186290D01*
X175542463Y-77128596D01*
X175542457Y-77128595D01*
X175542452Y-77128594D01*
X175321466Y-77099501D01*
X175321463Y-77099500D01*
X175321457Y-77099500D01*
X175098543Y-77099500D01*
X175098537Y-77099500D01*
X175098533Y-77099501D01*
X174877547Y-77128594D01*
X174877540Y-77128595D01*
X174877537Y-77128596D01*
X174662223Y-77186289D01*
X174662219Y-77186290D01*
X174662209Y-77186293D01*
X174456277Y-77271593D01*
X174456273Y-77271595D01*
X174263226Y-77383052D01*
X174263217Y-77383058D01*
X174086377Y-77518751D01*
X174086370Y-77518757D01*
X173928757Y-77676370D01*
X173928751Y-77676377D01*
X173793058Y-77853217D01*
X173793052Y-77853226D01*
X173681595Y-78046273D01*
X173681593Y-78046277D01*
X173596293Y-78252209D01*
X173596290Y-78252219D01*
X173554242Y-78409147D01*
X173538597Y-78467534D01*
X173538594Y-78467547D01*
X173509501Y-78688533D01*
X173509500Y-78688549D01*
X172405500Y-78688549D01*
X172405500Y-76924000D01*
X172393947Y-76816544D01*
X172382741Y-76765033D01*
X172382637Y-76764722D01*
X172348616Y-76662502D01*
X172348613Y-76662496D01*
X172330731Y-76634672D01*
X172270825Y-76541457D01*
X172270820Y-76541451D01*
X172225076Y-76488659D01*
X172225072Y-76488656D01*
X172225070Y-76488653D01*
X172116336Y-76394433D01*
X172116333Y-76394431D01*
X172116331Y-76394430D01*
X171985465Y-76334664D01*
X171985460Y-76334662D01*
X171985459Y-76334662D01*
X171918420Y-76314977D01*
X171918422Y-76314977D01*
X171918417Y-76314976D01*
X171856354Y-76306053D01*
X171776000Y-76294500D01*
X155824000Y-76294500D01*
X155756961Y-76274815D01*
X155711206Y-76222011D01*
X155700000Y-76170500D01*
X155700000Y-67098543D01*
X167399499Y-67098543D01*
X167437947Y-67291829D01*
X167437950Y-67291839D01*
X167513364Y-67473907D01*
X167513371Y-67473920D01*
X167622860Y-67637781D01*
X167622863Y-67637785D01*
X167762214Y-67777136D01*
X167762218Y-67777139D01*
X167926079Y-67886628D01*
X167926092Y-67886635D01*
X168108160Y-67962049D01*
X168108165Y-67962051D01*
X168108169Y-67962051D01*
X168108170Y-67962052D01*
X168301456Y-68000500D01*
X168301459Y-68000500D01*
X168498543Y-68000500D01*
X168628582Y-67974632D01*
X168691835Y-67962051D01*
X168873914Y-67886632D01*
X169037782Y-67777139D01*
X169177139Y-67637782D01*
X169286632Y-67473914D01*
X169362051Y-67291835D01*
X169400500Y-67098543D01*
X171199499Y-67098543D01*
X171237947Y-67291829D01*
X171237950Y-67291839D01*
X171313364Y-67473907D01*
X171313371Y-67473920D01*
X171422860Y-67637781D01*
X171422863Y-67637785D01*
X171562214Y-67777136D01*
X171562218Y-67777139D01*
X171726079Y-67886628D01*
X171726092Y-67886635D01*
X171908160Y-67962049D01*
X171908165Y-67962051D01*
X171908169Y-67962051D01*
X171908170Y-67962052D01*
X172101456Y-68000500D01*
X172101459Y-68000500D01*
X172298543Y-68000500D01*
X172428582Y-67974632D01*
X172491835Y-67962051D01*
X172673914Y-67886632D01*
X172837782Y-67777139D01*
X172977139Y-67637782D01*
X173086632Y-67473914D01*
X173162051Y-67291835D01*
X173200500Y-67098541D01*
X173200500Y-66901459D01*
X173200500Y-66901456D01*
X173162052Y-66708170D01*
X173162051Y-66708169D01*
X173162051Y-66708165D01*
X173162049Y-66708160D01*
X173086635Y-66526092D01*
X173086628Y-66526079D01*
X172977139Y-66362218D01*
X172977136Y-66362214D01*
X172837785Y-66222863D01*
X172837781Y-66222860D01*
X172673920Y-66113371D01*
X172673907Y-66113364D01*
X172491839Y-66037950D01*
X172491829Y-66037947D01*
X172298543Y-65999500D01*
X172298541Y-65999500D01*
X172101459Y-65999500D01*
X172101457Y-65999500D01*
X171908170Y-66037947D01*
X171908160Y-66037950D01*
X171726092Y-66113364D01*
X171726079Y-66113371D01*
X171562218Y-66222860D01*
X171562214Y-66222863D01*
X171422863Y-66362214D01*
X171422860Y-66362218D01*
X171313371Y-66526079D01*
X171313364Y-66526092D01*
X171237950Y-66708160D01*
X171237947Y-66708170D01*
X171199500Y-66901456D01*
X171199500Y-66901459D01*
X171199500Y-67098541D01*
X171199500Y-67098543D01*
X171199499Y-67098543D01*
X169400500Y-67098543D01*
X169400500Y-67098541D01*
X169400500Y-66901459D01*
X169400500Y-66901456D01*
X169362052Y-66708170D01*
X169362051Y-66708169D01*
X169362051Y-66708165D01*
X169362049Y-66708160D01*
X169286635Y-66526092D01*
X169286628Y-66526079D01*
X169177139Y-66362218D01*
X169177136Y-66362214D01*
X169037785Y-66222863D01*
X169037781Y-66222860D01*
X168873920Y-66113371D01*
X168873907Y-66113364D01*
X168691839Y-66037950D01*
X168691829Y-66037947D01*
X168498543Y-65999500D01*
X168498541Y-65999500D01*
X168301459Y-65999500D01*
X168301457Y-65999500D01*
X168108170Y-66037947D01*
X168108160Y-66037950D01*
X167926092Y-66113364D01*
X167926079Y-66113371D01*
X167762218Y-66222860D01*
X167762214Y-66222863D01*
X167622863Y-66362214D01*
X167622860Y-66362218D01*
X167513371Y-66526079D01*
X167513364Y-66526092D01*
X167437950Y-66708160D01*
X167437947Y-66708170D01*
X167399500Y-66901456D01*
X167399500Y-66901459D01*
X167399500Y-67098541D01*
X167399500Y-67098543D01*
X167399499Y-67098543D01*
X155700000Y-67098543D01*
X155700000Y-60324000D01*
X155719685Y-60256961D01*
X155772489Y-60211206D01*
X155824000Y-60200000D01*
X192678962Y-60200000D01*
X192746001Y-60219685D01*
G37*
%TD.AperFunction*%
%TA.AperFunction,Conductor*%
G36*
X171041027Y-96707381D02*
G01*
X171074079Y-96713956D01*
X171097325Y-96721006D01*
X171128458Y-96733902D01*
X171149890Y-96745359D01*
X171177898Y-96764074D01*
X171196685Y-96779492D01*
X171220502Y-96803308D01*
X171235925Y-96822100D01*
X171252585Y-96847034D01*
X171252590Y-96847041D01*
X171252593Y-96847045D01*
X171293834Y-96900626D01*
X171315733Y-96925448D01*
X171363765Y-96973054D01*
X171392219Y-96991340D01*
X171437975Y-97044143D01*
X171447919Y-97113302D01*
X171418895Y-97176858D01*
X171360117Y-97214633D01*
X171338437Y-97218945D01*
X171280857Y-97225136D01*
X171280848Y-97225137D01*
X171280840Y-97225138D01*
X171141439Y-97260719D01*
X171141432Y-97260721D01*
X171097327Y-97278990D01*
X171074073Y-97286044D01*
X171074070Y-97286045D01*
X171057443Y-97289352D01*
X171041030Y-97292617D01*
X171016841Y-97295000D01*
X170983159Y-97295000D01*
X170958970Y-97292617D01*
X170925924Y-97286044D01*
X170902667Y-97278988D01*
X170871547Y-97266098D01*
X170850107Y-97254638D01*
X170822099Y-97235923D01*
X170803312Y-97220505D01*
X170779495Y-97196689D01*
X170764074Y-97177899D01*
X170745358Y-97149890D01*
X170733901Y-97128455D01*
X170726446Y-97110457D01*
X170721007Y-97097326D01*
X170713954Y-97074075D01*
X170707381Y-97041031D01*
X170705000Y-97016844D01*
X170705000Y-96983153D01*
X170707382Y-96958964D01*
X170708064Y-96955537D01*
X170713956Y-96925914D01*
X170721006Y-96902674D01*
X170733902Y-96871539D01*
X170745351Y-96850119D01*
X170764079Y-96822090D01*
X170779488Y-96803316D01*
X170803314Y-96779489D01*
X170822098Y-96764074D01*
X170850111Y-96745356D01*
X170871545Y-96733900D01*
X170902668Y-96721008D01*
X170925918Y-96713955D01*
X170958970Y-96707381D01*
X170983154Y-96705000D01*
X171016842Y-96705000D01*
X171041027Y-96707381D01*
G37*
%TD.AperFunction*%
%TA.AperFunction,Conductor*%
G36*
X159303038Y-78324685D02*
G01*
X159348793Y-78377489D01*
X159359999Y-78429000D01*
X159359999Y-79420999D01*
X159340314Y-79488038D01*
X159287510Y-79533793D01*
X159235999Y-79544999D01*
X158244000Y-79544999D01*
X158176961Y-79525314D01*
X158131206Y-79472510D01*
X158120000Y-79420999D01*
X158120000Y-78429000D01*
X158139685Y-78361961D01*
X158192489Y-78316206D01*
X158244000Y-78305000D01*
X159235999Y-78305000D01*
X159303038Y-78324685D01*
G37*
%TD.AperFunction*%
%TD*%
%TA.AperFunction,Conductor*%
%TO.N,HV-*%
G36*
X124043039Y-67519685D02*
G01*
X124088794Y-67572489D01*
X124100000Y-67624000D01*
X124100000Y-87787269D01*
X124080315Y-87854308D01*
X124063681Y-87874950D01*
X122184703Y-89753927D01*
X122144480Y-89780805D01*
X122120819Y-89790606D01*
X122120818Y-89790607D01*
X121989715Y-89878207D01*
X121989707Y-89878213D01*
X121878213Y-89989707D01*
X121878210Y-89989711D01*
X121790609Y-90120814D01*
X121790602Y-90120827D01*
X121730264Y-90266498D01*
X121730261Y-90266510D01*
X121699500Y-90421153D01*
X121699500Y-90578846D01*
X121730261Y-90733489D01*
X121730264Y-90733501D01*
X121790602Y-90879172D01*
X121790609Y-90879185D01*
X121878210Y-91010288D01*
X121878213Y-91010292D01*
X121989707Y-91121786D01*
X121989711Y-91121789D01*
X122120814Y-91209390D01*
X122120827Y-91209397D01*
X122266498Y-91269735D01*
X122266503Y-91269737D01*
X122421153Y-91300499D01*
X122421156Y-91300500D01*
X122421158Y-91300500D01*
X122578844Y-91300500D01*
X122578845Y-91300499D01*
X122733497Y-91269737D01*
X122879179Y-91209394D01*
X123010289Y-91121789D01*
X123121789Y-91010289D01*
X123209394Y-90879179D01*
X123219191Y-90855524D01*
X123246069Y-90815297D01*
X123888319Y-90173047D01*
X123949642Y-90139563D01*
X124019334Y-90144547D01*
X124075267Y-90186419D01*
X124099684Y-90251883D01*
X124100000Y-90260729D01*
X124100000Y-110176000D01*
X124080315Y-110243039D01*
X124027511Y-110288794D01*
X123976000Y-110300000D01*
X114024000Y-110300000D01*
X113956961Y-110280315D01*
X113911206Y-110227511D01*
X113900000Y-110176000D01*
X113900000Y-82162687D01*
X113919685Y-82095648D01*
X113972489Y-82049893D01*
X114041647Y-82039949D01*
X114105203Y-82068974D01*
X114131386Y-82100685D01*
X114233052Y-82276774D01*
X114233057Y-82276780D01*
X114233058Y-82276782D01*
X114368751Y-82453622D01*
X114368757Y-82453629D01*
X114526370Y-82611242D01*
X114526376Y-82611247D01*
X114703226Y-82746948D01*
X114896274Y-82858405D01*
X115102219Y-82943710D01*
X115317537Y-83001404D01*
X115538543Y-83030500D01*
X115538550Y-83030500D01*
X115761450Y-83030500D01*
X115761457Y-83030500D01*
X115982463Y-83001404D01*
X116197781Y-82943710D01*
X116403726Y-82858405D01*
X116596774Y-82746948D01*
X116773624Y-82611247D01*
X116931247Y-82453624D01*
X117066948Y-82276774D01*
X117178405Y-82083726D01*
X117263710Y-81877781D01*
X117321404Y-81662463D01*
X117350500Y-81441457D01*
X117350500Y-81218543D01*
X117321404Y-80997537D01*
X117263710Y-80782219D01*
X117178405Y-80576274D01*
X117066948Y-80383226D01*
X116931247Y-80206376D01*
X116931242Y-80206370D01*
X116773629Y-80048757D01*
X116773622Y-80048751D01*
X116596782Y-79913058D01*
X116596780Y-79913057D01*
X116596774Y-79913052D01*
X116403726Y-79801595D01*
X116403722Y-79801593D01*
X116197790Y-79716293D01*
X116197783Y-79716291D01*
X116197781Y-79716290D01*
X115982463Y-79658596D01*
X115982457Y-79658595D01*
X115982452Y-79658594D01*
X115761466Y-79629501D01*
X115761463Y-79629500D01*
X115761457Y-79629500D01*
X115538543Y-79629500D01*
X115538537Y-79629500D01*
X115538533Y-79629501D01*
X115317547Y-79658594D01*
X115317540Y-79658595D01*
X115317537Y-79658596D01*
X115102219Y-79716290D01*
X115102209Y-79716293D01*
X114896277Y-79801593D01*
X114896273Y-79801595D01*
X114703226Y-79913052D01*
X114703217Y-79913058D01*
X114526377Y-80048751D01*
X114526370Y-80048757D01*
X114368757Y-80206370D01*
X114368751Y-80206377D01*
X114233058Y-80383217D01*
X114233052Y-80383226D01*
X114131387Y-80559313D01*
X114080819Y-80607528D01*
X114012212Y-80620750D01*
X113947348Y-80594782D01*
X113906820Y-80537868D01*
X113900000Y-80497312D01*
X113900000Y-73261131D01*
X113919685Y-73194092D01*
X113972489Y-73148337D01*
X114041647Y-73138393D01*
X114096885Y-73160813D01*
X114192184Y-73230051D01*
X114381588Y-73326557D01*
X114583757Y-73392246D01*
X114793713Y-73425500D01*
X114793714Y-73425500D01*
X115006286Y-73425500D01*
X115006287Y-73425500D01*
X115216243Y-73392246D01*
X115418412Y-73326557D01*
X115607816Y-73230051D01*
X115703115Y-73160813D01*
X115779786Y-73105109D01*
X115779788Y-73105106D01*
X115779792Y-73105104D01*
X115930104Y-72954792D01*
X115930106Y-72954788D01*
X115930109Y-72954786D01*
X116055048Y-72782820D01*
X116055047Y-72782820D01*
X116055051Y-72782816D01*
X116151557Y-72593412D01*
X116217246Y-72391243D01*
X116250500Y-72181287D01*
X116250500Y-71468713D01*
X116217246Y-71258757D01*
X116151557Y-71056588D01*
X116055051Y-70867184D01*
X116055049Y-70867181D01*
X116055048Y-70867179D01*
X115930109Y-70695213D01*
X115779786Y-70544890D01*
X115607820Y-70419951D01*
X115418414Y-70323444D01*
X115418413Y-70323443D01*
X115418412Y-70323443D01*
X115216243Y-70257754D01*
X115216241Y-70257753D01*
X115216240Y-70257753D01*
X115054957Y-70232208D01*
X115006287Y-70224500D01*
X114793713Y-70224500D01*
X114745042Y-70232208D01*
X114583760Y-70257753D01*
X114381585Y-70323444D01*
X114192184Y-70419948D01*
X114096885Y-70489187D01*
X114031078Y-70512666D01*
X113963024Y-70496840D01*
X113914330Y-70446734D01*
X113900000Y-70388868D01*
X113900000Y-67624000D01*
X113919685Y-67556961D01*
X113972489Y-67511206D01*
X114024000Y-67500000D01*
X123976000Y-67500000D01*
X124043039Y-67519685D01*
G37*
%TD.AperFunction*%
%TD*%
%TA.AperFunction,Conductor*%
%TO.N,3V3*%
G36*
X171843039Y-76819685D02*
G01*
X171888794Y-76872489D01*
X171900000Y-76924000D01*
X171900000Y-96497309D01*
X171880315Y-96564348D01*
X171827511Y-96610103D01*
X171758353Y-96620047D01*
X171694797Y-96591022D01*
X171672898Y-96566200D01*
X171621789Y-96489711D01*
X171621786Y-96489707D01*
X171510292Y-96378213D01*
X171510288Y-96378210D01*
X171379185Y-96290609D01*
X171379172Y-96290602D01*
X171233501Y-96230264D01*
X171233489Y-96230261D01*
X171078845Y-96199500D01*
X171078842Y-96199500D01*
X170921158Y-96199500D01*
X170921155Y-96199500D01*
X170766510Y-96230261D01*
X170766498Y-96230264D01*
X170620827Y-96290602D01*
X170620814Y-96290609D01*
X170489711Y-96378210D01*
X170489707Y-96378213D01*
X170378213Y-96489707D01*
X170378210Y-96489711D01*
X170290609Y-96620814D01*
X170290602Y-96620827D01*
X170230264Y-96766498D01*
X170230261Y-96766510D01*
X170199500Y-96921153D01*
X170199500Y-97078846D01*
X170230261Y-97233489D01*
X170230264Y-97233501D01*
X170290602Y-97379172D01*
X170290609Y-97379185D01*
X170378210Y-97510288D01*
X170378213Y-97510292D01*
X170489707Y-97621786D01*
X170489711Y-97621789D01*
X170620814Y-97709390D01*
X170620827Y-97709397D01*
X170766498Y-97769735D01*
X170766503Y-97769737D01*
X170921153Y-97800499D01*
X170921156Y-97800500D01*
X170921158Y-97800500D01*
X171078844Y-97800500D01*
X171078845Y-97800499D01*
X171233497Y-97769737D01*
X171334883Y-97727741D01*
X171404350Y-97720273D01*
X171466830Y-97751548D01*
X171502482Y-97811637D01*
X171499988Y-97881462D01*
X171470015Y-97929984D01*
X168447181Y-100952819D01*
X168385858Y-100986304D01*
X168316166Y-100981320D01*
X168260233Y-100939448D01*
X168235816Y-100873984D01*
X168235500Y-100865138D01*
X168235500Y-95455945D01*
X168235500Y-95455943D01*
X168194577Y-95303216D01*
X168140926Y-95210289D01*
X168115524Y-95166290D01*
X168115521Y-95166286D01*
X168115520Y-95166284D01*
X168003716Y-95054480D01*
X168003715Y-95054479D01*
X167999385Y-95050149D01*
X167999374Y-95050139D01*
X167634574Y-94685339D01*
X167601089Y-94624016D01*
X167600638Y-94621849D01*
X167569738Y-94466510D01*
X167569737Y-94466503D01*
X167569735Y-94466498D01*
X167509397Y-94320827D01*
X167509390Y-94320814D01*
X167421789Y-94189711D01*
X167421786Y-94189707D01*
X167310292Y-94078213D01*
X167310288Y-94078210D01*
X167179185Y-93990609D01*
X167179172Y-93990602D01*
X167033501Y-93930264D01*
X167033489Y-93930261D01*
X166878845Y-93899500D01*
X166878842Y-93899500D01*
X166721158Y-93899500D01*
X166721155Y-93899500D01*
X166566510Y-93930261D01*
X166566498Y-93930264D01*
X166420827Y-93990602D01*
X166420814Y-93990609D01*
X166289711Y-94078210D01*
X166289707Y-94078213D01*
X166178213Y-94189707D01*
X166178210Y-94189711D01*
X166090609Y-94320814D01*
X166090602Y-94320827D01*
X166030264Y-94466498D01*
X166030261Y-94466510D01*
X165999500Y-94621153D01*
X165999500Y-94778846D01*
X166030261Y-94933489D01*
X166030264Y-94933501D01*
X166090602Y-95079172D01*
X166090609Y-95079185D01*
X166178210Y-95210288D01*
X166178213Y-95210292D01*
X166289707Y-95321786D01*
X166289711Y-95321789D01*
X166420814Y-95409390D01*
X166420827Y-95409397D01*
X166566498Y-95469735D01*
X166566503Y-95469737D01*
X166631147Y-95482595D01*
X166721849Y-95500638D01*
X166783760Y-95533023D01*
X166785339Y-95534574D01*
X166998181Y-95747416D01*
X167031666Y-95808739D01*
X167034500Y-95835097D01*
X167034500Y-99684559D01*
X167014815Y-99751598D01*
X166962011Y-99797353D01*
X166892853Y-99807297D01*
X166829297Y-99778272D01*
X166822819Y-99772240D01*
X166760292Y-99709713D01*
X166760288Y-99709710D01*
X166629185Y-99622109D01*
X166629172Y-99622102D01*
X166483501Y-99561764D01*
X166483489Y-99561761D01*
X166328845Y-99531000D01*
X166328842Y-99531000D01*
X166171158Y-99531000D01*
X166171155Y-99531000D01*
X166016510Y-99561761D01*
X166016498Y-99561764D01*
X165870827Y-99622102D01*
X165870814Y-99622109D01*
X165739711Y-99709710D01*
X165739707Y-99709713D01*
X165628213Y-99821207D01*
X165628210Y-99821211D01*
X165540609Y-99952314D01*
X165540602Y-99952327D01*
X165480264Y-100097998D01*
X165480261Y-100098010D01*
X165449500Y-100252653D01*
X165449500Y-100410346D01*
X165480261Y-100564989D01*
X165480264Y-100565001D01*
X165540602Y-100710672D01*
X165540609Y-100710685D01*
X165628602Y-100842374D01*
X165649480Y-100909051D01*
X165649500Y-100911265D01*
X165649500Y-103699138D01*
X165629815Y-103766177D01*
X165613181Y-103786819D01*
X160436319Y-108963681D01*
X160374996Y-108997166D01*
X160348638Y-109000000D01*
X155724000Y-109000000D01*
X155656961Y-108980315D01*
X155611206Y-108927511D01*
X155600000Y-108876000D01*
X155600000Y-78252135D01*
X157614500Y-78252135D01*
X157614500Y-79597870D01*
X157614501Y-79597876D01*
X157620908Y-79657483D01*
X157671202Y-79792328D01*
X157671206Y-79792335D01*
X157757452Y-79907544D01*
X157757455Y-79907547D01*
X157872664Y-79993793D01*
X157872671Y-79993797D01*
X158007517Y-80044091D01*
X158007516Y-80044091D01*
X158014444Y-80044835D01*
X158067127Y-80050500D01*
X159412872Y-80050499D01*
X159472483Y-80044091D01*
X159607331Y-79993796D01*
X159722546Y-79907546D01*
X159808796Y-79792331D01*
X159859091Y-79657483D01*
X159865500Y-79597873D01*
X159865499Y-78252128D01*
X159859091Y-78192517D01*
X159808796Y-78057669D01*
X159808795Y-78057668D01*
X159808793Y-78057664D01*
X159722547Y-77942455D01*
X159722544Y-77942452D01*
X159607335Y-77856206D01*
X159607328Y-77856202D01*
X159472482Y-77805908D01*
X159472483Y-77805908D01*
X159412883Y-77799501D01*
X159412881Y-77799500D01*
X159412873Y-77799500D01*
X159412864Y-77799500D01*
X158067129Y-77799500D01*
X158067123Y-77799501D01*
X158007516Y-77805908D01*
X157872671Y-77856202D01*
X157872664Y-77856206D01*
X157757455Y-77942452D01*
X157757452Y-77942455D01*
X157671206Y-78057664D01*
X157671202Y-78057671D01*
X157620908Y-78192517D01*
X157614501Y-78252116D01*
X157614501Y-78252123D01*
X157614500Y-78252135D01*
X155600000Y-78252135D01*
X155600000Y-76924000D01*
X155619685Y-76856961D01*
X155672489Y-76811206D01*
X155724000Y-76800000D01*
X171776000Y-76800000D01*
X171843039Y-76819685D01*
G37*
%TD.AperFunction*%
%TD*%
%TA.AperFunction,Conductor*%
%TO.N,REG_3V3*%
G36*
X150131558Y-67519685D02*
G01*
X150167620Y-67555108D01*
X150179234Y-67572489D01*
X150222862Y-67637784D01*
X150362214Y-67777136D01*
X150362218Y-67777139D01*
X150526079Y-67886628D01*
X150526092Y-67886635D01*
X150708160Y-67962049D01*
X150708165Y-67962051D01*
X150708169Y-67962051D01*
X150708170Y-67962052D01*
X150901456Y-68000500D01*
X150901459Y-68000500D01*
X151098543Y-68000500D01*
X151228582Y-67974632D01*
X151291835Y-67962051D01*
X151473914Y-67886632D01*
X151637782Y-67777139D01*
X151777139Y-67637782D01*
X151832379Y-67555108D01*
X151885990Y-67510304D01*
X151935481Y-67500000D01*
X152416000Y-67500000D01*
X152483039Y-67519685D01*
X152528794Y-67572489D01*
X152540000Y-67624000D01*
X152540000Y-78791939D01*
X152538473Y-78811337D01*
X152534500Y-78836421D01*
X152534500Y-79013578D01*
X152538473Y-79038663D01*
X152540000Y-79058061D01*
X152540000Y-99876000D01*
X152520315Y-99943039D01*
X152467511Y-99988794D01*
X152416000Y-100000000D01*
X137424000Y-100000000D01*
X137356961Y-99980315D01*
X137311206Y-99927511D01*
X137300000Y-99876000D01*
X137300000Y-97412729D01*
X137319685Y-97345690D01*
X137336315Y-97325052D01*
X138665297Y-95996069D01*
X138705524Y-95969191D01*
X138729179Y-95959394D01*
X138860289Y-95871789D01*
X138971789Y-95760289D01*
X139059394Y-95629179D01*
X139119737Y-95483497D01*
X139150500Y-95328842D01*
X139150500Y-95171158D01*
X139150500Y-95171155D01*
X139150499Y-95171153D01*
X139119737Y-95016503D01*
X139118526Y-95013580D01*
X139059397Y-94870827D01*
X139059390Y-94870814D01*
X138971789Y-94739711D01*
X138971786Y-94739707D01*
X138860292Y-94628213D01*
X138860288Y-94628210D01*
X138729185Y-94540609D01*
X138729172Y-94540602D01*
X138583501Y-94480264D01*
X138583489Y-94480261D01*
X138428845Y-94449500D01*
X138428842Y-94449500D01*
X138271158Y-94449500D01*
X138271155Y-94449500D01*
X138116510Y-94480261D01*
X138116498Y-94480264D01*
X137970827Y-94540602D01*
X137970814Y-94540609D01*
X137839711Y-94628210D01*
X137839707Y-94628213D01*
X137728213Y-94739707D01*
X137728207Y-94739715D01*
X137640607Y-94870818D01*
X137640606Y-94870819D01*
X137630805Y-94894480D01*
X137626175Y-94901408D01*
X137625079Y-94906448D01*
X137603927Y-94934703D01*
X137511679Y-95026951D01*
X137450359Y-95060435D01*
X137380667Y-95055451D01*
X137324733Y-95013580D01*
X137300316Y-94948116D01*
X137300000Y-94939269D01*
X137300000Y-86874500D01*
X137319685Y-86807461D01*
X137372489Y-86761706D01*
X137424000Y-86750500D01*
X137945396Y-86750500D01*
X137992844Y-86759937D01*
X138016503Y-86769737D01*
X138016508Y-86769738D01*
X138016511Y-86769739D01*
X138171153Y-86800499D01*
X138171156Y-86800500D01*
X138171158Y-86800500D01*
X138328844Y-86800500D01*
X138328845Y-86800499D01*
X138483497Y-86769737D01*
X138629179Y-86709394D01*
X138760289Y-86621789D01*
X138871789Y-86510289D01*
X138959394Y-86379179D01*
X138963851Y-86368420D01*
X139019735Y-86233501D01*
X139019737Y-86233497D01*
X139050500Y-86078842D01*
X139050500Y-85921158D01*
X139050500Y-85921155D01*
X139050499Y-85921153D01*
X139019738Y-85766510D01*
X139019737Y-85766503D01*
X139019735Y-85766498D01*
X138959397Y-85620827D01*
X138959390Y-85620814D01*
X138871789Y-85489711D01*
X138871786Y-85489707D01*
X138760292Y-85378213D01*
X138760288Y-85378210D01*
X138629185Y-85290609D01*
X138629172Y-85290602D01*
X138483501Y-85230264D01*
X138483489Y-85230261D01*
X138328845Y-85199500D01*
X138328842Y-85199500D01*
X138171158Y-85199500D01*
X138171155Y-85199500D01*
X138016511Y-85230260D01*
X138016506Y-85230262D01*
X138016504Y-85230262D01*
X138016503Y-85230263D01*
X137992844Y-85240062D01*
X137945396Y-85249500D01*
X137424000Y-85249500D01*
X137356961Y-85229815D01*
X137311206Y-85177011D01*
X137300000Y-85125500D01*
X137300000Y-84524000D01*
X142344500Y-84524000D01*
X142344500Y-86226000D01*
X142344501Y-86226009D01*
X142356052Y-86333450D01*
X142356054Y-86333462D01*
X142367260Y-86384972D01*
X142401383Y-86487497D01*
X142401386Y-86487503D01*
X142479171Y-86608537D01*
X142479179Y-86608548D01*
X142524923Y-86661340D01*
X142524926Y-86661343D01*
X142524930Y-86661347D01*
X142633664Y-86755567D01*
X142633667Y-86755568D01*
X142633668Y-86755569D01*
X142727925Y-86798616D01*
X142764541Y-86815338D01*
X142831580Y-86835023D01*
X142831584Y-86835024D01*
X142974000Y-86855500D01*
X142974003Y-86855500D01*
X146525990Y-86855500D01*
X146526000Y-86855500D01*
X146633456Y-86843947D01*
X146684967Y-86832741D01*
X146719197Y-86821347D01*
X146787497Y-86798616D01*
X146787501Y-86798613D01*
X146787504Y-86798613D01*
X146908543Y-86720825D01*
X146961347Y-86675070D01*
X147055567Y-86566336D01*
X147115338Y-86435459D01*
X147135023Y-86368420D01*
X147135024Y-86368416D01*
X147155500Y-86226000D01*
X147155500Y-84524000D01*
X147143947Y-84416544D01*
X147132741Y-84365033D01*
X147132637Y-84364722D01*
X147098616Y-84262502D01*
X147098613Y-84262496D01*
X147020828Y-84141462D01*
X147020825Y-84141457D01*
X147020820Y-84141451D01*
X146975076Y-84088659D01*
X146975072Y-84088656D01*
X146975070Y-84088653D01*
X146866336Y-83994433D01*
X146866333Y-83994431D01*
X146866331Y-83994430D01*
X146735465Y-83934664D01*
X146735460Y-83934662D01*
X146735459Y-83934662D01*
X146668420Y-83914977D01*
X146668422Y-83914977D01*
X146668417Y-83914976D01*
X146606347Y-83906052D01*
X146526000Y-83894500D01*
X142974000Y-83894500D01*
X142973991Y-83894500D01*
X142973990Y-83894501D01*
X142866549Y-83906052D01*
X142866537Y-83906054D01*
X142815027Y-83917260D01*
X142712502Y-83951383D01*
X142712496Y-83951386D01*
X142591462Y-84029171D01*
X142591451Y-84029179D01*
X142538659Y-84074923D01*
X142444433Y-84183664D01*
X142444430Y-84183668D01*
X142384664Y-84314534D01*
X142364976Y-84381582D01*
X142359949Y-84416549D01*
X142344500Y-84524000D01*
X137300000Y-84524000D01*
X137300000Y-78836421D01*
X149994500Y-78836421D01*
X149994500Y-79013578D01*
X150022214Y-79188556D01*
X150076956Y-79357039D01*
X150076957Y-79357042D01*
X150157386Y-79514890D01*
X150261517Y-79658214D01*
X150386786Y-79783483D01*
X150530110Y-79887614D01*
X150607529Y-79927061D01*
X150687957Y-79968042D01*
X150687960Y-79968043D01*
X150772201Y-79995414D01*
X150856445Y-80022786D01*
X151031421Y-80050500D01*
X151031422Y-80050500D01*
X151208578Y-80050500D01*
X151208579Y-80050500D01*
X151383555Y-80022786D01*
X151552042Y-79968042D01*
X151709890Y-79887614D01*
X151853214Y-79783483D01*
X151978483Y-79658214D01*
X152082614Y-79514890D01*
X152163042Y-79357042D01*
X152217786Y-79188555D01*
X152245500Y-79013579D01*
X152245500Y-78836421D01*
X152217786Y-78661445D01*
X152163042Y-78492958D01*
X152163042Y-78492957D01*
X152082613Y-78335109D01*
X151978483Y-78191786D01*
X151853214Y-78066517D01*
X151709890Y-77962386D01*
X151552042Y-77881957D01*
X151552039Y-77881956D01*
X151383556Y-77827214D01*
X151296067Y-77813357D01*
X151208579Y-77799500D01*
X151031421Y-77799500D01*
X150973095Y-77808738D01*
X150856443Y-77827214D01*
X150687960Y-77881956D01*
X150687957Y-77881957D01*
X150530109Y-77962386D01*
X150448338Y-78021796D01*
X150386786Y-78066517D01*
X150386784Y-78066519D01*
X150386783Y-78066519D01*
X150261519Y-78191783D01*
X150261519Y-78191784D01*
X150261517Y-78191786D01*
X150216796Y-78253338D01*
X150157386Y-78335109D01*
X150076957Y-78492957D01*
X150076956Y-78492960D01*
X150022214Y-78661443D01*
X149994500Y-78836421D01*
X137300000Y-78836421D01*
X137300000Y-68061405D01*
X137319685Y-67994366D01*
X137372489Y-67948611D01*
X137441647Y-67938667D01*
X137471449Y-67946842D01*
X137508165Y-67962051D01*
X137508169Y-67962051D01*
X137508170Y-67962052D01*
X137701456Y-68000500D01*
X137701459Y-68000500D01*
X137898543Y-68000500D01*
X138028582Y-67974632D01*
X138091835Y-67962051D01*
X138273914Y-67886632D01*
X138437782Y-67777139D01*
X138577139Y-67637782D01*
X138632379Y-67555108D01*
X138685990Y-67510304D01*
X138735481Y-67500000D01*
X150064519Y-67500000D01*
X150131558Y-67519685D01*
G37*
%TD.AperFunction*%
%TD*%
%TA.AperFunction,Conductor*%
%TO.N,/HEAT_DISSIPATION*%
G36*
X136193039Y-97770185D02*
G01*
X136238794Y-97822989D01*
X136250000Y-97874500D01*
X136250000Y-115376000D01*
X136230315Y-115443039D01*
X136177511Y-115488794D01*
X136126000Y-115500000D01*
X125124000Y-115500000D01*
X125056961Y-115480315D01*
X125011206Y-115427511D01*
X125000000Y-115376000D01*
X125000000Y-97874500D01*
X125019685Y-97807461D01*
X125072489Y-97761706D01*
X125124000Y-97750500D01*
X136126000Y-97750500D01*
X136193039Y-97770185D01*
G37*
%TD.AperFunction*%
%TA.AperFunction,Conductor*%
G36*
X136193039Y-86770185D02*
G01*
X136238794Y-86822989D01*
X136250000Y-86874500D01*
X136250000Y-96125500D01*
X136230315Y-96192539D01*
X136177511Y-96238294D01*
X136126000Y-96249500D01*
X125124000Y-96249500D01*
X125056961Y-96229815D01*
X125011206Y-96177011D01*
X125000000Y-96125500D01*
X125000000Y-89112730D01*
X125019685Y-89045691D01*
X125036319Y-89025049D01*
X127274549Y-86786819D01*
X127335872Y-86753334D01*
X127362230Y-86750500D01*
X136126000Y-86750500D01*
X136193039Y-86770185D01*
G37*
%TD.AperFunction*%
%TA.AperFunction,Conductor*%
G36*
X136193039Y-66019685D02*
G01*
X136238794Y-66072489D01*
X136250000Y-66124000D01*
X136250000Y-85125500D01*
X136230315Y-85192539D01*
X136177511Y-85238294D01*
X136126000Y-85249500D01*
X126926080Y-85249500D01*
X126781092Y-85278340D01*
X126781086Y-85278342D01*
X126644508Y-85334914D01*
X126644496Y-85334921D01*
X126595269Y-85367813D01*
X126521588Y-85417044D01*
X126521580Y-85417050D01*
X125211681Y-86726950D01*
X125150358Y-86760435D01*
X125080666Y-86755451D01*
X125024733Y-86713579D01*
X125000316Y-86648115D01*
X125000000Y-86639269D01*
X125000000Y-66124000D01*
X125019685Y-66056961D01*
X125072489Y-66011206D01*
X125124000Y-66000000D01*
X136126000Y-66000000D01*
X136193039Y-66019685D01*
G37*
%TD.AperFunction*%
%TD*%
M02*
